<?xml version="1.0" encoding="utf-8"?>
<!-- Generator: Adobe Illustrator 18.1.1, SVG Export Plug-In . SVG Version: 6.00 Build 0)  -->
<!DOCTYPE svg PUBLIC "-//W3C//DTD SVG 1.0//EN" "http://www.w3.org/TR/2001/REC-SVG-20010904/DTD/svg10.dtd">
<svg version="1.0" id="Layer_1" xmlns="http://www.w3.org/2000/svg" xmlns:xlink="http://www.w3.org/1999/xlink" x="0px" y="0px"
	 width="220px" height="220px" viewBox="0 0 220 220" enable-background="new 0 0 220 220" xml:space="preserve">
<g>
	<path fill="#762057" d="M110,213.2C53.1,213.2,6.8,166.9,6.8,110S53.1,6.8,110,6.8S213.2,53.1,213.2,110S166.9,213.2,110,213.2z
		 M110,10.7c-54.7,0-99.2,44.5-99.2,99.3s44.5,99.3,99.2,99.3s99.2-44.5,99.2-99.3S164.7,10.7,110,10.7z"/>
	<path fill="#762057" d="M108.1,220c-1.3,0-2.7-0.1-4-0.1l0.1-1.3c1.3,0.1,2.6,0.1,3.9,0.1L108.1,220z M112,220l0-1.3
		c1.3,0,2.6-0.1,3.9-0.1l0.1,1.3C114.7,219.9,113.4,220,112,220z M100.1,219.6c-1.3-0.1-2.6-0.3-3.9-0.4l0.2-1.3
		c1.3,0.2,2.6,0.3,3.9,0.4L100.1,219.6z M120,219.6l-0.1-1.3c1.3-0.1,2.6-0.3,3.9-0.4l0.2,1.3C122.6,219.3,121.3,219.5,120,219.6z
		 M92.3,218.6c-1.3-0.2-2.6-0.4-3.9-0.7l0.3-1.3c1.3,0.3,2.6,0.5,3.9,0.7L92.3,218.6z M127.8,218.6l-0.2-1.3
		c1.3-0.2,2.6-0.4,3.9-0.7l0.3,1.3C130.5,218.1,129.2,218.4,127.8,218.6z M84.5,217c-1.3-0.3-2.6-0.6-3.8-1l0.4-1.3
		c1.3,0.3,2.5,0.7,3.8,1L84.5,217z M135.6,217l-0.3-1.3c1.3-0.3,2.5-0.6,3.8-1l0.4,1.3C138.2,216.4,136.9,216.7,135.6,217z
		 M76.8,214.9c-1.3-0.4-2.5-0.8-3.8-1.3l0.4-1.2c1.2,0.4,2.5,0.9,3.7,1.3L76.8,214.9z M143.3,214.9l-0.4-1.3
		c1.2-0.4,2.5-0.8,3.7-1.3l0.4,1.2C145.8,214.1,144.5,214.5,143.3,214.9z M69.3,212.2c-1.2-0.5-2.5-1-3.7-1.5l0.5-1.2
		c1.2,0.5,2.4,1,3.6,1.5L69.3,212.2z M150.8,212.2l-0.5-1.2c1.2-0.5,2.4-1,3.6-1.5l0.5,1.2C153.2,211.2,152,211.7,150.8,212.2z
		 M62,209c-1.2-0.6-2.4-1.2-3.5-1.8l0.6-1.2c1.2,0.6,2.3,1.2,3.5,1.8L62,209z M158,209l-0.6-1.2c1.2-0.6,2.3-1.2,3.5-1.8l0.6,1.2
		C160.4,207.8,159.2,208.4,158,209z M55,205.3c-1.1-0.7-2.3-1.3-3.4-2.1l0.7-1.1c1.1,0.7,2.2,1.4,3.4,2L55,205.3z M165,205.3
		l-0.7-1.1c1.1-0.7,2.2-1.3,3.4-2l0.7,1.1C167.3,204,166.1,204.6,165,205.3z M171.7,201.1L171,200c1.1-0.7,2.1-1.5,3.2-2.3l0.8,1.1
		C173.9,199.6,172.8,200.3,171.7,201.1z M48.3,201.1c-1.1-0.7-2.2-1.5-3.2-2.3l0.8-1.1c1.1,0.8,2.1,1.5,3.2,2.3L48.3,201.1z
		 M178.1,196.4l-0.8-1c1-0.8,2-1.6,3-2.5l0.9,1C180.2,194.7,179.2,195.6,178.1,196.4z M41.9,196.4c-1-0.8-2.1-1.7-3.1-2.5l0.9-1
		c1,0.8,2,1.7,3,2.5L41.9,196.4z M184.2,191.3l-0.9-1c1-0.9,1.9-1.8,2.8-2.7l0.9,0.9C186.1,189.4,185.1,190.4,184.2,191.3z
		 M35.8,191.2c-1-0.9-1.9-1.8-2.9-2.7l0.9-0.9c0.9,0.9,1.9,1.8,2.8,2.7L35.8,191.2z M189.8,185.7l-1-0.9c0.9-0.9,1.8-1.9,2.6-2.9
		l1,0.9C191.6,183.8,190.7,184.7,189.8,185.7z M30.1,185.7c-0.9-1-1.8-1.9-2.7-2.9l1-0.9c0.9,1,1.7,1.9,2.6,2.9L30.1,185.7z
		 M195.1,179.7l-1-0.8c0.8-1,1.6-2,2.4-3.1l1,0.8C196.7,177.7,195.9,178.7,195.1,179.7z M24.9,179.7c-0.8-1-1.7-2.1-2.5-3.1l1-0.8
		c0.8,1,1.6,2.1,2.4,3.1L24.9,179.7z M199.9,173.4l-1.1-0.8c0.8-1.1,1.5-2.2,2.2-3.2l1.1,0.7C201.4,171.2,200.7,172.3,199.9,173.4z
		 M20.1,173.4c-0.8-1.1-1.5-2.2-2.2-3.3l1.1-0.7c0.7,1.1,1.4,2.2,2.2,3.2L20.1,173.4z M15.8,166.8c-0.7-1.1-1.3-2.3-2-3.4l1.2-0.6
		c0.6,1.1,1.3,2.3,2,3.4L15.8,166.8z M204.3,166.8l-1.1-0.7c0.7-1.1,1.3-2.3,2-3.4l1.2,0.6C205.6,164.5,204.9,165.6,204.3,166.8z
		 M11.9,159.8c-0.6-1.2-1.2-2.4-1.7-3.6l1.2-0.6c0.6,1.2,1.1,2.4,1.7,3.5L11.9,159.8z M208.1,159.8l-1.2-0.6
		c0.6-1.2,1.2-2.3,1.7-3.5l1.2,0.6C209.3,157.4,208.7,158.6,208.1,159.8z M8.6,152.7c-0.5-1.2-1-2.4-1.5-3.7l1.2-0.5
		c0.5,1.2,0.9,2.4,1.5,3.6L8.6,152.7z M211.5,152.6l-1.2-0.5c0.5-1.2,1-2.4,1.5-3.7l1.2,0.5C212.5,150.1,212,151.4,211.5,152.6z
		 M5.8,145.2c-0.4-1.3-0.8-2.5-1.2-3.8l1.3-0.4c0.4,1.3,0.8,2.5,1.2,3.7L5.8,145.2z M214.3,145.1l-1.2-0.4c0.4-1.2,0.8-2.5,1.2-3.7
		l1.3,0.4C215.1,142.6,214.7,143.9,214.3,145.1z M3.5,137.6c-0.3-1.3-0.6-2.6-0.9-3.9l1.3-0.3c0.3,1.3,0.6,2.6,0.9,3.8L3.5,137.6z
		 M216.5,137.5l-1.3-0.3c0.3-1.3,0.6-2.5,0.9-3.8l1.3,0.3C217.2,134.9,216.9,136.2,216.5,137.5z M1.8,129.9
		c-0.2-1.3-0.5-2.6-0.6-3.9l1.3-0.2c0.2,1.3,0.4,2.6,0.6,3.9L1.8,129.9z M218.2,129.8l-1.3-0.2c0.2-1.3,0.4-2.6,0.6-3.9l1.3,0.2
		C218.7,127.2,218.5,128.5,218.2,129.8z M0.6,122c-0.1-1.3-0.3-2.6-0.4-4l1.3-0.1c0.1,1.3,0.2,2.6,0.4,3.9L0.6,122z M219.4,121.9
		l-1.3-0.1c0.1-1.3,0.3-2.6,0.3-3.9l1.3,0.1C219.6,119.3,219.5,120.6,219.4,121.9z M0.1,114.1c0-1.3-0.1-2.6-0.1-4l1.3,0
		c0,1.3,0,2.6,0.1,3.9L0.1,114.1z M219.9,114l-1.3,0c0-1.3,0.1-2.6,0.1-3.9l0-0.2h1.3l0,0.2C220,111.3,220,112.7,219.9,114z
		 M1.4,106.2l-1.3,0c0-1.3,0.1-2.6,0.2-4l1.3,0.1C1.5,103.6,1.4,104.9,1.4,106.2z M218.6,105.9c0-1.3-0.1-2.6-0.2-3.9l1.3-0.1
		c0.1,1.3,0.2,2.6,0.2,4L218.6,105.9z M1.9,98.4l-1.3-0.1c0.1-1.3,0.3-2.6,0.5-3.9l1.3,0.2C2.2,95.8,2.1,97.1,1.9,98.4z M218,98
		c-0.1-1.3-0.3-2.6-0.5-3.9l1.3-0.2c0.2,1.3,0.4,2.6,0.5,3.9L218,98z M3,90.6l-1.3-0.2c0.2-1.3,0.5-2.6,0.8-3.9l1.3,0.3
		C3.5,88,3.3,89.3,3,90.6z M216.9,90.3c-0.2-1.3-0.5-2.6-0.8-3.8l1.3-0.3c0.3,1.3,0.5,2.6,0.8,3.9L216.9,90.3z M4.7,82.9l-1.3-0.3
		c0.3-1.3,0.7-2.6,1.1-3.8l1.3,0.4C5.4,80.4,5,81.7,4.7,82.9z M215.2,82.6c-0.3-1.3-0.7-2.5-1.1-3.8l1.3-0.4
		c0.4,1.3,0.7,2.5,1.1,3.8L215.2,82.6z M6.9,75.4L5.7,75c0.4-1.3,0.9-2.5,1.3-3.8l1.2,0.5C7.8,72.9,7.4,74.2,6.9,75.4z M213,75.1
		c-0.4-1.2-0.9-2.5-1.3-3.7l1.2-0.5c0.5,1.2,0.9,2.5,1.3,3.7L213,75.1z M9.7,68l-1.2-0.5c0.5-1.2,1-2.4,1.6-3.6l1.2,0.6
		C10.7,65.6,10.2,66.8,9.7,68z M210.2,67.8c-0.5-1.2-1-2.4-1.6-3.6l1.2-0.6c0.6,1.2,1.1,2.4,1.6,3.6L210.2,67.8z M13,60.9l-1.2-0.6
		c0.6-1.2,1.2-2.4,1.9-3.5l1.2,0.6C14.2,58.6,13.6,59.7,13,60.9z M206.9,60.7c-0.6-1.2-1.2-2.3-1.8-3.5l1.2-0.6
		c0.6,1.2,1.3,2.3,1.9,3.5L206.9,60.7z M16.8,54l-1.1-0.7c0.7-1.1,1.4-2.3,2.1-3.4l1.1,0.7C18.2,51.8,17.5,52.9,16.8,54z
		 M203.1,53.8c-0.7-1.1-1.4-2.2-2.1-3.3l1.1-0.7c0.7,1.1,1.4,2.2,2.1,3.4L203.1,53.8z M21.1,47.5L20,46.7c0.8-1.1,1.5-2.2,2.3-3.2
		l1,0.8C22.6,45.3,21.9,46.4,21.1,47.5z M198.8,47.3c-0.8-1.1-1.5-2.1-2.3-3.2l1-0.8c0.8,1.1,1.6,2.1,2.4,3.2L198.8,47.3z
		 M25.9,41.2l-1-0.8c0.8-1,1.7-2,2.6-3l1,0.9C27.5,39.2,26.7,40.2,25.9,41.2z M194,41.1c-0.8-1-1.7-2-2.5-3l1-0.9c0.9,1,1.7,2,2.6,3
		L194,41.1z M31,35.3l-1-0.9c0.9-1,1.8-1.9,2.8-2.8l0.9,0.9C32.9,33.4,31.9,34.4,31,35.3z M188.8,35.2c-0.9-0.9-1.8-1.9-2.8-2.8
		l0.9-0.9c0.9,0.9,1.9,1.9,2.8,2.8L188.8,35.2z M36.6,29.8l-0.9-1c1-0.9,2-1.8,3-2.6l0.9,1C38.6,28.1,37.6,28.9,36.6,29.8z
		 M183.2,29.7c-1-0.9-1.9-1.7-2.9-2.6l0.9-1c1,0.9,2,1.7,3,2.6L183.2,29.7z M42.6,24.7l-0.8-1c1-0.8,2.1-1.6,3.2-2.4l0.8,1.1
		C44.7,23.1,43.6,23.9,42.6,24.7z M177.2,24.6c-1-0.8-2.1-1.6-3.1-2.4l0.8-1.1c1.1,0.8,2.1,1.6,3.2,2.4L177.2,24.6z M48.9,20.1
		L48.2,19c1.1-0.7,2.2-1.5,3.3-2.2l0.7,1.1C51.1,18.6,50,19.4,48.9,20.1z M170.9,20c-1.1-0.7-2.2-1.4-3.3-2.1l0.7-1.1
		c1.1,0.7,2.2,1.4,3.3,2.2L170.9,20z M55.6,15.9l-0.7-1.1c1.1-0.7,2.3-1.3,3.5-1.9L59,14C57.8,14.6,56.7,15.3,55.6,15.9z
		 M164.2,15.8c-1.1-0.7-2.3-1.3-3.4-1.9l0.6-1.2c1.2,0.6,2.3,1.3,3.5,1.9L164.2,15.8z M62.5,12.2L61.9,11c1.2-0.6,2.4-1.1,3.6-1.7
		l0.5,1.2C64.8,11.1,63.6,11.7,62.5,12.2z M157.3,12.1c-1.2-0.6-2.4-1.1-3.6-1.6l0.5-1.2c1.2,0.5,2.4,1.1,3.6,1.7L157.3,12.1z
		 M69.6,9.1l-0.5-1.2c1.2-0.5,2.5-1,3.7-1.4l0.4,1.2C72.1,8.1,70.8,8.6,69.6,9.1z M150.1,9c-1.2-0.5-2.4-0.9-3.7-1.4l0.4-1.2
		c1.3,0.4,2.5,0.9,3.7,1.4L150.1,9z M77,6.4l-0.4-1.3c1.3-0.4,2.5-0.8,3.8-1.1l0.4,1.3C79.5,5.6,78.3,6,77,6.4z M142.7,6.3
		c-1.2-0.4-2.5-0.8-3.8-1.1l0.3-1.3c1.3,0.4,2.5,0.7,3.8,1.1L142.7,6.3z M84.6,4.3L84.3,3c1.3-0.3,2.6-0.6,3.9-0.9l0.3,1.3
		C87.1,3.7,85.8,4,84.6,4.3z M135.1,4.2c-1.3-0.3-2.5-0.6-3.8-0.8l0.3-1.3c1.3,0.3,2.6,0.5,3.9,0.8L135.1,4.2z M92.3,2.8L92,1.5
		c1.3-0.2,2.6-0.4,3.9-0.6l0.2,1.3C94.8,2.4,93.5,2.5,92.3,2.8z M127.4,2.7c-1.3-0.2-2.6-0.4-3.9-0.6l0.2-1.3
		c1.3,0.2,2.6,0.4,3.9,0.6L127.4,2.7z M100,1.8l-0.1-1.3c1.3-0.1,2.6-0.2,4-0.3l0.1,1.3C102.6,1.6,101.3,1.6,100,1.8z M119.6,1.7
		c-1.3-0.1-2.6-0.2-3.9-0.3l0.1-1.3c1.3,0.1,2.6,0.2,4,0.3L119.6,1.7z M107.9,1.3l0-1.3c1.3,0,2.6,0,4,0l0,1.3
		C110.5,1.3,109.2,1.3,107.9,1.3z"/>
</g>
<g>
	<g>
		<path fill="#762057" d="M155.8,97.5c0-4.2,3.3-7.5,7.5-7.5c4.1,0,7.5,3.3,7.5,7.5s-3.4,7.5-7.5,7.5
			C159.1,104.9,155.8,101.6,155.8,97.5z M167.5,97.5c0-2.3-1.9-4.2-4.2-4.2c-2.4,0-4.3,1.9-4.3,4.2c0,2.4,1.9,4.3,4.3,4.3
			C165.6,101.8,167.5,99.9,167.5,97.5z M180,91.1c0.2-0.4,0.5-0.6,0.9-0.6h0.9c0.8,0,1.3,0.8,0.9,1.5l-19.1,36.8
			c-0.1,0.2-0.4,0.6-0.9,0.6h-0.8c-0.8,0-1.3-0.8-0.9-1.5L180,91.1z M180.8,115.1c4.1,0,7.5,3.3,7.5,7.5c0,4.2-3.4,7.5-7.5,7.5
			c-4.2,0-7.5-3.3-7.5-7.5C173.3,118.4,176.7,115.1,180.8,115.1z M180.8,126.9c2.3,0,4.2-1.9,4.2-4.3c0-2.3-1.9-4.2-4.2-4.2
			c-2.4,0-4.3,1.9-4.3,4.2C176.5,125,178.4,126.9,180.8,126.9z"/>
	</g>
	<rect x="155.8" y="80.2" fill="#762057" width="32.5" height="2.9"/>
	<rect x="155.8" y="135.1" fill="#762057" width="32.5" height="2.9"/>
	<g>
		<path fill="#762057" d="M34.4,146.3l30.4-63.4H33.9c-1.2,0-2.2-1.1-2.2-2.2v-8.2c0-1.2,1.1-2.2,2.2-2.2h48.6
			c1.2,0,2.2,1.1,2.2,2.2v0.8l-34.8,73.3c-0.8,1.9-2,3.2-4,3.2h-8.7c-1.4,0-2.9-0.4-2.9-2.2V146.3z"/>
		<path fill="#762057" d="M86.8,110c0-25.6,10.8-40.9,29.5-40.9s29.5,15.3,29.5,40.9s-10.8,40.9-29.5,40.9S86.8,135.6,86.8,110z
			 M130.4,110c0-17.3-5.1-27.1-14.2-27.1s-14.2,9.8-14.2,27.1c0,17.4,5.1,27.1,14.2,27.1S130.4,127.4,130.4,110z"/>
	</g>
</g>
</svg>
