<?xml version="1.0" encoding="utf-8"?>
<!-- Generator: Adobe Illustrator 18.1.1, SVG Export Plug-In . SVG Version: 6.00 Build 0)  -->
<!DOCTYPE svg PUBLIC "-//W3C//DTD SVG 1.0//EN" "http://www.w3.org/TR/2001/REC-SVG-20010904/DTD/svg10.dtd">
<svg version="1.0" id="Layer_1" xmlns="http://www.w3.org/2000/svg" xmlns:xlink="http://www.w3.org/1999/xlink" x="0px" y="0px"
	 width="220px" height="220px" viewBox="0 0 220 220" enable-background="new 0 0 220 220" xml:space="preserve">
<g>
	<path fill="#762057" d="M104.7,215.7c-1.1-0.1-1.9-1-1.9-2.1l0,0c0.1-1.1,1-1.9,2.1-1.9l0,0c1.1,0.1,1.9,1,1.9,2.1l0,0
		C106.7,214.9,105.8,215.7,104.7,215.7L104.7,215.7C104.8,215.7,104.7,215.7,104.7,215.7z M113.3,213.8c-0.1-1.1,0.8-2,1.9-2.1l0,0
		c1.1-0.1,2,0.8,2.1,1.9l0,0c0.1,1.1-0.8,2-1.9,2.1l0,0c0,0,0,0,0,0l0,0c0,0-0.1,0-0.1,0l0,0C114.3,215.7,113.4,214.9,113.3,213.8z
		 M94,214.6c-1.1-0.2-1.8-1.2-1.7-2.3l0,0c0.2-1.1,1.2-1.8,2.3-1.6l0,0c1.1,0.2,1.8,1.2,1.7,2.2l0,0c-0.1,1-1,1.7-1.9,1.7l0,0
		C94.2,214.7,94.1,214.6,94,214.6z M123.8,213c-0.2-1.1,0.6-2.1,1.7-2.3l0,0c1.1-0.2,2.1,0.6,2.3,1.7l0,0c0.2,1.1-0.6,2.1-1.7,2.3
		l0,0c-0.1,0-0.2,0-0.3,0l0,0C124.8,214.6,124,213.9,123.8,213z M83.5,212.5L83.5,212.5L83.5,212.5c-1.1-0.3-1.7-1.4-1.4-2.4l0,0
		c0.3-1.1,1.3-1.7,2.4-1.4l0,0c1.1,0.3,1.7,1.4,1.4,2.4l0,0c-0.2,0.9-1,1.5-1.9,1.5l0,0C83.9,212.6,83.7,212.5,83.5,212.5z
		 M134.2,211c-0.3-1.1,0.4-2.1,1.4-2.4l0,0c1.1-0.3,2.1,0.4,2.4,1.4l0,0c0.3,1.1-0.4,2.1-1.4,2.4l0,0c-0.2,0-0.3,0.1-0.5,0.1l0,0
		C135.2,212.5,134.4,211.9,134.2,211z M73.3,209.3c-1-0.4-1.5-1.5-1.2-2.5l0,0c0.4-1,1.5-1.5,2.5-1.2l0,0c1,0.4,1.6,1.5,1.2,2.5l0,0
		c-0.3,0.8-1.1,1.3-1.9,1.3l0,0C73.8,209.4,73.5,209.4,73.3,209.3z M144.3,208.1c-0.4-1,0.1-2.2,1.2-2.5l0,0c1-0.4,2.2,0.1,2.5,1.2
		l0,0c0.4,1-0.1,2.2-1.2,2.5l0,0l0,0l0,0c-0.2,0.1-0.5,0.1-0.7,0.1l0,0C145.3,209.4,144.6,208.9,144.3,208.1z M63.5,205.1
		c-1-0.5-1.4-1.7-0.9-2.6l0,0c0.5-1,1.7-1.4,2.6-0.9l0,0c1,0.5,1.4,1.7,0.9,2.6l0,0c-0.3,0.7-1.1,1.1-1.8,1.1l0,0
		C64,205.3,63.7,205.2,63.5,205.1z M154,204.1c-0.5-1-0.1-2.2,0.9-2.6l0,0c1-0.5,2.2-0.1,2.6,0.9l0,0c0.5,1,0.1,2.2-0.9,2.6l0,0l0,0
		l0,0c-0.3,0.1-0.6,0.2-0.9,0.2l0,0C155.1,205.2,154.3,204.8,154,204.1z M54.1,199.9c-0.9-0.6-1.2-1.8-0.6-2.7l0,0
		c0.6-0.9,1.8-1.2,2.7-0.6l0,0c0.9,0.6,1.2,1.8,0.6,2.7l0,0c-0.4,0.6-1,0.9-1.7,0.9l0,0C54.8,200.2,54.4,200.1,54.1,199.9z
		 M163.3,199.2c-0.6-0.9-0.3-2.1,0.6-2.7l0,0c0.9-0.6,2.1-0.3,2.7,0.6l0,0c0.6,0.9,0.3,2.1-0.6,2.7l0,0c-0.3,0.2-0.7,0.3-1,0.3l0,0
		C164.3,200.1,163.7,199.8,163.3,199.2z M45.3,193.7c-0.9-0.7-1-1.9-0.4-2.8l0,0c0.7-0.9,1.9-1,2.8-0.4l0,0c0.9,0.7,1,1.9,0.4,2.8
		l0,0c-0.4,0.5-1,0.8-1.6,0.8l0,0C46.1,194.2,45.6,194,45.3,193.7z M172,193.3c-0.7-0.9-0.5-2.1,0.4-2.8l0,0
		c0.9-0.7,2.1-0.5,2.8,0.4l0,0c0.7,0.9,0.5,2.1-0.3,2.8l0,0c-0.4,0.3-0.8,0.4-1.2,0.4l0,0C173,194.1,172.4,193.8,172,193.3z
		 M37.1,186.8c-0.8-0.7-0.8-2-0.1-2.8l0,0c0.8-0.8,2-0.8,2.8-0.1l0,0c0.8,0.8,0.8,2,0.1,2.8l0,0c-0.4,0.4-0.9,0.6-1.4,0.6l0,0
		C38,187.3,37.5,187.1,37.1,186.8z M180.1,186.6c-0.8-0.8-0.7-2,0.1-2.8l0,0c0.8-0.8,2-0.7,2.8,0.1l0,0c0.8,0.8,0.7,2-0.1,2.8l0,0
		c-0.4,0.4-0.9,0.5-1.4,0.5l0,0C181.1,187.2,180.5,187,180.1,186.6z M29.8,179c-0.7-0.8-0.6-2.1,0.2-2.8l0,0
		c0.8-0.7,2.1-0.6,2.8,0.2l0,0c0.7,0.8,0.6,2.1-0.2,2.8l0,0c-0.4,0.3-0.8,0.5-1.3,0.5l0,0C30.7,179.7,30.1,179.5,29.8,179z
		 M187.5,179.1c-0.8-0.7-0.9-2-0.2-2.8l0,0c0.7-0.8,2-0.9,2.8-0.2l0,0c0.8,0.7,0.9,2,0.2,2.8l0,0l0,0l0,0c-0.4,0.4-0.9,0.7-1.5,0.7
		l0,0C188.4,179.6,187.9,179.4,187.5,179.1z M23.2,170.5c-0.6-0.9-0.4-2.1,0.5-2.8l0,0c0.9-0.6,2.1-0.4,2.8,0.5l0,0
		c0.6,0.9,0.4,2.1-0.5,2.7l0,0c-0.3,0.3-0.7,0.4-1.1,0.4l0,0C24.2,171.4,23.6,171.1,23.2,170.5z M194.1,170.9
		c-0.9-0.6-1.1-1.9-0.5-2.8l0,0c0.6-0.9,1.9-1.1,2.8-0.5l0,0c0.9,0.6,1.1,1.9,0.5,2.8l0,0c-0.4,0.6-1,0.9-1.6,0.9l0,0
		C194.9,171.3,194.5,171.2,194.1,170.9z M17.5,161.4L17.5,161.4L17.5,161.4c-0.5-0.9-0.2-2.1,0.8-2.7l0,0c1-0.5,2.2-0.2,2.7,0.8l0,0
		c0.5,1,0.2,2.2-0.8,2.7l0,0c-0.3,0.2-0.6,0.3-1,0.3l0,0C18.5,162.5,17.9,162.1,17.5,161.4z M199.9,162.1c-0.9-0.5-1.3-1.7-0.8-2.7
		l0,0c0.5-0.9,1.7-1.3,2.7-0.8l0,0c0.9,0.5,1.3,1.7,0.8,2.7l0,0c-0.4,0.6-1,1-1.7,1l0,0C200.5,162.4,200.2,162.3,199.9,162.1z
		 M12.8,151.8c-0.4-1,0-2.2,1-2.6l0,0c1-0.4,2.2,0,2.6,1l0,0c0.4,1,0,2.2-1,2.6l0,0c-0.3,0.1-0.5,0.2-0.8,0.2l0,0
		C13.8,153,13.1,152.6,12.8,151.8z M204.7,152.8c-1-0.4-1.5-1.6-1-2.6l0,0c0.4-1,1.6-1.5,2.6-1l0,0c1,0.4,1.5,1.6,1,2.6l0,0
		c-0.3,0.8-1,1.2-1.8,1.2l0,0C205.2,152.9,205,152.9,204.7,152.8z M9,141.8c-0.3-1,0.3-2.1,1.3-2.5l0,0c1-0.3,2.1,0.3,2.5,1.3l0,0
		c0.3,1-0.3,2.1-1.3,2.5l0,0c-0.2,0.1-0.4,0.1-0.6,0.1l0,0C10.1,143.2,9.3,142.6,9,141.8z M208.5,143c-1-0.3-1.6-1.4-1.3-2.5l0,0
		c0.3-1,1.4-1.6,2.5-1.3l0,0c1,0.3,1.6,1.4,1.3,2.5l0,0c0,0,0,0,0,0l0,0c-0.3,0.8-1,1.4-1.9,1.4l0,0
		C208.9,143.1,208.7,143,208.5,143z M6.3,131.4c-0.2-1.1,0.5-2.1,1.5-2.3l0,0c1.1-0.2,2.1,0.5,2.3,1.5l0,0c0.2,1.1-0.5,2.1-1.5,2.3
		l0,0c-0.1,0-0.3,0-0.4,0l0,0C7.4,133,6.5,132.3,6.3,131.4z M211.3,132.8c-1.1-0.2-1.8-1.3-1.5-2.3l0,0c0.2-1.1,1.3-1.8,2.3-1.5l0,0
		c1.1,0.2,1.8,1.3,1.5,2.3l0,0c-0.2,0.9-1,1.6-1.9,1.6l0,0C211.6,132.9,211.5,132.9,211.3,132.8z M4.7,120.8L4.7,120.8L4.7,120.8
		c-0.1-1.1,0.7-2.1,1.8-2.2l0,0c1.1-0.1,2.1,0.7,2.2,1.8l0,0c0.1,1.1-0.7,2.1-1.8,2.2l0,0c-0.1,0-0.1,0-0.2,0l0,0
		C5.7,122.6,4.8,121.8,4.7,120.8z M213.1,122.5c-1.1-0.1-1.9-1.1-1.8-2.2l0,0c0.1-1.1,1.1-1.9,2.2-1.8l0,0c1.1,0.1,1.9,1.1,1.8,2.2
		l0,0c-0.1,1-1,1.8-2,1.8l0,0C213.3,122.5,213.2,122.5,213.1,122.5z M4.2,110.1c0-1.1,0.9-2,2-2l0,0c1.1,0,2,0.9,2,2l0,0
		c0,1.1-0.9,2-2,2l0,0C5.1,112.1,4.2,111.2,4.2,110.1z M211.9,110c0,0,0-0.1,0-0.1l0,0c0,0,0-0.1,0-0.1l0,0c0-1.1,0.9-2,2-2l0,0
		c1.1,0,2,0.9,2,2l0,0c0,0,0,0.1,0,0.1l0,0c0,0,0,0.1,0,0.1l0,0c0,1.1-0.9,2-2,2l0,0C212.8,112,211.9,111.1,211.9,110z M211.9,109.8
		L211.9,109.8L211.9,109.8L211.9,109.8L211.9,109.8z M6.5,101.6c-1.1-0.1-1.9-1.1-1.8-2.2l0,0c0.1-1.1,1.1-1.9,2.2-1.8l0,0
		c1.1,0.1,1.9,1.1,1.8,2.2l0,0c-0.1,1-1,1.8-2,1.8l0,0C6.6,101.6,6.5,101.6,6.5,101.6z M211.3,99.5L211.3,99.5
		c-0.1-1.1,0.7-2.1,1.8-2.2l0,0c1.1-0.1,2.1,0.7,2.2,1.8l0,0c0,0,0,0,0,0l0,0c0.1,1.1-0.7,2.1-1.8,2.2l0,0c-0.1,0-0.1,0-0.2,0l0,0
		C212.3,101.2,211.4,100.5,211.3,99.5z M7.8,91.1c-1.1-0.2-1.8-1.3-1.5-2.3l0,0c0.2-1.1,1.3-1.8,2.3-1.5l0,0
		c1.1,0.2,1.8,1.3,1.5,2.3l0,0c-0.2,0.9-1,1.6-1.9,1.6l0,0C8.1,91.2,8,91.2,7.8,91.1z M209.8,89.3c-0.2-1.1,0.5-2.1,1.5-2.3l0,0
		c1.1-0.2,2.1,0.5,2.3,1.5l0,0l0,0l0,0c0.2,1.1-0.5,2.1-1.5,2.3l0,0c-0.1,0-0.3,0.1-0.4,0.1l0,0C210.8,90.9,210,90.2,209.8,89.3z
		 M10.3,80.9c-1-0.3-1.6-1.4-1.3-2.5l0,0l0,0l0,0c0.3-1,1.4-1.6,2.5-1.3l0,0c1,0.3,1.6,1.4,1.3,2.5l0,0c-0.3,0.8-1,1.4-1.9,1.4l0,0
		C10.6,81,10.4,81,10.3,80.9z M207.2,79.3c-0.3-1,0.2-2.2,1.3-2.5l0,0c1-0.3,2.2,0.3,2.5,1.3l0,0c0.3,1-0.3,2.1-1.3,2.5l0,0
		c-0.2,0.1-0.4,0.1-0.6,0.1l0,0C208.2,80.7,207.4,80.1,207.2,79.3z M13.7,71c-1-0.4-1.5-1.6-1-2.6l0,0c0.4-1,1.6-1.5,2.6-1l0,0
		c1,0.4,1.5,1.6,1,2.6l0,0c-0.3,0.8-1,1.2-1.8,1.2l0,0C14.2,71.1,14,71.1,13.7,71z M203.6,69.6c-0.4-1,0-2.2,1-2.6l0,0
		c1-0.4,2.2,0,2.6,1l0,0c0.4,1,0,2.2-1,2.6l0,0c-0.3,0.1-0.5,0.2-0.8,0.2l0,0C204.6,70.8,203.9,70.4,203.6,69.6z M18.2,61.4
		c-0.9-0.5-1.3-1.7-0.8-2.7l0,0c0.5-0.9,1.7-1.3,2.7-0.8l0,0c0.9,0.5,1.3,1.7,0.8,2.7l0,0c-0.4,0.7-1,1-1.7,1l0,0
		C18.8,61.7,18.5,61.6,18.2,61.4z M199,60.4L199,60.4c-0.5-0.9-0.2-2.2,0.8-2.7l0,0c0.9-0.5,2.1-0.2,2.7,0.8l0,0l0,0l0,0
		c0.5,0.9,0.2,2.2-0.8,2.7l0,0c-0.3,0.2-0.6,0.3-1,0.3l0,0C200,61.4,199.4,61,199,60.4z M23.5,52.4c-0.9-0.6-1.1-1.9-0.5-2.8l0,0
		c0.6-0.9,1.9-1.1,2.8-0.5l0,0c0.9,0.6,1.1,1.9,0.5,2.8l0,0c-0.4,0.6-1,0.9-1.6,0.9l0,0C24.3,52.8,23.9,52.6,23.5,52.4z M193.5,51.6
		c-0.6-0.9-0.4-2.1,0.5-2.8l0,0c0.9-0.6,2.1-0.4,2.8,0.5l0,0c0.6,0.9,0.4,2.1-0.5,2.8l0,0c-0.3,0.3-0.7,0.4-1.1,0.4l0,0
		C194.5,52.5,193.9,52.2,193.5,51.6z M29.8,44c-0.8-0.7-0.9-2-0.2-2.8l0,0c0.7-0.8,1.9-0.9,2.8-0.2l0,0c0.8,0.7,0.9,1.9,0.2,2.8l0,0
		c-0.4,0.5-0.9,0.7-1.5,0.7l0,0C30.6,44.4,30.2,44.3,29.8,44z M187.2,43.5c-0.7-0.8-0.6-2.1,0.2-2.8l0,0c0.8-0.7,2.1-0.6,2.8,0.2
		l0,0c0.7,0.8,0.6,2.1-0.2,2.8l0,0c-0.4,0.3-0.8,0.5-1.3,0.5l0,0C188.1,44.2,187.6,43.9,187.2,43.5z M36.9,36.2
		c-0.8-0.8-0.7-2,0.1-2.8l0,0c0.8-0.8,2-0.7,2.8,0.1l0,0c0.8,0.8,0.7,2-0.1,2.8v0c-0.4,0.4-0.9,0.5-1.4,0.5l0,0
		C37.8,36.8,37.3,36.6,36.9,36.2z M180,36c-0.8-0.8-0.8-2-0.1-2.8l0,0c0.8-0.8,2-0.8,2.8-0.1l0,0c0.8,0.8,0.8,2,0.1,2.8l0,0
		c-0.4,0.4-0.9,0.6-1.4,0.6l0,0C180.9,36.6,180.4,36.4,180,36z M44.8,29.2c-0.7-0.9-0.5-2.1,0.3-2.8l0,0c0.9-0.7,2.1-0.5,2.8,0.3
		l0,0c0.7,0.9,0.5,2.1-0.3,2.8l0,0c-0.4,0.3-0.8,0.4-1.2,0.4l0,0C45.7,29.9,45.1,29.7,44.8,29.2z M172.2,29.3
		c-0.9-0.7-1-1.9-0.4-2.8l0,0c0.7-0.9,1.9-1,2.8-0.4l0,0c0.9,0.7,1,1.9,0.4,2.8l0,0c-0.4,0.5-1,0.8-1.6,0.8l0,0
		C173,29.7,172.6,29.6,172.2,29.3z M53.3,23c-0.6-0.9-0.3-2.1,0.6-2.7l0,0c0.9-0.6,2.1-0.3,2.7,0.6l0,0c0.6,0.9,0.3,2.1-0.6,2.7l0,0
		c-0.3,0.2-0.7,0.3-1.1,0.3l0,0C54.3,23.9,53.6,23.6,53.3,23z M163.7,23.4c-0.9-0.6-1.2-1.8-0.6-2.7l0,0c0.6-0.9,1.8-1.2,2.7-0.6
		l0,0c0.9,0.6,1.2,1.8,0.6,2.7l0,0c-0.4,0.6-1,0.9-1.7,0.9l0,0C164.4,23.7,164.1,23.6,163.7,23.4z M62.3,17.7
		c-0.5-1-0.1-2.2,0.9-2.6l0,0c1-0.5,2.2-0.1,2.6,0.9l0,0c0.5,1,0.1,2.2-0.9,2.6l0,0c-0.3,0.1-0.6,0.2-0.9,0.2l0,0
		C63.4,18.8,62.7,18.4,62.3,17.7z M154.7,18.4L154.7,18.4c-1-0.5-1.4-1.7-0.9-2.6l0,0c0.5-1,1.7-1.4,2.6-0.9l0,0
		c1,0.5,1.4,1.7,0.9,2.6l0,0c-0.3,0.7-1,1.1-1.8,1.1l0,0C155.3,18.6,155,18.6,154.7,18.4z M71.9,13.3c-0.4-1,0.1-2.2,1.2-2.5l0,0
		l0,0l0,0c1-0.4,2.2,0.1,2.5,1.2l0,0c0.4,1-0.1,2.2-1.2,2.5l0,0c-0.2,0.1-0.5,0.1-0.7,0.1l0,0C73,14.6,72.2,14.1,71.9,13.3z
		 M145.2,14.4c-1-0.4-1.6-1.5-1.2-2.5l0,0c0.4-1,1.5-1.6,2.5-1.2l0,0l0,0l0,0c1,0.4,1.5,1.5,1.2,2.5l0,0c-0.3,0.8-1,1.3-1.8,1.3l0,0
		C145.7,14.5,145.4,14.5,145.2,14.4z M81.9,10c-0.3-1.1,0.4-2.1,1.4-2.4l0,0c1.1-0.3,2.1,0.4,2.4,1.4l0,0c0.3,1.1-0.4,2.1-1.4,2.4h0
		c-0.2,0-0.3,0.1-0.5,0.1l0,0C82.9,11.5,82.1,10.9,81.9,10z M135.4,11.3c-1.1-0.3-1.7-1.4-1.4-2.4l0,0c0.3-1.1,1.3-1.7,2.4-1.4l0,0
		c1.1,0.3,1.7,1.3,1.4,2.4l0,0c-0.2,0.9-1,1.5-1.9,1.5l0,0C135.7,11.4,135.5,11.3,135.4,11.3z M92.2,7.6c-0.2-1.1,0.6-2.1,1.6-2.3
		l0,0c1.1-0.2,2.1,0.6,2.3,1.7l0,0c0.2,1.1-0.6,2.1-1.6,2.3l0,0c-0.1,0-0.2,0-0.3,0l0,0C93.1,9.3,92.3,8.6,92.2,7.6z M125.3,9.3
		c-1.1-0.2-1.8-1.2-1.7-2.3l0,0c0.2-1.1,1.2-1.8,2.2-1.7l0,0c1.1,0.2,1.8,1.2,1.7,2.3l0,0c-0.2,1-1,1.7-2,1.7l0,0
		C125.5,9.3,125.4,9.3,125.3,9.3z M102.6,6.4c-0.1-1.1,0.8-2,1.9-2.1l0,0c1.1-0.1,2,0.8,2.1,1.9l0,0c0.1,1.1-0.8,2-1.9,2.1l0,0
		c0,0-0.1,0-0.1,0l0,0C103.5,8.3,102.7,7.4,102.6,6.4z M115,8.2c-1.1-0.1-1.9-1-1.9-2.1l0,0c0-1.1,1-1.9,2.1-1.9l0,0
		c1.1,0.1,1.9,1,1.9,2.1l0,0c-0.1,1.1-0.9,1.9-2,1.9l0,0C115.1,8.2,115,8.2,115,8.2z"/>
	<path fill="#762057" d="M110,220C49.3,220,0,170.7,0,110C0,49.3,49.3,0,110,0s110,49.3,110,110C220,170.7,170.7,220,110,220z
		 M110,1.3C50.1,1.3,1.3,50.1,1.3,110S50.1,218.7,110,218.7S218.7,169.9,218.7,110S169.9,1.3,110,1.3z"/>
	<path fill="#762057" d="M110,209.2c-54.7,0-99.2-44.5-99.2-99.2S55.3,10.8,110,10.8s99.2,44.5,99.2,99.2S164.7,209.2,110,209.2z
		 M110,12.2c-53.9,0-97.8,43.9-97.8,97.8s43.9,97.8,97.8,97.8s97.8-43.9,97.8-97.8S163.9,12.2,110,12.2z"/>
</g>
<g>
	<path fill="#762057" d="M79.1,147.1c8.1-9.8,23.5-29.9,31.7-40.8c3.8-4.7,6.2-9.4,6.2-13.6c0-5.5-4.2-11.2-13-11.2
		c-5.9,0-10.9,4.2-13.7,7.2c-1,1-2.3,1-3.3,0l-5.9-5.9c-0.7-0.7-1-2.2-0.1-3.2c0,0,9.6-12,24.1-12c17.5,0,27.3,11.2,27.3,24.4
		c0,8-3.4,13-8.2,19.9c-5.3,7.5-14.6,19-21.1,27.2h26.5c1.2,0,2.3,1.1,2.3,2.3v8.5c0,1.2-1.1,2.3-2.3,2.3H81.4
		c-1.3,0-2.3-1.1-2.3-2.3V147.1z"/>
	<g>
		<path fill="#762057" d="M140.8,91.7c0-6.1,4.9-11,11-11c6,0,11,4.9,11,11c0,6.1-5,11-11,11C145.7,102.7,140.8,97.8,140.8,91.7z
			 M175.4,82.3c0.2-0.5,0.7-0.8,1.4-0.8h4.1c1.2,0,2,1.1,1.4,2.2l-28.1,54.1c-0.2,0.3-0.7,0.8-1.4,0.8h-3.9c-1.2,0-2-1.1-1.4-2.2
			L175.4,82.3z M155.7,91.7c0-2.1-1.8-3.9-3.9-3.9c-2.2,0-4,1.8-4,3.9c0,2.2,1.8,4,4,4C153.9,95.6,155.7,93.9,155.7,91.7z
			 M178.6,117.3c6.1,0,11.1,4.9,11.1,11c0,6.1-5,11-11.1,11c-6,0-11-4.9-11-11C167.6,122.2,172.6,117.3,178.6,117.3z M178.6,132.3
			c2.1,0,4-1.8,4-4c0-2.1-1.9-3.9-4-3.9c-2.2,0-4,1.8-4,3.9C174.6,130.5,176.4,132.3,178.6,132.3z"/>
	</g>
	<g>
		<path fill="#762057" d="M30.3,115v-0.1c0-0.5,0.2-0.9,1-1.5L68,90.1c0.7-0.5,1.5-0.1,1.5,1v2.4c0,0.4-0.1,1.1-0.8,1.6L37.1,115
			l31.6,19.2c0.7,0.4,0.8,1.1,0.8,1.6v2.4c0,1.1-0.7,1.6-1.5,1l-36.7-22.5C30.5,116.1,30.3,115.7,30.3,115z"/>
	</g>
</g>
</svg>
