<?xml version="1.0" encoding="utf-8"?>
<!-- Generator: Adobe Illustrator 18.1.1, SVG Export Plug-In . SVG Version: 6.00 Build 0)  -->
<!DOCTYPE svg PUBLIC "-//W3C//DTD SVG 1.0//EN" "http://www.w3.org/TR/2001/REC-SVG-20010904/DTD/svg10.dtd">
<svg version="1.0" id="Layer_1" xmlns="http://www.w3.org/2000/svg" xmlns:xlink="http://www.w3.org/1999/xlink" x="0px" y="0px"
	 width="220px" height="220px" viewBox="0 0 220 220" enable-background="new 0 0 220 220" xml:space="preserve">
<path fill="#762057" d="M110,213.2C53.1,213.2,6.8,166.9,6.8,110S53.1,6.8,110,6.8S213.2,53.1,213.2,110S166.9,213.2,110,213.2z
	 M110,10.8c-54.7,0-99.2,44.5-99.2,99.2s44.5,99.2,99.2,99.2s99.2-44.5,99.2-99.2S164.7,10.8,110,10.8z"/>
<g>
	<g>
		<path fill="#762057" d="M33.3,139.4L57.9,88h-25c-0.9,0-1.8-0.9-1.8-1.8v-6.6c0-0.9,0.9-1.8,1.8-1.8h39.4c0.9,0,1.8,0.9,1.8,1.8
			v0.7l-28.3,59.4c-0.7,1.5-1.6,2.6-3.2,2.6h-7c-1.1,0-2.4-0.3-2.4-1.8V139.4z"/>
		<path fill="#762057" d="M81.8,110c0-20.8,8.7-33.2,23.9-33.2c15.2,0,23.9,12.4,23.9,33.2c0,20.8-8.7,33.2-23.9,33.2
			C90.5,143.2,81.8,130.8,81.8,110z M117.2,110c0-14-4.2-22-11.5-22c-7.3,0-11.5,8-11.5,22c0,14.1,4.2,22,11.5,22
			C113,132,117.2,124.1,117.2,110z"/>
		<path fill="#762057" d="M141.1,110c0-20.8,8.7-33.2,23.9-33.2c15.2,0,23.9,12.4,23.9,33.2c0,20.8-8.7,33.2-23.9,33.2
			C149.9,143.2,141.1,130.8,141.1,110z M176.5,110c0-14-4.2-22-11.5-22c-7.3,0-11.5,8-11.5,22c0,14.1,4.2,22,11.5,22
			C172.3,132,176.5,124.1,176.5,110z"/>
	</g>
	<path fill="#FFFFFF" d="M65.6,83.8H34.4c-0.3,0-0.5-0.2-0.5-0.5V83c0-0.3,0.2-0.5,0.5-0.5h32.4c0.4,0,0.6,0.4,0.5,0.7l-26.4,55.1
		c-0.2,0.3-0.3,0.4-0.6,0.2l-0.4-0.2c-0.3-0.2-0.3-0.3-0.2-0.7L65.6,83.8z"/>
	<path fill="#FFFFFF" d="M86.6,110.3c0-17.7,7-28.4,19.1-28.4c12.1,0,19.1,10.6,19.1,28.4c0,17.7-7,28.4-19.1,28.4
		C93.6,138.7,86.6,128,86.6,110.3z M123.4,110.3c0-16.9-6.3-26.9-17.7-26.9S88,93.4,88,110.3s6.3,26.9,17.7,26.9
		S123.4,127.3,123.4,110.3z"/>
	<path fill="#FFFFFF" d="M145.9,110.3c0-17.7,7-28.4,19.1-28.4c12.1,0,19.1,10.6,19.1,28.4c0,17.7-7,28.4-19.1,28.4
		C152.9,138.7,145.9,128,145.9,110.3z M182.7,110.3c0-16.9-6.3-26.9-17.7-26.9c-11.4,0-17.7,10-17.7,26.9s6.3,26.9,17.7,26.9
		C176.4,137.3,182.7,127.3,182.7,110.3z"/>
</g>
<path fill="#762057" d="M110,220C49.3,220,0,170.7,0,110C0,49.3,49.3,0,110,0s110,49.3,110,110C220,170.7,170.7,220,110,220z
	 M110,1.3C50.1,1.3,1.3,50.1,1.3,110S50.1,218.7,110,218.7S218.7,169.9,218.7,110S169.9,1.3,110,1.3z"/>
</svg>
