<?xml version="1.0" encoding="utf-8"?>
<!-- Generator: Adobe Illustrator 18.1.1, SVG Export Plug-In . SVG Version: 6.00 Build 0)  -->
<!DOCTYPE svg PUBLIC "-//W3C//DTD SVG 1.0//EN" "http://www.w3.org/TR/2001/REC-SVG-20010904/DTD/svg10.dtd">
<svg version="1.0" id="Layer_1" xmlns="http://www.w3.org/2000/svg" xmlns:xlink="http://www.w3.org/1999/xlink" x="0px" y="0px"
	 width="180px" height="180px" viewBox="0 0 180 180" enable-background="new 0 0 180 180" xml:space="preserve">
<path fill="#FFBF3B" d="M90,180c-49.6,0-90-40.4-90-90S40.4,0,90,0s90,40.4,90,90S139.6,180,90,180z M90,3.4
	C42.2,3.4,3.4,42.2,3.4,90s38.8,86.6,86.6,86.6s86.6-38.8,86.6-86.6S137.8,3.4,90,3.4z"/>
<g>
	<path fill="#FFBF3B" d="M147.4,72.8L76.5,86.1L34.7,75.6V62.2C47.3,66,76.5,72.2,76.5,72.2l73.2-14.1c0,0,3.2-2.2,0-5
		C148.4,52,103,42.6,103,42.6L30.4,56.1c0,0-1.4,1.1-1.4,3.6c0,0,0,0,0,0.1c0,0.1,0,0.2,0,0.3v20.1l47.4,11.8l72.1-13.5
		c1.5-0.3,2.6-1.8,2.3-3.3C150.4,73.5,148.9,72.5,147.4,72.8z"/>
	<g>
		<path fill="#FFBF3B" d="M49,113.3c-7.1-1.9-14.4-3.9-14.4-3.9s-0.1-12.3-0.1-14.5l41.8,9.3c0.3,0.1,0.7,0.1,1,0l71.1-13.5
			c1.3-0.2,2.2-1.5,1.9-2.8c-0.2-1.3-1.5-2.2-2.8-1.9L76.9,99.3l-44.3-9.8c-0.7-0.2-1.5,0-2.1,0.5c-0.6,0.5-0.9,1.2-0.9,1.9
			c0,8.1,0,19.1,0,19.1c-0.1,1.9,1.7,2.4,2.2,2.6c0.3,0.1,0.8,0.2,1.5,0.4c1.2,0.3,2.9,0.8,5.1,1.4c3.1,0.9,5.6,1.5,10.6,2.9V113.3z
			"/>
		<path fill="#FFBF3B" d="M150.3,108.7c-0.3-1.3-1.5-2.2-2.9-1.9l-70.7,14.1c-4.1-1.1-7.3-1.9-11.9-3.2v5c7,1.9,11.1,3,11.2,3
			c0.2,0.1,0.4,0.1,0.6,0.1c0.2,0,0.3,0,0.5,0l71.2-14.2C149.7,111.3,150.6,110,150.3,108.7z"/>
	</g>
	<polygon fill="#FFBF3B" points="50.5,108.1 50.5,138.7 57,134.9 63.4,142 63.4,111 	"/>
</g>
</svg>
