<?xml version="1.0" encoding="utf-8"?>
<!-- Generator: Adobe Illustrator 18.1.1, SVG Export Plug-In . SVG Version: 6.00 Build 0)  -->
<!DOCTYPE svg PUBLIC "-//W3C//DTD SVG 1.0//EN" "http://www.w3.org/TR/2001/REC-SVG-20010904/DTD/svg10.dtd">
<svg version="1.0" id="Layer_1" xmlns="http://www.w3.org/2000/svg" xmlns:xlink="http://www.w3.org/1999/xlink" x="0px" y="0px"
	 width="190px" height="190px" viewBox="0 0 190 190" enable-background="new 0 0 190 190" xml:space="preserve">
<path fill="#F9BE38" d="M95,190c-52.4,0-95-42.6-95-95C0,42.6,42.6,0,95,0s95,42.6,95,95C190,147.4,147.4,190,95,190z M95,3
	C44.2,3,3,44.2,3,95c0,50.8,41.3,92,92,92s92-41.3,92-92C187,44.2,145.8,3,95,3z"/>
<g>
	<path fill="#F9BE38" d="M59.1,157L59.1,157c-7.2,0-13.9-2.8-18.9-7.9c-5-5-7.7-11.7-7.6-18.8c0-7.1,2.8-13.8,7.9-18.7l71.8-70.9
		c5-4.9,11.6-7.6,18.7-7.6c7.2,0,13.9,2.8,18.9,7.9c10.3,10.4,10.2,27.3-0.2,37.6l-71.8,70.9C72.8,154.2,66.1,157,59.1,157z
		 M130.9,35.6c-6.4,0-12.4,2.4-16.9,6.9l-71.8,70.9c-4.5,4.5-7.1,10.5-7.1,16.9c0,6.4,2.4,12.5,6.9,17c4.5,4.6,10.6,7.1,17.1,7.1
		c6.4,0,12.4-2.4,16.9-6.9l71.8-70.9c9.4-9.3,9.5-24.5,0.2-33.9C143.5,38.1,137.4,35.6,130.9,35.6z"/>
	<path fill="#F9BE38" d="M92.4,125.7L64.3,97.6l32.9-32.9l28.2,28.2L92.4,125.7z M67.9,97.6l24.6,24.6l29.3-29.3L97.2,68.3
		L67.9,97.6z"/>
	<circle fill="#F9BE38" cx="94.7" cy="95.3" r="3.5"/>
	<circle fill="#F9BE38" cx="87.6" cy="88.2" r="3.5"/>
	<circle fill="#F9BE38" cx="101.7" cy="102.4" r="3.5"/>
	<circle fill="#F9BE38" cx="102.9" cy="87.1" r="3.5"/>
	<circle fill="#F9BE38" cx="95.8" cy="80" r="3.5"/>
	<circle fill="#F9BE38" cx="109.9" cy="94.2" r="3.5"/>
	<circle fill="#F9BE38" cx="87.2" cy="102.8" r="3.5"/>
	<circle fill="#F9BE38" cx="80.1" cy="95.7" r="3.5"/>
	<circle fill="#F9BE38" cx="94.2" cy="109.9" r="3.5"/>
</g>
</svg>
