<?xml version="1.0" encoding="utf-8"?>
<!-- Generator: Adobe Illustrator 18.1.1, SVG Export Plug-In . SVG Version: 6.00 Build 0)  -->
<!DOCTYPE svg PUBLIC "-//W3C//DTD SVG 1.0//EN" "http://www.w3.org/TR/2001/REC-SVG-20010904/DTD/svg10.dtd">
<svg version="1.0" id="Layer_1" xmlns="http://www.w3.org/2000/svg" xmlns:xlink="http://www.w3.org/1999/xlink" x="0px" y="0px"
	 width="193px" height="193px" viewBox="0 0 193 193" enable-background="new 0 0 193 193" xml:space="preserve">
<path fill="#F9BE38" d="M96.5,193C43.3,193,0,149.7,0,96.5C0,43.3,43.3,0,96.5,0S193,43.3,193,96.5C193,149.7,149.7,193,96.5,193z
	 M96.5,3C44.9,3,3,44.9,3,96.5C3,148.1,44.9,190,96.5,190S190,148.1,190,96.5C190,44.9,148.1,3,96.5,3z"/>
<path fill="#F9BE38" d="M173.1,104.1c-2.7,0-4.8,1.9-5.2,4.5h-8.7l-5.6-11.2c-0.2-0.4-0.6-0.7-1.1-0.7c-0.5,0-0.9,0.2-1.1,0.6
	l-11.6,19.1l-11.3-34.4c-0.2-0.5-0.7-0.9-1.3-0.8c-0.6,0-1,0.5-1.1,1l-10.6,70.8L103.1,29.2c-0.1-0.6-0.6-1.1-1.2-1.1
	c-0.6,0-1.2,0.4-1.2,1.1l-11.2,84.4L77.9,94c-0.3-0.4-0.7-0.7-1.2-0.6c-0.5,0.1-0.9,0.4-1,0.9L66.1,133
	c-4.6-26.9-10.4-62.6-10.8-68.3c0.2-1,0.1-1.6-0.5-1.9c-0.5-0.3-1.1-0.3-1.5,0.1c-0.3,0.3-0.5,0.4-0.5,1.6
	C52,68.9,45.4,92.6,40.7,109H25.2c-0.2-2.7-2.5-4.9-5.3-4.9c-2.9,0-5.3,2.4-5.3,5.3c0,2.9,2.4,5.3,5.3,5.3c2.2,0,4.1-1.4,4.9-3.3
	h16.8c0.6,0,1-0.4,1.2-0.9c0-0.1,3.3-11.7,6.5-23.1c1.9-6.7,3.3-12.1,4.3-16c0,0,0,0,0,0c0.2,1.3,0.4,2.8,0.7,4.6
	c0.9,6.3,2.3,15,4.1,25.8c3,18.5,6.2,37.1,6.2,37.3c0.1,0.6,0.6,1,1.2,1c0.6,0,1.1-0.4,1.2-0.9l10.2-41.5l11.8,20
	c0.3,0.5,0.8,0.7,1.3,0.6c0.5-0.1,0.9-0.5,1-1l10.3-77.5L114,163c0.1,0.6,0.6,1.1,1.2,1.1c0,0,0,0,0,0c0.6,0,1.1-0.4,1.2-1.1
	l11.3-75.4l10.5,32.1c0.2,0.5,0.6,0.8,1,0.8c0.5,0.1,0.9-0.2,1.2-0.6l11.8-19.5l4.9,9.9c0.2,0.4,0.6,0.7,1.1,0.7h9.7
	c0.7,2.1,2.7,3.7,5.1,3.7c2.9,0,5.3-2.4,5.3-5.3C178.4,106.5,176,104.1,173.1,104.1z"/>
</svg>
