<?xml version="1.0" encoding="utf-8"?>
<!-- Generator: Adobe Illustrator 18.1.1, SVG Export Plug-In . SVG Version: 6.00 Build 0)  -->
<!DOCTYPE svg PUBLIC "-//W3C//DTD SVG 1.0//EN" "http://www.w3.org/TR/2001/REC-SVG-20010904/DTD/svg10.dtd">
<svg version="1.0" id="Layer_1" xmlns="http://www.w3.org/2000/svg" xmlns:xlink="http://www.w3.org/1999/xlink" x="0px" y="0px"
	 width="180px" height="180px" viewBox="0 0 180 180" enable-background="new 0 0 180 180" xml:space="preserve">
<path fill="#FFBF3B" d="M90,180c-49.6,0-90-40.4-90-90S40.4,0,90,0s90,40.4,90,90S139.6,180,90,180z M90,3.4
	C42.2,3.4,3.4,42.2,3.4,90s38.8,86.6,86.6,86.6s86.6-38.8,86.6-86.6S137.8,3.4,90,3.4z"/>
<circle fill="none" stroke="#FFBF3B" stroke-width="3" stroke-miterlimit="10" cx="82.4" cy="65.4" r="40.8"/>
<circle fill="none" stroke="#FFBF3B" stroke-width="3" stroke-miterlimit="10" cx="82.4" cy="65.4" r="33.7"/>
<polyline fill="none" stroke="#FFBF3B" stroke-width="3" stroke-miterlimit="10" points="87.4,106.5 103.9,159.3 118.2,154.8 
	101.8,102.1 "/>
<line fill="none" stroke="#FFBF3B" stroke-width="3" stroke-miterlimit="10" x1="101.1" y1="150.4" x2="115.5" y2="145.9"/>
<line fill="none" stroke="#FFBF3B" stroke-width="3" stroke-miterlimit="10" x1="112.8" y1="140.2" x2="98.4" y2="144.7"/>
<path fill="none" stroke="#FFBF3B" stroke-width="3" stroke-linecap="round" stroke-miterlimit="10" d="M82,38.7
	c0,0,11.1-1.3,19.4,10.2"/>
</svg>
