<?xml version="1.0" encoding="utf-8"?>
<!-- Generator: Adobe Illustrator 18.1.1, SVG Export Plug-In . SVG Version: 6.00 Build 0)  -->
<!DOCTYPE svg PUBLIC "-//W3C//DTD SVG 1.0//EN" "http://www.w3.org/TR/2001/REC-SVG-20010904/DTD/svg10.dtd">
<svg version="1.0" id="Layer_1" xmlns="http://www.w3.org/2000/svg" xmlns:xlink="http://www.w3.org/1999/xlink" x="0px" y="0px"
	 width="190px" height="190px" viewBox="0 0 190 190" enable-background="new 0 0 190 190" xml:space="preserve">
<path fill="#FFBF3B" d="M95,190c-52.4,0-95-42.6-95-95C0,42.6,42.6,0,95,0s95,42.6,95,95C190,147.4,147.4,190,95,190z M95,3.6
	C44.6,3.6,3.6,44.6,3.6,95c0,50.4,41,91.4,91.4,91.4s91.4-41,91.4-91.4C186.4,44.6,145.4,3.6,95,3.6z"/>
<g>
	<path fill="#FFBF3B" d="M77.5,84.9h-8.9v-8.9c0-0.8-0.7-1.5-1.5-1.5c-0.8,0-1.5,0.7-1.5,1.5v8.9h-8.9c-0.8,0-1.5,0.7-1.5,1.5
		c0,0.8,0.7,1.5,1.5,1.5h8.9v8.9c0,0.8,0.7,1.5,1.5,1.5c0.8,0,1.5-0.7,1.5-1.5v-8.9h8.9c0.8,0,1.5-0.7,1.5-1.5
		C78.9,85.6,78.3,84.9,77.5,84.9z"/>
	<g>
		<path fill="#FFBF3B" d="M108.1,130H26.7c-0.8,0-1.5-0.7-1.5-1.5V62.1c0-0.8,0.7-1.5,1.5-1.5h81.4c0.8,0,1.5,0.7,1.5,1.5v66.4
			C109.6,129.3,109,130,108.1,130z M28.2,127.1h78.5V63.5H28.2V127.1z"/>
	</g>
	<g>
		<path fill="#FFBF3B" d="M163.3,130h-55.1c-0.8,0-1.5-0.7-1.5-1.5V74.9c0-0.8,0.7-1.5,1.5-1.5h25.4c0.5,0,1,0.3,1.3,0.7L148.2,97
			l15.5,3.7c0.7,0.2,1.1,0.7,1.1,1.4v26.5C164.7,129.3,164.1,130,163.3,130z M109.6,127.1h52.2v-23.9l-14.9-3.6
			c-0.4-0.1-0.7-0.3-0.9-0.7l-13.3-22.6h-23.1V127.1z"/>
	</g>
	<g>
		<circle fill="#FFFFFF" cx="57.9" cy="128.5" r="12.7"/>
	</g>
	<path fill="#FFBF3B" d="M57.9,142.7c-7.8,0-14.1-6.3-14.1-14.1s6.3-14.1,14.1-14.1s14.1,6.3,14.1,14.1S65.7,142.7,57.9,142.7z
		 M57.9,117.3c-6.2,0-11.2,5-11.2,11.2s5,11.2,11.2,11.2s11.2-5,11.2-11.2S64.1,117.3,57.9,117.3z"/>
	<g>
		<circle fill="#FFFFFF" cx="136.6" cy="128.5" r="12.7"/>
	</g>
	<path fill="#FFBF3B" d="M136.6,142.7c-7.8,0-14.1-6.3-14.1-14.1s6.3-14.1,14.1-14.1c7.8,0,14.1,6.3,14.1,14.1
		S144.4,142.7,136.6,142.7z M136.6,117.3c-6.2,0-11.2,5-11.2,11.2s5,11.2,11.2,11.2c6.2,0,11.2-5,11.2-11.2S142.8,117.3,136.6,117.3
		z"/>
	<g>
		<path fill="#FFBF3B" d="M129.1,64.9h-13.6c-0.8,0-1.5-0.7-1.5-1.5c0-0.8,0.7-1.5,1.5-1.5h13.6c0.8,0,1.5,0.7,1.5,1.5
			C130.5,64.2,129.9,64.9,129.1,64.9z"/>
	</g>
	<g>
		<path fill="#FFBF3B" d="M125.4,54.7c-0.8,0-1.5-0.7-1.5-1.5v-6.8c0-0.8,0.7-1.5,1.5-1.5c0.8,0,1.5,0.7,1.5,1.5v6.8
			C126.9,54,126.2,54.7,125.4,54.7z"/>
	</g>
	<g>
		<path fill="#FFBF3B" d="M143.4,67h-6.8c-0.8,0-1.5-0.7-1.5-1.5c0-0.8,0.7-1.5,1.5-1.5h6.8c0.8,0,1.5,0.7,1.5,1.5
			C144.8,66.3,144.2,67,143.4,67z"/>
	</g>
	<g>
		<path fill="#FFBF3B" d="M135.9,61.7c-0.5,0-1-0.2-1.2-0.7c-0.4-0.7-0.2-1.6,0.5-2l5.8-3.6c0.7-0.4,1.6-0.2,2,0.5
			c0.4,0.7,0.2,1.6-0.5,2l-5.8,3.6C136.4,61.6,136.1,61.7,135.9,61.7z"/>
	</g>
	<g>
		<path fill="#FFBF3B" d="M130.8,56.8c-0.3,0-0.6-0.1-0.9-0.3c-0.7-0.5-0.8-1.4-0.3-2l4-5.5c0.5-0.7,1.4-0.8,2-0.3
			c0.7,0.5,0.8,1.4,0.3,2l-4,5.5C131.7,56.6,131.3,56.8,130.8,56.8z"/>
	</g>
	<g>
		<path fill="#FFBF3B" d="M134.8,100.6C134.8,100.6,134.8,100.6,134.8,100.6h-17.9c-0.8,0-1.5-0.7-1.5-1.5V84.1
			c0-0.8,0.7-1.5,1.5-1.5h8.5c0.5,0,1,0.3,1.2,0.7l9.3,14.9c0.2,0.3,0.3,0.6,0.3,0.9C136.3,100,135.6,100.6,134.8,100.6z
			 M118.4,97.7h13.8l-7.6-12.2h-6.2V97.7z"/>
	</g>
	<g>
		<path fill="#FFBF3B" d="M99.5,104.4H34.9c-0.8,0-1.5-0.7-1.5-1.5V69.8c0-0.8,0.7-1.5,1.5-1.5h64.6c0.8,0,1.5,0.7,1.5,1.5V103
			C100.9,103.8,100.3,104.4,99.5,104.4z M36.3,101.5H98V71.2H36.3V101.5z"/>
	</g>
</g>
</svg>
