<?xml version="1.0" encoding="utf-8"?>
<!-- Generator: Adobe Illustrator 18.1.1, SVG Export Plug-In . SVG Version: 6.00 Build 0)  -->
<!DOCTYPE svg PUBLIC "-//W3C//DTD SVG 1.0//EN" "http://www.w3.org/TR/2001/REC-SVG-20010904/DTD/svg10.dtd">
<svg version="1.0" id="Layer_1" xmlns="http://www.w3.org/2000/svg" xmlns:xlink="http://www.w3.org/1999/xlink" x="0px" y="0px"
	 width="180px" height="180px" viewBox="0 0 180 180" enable-background="new 0 0 180 180" xml:space="preserve">
<path fill="#FFFFFF" d="M90,180c-49.6,0-90-40.4-90-90S40.4,0,90,0s90,40.4,90,90S139.6,180,90,180z M90,3.4
	C42.2,3.4,3.4,42.2,3.4,90s38.8,86.6,86.6,86.6s86.6-38.8,86.6-86.6S137.8,3.4,90,3.4z"/>
<g>
	<path fill="#FFFFFF" d="M73.9,135.3c0-9.5,6.7-16.4,16.2-16.4c9.5,0,15.8,6.8,16,16.4c0,9.4-6.3,16.4-16,16.4
		S73.9,144.6,73.9,135.3z M79.8,109.9l-4.1-81.5h28.6l-4,81.5H79.8z"/>
</g>
</svg>
