<?xml version="1.0" encoding="utf-8"?>
<!-- Generator: Adobe Illustrator 18.1.1, SVG Export Plug-In . SVG Version: 6.00 Build 0)  -->
<!DOCTYPE svg PUBLIC "-//W3C//DTD SVG 1.0//EN" "http://www.w3.org/TR/2001/REC-SVG-20010904/DTD/svg10.dtd">
<svg version="1.0" id="Layer_1" xmlns="http://www.w3.org/2000/svg" xmlns:xlink="http://www.w3.org/1999/xlink" x="0px" y="0px"
	 width="190px" height="190px" viewBox="0 0 190 190" enable-background="new 0 0 190 190" xml:space="preserve">
<path fill="#F9BE38" d="M95,190c-52.4,0-95-42.6-95-95S42.6,0,95,0s95,42.6,95,95S147.4,190,95,190z M95,3.6
	C44.6,3.6,3.6,44.6,3.6,95s41,91.4,91.4,91.4s91.4-41,91.4-91.4S145.4,3.6,95,3.6z"/>
<g>
	<circle fill="#F9BE38" cx="62.3" cy="150.1" r="6.1"/>
	<path fill="#F9BE38" d="M120.1,22.2c-3.7-1.7-8-1.6-12.8,0.4c-0.2,0.1-0.3,0.2-0.5,0.3c-0.9-0.5-2-0.6-3-0.2
		c-1.7,0.7-2.6,2.7-1.9,4.5c0.7,1.7,2.7,2.6,4.5,1.9c1.2-0.5,1.9-1.5,2.1-2.7c0.1,0,0.2,0,0.3-0.1c3.7-1.5,6.9-1.7,9.5-0.4
		c4.1,1.9,5.6,6.6,5.6,6.6c0,0.1,0,0.1,0.1,0.2l9,21.9l-6.5,15.7c-6.9,11.4-16.3,18-27.9,19.3c-8.4,1-15.1-1.2-15.6-1.4l-16.6-6.9
		l-8.8-21.3c0-0.1,0-0.1-0.1-0.2c0,0-2.4-4.8-0.8-9c0.9-2.4,2.9-4.3,6-5.6c0.1,0,0.1-0.1,0.2-0.1c0.9,0.7,2.2,0.9,3.3,0.4
		c1.7-0.7,2.6-2.7,1.9-4.5c-0.7-1.7-2.7-2.6-4.5-1.9c-1,0.4-1.7,1.2-2,2.2c-0.2,0-0.3,0.1-0.5,0.1c-4.2,1.7-7,4.4-8.2,7.8
		c-2,5.6,0.6,11.3,1,12.1l9,22c0.2,0.5,0.6,0.9,1.1,1.1l49.2,20.5c0.7,1.6,1.4,3.3,2.2,5.2c5.1,11.7,12.9,29.4,8.8,39.5
		c-1.2,3.1-3.5,5.2-6.9,6.6c-11.8,4.9-18.4-8.4-23.7-21.2c-0.3-0.7-0.6-1.4-0.8-2.1c-3-7.3-6.3-15.6-13.2-18.5
		c-4-1.7-8.6-1.4-14.1,0.9c-12.7,5.2-13.2,13.6-11.4,19.8c0,0.1,0.1,0.2,0.1,0.2c-7.3,4-10.6,13-7.4,20.9c3.5,8.5,13.2,12.5,21.7,9
		c8.5-3.5,12.5-13.2,9-21.7c-3.2-7.8-11.7-11.9-19.7-9.7c-0.8-2.6-2.7-10,9.1-14.9c4.5-1.8,8.1-2.1,11.1-0.9
		c5.4,2.3,8.3,9.4,11.1,16.3c0.3,0.7,0.6,1.4,0.8,2.1c2.5,6.2,5.6,13.2,9.9,18.1c5.5,6.4,11.9,8.1,18.9,5.2c4.4-1.8,7.4-4.8,9-8.8
		c4.7-11.6-3.1-29.5-8.8-42.6c-0.8-1.9-1.6-3.6-2.3-5.2L137,55.2c0.2-0.5,0.2-1,0-1.5l-9.3-22.6C127.4,30.3,125.4,24.7,120.1,22.2z
		 M74.8,144.9c2.8,6.9-0.5,14.9-7.4,17.7c-6.9,2.8-14.9-0.5-17.7-7.4s0.5-14.9,7.4-17.7C64,134.7,72,138,74.8,144.9z M113.7,100.9
		l-17.4-7.3c0.9,0,1.7-0.1,2.6-0.2c3.1-0.4,6.6-1.1,10.3-2.7c3.9-1.6,8-4,11.9-7.6L113.7,100.9z"/>
</g>
</svg>
