<?xml version="1.0" encoding="utf-8"?>
<!-- Generator: Adobe Illustrator 18.1.1, SVG Export Plug-In . SVG Version: 6.00 Build 0)  -->
<!DOCTYPE svg PUBLIC "-//W3C//DTD SVG 1.0//EN" "http://www.w3.org/TR/2001/REC-SVG-20010904/DTD/svg10.dtd">
<svg version="1.0" id="Layer_1" xmlns="http://www.w3.org/2000/svg" xmlns:xlink="http://www.w3.org/1999/xlink" x="0px" y="0px"
	 width="468.4px" height="534px" viewBox="0 0 468.4 534" enable-background="new 0 0 468.4 534" xml:space="preserve">
<image overflow="visible" opacity="0.3" enable-background="new    " width="457" height="521" xlink:href="D17D4790EF90AC50.png"  transform="matrix(1.0249 0 0 1.0249 0 0)">
</image>
<g>
	
		<polygon fill="#E1E2E3" stroke="#55565A" stroke-width="3" stroke-linecap="round" stroke-linejoin="round" stroke-miterlimit="1" points="
		394.4,426.7 394.5,426.4 394.4,425.9 394.1,425.4 393.8,424.7 393.6,424.2 393.3,424.1 393.2,423.9 392.9,424.3 392.4,425.1 
		392.2,425.4 391.9,425.8 391.5,426.1 391,426.7 390.5,427.1 390.4,427.7 390.2,428.2 390.2,428.7 390.4,429.3 390.7,429.7 
		390.9,430 391.2,430.5 391.3,431.2 391.4,431.8 391.5,432 391.9,432.3 392.2,432.5 392.4,433.1 392.3,434 391.9,434.8 391.2,435.5 
		390.7,435.7 390.1,435.8 389.6,435.6 389.1,435.3 388.5,434.9 388.3,434.6 387.6,434 387.4,433.7 387.3,433.1 387.3,432.6 
		387.1,432 386.8,431.8 386.4,431.7 385.4,431.5 385.1,431.3 385,430.8 384.8,429.7 384.6,429.1 384.6,428.6 384.6,428 384.4,427.5 
		384.2,427.3 383.9,427.2 383.4,426.8 383,426.6 382.8,426.4 382,425.6 382,425.1 381.9,424.6 381.8,424.1 381.7,423.8 381.4,423.6 
		381.1,423.7 380.7,423.9 380.2,424 380,424 379.5,424 379.3,424 379,424.1 378.8,424.2 378.6,424.2 378.2,424.3 378,424.6 
		377.6,424.9 377.1,425 376.4,425.2 376,425.2 375.8,425.5 376.2,425.8 377,425.9 377.9,425.8 378.7,425.5 379.4,425.3 380.2,425 
		380.7,425 381,425 381.3,425.3 381.4,425.8 381.6,426.6 381.8,427.1 382,427.4 382.3,427.7 382.8,427.9 383.1,428.1 383.5,428.4 
		383.4,428.8 383.6,429.4 383.5,430.1 383.5,430.6 383.5,431.3 383.5,432 383.4,432.6 383,432.4 382.6,432.2 382.1,431.8 
		381.8,431.6 381.8,431.7 381.8,432.1 382,432.4 382.4,432.8 382.8,433.4 383,433.5 383,433.7 383.4,433.8 384,434.1 384.5,434.3 
		384.8,434.7 385.3,435 385.7,435.6 385.9,436.2 385.8,436.5 385.8,437 385.3,437.3 384.8,437.3 384.9,437.7 384.9,438 384.9,438.4 
		384.8,438.8 385.1,439.1 385.4,439.3 385.8,439.6 386.1,440.2 386.4,440.7 386.8,440.8 387.3,440.9 387.7,441.1 388,441.4 
		388.4,442 388.8,442.3 389,442.7 389,443.4 388.5,443.4 388.1,443.3 387.6,443.1 387.3,442.8 387.2,442.4 387.1,441.9 386.8,441.6 
		386.3,441.4 385.8,441.2 385.2,440.9 384.7,440.9 384.3,440.9 383.9,440.7 383.6,440.2 383.4,439.7 383.3,440.5 383.4,440.9 
		383.6,441.3 383.8,441.6 384.2,441.7 384.6,441.8 384.9,441.9 385.3,442.2 385.8,442.4 386,442.9 386.5,443.6 386.9,443.9 
		387.4,444.1 388,444.4 388.2,445.1 388.2,445.8 388.1,446.4 388.2,446.8 388.5,447.1 388.8,447.1 389.3,447 389.7,446.8 
		390.1,446.8 390.3,447 390.4,447.4 390.2,447.7 390.1,448.1 389.5,448.6 389.2,448.5 388.9,448.8 388.6,449.1 388.4,449.2 
		388.2,449.4 387.9,449.8 387.6,449.8 387.6,449.4 387.5,449.1 387.4,448.8 387,448.7 387,449.3 387.1,450 386.9,450.5 386.8,450.7 
		385.9,450.6 385.5,450.2 385,449.5 384.6,449.2 384.1,448.8 383.5,448.6 382.8,448.9 382.4,449 382.1,449.1 381.8,449 381.2,448.9 
		380.9,448.9 380.6,449 380.3,449.2 380.1,449.4 379.8,449.6 379.4,449.8 379,449.9 378.7,449.9 378.3,450 377.9,450.1 377.4,450 
		377.2,449.8 376.8,449.4 376.4,448.9 376.2,448.8 375.9,448.7 375.4,448.7 374.8,448.7 374.3,448.6 373.7,448.6 373.3,448.9 
		373,449.1 373,449.5 372.9,450 372.8,450.4 373.2,450.5 373.6,450 373.6,449.5 373.9,449.3 374.4,449.3 375,449.4 375.7,449.5 
		375.9,449.9 376.3,450.4 376.6,450.7 376.9,450.8 377.4,450.9 377.8,451 378.3,451.1 378.6,451.3 379,451.6 379.3,451.8 
		379.9,451.9 380.6,452 381.1,451.8 381.4,452 381.7,451.8 382,451.4 382.4,451.2 382.6,450.9 383,450.7 384.2,450.7 384.4,450.9 
		384.6,451.4 384.6,451.8 384.9,452.2 385.3,452.2 385.7,452.3 385.9,452.3 385.9,452.3 386.5,452.5 387.4,452.8 388.2,452.6 
		388.6,452.1 388.9,451.4 389.3,451.2 389.9,451.2 390.3,451.4 390.7,451.7 390.8,451.8 391.1,451.7 391.2,452.4 391.3,452.6 
		391.4,452.8 391.5,453.1 391.7,453.4 390.7,454.7 390.3,455.2 389.7,455.9 389,456 389.1,456.5 388.7,456.9 388.3,457.5 
		387.9,457.9 387.1,458.1 386.6,458.7 386.4,459.2 385.9,459.4 385.4,459.8 385.2,460.2 385.1,460.8 385.3,461.5 385.9,462.2 
		386.5,463.1 387.2,463.9 387.5,464.3 387.8,464.6 387.9,465.1 387.8,465.2 387.6,465.4 387.3,465.5 386.6,465 386.5,464.7 
		386.1,464.8 385.6,464.8 385.3,464.8 384.8,464.6 384.5,464.4 384,464.1 383.6,464.1 383,464 382.7,464.2 382.1,464.3 381.8,464.2 
		381.7,464.1 381.5,463.9 381.4,463.4 381.5,462.9 381.3,462.5 380.9,462.4 380.2,462.3 379.7,462.4 379.4,462.5 379.1,462.7 
		378.6,463.4 379,463.8 379.4,464 379.6,463.4 379.6,463 380,462.9 380.5,463.2 380.8,463.6 380.8,464.1 381.1,464.6 381.7,464.9 
		382.8,464.8 382.9,465.1 382.9,465.6 383.1,466.1 383.5,466.3 384.1,466.2 384.5,466 384.9,466 385.4,466.1 385.6,466.6 
		385.4,467.3 385,467.5 384.6,467.4 383.8,467.3 383.5,467.4 383.2,467.7 383.1,468.1 383.3,468.8 383.7,469 384.3,469.1 
		384.9,469.3 385.2,469.9 385.5,470.5 385.8,470.9 386.4,471.1 386.9,471.3 387.2,471.5 387.5,472.1 387.7,473.2 387.7,474.1 
		387.6,474.9 387.3,475.1 387.1,475 386.9,474.9 386.7,475 386.7,475.7 386.9,476.4 387,477.2 386.8,477.6 386.5,477.8 385.9,478 
		385.4,478 384.5,477.9 384,478 383.9,478.2 383.9,478.4 383.8,478.4 383.6,478.6 383.5,478.9 383.4,479.2 383.5,479.5 383.4,479.7 
		383.1,479.8 383,479.8 382.7,479.6 382.5,479.4 382.2,479.2 382.1,479 381.8,479 381.5,479.2 381.2,479.3 381.1,479.3 380.8,479.3 
		380.7,479.1 380.7,478.9 380.6,478.8 380.5,478.6 380.3,478.5 379.9,478.4 379.3,478.2 379,478.2 378.8,478.2 378.5,478.3 
		378.3,478.5 378,478.6 377.8,478.6 377.6,478.3 377.6,478 377.6,477.8 377.4,477.6 377.2,477.6 377,477.7 376.9,478 376.9,478.2 
		377,478.5 376.9,478.7 376.8,478.8 376.6,478.9 376.4,478.8 376.3,478.5 376.1,478.4 376,478.2 375.8,478.1 375.5,477.9 
		375.3,477.7 375.3,477.4 375.3,477.1 375.3,476.9 375.2,476.7 375,476.7 374.8,476.8 374.7,476.9 374.6,477.1 374.4,477.2 
		374.3,477.3 374.1,477.3 374,477.2 373.8,477.2 373.6,477.3 373.4,477.5 373.1,477.6 372.9,477.5 372.6,477.3 372.5,477 
		372.5,476.8 372.5,476.4 372.6,476.1 372.6,475.9 372.4,475.8 372.2,475.8 372,475.9 371.8,476 371.6,475.9 371.5,475.8 
		371.6,475.6 371.8,475.3 371.9,475.1 371.8,474.9 371.5,474.8 371.3,474.7 370.9,474.9 370.6,475 370.4,475.1 370.1,475.2 
		369.8,475.4 369.8,475.6 369.8,475.7 370,475.8 370.1,475.8 370.3,475.7 370.4,475.6 370.6,475.6 370.7,475.5 370.9,475.6 
		371,475.7 371,475.9 371,476.1 370.9,476.2 370.8,476.3 370.5,476.4 370.3,476.3 369.7,476.1 369.5,476 369.3,476 369.1,475.9 
		368.9,475.7 368.7,475.6 368.3,475.5 368.2,475.5 368,475.6 367.7,475.6 367.3,475.6 366.9,475.5 366.8,475.6 366.3,475.6 
		366,475.5 365.7,475.4 365.6,475.3 365.4,475 365.2,474.7 364.9,474.5 364.7,474.3 364.6,474.2 364.4,474.1 364.4,473.9 
		364.4,473.8 364.3,473.6 364.1,473.5 363.8,473.4 363.6,473.4 363.3,473.2 362.8,472.9 362.5,472.6 362.3,472.5 362.1,472.4 
		361.9,472.5 361.7,472.6 361.6,472.8 361.5,473.2 361.4,473.5 361.3,473.8 361.1,473.9 360.9,474 360.7,473.8 360.6,473.6 
		360.5,473.4 360.4,473.2 360.4,472.9 360.3,472.6 360.2,472.3 360,472 359.8,471.8 359.6,471.6 359.3,471.6 359.2,471.7 
		359.1,471.7 359,471.6 358.7,471.3 358.4,470.9 358.1,470.8 357.6,470.7 357.2,470.7 357,470.8 356.9,471 356.7,471 356.6,470.9 
		356.5,470.8 356.3,470.6 356.1,470.7 355.9,470.8 355.6,471 355.4,471 355.3,470.8 355.2,470.7 354.9,470.6 354.8,470.7 
		354.6,470.7 354.5,470.6 354.3,470.5 354.1,470.4 353.8,470.2 353.4,470.2 353.1,470.2 352.9,470.3 352.6,470.3 352.5,470.2 
		352.4,470.1 352.2,469.9 352.1,469.8 351.9,469.7 351.8,469.7 351.6,469.7 351.5,469.6 351.4,469.3 351.3,469.1 351.2,468.8 
		351.2,468.6 351.1,468.4 350.9,468.3 350.7,468.1 350.6,467.9 350.6,467.5 350.5,467.3 350.4,467.2 350.2,467 350.1,467 
		349.9,466.9 349.8,466.7 349.6,466.6 349.4,466.6 349.1,466.9 349.2,467.1 349.3,467.3 349.4,467.5 349.4,467.7 349.3,467.8 
		349.1,467.9 348.8,468 348,467.8 347.3,467.7 346.9,467.6 346.7,467.5 346.5,467.3 346.5,467.2 346.4,466.9 346.3,466.8 346,466.8 
		345.8,466.9 345.6,466.9 345.3,466.9 345,467 344.7,467.2 344.3,467.6 344.1,467.8 344,468.1 343.9,468.4 343.9,468.6 343.9,468.9 
		343.9,469.2 344,469.4 344,469.6 344.1,469.9 343.9,470.1 343.7,470.5 343.5,470.8 343.4,471.1 343.3,471.5 343.2,471.8 343,472 
		342.7,472.2 342.4,472.3 342.1,472.2 341.6,472.1 341.2,471.7 340.9,471.3 340.6,471.1 340.4,470.9 340.1,470.8 339.8,470.7 
		339.5,470.7 339.1,470.8 338.7,471 338.4,471.3 338.3,471.5 338.3,471.7 338.5,472.2 338.6,472.5 338.8,472.8 339.1,473.1 
		339.2,473.4 339.1,473.7 339,473.9 338.8,474.2 338.7,474.3 338.6,474.6 338.5,474.7 338.3,474.9 338.1,474.9 337.9,474.9 
		337.7,475 337.5,475.1 337.4,475.1 337.3,475 337.1,474.8 337,474.8 336.8,475 336.7,475.2 336.7,475.6 336.7,476 336.6,476.5 
		336.5,476.8 336.4,477.1 336.4,477.5 336.4,477.8 336.5,478 336.6,478.2 336.7,478.5 336.8,479 336.9,479.3 336.9,479.6 337,479.8 
		336.9,480.1 336.8,480.3 336.6,480.6 336.4,480.8 336.3,481 336.4,481.2 336.5,481.3 336.5,481.4 336.5,481.5 336.5,481.7 
		336.4,481.9 336.2,482.1 336.1,482.4 335.9,482.7 335.8,482.9 335.6,483.2 335.6,483.4 335.7,483.7 335.8,483.9 335.9,484.1 
		335.9,484.4 335.9,484.6 335.9,484.9 335.8,485.2 335.8,485.4 335.9,485.8 336.1,486 336.5,486.4 336.7,487 336.7,487.4 
		336.8,487.8 336.9,488 337.1,488.2 337.2,488.3 337.3,488.5 337.3,488.8 337.4,489 337.5,489.2 337.6,489.5 337.7,489.6 
		337.9,489.8 337.9,490.2 338,490.5 338.1,490.8 338.2,490.9 338.4,491.1 338.6,491.2 338.8,491.5 339,491.7 339.2,492.3 
		339.3,492.8 339.6,493.4 339.6,494.2 339.7,494.7 339.7,495.2 339.7,495.6 339.6,495.8 339.5,496.1 339.5,496.3 339.4,497 
		339.2,497.6 339.1,497.9 338.9,498.4 338.8,498.9 338.7,499.4 338.7,499.7 338.7,500 338.8,500.3 338.9,500.5 339,500.8 339,501 
		339,501.3 338.9,501.6 338.9,501.9 338.9,502.1 338.9,502.3 338.8,502.6 338.8,503.2 338.9,503.5 338.9,503.8 338.8,504 
		338.8,504.2 338.7,504.4 338.7,504.6 338.8,504.8 338.8,504.9 338.7,505.2 338.6,505.5 338.4,505.7 338.3,506 338.2,506.3 
		338.2,506.6 338,506.9 337.9,507 337.7,507.6 337.6,507.8 337.6,508 337.5,508.3 337.5,508.5 337.3,508.7 337,509 336.9,509.1 
		336.9,509.4 336.9,509.5 337.1,509.9 337.2,510.3 337.2,510.5 337.2,510.8 337.2,511 337,511.3 336.8,511.5 336.6,511.6 
		336.4,511.8 336.4,512.1 336.4,512.3 336.4,512.6 336.5,512.9 336.6,513.3 336.7,513.4 336.8,513.8 337,514.3 337.1,514.7 
		337.2,515.2 337.2,515.5 337.2,515.9 337.1,516.1 337,516.4 336.8,516.6 336.6,516.8 336.4,517 336.2,517.3 336,517.5 335.7,517.7 
		335.4,517.8 334.9,517.8 334.8,517.8 334.7,517.9 334.5,518 334.3,518 334.2,517.9 334.2,517.8 334,517.6 333.9,517.6 333.7,517.6 
		333.4,517.7 333.2,517.7 333,517.7 332.8,517.6 332.6,517.6 332.3,517.6 332.1,517.6 331.9,517.6 331.6,517.5 331.4,517.3 
		331.3,517.3 331.3,517.2 331.2,517.1 330.9,517 330.6,517 330.2,516.9 330,517 329.7,517.1 329.5,517.2 329.4,517.1 329.2,517 
		328.9,517 328.7,517 328.5,517.1 328.3,517.2 328.1,517.2 327.8,517.2 327.6,517.1 327.4,517.1 327.2,517.2 327,517.4 326.8,517.5 
		326.5,517.5 326.1,517.6 325.9,517.7 325.6,517.8 325.2,517.7 325,517.7 324.8,517.6 324.7,517.4 324.5,517.3 324.3,517.2 
		324.1,517.2 324.1,517.1 324.1,516.9 324,516.7 323.8,516.6 323.6,516.3 323.5,516.1 323.4,515.9 323.3,515.8 323.1,515.8 
		323,515.7 322.9,515.6 322.8,515.3 322.8,515.1 322.7,514.8 322.5,514.6 322.4,514.6 322.2,514.4 322.2,514.2 322.1,513.9 
		322,513.7 321.9,513.4 321.8,513.1 321.7,513 321.6,512.8 321.6,512.5 321.5,512.2 321.5,512 321.3,511.6 321.3,510.9 321.3,510.4 
		321.3,510 321.4,509.5 321.6,509 321.7,508.5 321.7,508 321.7,507.6 321.6,507.2 321.6,506.8 321.6,506.3 321.7,506 321.8,505.6 
		321.9,505.2 321.9,504.7 321.8,504.3 321.6,503.8 321.4,503.1 321,502.6 320.5,502.2 320.2,501.9 319.8,501.6 319.6,501.2 
		319.4,500.7 319.4,500.3 319.4,500 319.3,499.7 319.1,499.6 318.9,499.3 318.7,499.1 318.6,498.9 318.4,498.6 318.3,498.3 
		318.4,498 318.5,497.6 318.7,497.1 318.9,496.7 319,496.2 319.2,495.9 319.4,495.6 319.6,495.4 319.9,495.2 320.1,495 316.3,494.7 
		294.1,493.1 271.9,491.5 249.8,489.9 227.9,488.6 205.4,487.1 183.4,485.5 161.5,484 139.1,482.7 117.5,481.6 95,480.3 78.2,479.5 
		77.1,479.4 76.5,479.4 76.2,479.4 76,479.5 75.9,479.5 75.7,479.5 75.6,479.3 75.4,479 75.2,478.6 75.1,478.3 74.9,477.9 
		74.5,477.6 74,477.2 73.7,476.8 73.5,476.3 73.5,475.9 73.3,475.4 73,475.2 72.8,475.1 72.5,475 72.1,475.1 71.8,475.2 71.6,475.2 
		71.3,475.2 71.1,474.8 71,474.3 70.9,474 70.8,473.8 70.8,473.6 70.8,473.4 70.8,473 70.8,472.7 70.7,472.3 70.6,471.9 70.4,471.6 
		70.1,471.1 70,470.8 69.9,470.5 69.8,470.3 69.8,469.9 69.7,469.6 69.8,469.2 69.8,468.8 69.7,468.4 69.4,468 69.3,467.7 
		69.2,467.3 69.2,466.9 69.2,466.5 69.2,466.3 69.4,465.9 69.7,465.7 69.9,465.5 70.1,465.3 70.1,465.1 70,464.8 69.9,464.6 
		69.7,464.4 69.5,464.3 69.5,464.1 69.3,463.8 69.3,463.5 69.5,463.2 69.5,463 69.5,462.7 69.3,462.5 69.2,462.4 69.1,462.2 
		69.1,461.9 69.2,461.5 69.3,461.1 69.3,460.6 69.3,460.4 69.2,460.2 68.9,460 68.6,459.7 68.2,459.2 67.5,458.3 66.8,457.3 
		66.6,456.9 66.4,456.6 66.3,456.4 66.2,456.1 66,455.8 65.8,455.6 65.6,455.5 65.3,455.4 65.1,455.2 65,454.7 65.1,454 65.2,453.4 
		65.3,453.1 65.4,452.7 65.3,452.3 65.2,452 64.9,451.6 64.6,451.4 64.2,451.2 63.6,451.1 63.4,451 63.2,450.8 63.1,450.5 63.1,450 
		63.2,449.5 63.3,449 63.3,448.5 63.1,447.9 63.1,447 63,446.5 62.7,445.7 62.4,445.1 62.4,444.5 62.4,443.8 62.4,443.4 62.3,443 
		62.2,442.6 62,442.1 61.9,441.9 61.6,441.5 61.4,441.1 61,440.4 60.7,440 60.7,439.7 60.7,439.3 60.7,438.9 60.7,438.5 60.6,438 
		60.4,437.5 60.2,437.1 59.9,436.5 59.7,436.2 59.5,436 59.2,435.9 58.9,435.5 58.6,435.2 58.4,435 58.2,434.7 57.9,434.1 
		57.7,433.6 57.6,433.1 57.3,432.6 56.9,432.1 56.5,431.6 56.3,431.2 56.1,430.9 55.8,430.6 55.3,430.7 54.8,430.6 54.5,430.5 
		54.3,430.4 54.2,430 54.1,429.7 54.2,429.3 54.2,429 54.2,428.5 54.1,428.3 53.9,428 53.7,427.8 53.5,427.6 53.3,427.3 53.3,427 
		53.3,426.5 53.3,426.1 53.4,425.7 53.5,425.4 53.8,425.1 54,424.7 54.1,424.5 54,424.1 54.1,423.5 54.1,423 53.7,422 53.3,421 
		53.1,420.4 52.9,419.9 52.9,419.5 52.8,419 52.6,418.7 52.6,418.3 52.6,417.9 52.7,417.6 52.9,417.3 53.3,417.1 53.6,417 54,416.8 
		54.4,416.5 54.6,416.2 54.8,415.6 54.9,414.9 55.1,414.2 55.2,413.8 55.3,413.1 55.4,412.5 55.1,412 55,411.7 55.1,411.3 
		55.1,410.8 55.1,410.3 55,409.9 54.9,409.5 54.7,409.2 54.5,408.9 54.5,408.6 54.5,408.2 54.7,407.9 54.9,407.5 55.1,407.1 
		55.3,406.6 55.5,406 55.8,405.5 55.9,404.9 55.9,404.4 55.8,403.9 55.8,403.5 55.8,403 56,402.6 56,402 56.1,401.8 56.1,401.6 
		56.3,401.3 56.5,401.2 56.8,401.2 56.9,401.1 57,400.6 56.9,400.2 56.8,399.4 56.7,398.7 56.6,398 56.6,397.3 56.6,396.5 
		56.7,396.1 56.8,395.5 57,395.2 57.2,394.9 57.3,394.7 57.5,394.5 57.6,394 57.8,393.5 58.1,392.9 58.3,392.5 58.5,392 58.7,391.8 
		58.8,391.4 58.7,391.2 58.6,390.8 58.7,390.5 58.8,390.3 59,389.9 59.1,389.7 59.2,389.3 59.2,388.9 59.1,388.6 58.7,388 
		58.4,387.4 58.1,386.8 58,386.3 57.8,385.8 57.8,385.5 57.9,385.2 57.8,384.8 57.7,384.5 57.6,383.8 57.7,383.2 57.6,382.6 
		57.5,382.2 57.4,381.9 57.4,381.7 57.4,381.4 57.5,381.1 57.5,380.8 57.4,380.4 57.3,380.1 57.2,379.9 56.9,379.8 56.7,379.8 
		56.5,379.8 56.3,379.7 56.2,379.5 55.9,379.1 55.8,379 55.6,378.8 55.3,378.7 55.2,378.5 55.1,378.2 55.2,377.9 55.4,377.6 
		55.6,377.3 55.6,377 55.5,376.9 55.3,376.7 55.1,376.6 54.8,376.4 54.4,375.9 53.6,374.9 52.7,374 52.2,373.1 51.8,372.6 51.6,372 
		51.5,371.6 51.4,371.2 51.4,370.7 51.6,370.2 51.7,369.7 51.9,369.2 52,368.7 52.1,368.3 51.9,367.6 51.8,367.2 51.7,366.8 
		51.5,366.4 51.5,366.1 51.4,365.8 51.4,365.5 51.4,365 51.3,364.6 51.1,364.2 50.9,363.9 50.6,363.7 50.3,363.5 50.2,363.4 
		50.1,363.1 50.2,362.8 50.3,362.4 50.5,362 50.7,361.3 50.8,360.6 50.8,359.8 50.8,358.8 50.7,358.5 50.6,358.2 50.6,357.8 
		50.4,357.6 50.3,357.3 50.2,357 50.2,356.5 50.3,356.2 50.4,355.9 50.5,355.7 50.6,355.4 50.5,355.1 50.5,354.9 50.5,354.5 
		50.6,354.2 50.7,353.9 50.9,353.5 51.1,353 51.2,352.7 51.2,352.3 51.2,352 51,351.7 50.8,351.5 50.8,351.2 50.9,351 51.1,350.9 
		51.5,350.8 51.9,350.8 52.3,350.8 52.6,350.8 52.8,350.7 52.9,350.5 53,350.2 53,350.1 53,349.8 53,349.5 52.9,349.3 52.7,349.2 
		52.6,349.1 52.6,348.9 52.7,348.7 52.9,348.6 53.1,348.4 53.3,348.2 53.6,348 53.7,347.8 53.8,347.5 54,347.3 54.3,347.1 
		54.6,346.9 54.8,346.7 55,346.4 55.2,346.1 55.5,345.8 55.5,345.6 55.5,345.2 55.4,344.8 55.3,344.3 55.3,343.8 55.5,343.5 
		55.7,343.3 56.2,343.1 56.5,342.8 56.8,342.5 56.9,342.3 56.9,342 56.7,341.7 56.6,340.7 56.6,340.2 56.7,339.8 56.9,339.1 
		57.1,338.7 57.4,338.4 57.7,337.9 57.8,337.6 57.9,337.3 57.9,337.1 57.8,336.8 57.7,336.5 57.7,336 57.7,335.7 57.7,335.1 
		57.7,334.5 57.7,333.9 57.9,333 58,332.4 57.9,332.1 57.9,331.6 57.9,331.1 57.9,330.6 58.2,330.3 58.4,330 58.6,329.7 58.6,329.4 
		58.5,329 58,327.5 57.6,325.8 57.4,325.1 57.6,324.7 58,324.5 58.5,324.1 58.9,323.7 59.3,323.1 60,322.3 60.4,321.8 60.6,321.5 
		60.8,321.3 61,321 61.3,320.7 61.6,320.3 61.8,320 62,319.7 62.2,319.6 62.6,319.4 63,319.3 63.8,318.9 64.8,318.7 65.5,318.4 
		65.8,318.3 66.1,318.1 66.4,317.9 66.4,317.8 66.4,317.6 66.3,317.5 66.1,317.5 65.8,317.4 65.6,317.4 65.3,317.3 65.1,317.1 
		65,316.8 65.1,316.4 65.3,316.2 65.5,315.9 66,315.6 66.7,315.5 67.6,315.5 68.8,315.5 69.6,315.4 69.9,315.3 70,315.1 70.1,314.8 
		70.2,314.5 70.3,314.1 70.4,313.9 70.6,313.6 70.8,313.3 70.9,313 70.9,312.9 70.7,312.7 70.4,312.7 70.2,312.8 70.1,312.7 
		69.9,312.6 69.9,312.4 70.1,312.1 70.3,312 70.6,312 70.8,312 71.1,312 71.4,312.1 71.6,311.9 71.9,311.8 72.1,311.6 72.3,311.3 
		72.4,311 72.6,310.8 72.7,310.8 72.9,310.8 73.1,310.9 73.2,310.8 73.2,310.7 73.2,310.6 73,310.4 72.7,310.1 72.3,309.9 
		71.8,309.5 70.9,308.9 70.2,308.3 69.7,307.5 69.2,307.1 68.8,306.8 68.4,306.5 67.9,306.3 67.3,306.1 66.5,305.7 65.4,305.2 
		64.3,304.7 63.4,304.3 62.9,303.9 62.7,303.6 62.6,303 62.5,302.5 62.7,301.9 63,301.4 63.4,301 63.9,300.6 64.2,300.4 64.5,300 
		64.6,299.7 64.5,299.4 64.6,299 64.8,298.8 65,298.6 65.3,298.5 65.6,298.4 65.8,298.3 65.8,298.2 65.7,297.9 65.4,297.8 
		65.1,297.8 64.7,297.8 64.5,297.8 64.4,297.6 64.4,297.3 64.5,297 64.7,296.8 65.1,296.8 65.5,296.8 65.8,296.8 66,296.6 66,296.5 
		65.8,296.3 65.5,296.1 65.2,295.8 65.1,295.3 65.1,294.9 65.2,294.5 65.4,294.2 65.7,294 66.1,293.7 66.3,293.4 66.5,293 
		66.6,292.6 66.4,292.2 66.2,291.9 65.9,291.5 65.6,291.3 65.2,291.2 64.8,290.9 64.4,290.6 64.1,290.2 63.8,289.8 63.6,289.4 
		63.6,288.7 63.6,288.3 63.6,287.8 63.6,287.3 63.6,286.6 63.6,286 63.5,285.5 63.4,285 63.4,284.2 63.2,283.6 63,283.1 62.7,282.6 
		62.4,282.4 62.2,282.1 62,281.8 61.9,281.5 61.5,281.2 61.3,281 61.2,280.9 61.1,280.6 61.1,280.5 60.9,280.2 60.6,280.1 
		60.4,279.9 60,279.4 57,276.1 56.5,275.4 56,274.1 55.6,272 55.3,271.8 55.2,271.6 55.1,271.3 55.2,270.9 55.4,270.6 55.6,270.4 
		55.6,270.3 55.4,270.1 55.2,270 54.9,270 54.6,270 54.4,269.8 54.2,269.8 54,269.7 53.8,269.6 53.6,269.4 53.7,269.1 55,267.8 
		54.1,265.7 52.3,261.4 52.3,261 52.4,260.8 52.6,260.6 52.8,260.2 52.9,259.7 52.8,259.3 52.6,258.9 52.1,258.6 51.4,258.3 
		50.6,258.2 50.5,257.9 50.1,257 51.8,255.2 50.9,254.2 50.3,253.3 50,253 48.4,252.1 47.9,251.5 47.8,251.1 47.8,250.8 47.9,250.4 
		47.9,250.1 47.9,249.8 47.7,249.5 47.6,249.1 47.7,248.8 47.9,248.5 48.1,248.3 48.3,248.1 48.9,247.1 48.1,246.4 47.6,246.5 
		46.8,246.4 46.5,246.2 42.7,223.7 39,202.2 35.8,181.4 32.4,160.8 28.9,139.6 25.5,118.7 21.9,98 18.2,76.7 14.3,55.2 7.5,14.8 
		151.1,14.5 238.4,13 238.6,13.4 238.6,13.5 238.7,13.6 238.9,13.8 238.9,14 238.8,14.3 238.7,14.5 238.4,14.8 238.1,15.1 238,15.3 
		237.9,15.5 237.7,15.7 237.4,15.9 237.3,16.1 237.2,16.4 237.1,16.6 237.1,16.9 237.2,17.1 237.3,17.3 237.2,17.4 237.1,17.6 
		237.3,17.7 237.5,17.9 237.7,18 237.7,18.3 237.5,18.4 237.3,18.2 237.1,18.1 236.9,18 236.7,18.1 236.6,18.3 236.6,18.6 
		236.8,18.8 237.1,19.1 237.3,19.2 237.5,19.4 237.7,19.7 237.6,19.9 237.5,20 237.2,20.1 237,20.2 236.7,20.1 236.6,19.8 
		236.4,19.7 236.2,19.8 236.1,20 236.1,20.4 236,20.6 235.8,20.7 235.6,20.8 235.4,21 235.2,21.1 234.9,21.1 234.7,21 234.4,20.8 
		234.2,20.6 234,20.5 233.8,20.5 233.6,20.7 233.6,21 233.6,21.4 233.6,21.6 233.6,21.9 233.5,22.1 233.4,22.1 233.2,22.1 233,21.8 
		232.8,21.7 232.5,21.8 232.3,22 232.1,22.2 231.7,22.7 231.4,22.9 231.3,23.2 231.2,23.5 231,23.7 230.8,23.9 230.6,24 230.4,24 
		230.3,24.1 230.1,24.3 230.1,24.4 230,24.6 229.7,24.6 229.6,24.6 229.5,24.7 229.5,24.8 229.5,25.1 229.5,25.5 229.4,25.7 
		229.3,25.9 229.2,25.9 228.9,25.9 228.8,25.8 228.7,25.5 228.6,25.4 228.4,25.3 228.3,25.4 228.2,25.6 228.1,25.7 227.9,25.9 
		227.7,26 227.5,26.1 227.2,26.2 226.8,26.2 226.5,26.2 226.3,26.2 226.1,26.2 225.9,26.4 225.9,26.6 226.1,26.8 226.2,26.9 
		226.2,27.2 226.1,27.3 226,27.5 225.8,27.5 225.5,27.5 225.3,27.5 225.1,27.5 225,27.6 225.1,27.7 225.2,27.8 225.4,28.1 
		225.4,28.3 225.3,28.5 225.1,28.7 224.9,28.8 224.9,29.1 225,29.4 225,29.6 225,29.9 224.8,29.9 224.6,29.9 224.4,29.7 224.1,29.5 
		223.9,29.5 223.6,29.6 223.5,29.8 223.4,30 223.4,30.2 223.3,30.4 223.1,30.7 223.2,31 223.4,31.1 223.5,31.3 223.5,31.7 223.4,32 
		223.4,32.3 223.3,32.5 223.1,32.7 222.8,32.8 222.6,32.7 222.4,32.6 222.2,32.4 222,32.3 221.7,32.3 221.5,32.4 221.3,32.7 
		221.3,32.8 221.1,32.9 220.9,33 220.7,32.9 220.4,32.8 220.3,32.7 220.2,32.8 220,32.9 220,33.2 220.1,33.4 220.3,33.6 220.5,33.8 
		220.6,34 220.5,34.2 220.4,34.3 220.1,34.5 219.7,34.7 219.4,34.9 219.1,35.2 218.8,35.5 218.5,35.9 218.5,36.2 218.5,36.6 
		218.6,37.1 218.7,37.5 218.7,38 218.7,38.3 218.7,38.7 218.7,39.1 218.7,39.3 218.7,39.5 218.5,39.6 218.3,39.7 218.1,39.9 
		217.9,40.2 217.8,40.4 217.7,40.5 217.5,40.6 217.3,40.8 217.3,41 217.1,41.1 217,41.3 216.7,41.5 216.5,41.6 216.2,41.8 216,42.1 
		215.7,42.4 215.5,42.8 215.5,43 215.4,43.5 215.5,43.8 215.6,44.2 215.8,44.6 215.9,44.9 216,45.1 215.9,45.3 215.7,45.5 
		215.6,45.8 215.7,46 215.8,46.1 216.2,46.2 216.4,46.3 216.6,46.5 216.8,46.8 216.8,47.1 216.7,47.4 216.6,47.7 216.7,47.9 217,48 
		217.3,48 217.6,48 218.1,48.2 218.3,48.4 218.5,48.6 218.8,48.8 219.1,49 219.5,49 219.9,49 220.1,49.1 220.4,49.3 220.6,49.7 
		220.7,50 221,50.5 221.5,51 222.2,51.3 222.9,51.8 223.7,52.2 224.3,52.6 224.9,52.9 225.3,53.4 225.6,53.8 225.8,54.2 226,54.6 
		226.3,54.9 226.7,55.1 227.2,55.1 227.7,55.1 228.5,55.2 228.9,55.3 229.3,55.5 229.7,55.7 230,55.9 230.3,56 230.5,55.9 
		230.9,55.7 231.2,55.7 231.6,55.7 231.8,55.7 232.5,55.9 232.9,56 233,56.1 233.1,56.3 233,56.5 232.8,56.5 232.5,56.8 232.4,57.1 
		232.5,57.3 232.7,57.5 233,57.6 233.2,57.6 233.5,57.8 233.6,57.9 233.6,58.2 233.6,58.4 233.7,58.6 233.8,58.8 234.4,59 
		234.7,59.2 235,59.6 235.1,59.8 235.2,60.2 235.3,60.4 235.5,60.7 235.8,60.8 236,60.8 236.2,60.8 236.5,60.8 236.7,61 236.7,61.1 
		236.7,61.4 236.8,61.5 237,61.5 237.1,61.6 237.3,61.7 237.6,61.9 237.7,62 238.1,62.4 238.2,62.7 238.4,63.1 238.5,63.4 
		238.7,63.8 239,63.9 239.3,64 239.6,63.9 239.9,63.9 240.2,64 240.4,64.2 240.7,64.4 240.7,64.7 240.6,64.9 240.4,65.2 240.4,65.4 
		240.5,65.7 240.6,65.9 240.9,66.2 241.4,66.8 241.8,67 242.1,67.1 242.4,67.1 242.7,67.1 242.9,67.1 243.1,67.2 243.2,67.4 
		243.3,67.6 243.4,67.8 243.5,68 243.9,68.5 244.5,68.8 245,69 245.5,69.2 246,69.4 246.5,69.7 246.9,69.9 247.2,70 247.5,70.2 
		247.7,70.4 248,70.5 248.2,70.4 248.6,70.2 248.7,70.1 248.9,69.8 249,69.6 249.4,69.4 249.7,69.3 249.9,69.3 250.2,69.4 
		250.3,69.4 250.5,69.5 250.7,69.5 250.9,69.4 251.1,69.2 251.4,69.2 251.6,69.2 251.8,69.3 252,69.4 252.2,69.6 252.5,69.8 
		252.7,69.8 253.1,69.7 253.3,69.5 253.6,69.2 254,69.2 254.4,69.2 254.7,69.3 255.1,69.5 255.3,69.5 255.6,69.5 255.9,69.4 
		256.2,69.2 256.6,69 256.9,69 257.3,69 257.8,69.2 258.5,69.5 259.1,69.9 259.3,70.2 259.6,70.5 259.7,70.8 259.8,71 259.9,71.2 
		260.2,71.5 260.4,71.6 260.6,71.8 260.8,72.3 261,72.6 261.3,73.5 261.5,74.4 261.6,74.9 261.9,75.4 262,75.7 262.1,76.1 
		262.1,76.4 262.2,76.8 262.2,77.1 262.3,77.4 262.4,77.7 262.6,78 262.7,78.4 262.8,78.9 262.8,79.2 263,79.6 263.2,79.9 
		263.3,80.2 263.4,80.5 263.4,80.8 263.4,81.3 263.5,81.9 263.6,82.1 263.7,82.3 263.9,82.5 264.1,82.7 264.4,82.9 264.7,83.1 
		265.2,83.4 265.7,83.8 266.3,84.3 266.6,84.6 266.8,85 267,85.4 267.2,85.8 267.4,86.8 267.6,87.6 267.9,88.2 268.2,88.7 
		268.4,89.3 268.7,89.8 269,90.2 269.2,90.4 269.4,90.7 269.8,91 270.3,91.3 270.6,91.6 270.8,91.9 271.1,92.3 271.2,92.7 
		271.4,93.3 271.5,93.7 271.6,94.5 271.8,95.4 272,95.8 272,96.2 271.9,96.7 271.9,97 271.9,97.3 272,97.6 272.1,97.8 272.1,98.1 
		272.1,98.4 272,98.7 272,98.9 272.1,99.2 272.3,99.4 272.4,99.7 272.6,99.9 272.9,100.4 273,101 273,101.4 272.9,101.9 
		272.9,102.2 273,102.5 273.2,102.9 273.4,103.2 273.5,103.6 273.9,104.3 274,104.9 274.3,105.4 274.5,105.6 274.7,105.8 
		275.1,106.1 275.4,106.3 275.8,106.4 276.1,106.6 276.5,106.7 276.8,106.8 277,107 277.3,107.3 277.5,107.5 277.8,107.7 278.1,108 
		278.3,108.4 278.6,108.8 279,109.7 279.4,110.3 279.7,110.7 280,111 280.4,111.2 280.7,111.5 280.9,111.7 281,112 281,112.3 
		281,112.5 280.9,112.9 280.8,113.3 280.9,113.8 281.1,114.2 281.4,114.5 281.7,114.7 282,114.8 282.3,114.9 282.5,115 282.7,115.3 
		282.9,115.6 283.1,115.9 283.3,116.2 283.5,116.5 283.7,116.7 283.9,116.9 284.1,117.2 284.3,117.5 284.5,117.7 284.8,118 
		285.2,118.3 285.3,118.5 285.4,118.8 285.4,119.2 285.4,119.5 285.5,119.9 285.7,120.5 286,121 286.5,121.8 286.7,122.5 
		286.9,123.1 287.1,123.5 287.2,123.9 287.4,124.2 287.6,124.5 287.8,124.9 287.9,125.3 288,125.6 288,125.9 288.2,126.3 
		288.6,126.8 289,127.2 289.3,127.4 289.6,127.6 290.1,127.7 290.4,127.7 290.8,127.8 291.2,127.8 291.6,127.9 292,128 292.4,128.1 
		292.8,128.3 293.1,128.5 293.3,128.9 293.6,129.3 293.9,129.6 294.2,130.2 294.6,130.7 295.2,131.5 295.8,132 296.6,132.7 
		297.7,133.6 299.2,134.7 300.3,135.7 300.8,136 301.3,136.3 301.6,136.5 302.1,136.6 302.6,136.7 303.2,136.8 303.8,137 
		304.2,137.1 304.5,137.3 305,137.9 306.3,139 307,139.5 307.4,139.5 307.7,139.6 308,139.6 308.3,139.7 308.5,139.9 309,140.5 
		310.5,141.7 312,142.9 312.3,143.2 312.5,143.5 312.7,143.9 312.8,144.2 312.8,144.7 312.9,145.1 313.1,145.5 313.2,145.7 
		313.5,145.7 313.9,145.8 314.2,145.9 314.5,146.1 315,146.6 315.7,147.2 316.3,147.7 317,148.4 317.4,148.9 317.6,149.4 
		317.8,149.8 318,150.5 318.2,150.8 318.3,151.1 318.3,151.5 318.4,151.7 318.5,152 318.6,152.3 318.6,152.6 318.5,152.9 
		318.5,153.3 318.6,153.7 318.8,154.2 319.1,154.6 319.4,155 319.8,155.3 320.2,155.7 320.8,156.3 321,156.6 321.2,156.9 
		321.4,157.2 321.6,157.4 321.8,157.6 321.9,157.8 322,158.1 322,158.3 322,158.7 322,159 321.9,159.6 321.9,160.2 322,160.7 
		322.2,161.1 322.5,162 322.7,162.3 323.2,162.9 323.8,163.5 324.3,163.7 324.7,163.8 325.1,163.9 325.5,164 325.8,164.1 326,164.3 
		326.3,164.6 326.4,165 326.6,165.3 327,165.7 327.2,165.9 327.5,166.1 327.8,166.3 328.1,166.3 328.4,166.3 328.8,166.1 
		329.1,165.9 329.4,165.7 329.7,165.5 330.2,165.5 330.4,165.5 330.7,165.6 331,166 331.3,166.2 331.5,166.5 331.7,166.8 332,167 
		332.3,167.2 332.7,167.3 333.1,167.5 333.5,167.7 333.8,168 334.3,168.3 334.6,168.5 334.9,168.7 335.4,168.9 335.8,169.1 
		336.1,169.3 336.3,169.6 336.7,170 337,170.4 337.6,171.1 337.9,171.6 338.2,171.9 338.5,172.1 339,172.5 339.2,172.6 339.4,172.9 
		339.4,173.1 339.5,173.3 339.7,173.5 339.9,173.7 340.2,174 340.4,174.4 340.6,174.7 340.8,175 341.1,175.5 341.2,175.8 
		341.3,176.1 341.3,176.6 341.3,177.1 341.5,177.4 341.8,177.6 342.1,177.8 342.3,177.9 342.8,178 343.2,178.2 343.6,178.3 
		344,178.4 344.4,178.6 344.7,178.8 345,179 345.3,179.1 345.6,179.2 345.9,179.4 346.2,179.5 346.5,179.7 346.9,179.8 347.1,180.1 
		347.4,180.3 347.6,180.7 347.8,181.3 348,181.7 348.3,182.1 348.5,182.4 348.5,182.7 348.5,183 348.4,183.2 348.2,183.4 
		347.9,183.5 347.5,183.6 347.2,183.7 347,183.9 346.9,184 346.9,184.2 347,184.4 347.2,184.8 347.4,185.1 347.4,185.3 347.4,185.6 
		347.3,185.9 347.1,186.1 346.9,186.2 346.6,186.2 346.4,186.2 346,186.2 345.8,186.2 345.6,186.4 345.6,186.6 345.7,186.9 
		345.9,187.1 346.2,187.3 346.4,187.4 346.6,187.7 346.7,188 346.6,188.4 346.7,188.7 346.9,189.2 347.1,189.5 347.3,189.8 
		347.4,190 347.3,190.3 347.2,190.5 347,190.6 346.7,190.5 346.4,190.4 346.2,190.2 346,190.1 345.8,190.1 345.5,190.3 345.4,190.6 
		345.5,190.9 345.8,191.2 346.1,191.4 346.4,191.8 346.4,192.1 346.3,192.5 346.2,192.8 346.1,193 346.2,193.1 346.4,193.2 
		346.6,193.3 347,193.2 347.5,193.1 347.6,193.2 347.8,193.3 347.9,193.2 348.1,193.1 348.4,193 348.7,192.9 348.9,193.1 
		348.9,193.2 348.6,193.4 348.4,193.5 348.1,193.7 348,194 347.9,194.2 348.1,194.4 348.3,194.6 348.6,194.7 348.7,194.8 348.9,195 
		348.9,195.2 348.8,195.4 348.7,195.6 348.8,195.8 349,195.7 349.1,195.5 349.2,195.3 349.2,195 349.3,194.6 349.5,194.3 
		349.8,194.3 349.9,194.4 350,194.7 349.9,195 349.8,195.2 349.9,195.5 350.1,195.6 350.4,195.7 350.6,195.8 350.6,195.9 
		350.5,196.2 350.6,196.3 350.8,196.3 351.1,196.2 351.3,196.2 351.4,196.3 351.4,196.6 351.4,196.9 351.3,197.1 351.4,197.4 
		351.7,197.4 352,197.3 352.1,197.2 352.3,196.9 352.5,196.7 352.8,196.7 353,196.8 353.1,197 353.1,197.2 353.2,197.4 353.4,197.5 
		353.5,197.5 353.7,197.3 353.9,197.1 354.1,197 354.4,197.1 354.6,197.4 354.7,197.6 354.6,197.8 354.5,198 354.5,198.2 
		354.4,198.2 354.3,198.3 354.1,198.2 353.9,198.2 353.7,198.1 353.5,198.1 353.4,198.1 353.3,198.3 353.3,198.5 353.3,198.7 
		353.3,199 353.3,199.3 353.5,199.4 353.9,199.7 354.3,199.7 354.6,199.8 354.8,199.9 354.9,200.2 355.1,200.5 355.3,200.6 
		355.5,200.7 355.6,200.8 355.7,201 355.7,201.2 355.7,201.4 355.6,201.6 355.8,201.7 356,201.8 356.2,201.9 356.3,202 356.4,202.3 
		356.3,202.4 356.1,202.5 355.9,202.5 355.6,202.4 355.4,202.2 355.3,202 355.1,201.8 354.9,201.7 354.7,201.7 354.6,201.9 
		354.5,202 354.6,202.2 354.8,202.4 355,202.6 355.1,202.7 355.2,202.9 355.2,203 355,203.1 354.8,203.1 354.6,203.1 354.4,203.1 
		354.2,203.2 354.2,203.3 354.2,203.5 354.4,203.8 354.5,204 354.8,204.2 355.1,204.5 355.6,204.8 356.1,205.1 356.4,205.5 
		356.7,205.8 357.2,205.9 357.5,206 357.8,206.1 358.1,206.3 358.2,206.6 358.2,206.9 358.3,207.3 358.5,207.4 358.6,207.5 
		358.9,207.6 359.1,207.6 359.6,207.8 360.3,208 360.7,207.9 360.9,207.7 361,207.5 360.9,207.2 360.8,206.9 360.8,206.7 361,206.5 
		361.2,206.5 361.5,206.7 361.7,206.9 362,207.2 362.1,207.5 362.2,207.8 362.3,208 362.5,208.3 362.7,208.5 362.8,208.7 362.9,209 
		363,209.3 362.9,209.5 362.8,209.7 362.6,209.9 362.5,210 362.3,210.1 362.1,210.3 362,210.4 362.1,210.6 362.1,210.8 362,210.9 
		361.9,211 361.8,211.1 361.8,211.3 361.9,211.5 362.1,212.1 362.3,212.7 362.5,213.3 362.8,213.7 363.2,214.2 363.8,214.8 
		364.5,215.3 365,215.8 365.5,216.2 365.8,216.5 366,216.8 366.3,217 366.5,217 366.7,217.1 367.1,217.3 367.3,217.5 367.5,217.7 
		367.8,217.8 368.1,218 368.6,218 369.6,218.3 370.5,218.7 371.3,219 371.8,219.3 372.2,219.7 372.6,220.1 372.9,220.3 373.2,220.5 
		373.5,220.6 373.8,220.7 374.1,220.6 374.5,220.6 375,220.4 375.8,220.3 376.2,220.3 376.5,220.4 376.7,220.6 376.7,220.9 
		376.6,221.1 376.5,221.3 376.3,221.5 376.3,221.7 376.4,221.9 376.5,221.9 376.7,221.8 376.9,221.7 377.1,221.4 377.2,221.3 
		377.4,221.3 377.6,221.5 377.7,221.6 377.7,221.8 377.7,222 377.6,222.2 377.4,222.3 377.3,222.5 377.4,222.6 377.6,222.7 
		377.7,222.8 378,222.8 378.3,222.8 378.5,222.8 378.7,222.9 378.9,223 379,223.1 379.1,223.3 379.3,223.5 379.5,223.6 379.6,223.6 
		379.7,223.8 379.7,224 379.8,224.3 380,224.5 380.2,224.7 380.4,224.8 380.5,224.7 380.6,224.6 380.6,224.5 380.6,224.3 
		380.6,224.1 380.8,224 381,224.2 381.2,224.3 381.4,224.7 381.3,224.9 381.3,225 381.1,225.1 380.9,225.2 380.7,225.3 380.8,225.6 
		381,225.7 381.2,225.8 381.7,225.9 382,225.8 382.2,225.6 382.4,225.4 382.7,225.4 382.8,225.5 382.9,225.8 383.2,226.1 
		383.4,226.2 383.6,226.3 383.8,226.2 383.9,226.2 384.2,226.4 384.2,226.6 384.3,226.8 384.5,227 384.8,227.2 385.2,227.4 
		385.5,227.4 385.7,227.5 385.7,227.7 385.7,227.8 385.5,227.9 385.4,227.9 385.3,228.1 385.3,228.3 385.4,228.4 385.7,228.6 
		385.8,228.7 385.8,228.9 385.7,229.1 385.7,229.3 385.9,229.5 386,229.4 386.1,229.2 386.3,229.1 386.6,229.1 386.7,229.2 
		386.9,229.3 387.1,229.4 387.3,229.5 387.5,229.5 387.6,229.7 387.6,229.9 387.4,230 387.1,230.1 386.9,230.2 386.8,230.3 
		386.8,230.5 386.9,230.6 387.1,230.7 387.4,230.8 387.5,231.1 387.5,231.3 387.4,231.5 387.3,231.8 387.2,232.2 387.1,232.6 
		387,233 386.9,233.8 386.8,234.2 386.7,234.5 386.6,234.6 386.4,234.6 386.2,234.5 386.1,234.3 386,234.1 385.8,234.1 385.7,234.1 
		385.7,234.3 385.7,234.6 385.8,235.3 385.9,235.7 386.2,236.1 386.5,236.3 386.6,236.5 386.7,236.7 386.6,237 386.5,237.2 
		386.6,237.5 386.8,237.8 387,238 387.3,238.3 387.7,238.6 388,238.8 388.1,238.9 388.2,239.2 388.1,239.3 388,239.4 388,239.6 
		388,239.8 388.2,239.9 388.3,240.1 388.4,240.2 388.5,240.5 388.5,240.8 388.5,241.1 388.5,241.3 388.5,241.4 388.6,241.7 
		388.7,241.8 388.8,241.9 389,241.9 389.1,241.8 389.2,241.6 389.3,241.4 389.5,241.4 389.7,241.4 389.9,241.5 390,241.7 
		390.1,241.9 390.1,242.1 390.1,242.2 389.9,242.3 389.7,242.3 389.4,242.3 389.2,242.4 389.1,242.5 388.8,242.8 388.7,243.2 
		388.6,243.4 388.8,243.6 389,243.8 389.2,243.9 389.5,243.9 389.6,243.7 389.9,243.7 390.1,243.7 390.2,244 390.4,244.1 
		390.7,244.3 390.9,244.4 391.1,244.5 391.2,244.7 391.3,244.9 391.2,245.3 391.2,245.5 391,245.9 390.9,246.3 390.7,246.6 
		390.6,246.9 390.6,247.2 390.6,247.3 390.7,247.4 390.8,247.5 391,247.4 391.2,247.2 391.4,247 391.6,246.8 391.9,246.8 392,247 
		392.1,247.2 392.1,247.5 392.1,247.8 392.3,247.8 392.6,247.7 392.9,247.6 393.2,247.7 393.4,247.8 393.6,248.1 393.8,248.4 
		394,248.7 394,248.9 394,249.1 393.9,249.2 393.7,249.3 393.5,249.2 393.4,249.3 393.3,249.4 393.4,249.6 393.6,249.7 393.8,249.9 
		393.8,250.1 393.7,250.3 393.6,250.4 393.8,250.5 394,250.6 394.1,250.7 394.1,250.9 393.8,251.2 393.7,251.2 393.5,251.4 
		393.5,251.6 393.6,251.8 393.6,252 393.6,252.2 393.5,252.4 393.4,252.5 393.5,252.6 393.7,252.8 393.9,253.1 393.9,253.2 
		393.8,253.4 393.7,253.5 393.6,253.7 393.4,253.9 393.3,254.1 393.3,254.2 393.4,254.4 393.6,254.5 393.8,254.5 394.1,254.5 
		394.4,254.7 394.4,254.9 394.4,255.1 394.1,255.1 393.9,255.2 393.5,255.3 393.3,255.4 393.2,255.5 393.3,255.7 393.6,255.7 
		393.8,255.7 394,255.8 394.2,255.9 394.2,256.1 394.3,256.3 394.5,256.3 394.7,256.4 394.8,256.6 394.8,256.8 394.9,256.9 
		395.1,257 395.2,257.1 395.2,257.2 395,257.3 394.7,257.4 394.5,257.5 394.2,257.6 394.1,257.8 394.1,257.9 394.3,258 394.5,258 
		394.7,258 394.9,258 395.1,258 395.3,258.1 395.4,258.3 395.4,258.5 395.3,258.7 395.2,258.8 395,259 394.9,259.2 394.9,259.3 
		394.8,259.5 394.7,259.6 394.5,259.7 394.5,260 394.5,260.3 394.7,260.5 394.9,260.6 394.9,260.8 394.7,261 394.5,261.2 
		394.4,261.3 394.5,261.5 394.6,261.7 394.6,261.9 394.3,262.1 394,262.1 393.8,262.3 393.6,262.6 393.6,262.9 393.7,263.1 
		393.8,263.2 394.1,263.4 394.3,263.6 394.5,263.8 394.7,263.8 394.8,263.8 395,263.8 395.3,264.1 395.4,264.4 395.4,264.7 
		395.6,265 395.8,265.3 395.9,265.5 396,265.7 395.9,266 395.7,266.2 395.7,266.5 395.8,266.8 396,267 396.2,267.2 396.2,267.4 
		396.1,267.4 395.9,267.4 395.8,267.2 395.5,267.2 395.3,267.4 395.4,267.7 395.7,267.8 396,267.8 396.3,267.9 396.4,268.1 
		396.5,268.4 396.3,268.7 396.1,268.9 395.9,269.1 395.6,269.4 395.2,269.5 394.7,269.8 394.5,270.1 394.4,270.3 394.3,270.7 
		394.5,271 394.6,271.2 394.8,271.5 395,271.8 395.3,272.1 395.8,272.7 396.1,273.2 396.5,273.6 396.7,274 397,274.3 397.2,274.6 
		397.6,275 397.8,275.1 398,275.2 398.1,275.1 398.3,275 398.5,274.9 398.7,275 398.8,275.2 399,275.4 399.1,275.5 399.3,275.6 
		399.2,276 399.2,276.2 399.4,276.3 399.5,276.3 399.7,276.1 399.9,276 400.2,276 400.2,276.2 400.2,276.5 400.1,276.7 400.2,276.9 
		400.4,277 400.8,277.2 401.5,277.7 402.2,277.9 403,278.1 403.6,278.2 404.4,278.2 404.9,278 405.1,277.9 405.3,277.8 405.5,277.9 
		405.5,278.1 405.5,278.4 405.6,278.6 405.8,278.6 405.8,278.4 405.9,278.1 406,278 406.2,278.1 406.3,278.3 406.3,278.6 
		406.3,278.7 406.4,278.8 406.5,278.9 406.7,278.8 406.9,278.6 407.1,278.7 407.2,279 407.2,279.2 407.2,279.4 407.3,279.5 
		407.5,279.7 407.5,279.9 407.4,280.2 407.4,280.4 407.4,280.6 407.5,280.9 407.7,281.1 408,281.4 408.5,281.8 409.3,282.4 
		409.8,282.6 410.1,282.8 410.3,282.8 410.7,282.8 411,282.8 411.2,282.9 411.4,283.2 411.4,283.4 411.3,283.7 411.2,283.9 
		411.2,284.2 411.2,284.4 411.3,284.7 411.5,284.9 412.2,285.7 413.2,286.8 414.4,287.9 414.8,288.3 415.1,288.4 415.3,288.4 
		415.5,288.5 415.7,288.7 415.6,288.9 415.5,289 415.3,289 415.2,289.3 415.3,289.5 415.3,289.6 415.2,289.7 415,289.8 414.7,289.9 
		414.5,289.9 414.3,290.1 414.2,290.3 414.2,290.4 414.3,290.6 414.5,290.8 414.6,290.9 414.5,291.1 414.4,291.2 414.1,291.4 
		413.9,291.7 413.9,292.1 414,292.5 414.1,293 414.4,293.6 414.8,294.2 415.5,295.1 416.2,296 416.5,296.4 416.6,296.8 416.7,297 
		416.6,297.4 416.5,297.7 416.4,297.9 416.5,298.2 416.8,298.5 417,298.7 417.3,299.1 417.4,299.3 417.4,299.5 417.4,299.7 
		417.3,299.8 417.3,299.9 417.4,300.1 417.6,300.3 417.8,300.4 417.9,300.5 418,300.7 418,301 418.1,301.2 418.3,301.2 418.5,301.3 
		418.6,301.5 418.5,301.6 418.4,301.8 418.4,302 418.4,302.1 418.6,302.2 418.8,302.1 419,301.9 419.2,301.7 419.3,301.4 
		419.4,301.2 419.6,301.1 419.8,301.2 420,301.4 420.1,301.6 420.3,301.8 420.6,302.1 420.9,302.2 421.1,302.5 421,302.8 
		420.8,302.9 420.6,303.2 420.4,303.5 420.4,303.7 420.6,303.8 420.7,303.9 420.8,304 420.9,304.3 421,304.6 421,305.2 420.9,305.5 
		420.9,305.7 420.9,305.9 421.1,306 421.2,306 421.4,306 421.5,306.2 421.5,306.4 421.6,306.7 421.6,307 421.8,307.8 421.8,308.1 
		421.7,308.3 421.6,308.5 421.5,308.6 421.3,308.7 421.3,308.9 421.4,309.1 421.4,309.3 421.2,309.4 421,309.4 420.8,309.5 
		420.7,309.7 420.7,309.8 420.4,309.8 420.3,309.8 420.1,309.9 420.1,310.1 420.2,310.3 420.1,310.5 419.9,310.6 419.7,310.6 
		419.5,310.7 419.3,311 419.2,311.3 419.2,311.6 419.4,311.8 419.4,311.9 419.3,312.1 419,312.3 418.8,312.4 418.6,312.7 
		418.5,312.9 418.5,313.1 418.5,313.3 418.7,313.5 418.9,313.6 419.2,314 419.6,314.3 419.6,314.5 419.5,314.7 419.4,314.9 
		419.2,315 419.1,315 418.9,315.2 419.1,315.4 419.2,315.5 419.4,315.5 419.7,315.6 419.9,315.7 420,315.9 420.1,316.1 420.3,316.3 
		420.5,316.5 420.7,316.6 420.9,316.8 421.1,317 421.3,317.4 421.5,317.7 421.5,317.8 421.6,318 421.8,318.1 422,318.1 422.2,318.1 
		422.3,318.2 422.3,318.4 422.2,318.5 421.9,318.6 421.7,318.7 421.7,318.9 421.8,319.1 422,319.3 422.1,319.6 422.2,319.7 
		422.3,320 422.5,320.1 422.6,320.2 422.7,320.5 422.6,320.6 422.4,320.8 422.2,320.8 421.9,320.7 421.6,320.7 421.2,320.8 421,321 
		420.9,321.3 420.9,321.5 421.1,321.6 421.3,321.7 421.3,321.9 421.4,322.1 421.5,322.3 421.7,322.6 421.8,322.7 422,322.7 
		422.1,322.8 422.2,323 422.2,323.2 422.2,323.3 422,323.4 421.8,323.6 421.6,323.9 421.5,324.2 421.5,324.4 421.7,324.6 421.8,325 
		421.9,325.3 422,325.7 421.9,326 421.9,326.4 422,326.6 422.2,326.8 422.4,327 422.7,327.1 423,327.2 423.2,327.2 423.5,327.2 
		423.8,327.2 424.1,327.3 424.3,327.5 424.5,327.7 424.7,327.9 424.8,328.1 425.1,328.4 425.6,328.9 426,329.2 426.4,329.4 
		426.6,329.6 427,329.7 427.2,329.8 427.5,329.8 427.8,329.8 428.1,329.7 428.4,329.5 428.7,329.2 429.3,329 430,328.7 430.7,328.5 
		431.3,328.6 432.2,328.6 432.8,328.7 433.2,328.9 433.5,329.2 433.7,329.6 433.9,329.9 434.1,330.4 434.4,330.7 435,331.1 
		435.6,331.4 436.4,331.6 436.9,331.8 437.3,332.2 437.7,332.6 438.2,333.1 438.5,333.4 438.9,333.7 439.1,333.8 439.6,333.9 
		440.2,334 440.4,334 440.4,334.1 440.7,334.5 441.3,334.6 441.7,334.6 442.3,334.5 442.7,334.7 443,335.3 443.5,336.1 443.6,336.9 
		443.7,337.3 444.6,337.3 445.3,337.1 445.7,337 446.2,336.7 446.6,336.6 447.1,336.6 447.4,337 447.5,338.4 447.4,339.4 
		447.2,340.2 446.7,340.6 446.6,340.2 446.5,339.4 445.8,339.4 445.8,339.7 446,340.2 446.2,340.9 446.5,341.6 446.3,342 
		446.3,342.3 446,342.6 445.7,342.9 445.1,343.3 444.6,343.5 443.8,344.3 443.1,344.6 442.6,344.7 442.3,344.6 441.5,344.8 
		441.3,344.8 440.8,345.2 440,345.7 439.6,345.5 439.6,345.2 439.9,344.8 440.1,344.5 439.6,344.1 439.5,343.9 439.3,343.7 
		439.1,343.6 439.4,343.1 439.7,342.9 439.9,342.7 440.1,342.3 440.1,341.7 440.1,341.3 440.1,340.8 439.9,340.1 439.8,339.2 
		439.9,338.5 440,338.2 439.8,337.7 439.4,337.5 438.9,337.3 438.5,337 438.3,336.5 438,336.1 437.4,336 436.8,335.6 436.2,335.4 
		436.1,335.4 436.2,335.8 436.7,336.2 437.4,336.6 437.8,336.9 437.7,337.4 437.7,337.8 438.3,338.3 438.9,338.4 439.1,338.7 
		439.1,339.3 439,339.7 439,340.4 439.1,341.4 439.3,342.1 439.1,342.5 438.8,343 438.3,343.3 437.6,343.1 437.1,342.9 436.9,342.7 
		436.4,342.5 436.2,342.8 436.5,343.1 437.7,343.6 437.6,344 437.2,344.5 436.7,344.8 436.5,345.2 436.2,345.4 435.8,345.9 
		435.4,345.7 434.9,345 434.6,344.7 434.3,344.6 433.9,344.5 433.5,344.3 433.1,344.2 432.8,343.9 432.7,343.5 432.5,342.8 
		432.6,342.4 432.9,341.8 433.2,340.9 433.1,340.5 433,339.9 433,339.5 432.8,339.1 432.8,338.7 432.6,338.5 432.4,338.5 431.9,338 
		431.4,337.5 430.7,337 430.4,336.8 430,336.8 429.7,336.9 429.7,337 429.8,337.3 430.3,337.5 430.8,337.7 431.1,338.2 431,339.3 
		431.2,339.4 431.6,339.1 431.7,339.1 431.9,339.3 432.2,339.6 432.3,340.1 432.2,340.7 431.8,341.1 431.6,341.7 431.4,342.4 
		431.5,343.4 431.7,344 431.9,344.3 432.4,344.8 433.1,345.1 433.8,345.5 434.4,346.3 434.1,346.8 434.6,347.1 435.1,347.4 
		435.4,347.9 436,348.4 436.9,348.9 437.5,348.7 438.5,348.7 439.3,349 439.5,349.2 438.6,350.2 437.9,351 437.3,351.5 436.6,352 
		435.7,352.6 435,353.3 434.3,354 433.6,354.8 433,354.7 433,354.1 432.9,353.7 432.5,353.6 432.1,353.7 431.5,353.9 431,353.9 
		430.1,353.3 429.5,352.9 428.7,352.9 428,352.8 427.4,352.7 426.9,352.8 426.3,352.8 426.1,352.2 425.8,351.8 425.3,351.3 
		425,350.8 424.5,350.5 424.1,349.9 423.8,349.2 423.6,348.5 423.5,348.1 423.8,347.7 423.3,347.5 422.9,347.2 422.6,347 
		422.4,346.4 422.3,346 421.8,345.7 421.2,345.7 420.7,345.5 420.6,344.9 420.8,344.7 421.2,344 421.3,343.3 420.8,343.5 420.3,344 
		420,344.6 419.8,345.4 420.2,346.1 420.9,346.5 421.6,346.5 421.9,346.9 422.3,347.6 422.5,348 422.8,348.7 423.2,349.4 
		423.2,350.1 423.3,350.7 422.9,350.9 422.2,350.9 421.8,350.7 421.5,350.5 421,350 420.6,349.3 420.4,349 420.3,348.5 419.9,347.9 
		419.6,347.5 419.4,347.1 419.4,346.8 419.3,346.3 418.8,346.1 418.1,346 417.8,346 417.5,345.4 417.4,345 417.1,344.4 416.7,344.5 
		416.3,344.5 415.9,344.3 415.6,344.5 415.8,345 416.2,345.3 416.6,345.7 416.9,346.2 417.3,346.7 417.8,347 418.3,347.1 
		418.1,347.2 417.4,347.2 416.6,346.9 415.9,346.8 415.4,346.8 415.4,347.2 415.8,347.6 416.3,347.7 417,347.9 418.1,347.9 
		419.4,348.1 419.6,348.6 419.7,349.5 419.7,350.2 420.1,351.1 421,351.7 422,352 422.8,351.8 423.4,351.7 424.1,351.9 424.6,352.5 
		424.8,353.3 424.4,354.2 423.9,354.2 423,353.8 422.5,353.9 422,354.2 421.3,354.5 420.6,354.5 420,354.1 419.4,353.7 418.9,353.1 
		418.3,351.7 418,351 417.3,350.2 416.3,349.6 415.5,349.4 414.7,349.8 414.1,350.1 413.7,350.3 413.6,350.1 413.8,349.8 
		414.3,349.2 414.7,348.5 414.8,348 414.4,347.5 414,347.2 413.9,347.2 413.4,347.4 413,348 412.2,348.7 412.2,348.8 411.5,349.5 
		411,350 410.7,349.9 410.7,349.6 410.7,349.3 410.5,349 410.1,348.7 409.6,348.6 409,348.6 408.7,348.4 409,347.6 409.2,347.2 
		409.4,346.8 409,346.7 408.7,346.5 408.3,346.6 407.8,346.4 407.8,345.7 407.6,345.1 407,344.9 406.3,344.9 406.2,345.2 
		406.5,345.5 407,345.8 407.1,346.5 407.1,347.1 407.6,347.1 407.9,347.2 408.2,347.3 408.2,347.7 408,348.3 408,349 408.9,349.2 
		409.6,349.1 410.2,349.2 410.2,350.1 410.3,350.8 410.8,351.2 411.3,351 411.8,350.5 412.2,349.9 412.7,349.1 413.3,348.4 
		413.8,348 414.2,348.3 414.1,348.7 413.8,349.2 413.2,349.6 412.7,350 412.6,350.6 412.6,351 413.2,351.1 413.8,350.9 414.5,350.4 
		415.4,350.6 416,350.5 416.7,350.6 417.1,351.3 417.4,352.3 417.6,352.9 417.6,353.4 417.7,353.9 418.3,354.4 418.7,354.5 
		419.3,354.8 419.4,355 419.6,355.2 419.8,355.3 420,355.4 420.5,355.4 421.2,355.5 421.3,355.5 422.2,355.5 423.4,355.7 424,356 
		424.2,356.1 424.4,356.3 424.6,356.5 424.7,356.7 424.9,356.8 425,357 425.1,357.1 425.2,357.2 425.2,357.4 425.6,357.7 
		426.1,357.9 426.5,358 426.8,358.4 427.1,358.7 427.6,359 428,359 428.2,358.5 428.7,358.5 429.1,358.9 429.4,359.2 429.4,359.5 
		429.1,360 428.7,360.7 428.4,361.4 428.1,362.1 427.8,362.9 427.5,363.7 426.9,364.5 426.2,364.9 425.3,365.3 424.9,365.5 
		424.3,365.8 423.7,366.4 423,367 422.4,367.7 421.6,368.6 420.8,369.3 420.3,369.5 419.9,369.4 419.5,368.4 419.3,367.9 419,367.2 
		418.6,366.5 418.3,366.3 418.2,366.2 417.7,366 417.4,365.5 417.2,365.2 417.3,364.7 417.4,364.2 417.7,363.7 417.9,363.3 
		417.8,362.8 417.7,362.4 417.5,362.1 417.3,362 417.2,361.8 417.1,361.6 416.8,361.1 416.6,361 416.4,361 416.4,361 416.3,361.1 
		416.2,361.5 416.3,362 416.6,362.2 416.9,362.5 417.1,363.1 416.9,363.4 416.4,363.3 415.9,363.2 415.4,363 415,362.7 414.7,362.8 
		415,363.3 415.7,363.8 416,364.3 416.2,365.1 416.4,365.7 417,366.3 417.5,366.9 417.7,367.5 417.5,368.1 417.4,368.6 416.7,368.8 
		415.2,368.2 414.1,367.8 413.1,367 412.5,366.6 412.3,366.4 412.2,366.3 411.7,366.2 411.2,366 410.8,365.9 410.3,365.8 
		409.8,365.7 409.3,365.5 408.8,365 408.4,364.6 408.3,364.2 408.2,363.4 408.1,362.4 408,361.8 407.3,361.4 406.6,361.1 
		405.8,361.2 404.9,361.3 404.2,361 403.9,360.4 403.6,360.3 403.5,360.5 403.4,361 403.6,361.5 404,361.9 404.5,362.1 405.3,362.2 
		406.1,362.1 406.9,362.1 407.3,362.5 407.4,363.1 407.3,363.7 407.1,364.5 407.2,365.1 407.4,365.7 407.8,366 408.1,366.1 
		408.6,366.4 409.2,366.6 409.6,366.7 410.1,366.7 410.4,366.9 411.1,367.1 411.5,367.3 412,367.8 412.3,368.1 412.2,368.5 
		412.5,368.8 413,369.1 413.7,369.5 414.2,369.9 414.7,370.3 415.2,370.8 415.5,371.1 415.4,371.8 415.1,372.5 414.8,372.9 
		414.4,373.4 414,373.8 413.4,374 412.6,373.6 412.5,373.6 411.8,373.3 411.4,373.1 410.8,373.2 410.4,373.4 409.9,373.7 
		409.6,373.9 408.6,373.9 407.8,373.9 407.4,374.2 407.3,374.4 407.3,374.6 407.4,374.9 407.4,375.1 407.7,375.3 408.4,375.6 
		408.8,376 409.3,376.1 409.9,376.2 410.6,376.2 411,376.2 411.5,376.1 412.3,376.1 412.6,376.1 412.7,376.1 413.4,376.2 
		414.2,376.3 414.3,376.2 414.6,376 415.1,375.6 415.5,375.5 416,375.5 416.6,375.7 417,375.5 417.4,375.1 417.2,374.9 417,374.9 
		416.6,375 415.8,375 415.1,374.9 414.9,374.6 415.3,374 415.5,373.8 415.6,373.8 416.3,373.3 416.8,373 417.5,372.8 418.3,372.8 
		418.4,372.3 418.9,371.9 419.4,371.8 420,372 420.4,372.3 420.6,372.8 420.4,373.5 420.3,374.1 420.5,374.8 420.6,375.4 
		420.7,376.1 420.8,376.7 420.7,377.3 420.6,377.9 420.5,378.3 420,378.3 419.7,378.4 419.8,378.8 420.1,379.2 420.5,379.2 
		420.8,379.4 420.8,380 420.5,380.6 420.2,381.3 419.8,382 419.5,382.6 419,383.3 418.8,384.3 418.5,384.8 418.2,385.4 418,386.1 
		417.4,387 416.8,387.6 416.4,387.5 415.9,386.6 415.8,386.1 415.6,385.6 415.6,384.8 415.9,384.3 416.1,383.7 416,383.2 
		415.9,382.6 415.8,382.2 415.6,381.8 415.4,381.4 415.1,380.9 414.9,380.7 414.7,380.4 414.5,380.3 414.3,380.4 414.1,380.6 
		413.9,380.8 413.7,380.7 413.4,380.6 413.1,380.2 413,379.7 412.9,379.2 412.7,378.9 412.6,378.9 412.2,378.7 411.7,378.5 
		411.3,378.5 410.6,378.5 410.1,378.7 409.8,378.8 409.6,379.2 409.7,379.8 410,380 410.5,380.3 411.1,380.4 411.5,380.5 
		411.7,380.8 411.9,381.2 411.7,381.8 411.6,382.1 411.5,382.6 411.7,382.8 412,382.7 412.3,382.4 412.6,382.1 412.7,382.1 
		412.8,382.1 412.9,382.2 413.2,382.6 413.4,382.8 413.8,383 414.2,383.1 414.4,383.4 414.3,384.1 414.3,384.7 414.3,385.2 
		414.2,385.7 413.6,386.3 413.2,386.8 413,387 412.5,387.1 412,387 411.6,386.9 411.4,386.7 411.2,386.6 411,386.8 411,386.8 
		411.2,387.7 410,387.7 409.6,387.5 409.3,386.8 409.2,386.2 408.9,385.7 408.6,385.8 408.5,386 408.6,386.2 408.7,386.8 
		408.8,387.2 408.9,388 408.5,388.1 407.9,387.6 407.7,387.3 407.5,386.9 407.2,386.6 406.4,386.4 405.9,386.6 405.4,386.9 
		404.8,387.2 404.4,387.6 404.2,387.5 404.1,387.3 404.1,387 404.2,386.5 404.1,385.8 404,385.4 403.6,385.3 403.2,385.7 403,386.3 
		403.2,387 403.1,388.1 402.6,387.9 402.2,387.8 401.7,387.8 401.3,388 400.9,388.3 400.5,388.6 400.1,388.7 399.8,388.6 
		399.4,388.4 399.1,388.5 399.1,388.7 399,389 399.1,389.4 399.3,389.7 399.7,389.8 400,389.7 400.3,389.4 400.6,389.1 401,388.8 
		401.3,388.6 401.6,388.6 402.1,388.6 402.4,388.7 402.7,388.9 402.8,389.1 402.7,389.5 403.1,389.3 403.3,389.2 404.2,389.6 
		404.5,389.8 405,390.4 405.1,390.6 405.3,390.8 405.4,391 405.9,391 406,391 406.4,390.8 406.7,390.7 406.9,390.4 407.2,390.1 
		407.2,390 407.5,389.8 407.7,389.8 407.7,389.8 408.1,389.7 408.9,390.3 408.8,390.9 408.5,391.7 407.9,392 407.4,392.4 
		407.1,392.5 407,392.8 406.7,393.1 406.2,393.4 405.8,393.7 405.6,394 405.6,394.4 405.3,394.7 405.4,394.8 405.6,394.9 
		406.7,394.5 407.3,394.2 408.5,394 409.4,393.2 409.7,392.6 410.2,391.9 410.4,391.2 410.7,390.5 411.2,390.3 411.4,390.4 
		411.6,390.6 412,390.7 412.6,390.6 412.4,390.9 412,391.6 412.2,391.7 412.6,391.8 412.8,391.8 412.9,391.8 413.1,391.7 
		413.1,391.5 413,391.2 412.9,390.8 413.1,390.5 413.6,390 413.8,390 414.3,389.5 414.7,389.5 415.1,389.7 415.5,390 416.1,390.6 
		416.5,391 416.9,391.3 416.6,391.7 416.2,391.9 415.9,392.2 415.6,392.7 415.2,393.3 415.1,393.8 414.7,394.9 414.4,395.5 
		414.2,396 413.5,396.9 412.7,397.8 412.6,398.1 412.4,398.4 411.9,398.8 411.5,398.6 411.4,398.9 411.5,399.5 411.7,399.9 
		411.6,400.1 411.2,400.5 410.8,401 410.3,401.6 409.7,402.5 409.1,403.7 408.7,404.5 408.4,405.7 407.9,406.2 407.6,406.5 
		407.2,406.3 407,406.2 406.7,406 406.5,405.7 406.3,405.2 406,404.6 405.8,404.3 405.2,403.6 405.1,403.2 405.2,402.8 404.9,402.7 
		404.7,402.5 404.6,402.1 404.6,401.5 404.7,401 404.5,400.2 404.2,400 404.1,400.1 404.1,400.1 403.8,400.5 403.7,400.7 
		403.1,400.9 402.5,400.7 402,400.1 401.6,399.3 401.6,399 401.3,398.8 400.9,399.2 401,399.7 400.8,400.2 400.8,400.3 400.9,400.6 
		401.3,400.9 401.5,401.2 401.6,401.4 401.7,401.4 402,401.5 402.5,401.7 402.8,401.9 403.1,402.5 403.4,403.2 402.9,403.8 
		402.1,404.1 401.8,404.2 401.7,404.8 401.8,405.7 401.5,405.9 401.3,405.7 401.2,405.4 400.8,405 400.6,404.6 400.3,404.4 
		400,404.5 399.8,404.6 399.7,404.6 399.3,404.8 398.5,405 398.2,405.1 398.1,405.5 398.2,406 398.1,406.7 398.2,407 398.6,406.8 
		398.8,406.7 399,406.4 399.4,406.4 399.6,406.6 399.9,406.7 400.4,406.9 400.9,407.1 401.5,407.1 401.7,407 401.8,406.9 
		402.1,406.8 402.4,406.2 402.6,405.8 403.1,405.6 403.5,405.5 404,406 404.4,406.5 404.8,406.9 405.2,407 405.6,407.3 405.7,407.6 
		405.4,407.9 404.7,408 404.6,408.1 404.6,408.5 404.8,409 404.7,409.3 404.4,409.7 404.5,410.1 404.8,410.5 405.1,410.7 
		405.5,410.6 405.8,410.3 406,409.6 406,408.8 406.2,408.3 406.5,408.5 406.7,408.9 406.7,410 406.6,411.2 406.7,411.8 406.8,412.3 
		406.7,412.6 406.6,412.8 406.2,412.9 406,412.8 405.7,412.7 405.5,412.7 405.3,412.8 405.1,412.8 404.8,412.8 404.5,412.7 
		404.2,412.5 404,412.3 403.6,412 403.4,411.9 403.2,411.7 402.7,411 402.6,410.9 402.3,411.1 402.2,411.6 402.2,411.6 401.9,411.7 
		401.6,411.6 401.1,411.5 400.6,411.4 400.2,411.2 399.8,411.2 399,411.1 398.3,410.9 397.6,410.9 396.9,410.8 396.1,410.8 
		395.1,410.7 394.2,410.7 393.5,410.8 392.9,410.7 392.7,410.4 392.4,410 392.1,409.7 392,409.3 391.6,408.7 391.3,408.2 
		390.9,407.9 390.6,407.7 390.2,407.8 389.7,408.1 389.5,408.5 388.9,408.7 388.6,408.6 388.3,408.7 388.2,408.9 388.2,409.1 
		388.3,409.2 388.3,409.2 388.4,409.4 388.4,409.6 388.6,409.7 388.7,409.8 389.1,409.7 389.9,409.9 390.3,410 390.8,410.1 
		391.3,410.5 391.7,410.8 392.2,411.3 392.4,411.5 392.7,411.6 393.5,411.9 394.1,412 394.5,412.1 394.9,412.3 395.7,412.1 
		396.2,412 396.7,411.9 397.3,411.9 397.7,412.2 398,413 397.5,413.2 397,413.5 396.4,414 395.9,414.4 395.1,413.8 394.9,414 
		395.1,414.6 395.2,415.2 395,415.6 394.9,415.9 394.9,416 395.2,416.1 395.6,416.3 396.1,416.6 396.4,417.1 396.5,417.7 
		396.5,418.5 396.3,419.2 396.4,419.4 396.8,419.5 397.1,419.4 397.2,419.4 397.5,418.9 397.6,418.3 397.4,417.7 397.3,417.2 
		397.1,416.9 397,416.5 396.8,415 397,414.7 397.3,414.3 397.7,414 398.2,413.7 398.5,413.6 398.6,413.5 399.2,413.6 399.5,413.6 
		400.1,413.7 400.7,413.7 401.2,413.8 401.6,414.1 401.9,414.4 402.5,414.8 403,414.9 403.7,415 404,415.5 404.5,416 405.4,416.4 
		405.9,416.4 406.5,416.6 407.2,416.3 407.2,416.6 406.9,416.9 406.8,417.1 406.5,417.3 406.4,418 406.4,418.8 407.1,418.9 
		407,419.6 407.4,419.4 407.7,419.2 407.9,418.8 408,418.7 408.3,418.7 408.5,418.9 408.7,419.3 407.6,419.9 407.4,420 407.1,420.2 
		406.8,420.5 406.8,421 406.8,421.5 406.8,421.8 406.7,422 406.5,422.4 406.2,422.7 406.1,422.9 406,423.6 405.9,424.2 405.5,424.3 
		405.2,424.1 405,424 404.9,424 404.6,424.2 404.2,424 404,423.7 403.8,423.1 403.5,422.7 403.2,422.2 402.9,421.6 402.5,420.6 
		402.3,419.2 402.1,419.4 402,419.7 401.7,421.4 402.2,421.7 402.5,422.2 402.7,422.7 403.2,423.8 403.7,424.4 404.2,424.9 
		403.5,425.4 403.3,425.9 402.5,426.6 401.7,427.4 401.1,428.1 400.5,429 399.9,429.9 399.5,430.4 399.2,430 399.2,430.1 
		399.1,429.5 398.8,429.3 398.6,430 398.9,430.8 399.1,431.6 398.8,432.1 398.1,432.7 397.4,433.3 397,433.3 396.3,433.5 396,433.4 
		395.5,433.2 395.2,433.1 394.9,432.9 394.7,432.5 394.4,432.3 394.3,432 394.2,431.5 394.1,430.8 394.3,430.4 394.6,430 
		394.9,429.6 394.9,428.4 394.8,428.1 394.6,427.8 394.4,427.2 394.4,426.9 	"/>
	<path fill="none" stroke="#FFFFFE" stroke-width="2" stroke-linecap="round" stroke-linejoin="round" stroke-miterlimit="1" d="
		M142.5,14.9c-0.9,0.4-1.8,0.9-2.4,1.7c-0.6,0.8-0.8,1.9-0.3,2.7c0.4,0.5,1,0.8,1.5,1.1c1.2,0.7,2.2,1.6,3,2.7c0.6,0.9,1.1,1.9,1,3
		c-0.1,1.5-1.3,2.7-2.2,3.9c-0.9,1.3-1.4,3.1-0.2,4.2c0.8,0.7,2,0.7,2.9,1.3c1,0.7,1.3,2,1.3,3.2c0,3.2-1.7,6.2-3.5,8.9
		c-1.9,2.9-4.2,5.8-7.3,7.5c-1.5,0.8-3.2,1.3-4,2.8c-0.2,0.3-0.3,0.7-0.6,1c-0.3,0.2-0.7,0.3-1.1,0.3c-1.1,0.1-2.2-0.1-3.2-0.5
		c-0.6-0.2-1.2-0.6-1.8-0.3c-0.8,0.3-1,1.3-1,2.2c0,2.7,0.3,5.4,0.9,8c0.1,0.4,0.2,0.8,0.4,1.1c0.8,1.2,2.7,0.8,4.1,1.4
		c1.1,0.5,1.8,1.7,2,2.9c0.2,1.2,0.1,2.4-0.1,3.6c-1.3,9.8-0.1,20.3-0.1,30.1c0,0.9,0,1.8,0.5,2.6c0.5,0.8,1.5,1.2,2.5,1.6
		c3,1.1,6.1,2.3,9.1,3.4c0.7,0.3,1.8,0.2,1.7-0.5c0-0.4-0.5-0.6-0.8-0.9c-0.8-0.8-0.5-2.2,0.2-3s1.7-1.5,2.2-2.5
		c0.5-0.8,0.6-1.9,1.3-2.5c0.8-0.7,2.1-0.6,3.2-0.4c2.7,0.4,5.5,0.9,8,2.1c1,0.5,1.9,1.1,2.8,1.6c3.7,1.7,8.6,0.5,11-2.8
		c0.6-0.7,1-1.6,1.6-2.2c1.3-1.4,3.4-2,4.9-3.2c0.8-0.7,1.5-1.6,2.2-2.5c1.4-1.9,2.9-3.9,4.3-5.8c0.9-1.2,2.3-2.6,3.7-2.1
		c1.2,0.5,1.5,2,2.4,2.9c1.3,1.4,3.6,1.1,5.5,0.7c0.7-0.2,1.3-0.3,2-0.2c0.6,0.1,1.2,0.4,1.8,0.7c1.6,0.9,3.1,1.9,4.5,3.1
		c1,0.8,2.4,3,3.8,2.8c0.8-0.1,1.6-0.7,2-1.4c0.5-0.7,0.8-1.5,1.3-2.2c1.2-1.7,3.2-2.8,5.2-2.9c3.5-0.1,6.8,2.5,10.2,1.7
		c1.9-0.4,3.5-1.9,5.4-2.4c0.2-0.1,0.4-0.1,0.7,0c0.3,0.1,0.5,0.4,0.6,0.6c1.3,1.9,3.6,3.1,5.9,3.2c1,0,1.9-0.1,2.9,0.1
		c0.9,0.2,1.9,0.9,1.9,1.9c7.8-1,14.3-6.5,21.7-9.1"/>
	<path fill="none" stroke="#FFFFFE" stroke-width="2" stroke-linecap="round" stroke-linejoin="round" stroke-miterlimit="1" d="
		M32.2,158.7c7.5-1,14.9-2.7,22.1-5c0.9-0.3,1.8-0.6,2.5-1.2c2.8-2.1,2.3-6.2,2.9-9.6c0-0.3,0.1-0.6,0.3-0.8
		c0.2-0.2,0.5-0.2,0.8-0.2c5.6-0.4,10.7,3.6,16.3,4c2.7,0.2,5.5-0.4,8.1-1c0.6-0.1,1.3-0.3,1.7-0.8c0.4-0.4,0.6-1,0.7-1.5
		c1.2-4.8,1.8-9.7,1.6-14.6c0-0.6-0.1-1.2-0.4-1.7c-0.3-0.4-0.8-0.6-1.2-1c-0.5-0.5-0.6-1.3-0.6-2c-0.2-2.8,0.2-5.7,1.2-8.4
		c0.1-0.4,0.3-0.8,0.6-1.1c0.5-0.5,1.3-0.5,2-0.6c7.5-0.4,15.1-0.3,22.7,0.1c0.9,0.1,2,0.1,2.7-0.6c0.5-0.5,0.7-1.1,1.1-1.7
		c1.3-2,4.7-2,5.6-4.2c0.4-1.1-1.1-4.7-1.1-4.7s2.4-0.6,3-1c2.1-1.2,4.4-0.8,6.8-0.5"/>
	<path fill="none" stroke="#FFFFFE" stroke-width="2" stroke-linecap="round" stroke-linejoin="round" stroke-miterlimit="1" d="
		M73,145L72,166.6l7.7,1.3l-1.5,6.2l20.9,0.6l15.1-4.5l2.2,6.1l3.3,2.1v12.6l3.9-7.8c0,0,4.3-1.2,4.3-1.7c0-2.4-0.7-4.3,0.3-6.4
		c0.4-0.8,1-1.5,1.3-2.4c0.5-1.4,0.1-3,0.7-4.3c0.3-0.7,0.9-1.2,1.1-2c0.2-0.8-0.2-1.7,0.2-2.5c0.2-0.5,0.6-0.9,1.1-1.2
		c1.2-1,2.6-2,4.1-1.7c1.4,0.3,2.3,1.5,3,2.7c0.6,1.2,1.1,2.6,2.1,3.6c1.5,1.4,3.7,1.7,5.6,2.4c2,0.6,4,2.1,3.9,4.1
		c0,0.6-0.2,1.2,0.2,1.6c0.2,0.2,0.4,0.3,0.7,0.4c2.2,0.7,5,0.4,6.5,2.2c0.6,0.7,0.8,1.7,1.3,2.5c0.6,1.2,1.7,2,2.6,3.1
		c2.3,2.8,3,6.5,4.5,9.8c0.5,1.1,1.1,2.1,1.8,3c0.5,0.7,1.1,1.3,1.5,2c1.5,2.5,1.1,5.6,0.7,8.4c-0.1,0.4-0.1,0.8-0.4,1.1
		c-0.4,0.4-0.9,0.4-1.5,0.4c-6.4-0.2-19-0.1-19-0.1v28.1h-7.1v15l-6.6,11.5c-0.9-0.5-1.5-1.4-2.4-2c-4-2.3-8-4.7-11.9-7
		c-1-0.6-1.9-1.2-2.5-2.1c-0.7-1.1-0.8-2.6-1.8-3.5c-1.7-1.4-4.8-0.2-6.2-1.9c-0.6-0.8-0.5-1.9-1.1-2.7c-0.7-1-2.2-1-3.3-0.5
		c-1.1,0.5-1.9,1.5-2.8,2.3c-0.9,0.8-2,1.6-3.2,1.5H90.1l-5.4-3.3L46,243.5"/>
	<path fill="none" stroke="#FFFFFE" stroke-width="2" stroke-linecap="round" stroke-linejoin="round" stroke-miterlimit="1" d="
		M170.1,109.1l-3.3,12.1l6.7,8.2l-17.1,15.3l20.5,16.5c1.4,0,3.1-0.3,4.2,0.7c1.1,1,1.7,2.3,2.1,3.7c1,3.1,1.2,6.4,1.4,9.7
		c0,0.3,0,0.7-0.1,1c-0.2,0.4-0.6,0.5-1,0.6c-2.1,0.7-4.3,1.4-6.3,2.3c-5.2,2.6-9.2,7.5-10.5,13.1"/>
	<path fill="none" stroke="#FFFFFE" stroke-width="2" stroke-linecap="round" stroke-linejoin="round" stroke-miterlimit="1" d="
		M184.6,174c0,0,11.8,9.4,12.4,9.4c0.6,0,22.6-4.7,22.6-4.7s11.2,11.9,11.5,12.1s16-13.6,16-13.6c1-2.2,0.2-4.6-1.1-6.6
		c-0.8-1.2-1.8-2.5-1.4-3.9c0.2-0.8,0.8-1.4,1.3-1.9c1.7-1.9,2.9-4.1,3.7-6.5c0.2-0.6,0.4-1.3,0-1.9c-0.7-1-2.9-0.6-3.1-1.8
		c0-0.3,0-0.5,0.2-0.8c0.9-1.7,3.7-2.2,3.7-4.1c0-0.6-0.2-1.1-0.4-1.6c-0.6-1.7-0.8-3.6-0.3-5.3c1-3.9,3-7.7,6.1-10.2
		c7.7-6.3,17.3-10.9,27.3-10.6c1,0,2,0.1,3,0.3"/>
	<path fill="none" stroke="#FFFFFE" stroke-width="2" stroke-linecap="round" stroke-linejoin="round" stroke-miterlimit="1" d="
		M136.1,262.2c0.2,1.6,2.1,2.4,3.7,2.5c1.6,0.1,3.3-0.1,4.7,0.6c1.8,0.9,2.7,3.1,3,5.1c0.3,2,0.4,4.1,1.4,5.9c1.3,2.4,4,3.8,5.5,6.1
		c0.2,0.3,0.4,0.7,0.6,0.9c0.6,0.6,1.5,0.8,2.4,1c2.7,0.5,5.5,0.9,8.2,1.4c0.9,0.2,1.8,0.3,2.4,1c0.4,0.4,0.5,1,0.6,1.6
		c1,5.8-2.4,12.1,0,17.5c-6.2,2.2-11.7,6.4-15.4,11.8c-0.4,0.6-0.8,1.2-1.4,1.5c-0.9,0.5-1.9,0.2-2.9,0c-2.6-0.6-5.1-1.2-7.7-1.8
		c0.1-1.2-0.1-2.5-0.6-3.6c-1.6,0.1-4-0.3-3.7-0.3"/>
	<path fill="none" stroke="#FFFFFE" stroke-width="2" stroke-linecap="round" stroke-linejoin="round" stroke-miterlimit="1" d="
		M136.6,313.4v8.1h-22v25.8h-15l-2.5,15.2l4.4,1.8l2.9,10.6c-0.4,2.6-3.4,3.7-5.9,3c-1.1-0.3-2.1-0.8-3.2-0.6
		c-1.1,0.1-2.1,0.8-3.1,1.3c-3.8,1.9-8.4,0.5-12.6,1c-0.5,0.1-1.1,0.2-1.6,0.5c-1.6,1-1.2,3.4-0.5,5.1c0.8,1.7,1.7,3.7,0.8,5.3
		c-0.8,1.5-2.8,1.9-4.6,2c-5.5,0.5-11,1.1-16.5,1.6"/>
	<path fill="none" stroke="#FFFFFE" stroke-width="2" stroke-linecap="round" stroke-linejoin="round" stroke-miterlimit="1" d="
		M168.6,305.9h21.5v48.8h37.4c2.1,0,4.7,0.7,6.3,1.9c1.7,1.2,3.1,2.7,5,3.6c1.8,0.8,3.9,1,5.5,2.2c2.5,1.8,3.1,5.3,2.5,8.3
		s-1.9,5.8-2.4,8.8c-0.4,2.5-0.3,5.1-1.2,7.5c-0.8,1.9-2.2,3.5-3.6,5.1c-1.7,1.8-3.4,3.7-5.1,5.5c-0.7,0.8-1.5,1.7-1.2,2.8
		c0.5,2.2,1.4,4.3,2.9,5.9s3.4,2.9,4.7,4.7c3.4,4.6,2.3,11,1,16.6c2.7,0.1,5.5,0.1,8.2,0.2c-0.3,9.1,0.3,18.3,1.1,27.4
		c0.3,3.5,1.1,7.7,4.4,8.9c1.7,0.7,3.9,0.3,5.3,1.4c1.1,0.8,1.6,2.3,2.3,3.6c1.8,3.3,5.3,5.3,8.9,6.4c3.6,1.1,7.3,1.4,11,2.2
		c0.5,0.1,1,0.3,1.4,0.6c0.4,0.4,0.5,1,0.7,1.6c0.8,4.2,1.6,8.4,2.4,12.6"/>
	<path fill="none" stroke="#FFFFFE" stroke-width="2" stroke-linecap="round" stroke-linejoin="round" stroke-miterlimit="1" d="
		M244.6,179.9c2.9,2.8,7.4,3.1,11.4,2.9c2.2-0.2,4.6-0.4,6.2,1.1c1.1,1,1.4,2.6,1.7,4.1c1.6,7.5,4,14.8,7.3,21.7
		c0.7,1.4,1.4,2.8,2.5,3.9c0.9,0.9,2,1.6,2.9,2.5c2.4,2.4,3,6.4,5.7,8.4c2,1.5,5,1.8,6,4.1c1,2.2-0.7,5.2,0.8,7.1
		c0.4,0.5,1.1,0.9,1.5,1.4c1.6,1.9,0.3,4.6,0,7c-0.5,3.6,1.3,7.4,4.5,9.1c0.9,0.5,1.8,0.8,2.5,1.5s1.2,1.7,0.8,2.6
		c-0.3,0.7-1.1,1.1-1.9,1.5c-1.8,0.9-3.5,2.4-3.9,4.4c-0.4,2,1.1,4.4,3.1,4.2c-3.8,2.3-7.5,4.9-11,7.7c-1.1,0.9-2.3,2.6-1.3,3.7
		c0.9,1,3.1,1.2,2.6,2.4c-2.2-0.4-4.6,0.6-5.8,2.5c3.3,0.3,6.6,0.7,10,1c2.6,0.3,5.2,0.5,7.6,1.6c2.4,1.1,4.5,3.1,4.9,5.6
		c0.5,2.8-0.2,5.8-0.9,8.6c1.8,0,3.6,1.2,4.1,2.9c0.3,0.8,0.3,1.6,0.9,2.2c0.6,0.6,1.5,0.6,2.3,0.6c2.4,0,5.2-0.1,6.5-2.1
		c0.9-1.3,0.8-3.1,0.9-4.7c0.3-3.5,1.8-7,4.2-9.6c0.6-0.7,1.3-1.3,1.8-2c0.5-0.7,0.9-1.5,1.2-2.3c1.5-3.4,3.4-7.4,7.1-7.9
		c1.6-0.2,3.4,0.3,4.5,1.5c-0.3-2.5,1.2-5,3.2-6.5c2-1.5,4.5-2.2,7-3c2.2-0.6,4.3-1.3,6.5-1.9c0.3-0.1,0.5-0.2,0.8-0.1
		c0.6,0,1.1,0.4,1.5,0.8c3.2,2.8,7,5,11,6.5c2.1,0.8,4.2,1.4,6,2.6c2.7,1.9,4.5,5.4,7.7,6.4c5.4-3.7,10.8-7.3,16.2-11"/>
	<path fill="none" stroke="#FFFFFE" stroke-width="2" stroke-linecap="round" stroke-linejoin="round" stroke-miterlimit="1" d="
		M301.9,300.5c0,0.7-7.7,42.4-7.7,42.4c-0.4,0.6-1.5,0.3-2.2,0.2c-0.7-0.1-1.3-0.5-1.9-0.6c-2.3-0.3-3.9,2.1-5.8,3.3
		c-2.3,1.4-5.2,1.3-7.8,2c-1.9,0.5-3.7,1.4-5.3,2.5c-3.9,2.7-6.9,6.7-10.8,9.4c-4.2,2.9-9.5,4.2-14.6,3.7"/>
	<g>
		<ellipse fill="#762057" cx="209.5" cy="126.2" rx="10.1" ry="10.1"/>
		<g>
			<polygon fill="#F9F9FA" points="207.5,126.8 206.8,126.4 206.2,126.7 206.9,127.1 			"/>
			<polygon fill="#F9F9FA" points="210.1,124.6 210.8,124.2 210.8,123.5 210,123.9 			"/>
			<polygon fill="#F9F9FA" points="214.2,122.2 211.7,123.6 211.7,122.9 214.4,121.4 			"/>
			<polygon fill="#F9F9FA" points="208.2,120.2 208.2,123 207.6,122.7 207.6,119.6 			"/>
			<polygon fill="#F9F9FA" points="204.5,131.3 207.2,129.8 207.2,129.1 204.7,130.5 			"/>
			<polygon fill="#F9F9FA" points="215.5,128.3 213.1,126.9 213.7,126.6 216.3,128.1 			"/>
			<polygon fill="#F9F9FA" points="211.3,133.2 211.3,130 210.8,129.7 210.8,132.6 			"/>
			<polygon fill="#F9F9FA" points="203.4,124.4 205.8,125.8 205.2,126.1 202.7,124.7 			"/>
			<polygon fill="#F9F9FA" points="207.6,124.6 207.6,123.8 208.2,124.2 208.2,124.9 			"/>
			<polygon fill="#F9F9FA" points="210.1,126.1 213.7,124 213.9,123.2 209.5,125.7 209.5,121.5 208.8,120.8 208.8,126 205.2,124 
				204.4,124.2 208.8,126.7 205.2,128.7 205,129.6 209.5,127 209.5,131.3 210.1,131.9 210.1,126.7 213.7,128.8 214.5,128.5 			"/>
			<polygon fill="#F9F9FA" points="208.9,128.8 208.2,129.2 208.2,128.6 208.9,128.2 			"/>
			<polygon fill="#F9F9FA" points="210.8,127.8 210.8,128.6 211.3,128.9 211.3,128.1 			"/>
			<polygon fill="#F9F9FA" points="211.4,125.9 212.1,126.4 212.7,126 212,125.6 			"/>
		</g>
		<polygon fill="#F9F9FA" points="205,129.6 204.4,128.6 208.3,126.4 208.8,126.7 205.2,128.7 		"/>
		<polygon fill="#F9F9FA" points="214.5,124.2 210.6,126.4 210.1,126.1 213.7,124 213.9,123.2 		"/>
		<polygon fill="#F9F9FA" points="208.8,126 205.2,124 204.4,124.2 204.4,124.2 205,123.1 208.8,125.3 		"/>
		<polygon fill="#F9F9FA" points="209.5,121.5 209.5,125.7 210.1,125.4 210.1,120.8 208.8,120.8 		"/>
		<polygon fill="#F9F9FA" points="209.5,131.3 209.5,127 208.9,127.4 208.9,131.9 210.1,131.9 210.1,131.9 		"/>
		<polygon fill="#F9F9FA" points="213.7,128.8 210.1,126.7 210.1,127.4 213.9,129.6 214.5,128.5 		"/>
		<polygon fill="#F9F9FA" points="204.5,131.3 202.7,128.1 206.9,125.6 207.5,126 203.4,128.3 204.7,130.5 		"/>
		<polygon fill="#F9F9FA" points="211.3,124.7 211.3,119.6 207.6,119.6 208.2,120.2 210.8,120.2 210.8,125 		"/>
		<polygon fill="#F9F9FA" points="211.3,133.2 207.6,133.2 207.6,128.1 208.2,127.8 208.2,132.6 210.8,132.6 		"/>
		<polygon fill="#F9F9FA" points="208.8,124.6 204.7,122.2 203.4,124.4 202.7,124.7 204.5,121.4 208.8,123.9 		"/>
		<polygon fill="#F9F9FA" points="216.3,128.1 214.4,131.3 210.1,128.8 210.1,128.2 214.2,130.5 215.5,128.3 		"/>
		<polygon fill="#F9F9FA" points="214.2,122.2 215.5,124.4 211.4,126.8 212,127.1 216.3,124.7 214.4,121.4 		"/>
	</g>
	<g>
		<ellipse fill="#762057" cx="171.3" cy="89.8" rx="10.1" ry="10.1"/>
		<g>
			<polygon fill="#F9F9FA" points="169.4,90.4 168.6,90 168.1,90.3 168.8,90.7 			"/>
			<polygon fill="#F9F9FA" points="171.9,88.2 172.6,87.8 172.6,87.1 171.9,87.5 			"/>
			<polygon fill="#F9F9FA" points="176,85.8 173.6,87.2 173.6,86.5 176.2,85 			"/>
			<polygon fill="#F9F9FA" points="170,83.8 170,86.6 169.4,86.3 169.4,83.2 			"/>
			<polygon fill="#F9F9FA" points="166.4,94.9 169,93.4 169,92.7 166.6,94.1 			"/>
			<polygon fill="#F9F9FA" points="177.3,91.9 175,90.5 175.5,90.2 178.1,91.7 			"/>
			<polygon fill="#F9F9FA" points="173.2,96.8 173.2,93.6 172.6,93.3 172.6,96.2 			"/>
			<polygon fill="#F9F9FA" points="165.3,88 167.7,89.4 167.1,89.7 164.5,88.3 			"/>
			<polygon fill="#F9F9FA" points="169.4,88.2 169.4,87.4 170,87.8 170,88.5 			"/>
			<polygon fill="#F9F9FA" points="172,89.7 175.6,87.6 175.8,86.8 171.3,89.3 171.3,85.1 170.7,84.5 170.7,89.6 167.1,87.6 
				166.3,87.8 170.7,90.3 167,92.3 166.8,93.2 171.3,90.6 171.3,94.9 171.9,95.5 171.9,90.3 175.5,92.4 176.4,92.1 			"/>
			<polygon fill="#F9F9FA" points="170.7,92.4 170,92.8 170,92.2 170.7,91.8 			"/>
			<polygon fill="#F9F9FA" points="172.6,91.4 172.6,92.2 173.2,92.5 173.2,91.7 			"/>
			<polygon fill="#F9F9FA" points="173.2,89.5 174,90 174.6,89.6 173.8,89.2 			"/>
		</g>
		<polygon fill="#F9F9FA" points="166.8,93.2 166.3,92.2 170.1,90 170.7,90.3 167,92.3 		"/>
		<polygon fill="#F9F9FA" points="176.4,87.8 172.5,90 172,89.7 175.6,87.6 175.8,86.8 		"/>
		<polygon fill="#F9F9FA" points="170.7,89.6 167.1,87.6 166.3,87.8 166.3,87.8 166.9,86.7 170.7,88.9 		"/>
		<polygon fill="#F9F9FA" points="171.3,85.1 171.3,89.3 171.9,89 171.9,84.5 170.7,84.5 		"/>
		<polygon fill="#F9F9FA" points="171.3,94.9 171.3,90.6 170.7,91 170.7,95.5 171.9,95.5 171.9,95.5 		"/>
		<polygon fill="#F9F9FA" points="175.5,92.4 171.9,90.3 171.9,91 175.8,93.2 176.4,92.1 		"/>
		<polygon fill="#F9F9FA" points="166.4,94.9 164.5,91.7 168.8,89.2 169.4,89.6 165.3,91.9 166.6,94.1 		"/>
		<polygon fill="#F9F9FA" points="173.2,88.3 173.2,83.2 169.4,83.2 170,83.8 172.6,83.8 172.6,88.6 		"/>
		<polygon fill="#F9F9FA" points="173.2,96.8 169.4,96.8 169.4,91.7 170,91.4 170,96.2 172.6,96.2 		"/>
		<polygon fill="#F9F9FA" points="170.7,88.2 166.6,85.8 165.3,88 164.5,88.3 166.4,85 170.7,87.5 		"/>
		<polygon fill="#F9F9FA" points="178.1,91.7 176.2,94.9 171.9,92.4 171.9,91.8 176,94.1 177.3,91.9 		"/>
		<polygon fill="#F9F9FA" points="176,85.8 177.3,88 173.3,90.4 173.8,90.7 178.1,88.3 176.2,85 		"/>
	</g>
	<g>
		<ellipse fill="#762057" cx="152.9" cy="125.5" rx="10.1" ry="10.1"/>
		<g>
			<polygon fill="#F9F9FA" points="150.9,126.1 150.2,125.6 149.6,126 150.4,126.4 			"/>
			<polygon fill="#F9F9FA" points="153.5,123.8 154.2,123.4 154.2,122.8 153.5,123.2 			"/>
			<polygon fill="#F9F9FA" points="157.6,121.5 155.1,122.9 155.1,122.2 157.8,120.7 			"/>
			<polygon fill="#F9F9FA" points="151.6,119.4 151.6,122.3 151,122 151,118.8 			"/>
			<polygon fill="#F9F9FA" points="147.9,130.6 150.6,129.1 150.6,128.4 148.1,129.8 			"/>
			<polygon fill="#F9F9FA" points="158.9,127.6 156.5,126.2 157.1,125.9 159.7,127.3 			"/>
			<polygon fill="#F9F9FA" points="154.7,132.4 154.7,129.3 154.2,129 154.2,131.8 			"/>
			<polygon fill="#F9F9FA" points="146.8,123.7 149.2,125.1 148.6,125.4 146.1,123.9 			"/>
			<polygon fill="#F9F9FA" points="151,123.9 151,123.1 151.6,123.4 151.6,124.2 			"/>
			<polygon fill="#F9F9FA" points="153.5,125.3 157.1,123.3 157.3,122.4 152.9,125 152.9,120.7 152.2,120.1 152.2,125.3 
				148.6,123.2 147.8,123.5 152.2,125.9 148.6,128 148.4,128.8 152.9,126.3 152.9,130.5 153.5,131.1 153.5,126 157.1,128 
				157.9,127.8 			"/>
			<polygon fill="#F9F9FA" points="152.3,128.1 151.6,128.5 151.6,127.8 152.3,127.4 			"/>
			<polygon fill="#F9F9FA" points="154.2,127.1 154.2,127.8 154.7,128.2 154.7,127.4 			"/>
			<polygon fill="#F9F9FA" points="154.8,125.2 155.5,125.6 156.1,125.3 155.4,124.9 			"/>
		</g>
		<polygon fill="#F9F9FA" points="148.4,128.8 147.8,127.8 151.7,125.6 152.2,125.9 148.6,128 		"/>
		<polygon fill="#F9F9FA" points="157.9,123.4 154,125.6 153.5,125.3 157.1,123.3 157.3,122.4 		"/>
		<polygon fill="#F9F9FA" points="152.2,125.3 148.6,123.2 147.8,123.5 147.8,123.5 148.4,122.4 152.2,124.6 		"/>
		<polygon fill="#F9F9FA" points="152.9,120.7 152.9,125 153.5,124.6 153.5,120.1 152.2,120.1 		"/>
		<polygon fill="#F9F9FA" points="152.9,130.5 152.9,126.3 152.3,126.6 152.3,131.1 153.5,131.1 153.5,131.1 		"/>
		<polygon fill="#F9F9FA" points="157.1,128 153.5,126 153.5,126.7 157.3,128.8 157.9,127.8 		"/>
		<polygon fill="#F9F9FA" points="147.9,130.6 146.1,127.3 150.3,124.9 150.9,125.2 146.8,127.6 148.1,129.8 		"/>
		<polygon fill="#F9F9FA" points="154.7,123.9 154.7,118.8 151,118.8 151.6,119.4 154.2,119.4 154.2,124.2 		"/>
		<polygon fill="#F9F9FA" points="154.7,132.4 151,132.4 151,127.3 151.6,127 151.6,131.8 154.2,131.8 		"/>
		<polygon fill="#F9F9FA" points="152.2,123.8 148.1,121.5 146.8,123.7 146.1,123.9 147.9,120.7 152.2,123.2 		"/>
		<polygon fill="#F9F9FA" points="159.7,127.3 157.8,130.6 153.5,128.1 153.5,127.4 157.6,129.8 158.9,127.6 		"/>
		<polygon fill="#F9F9FA" points="157.6,121.5 158.9,123.7 154.8,126 155.4,126.4 159.7,123.9 157.8,120.7 		"/>
	</g>
	<g>
		<ellipse fill="#762057" cx="126.4" cy="114.4" rx="10.1" ry="10.1"/>
		<g>
			<polygon fill="#F9F9FA" points="124.5,114.9 123.7,114.5 123.2,114.8 123.9,115.3 			"/>
			<polygon fill="#F9F9FA" points="127,112.7 127.7,112.3 127.7,111.6 127,112 			"/>
			<polygon fill="#F9F9FA" points="131.1,110.3 128.7,111.7 128.7,111.1 131.3,109.5 			"/>
			<polygon fill="#F9F9FA" points="125.1,108.3 125.1,111.2 124.5,110.8 124.5,107.7 			"/>
			<polygon fill="#F9F9FA" points="121.5,119.5 124.1,117.9 124.1,117.3 121.7,118.7 			"/>
			<polygon fill="#F9F9FA" points="132.4,116.4 130.1,115.1 130.6,114.7 133.2,116.2 			"/>
			<polygon fill="#F9F9FA" points="128.3,121.3 128.3,118.2 127.7,117.8 127.7,120.7 			"/>
			<polygon fill="#F9F9FA" points="120.4,112.6 122.7,113.9 122.2,114.3 119.6,112.8 			"/>
			<polygon fill="#F9F9FA" points="124.5,112.7 124.5,112 125.1,112.3 125.1,113.1 			"/>
			<polygon fill="#F9F9FA" points="127.1,114.2 130.7,112.1 130.9,111.3 126.4,113.9 126.4,109.6 125.8,109 125.8,114.1 
				122.2,112.1 121.3,112.3 125.7,114.8 122.1,116.9 121.9,117.7 126.4,115.1 126.4,119.4 127,120 127,114.9 130.6,116.9 
				131.5,116.7 			"/>
			<polygon fill="#F9F9FA" points="125.8,117 125.1,117.4 125.1,116.7 125.8,116.3 			"/>
			<polygon fill="#F9F9FA" points="127.7,115.9 127.7,116.7 128.3,117 128.3,116.3 			"/>
			<polygon fill="#F9F9FA" points="128.3,114.1 129.1,114.5 129.6,114.2 128.9,113.7 			"/>
		</g>
		<polygon fill="#F9F9FA" points="121.9,117.7 121.3,116.7 125.2,114.5 125.7,114.8 122.1,116.9 		"/>
		<polygon fill="#F9F9FA" points="131.5,112.3 127.6,114.5 127.1,114.2 130.7,112.1 130.9,111.3 		"/>
		<polygon fill="#F9F9FA" points="125.8,114.1 122.2,112.1 121.3,112.3 121.3,112.3 121.9,111.3 125.8,113.5 		"/>
		<polygon fill="#F9F9FA" points="126.4,109.6 126.4,113.9 127,113.5 127,109 125.8,109 		"/>
		<polygon fill="#F9F9FA" points="126.4,119.4 126.4,115.1 125.8,115.5 125.8,120 127,120 127,120 		"/>
		<polygon fill="#F9F9FA" points="130.6,116.9 127,114.9 127,115.5 130.9,117.7 131.5,116.7 		"/>
		<polygon fill="#F9F9FA" points="121.5,119.5 119.6,116.2 123.9,113.8 124.5,114.1 120.4,116.4 121.7,118.7 		"/>
		<polygon fill="#F9F9FA" points="128.3,112.8 128.3,107.7 124.5,107.7 125.1,108.3 127.7,108.3 127.7,113.1 		"/>
		<polygon fill="#F9F9FA" points="128.3,121.3 124.5,121.3 124.5,116.2 125.1,115.9 125.1,120.7 127.7,120.7 		"/>
		<polygon fill="#F9F9FA" points="125.8,112.7 121.7,110.3 120.4,112.6 119.6,112.8 121.5,109.5 125.8,112 		"/>
		<polygon fill="#F9F9FA" points="133.2,116.2 131.3,119.5 127,117 127,116.3 131.1,118.7 132.4,116.4 		"/>
		<polygon fill="#F9F9FA" points="131.1,110.3 132.4,112.6 128.4,114.9 128.9,115.2 133.2,112.8 131.3,109.5 		"/>
	</g>
	<g>
		<ellipse fill="#762057" cx="102" cy="122.6" rx="10.1" ry="10.1"/>
		<g>
			<polygon fill="#F9F9FA" points="100,123.1 99.3,122.7 98.7,123 99.5,123.5 			"/>
			<polygon fill="#F9F9FA" points="102.6,120.9 103.3,120.5 103.3,119.8 102.6,120.2 			"/>
			<polygon fill="#F9F9FA" points="106.7,118.5 104.2,119.9 104.2,119.3 106.9,117.7 			"/>
			<polygon fill="#F9F9FA" points="100.7,116.5 100.7,119.4 100.1,119 100.1,115.9 			"/>
			<polygon fill="#F9F9FA" points="97,127.7 99.7,126.1 99.7,125.5 97.2,126.9 			"/>
			<polygon fill="#F9F9FA" points="108,124.6 105.6,123.3 106.2,122.9 108.8,124.4 			"/>
			<polygon fill="#F9F9FA" points="103.8,129.5 103.8,126.4 103.3,126 103.3,128.9 			"/>
			<polygon fill="#F9F9FA" points="95.9,120.8 98.3,122.1 97.7,122.5 95.2,121 			"/>
			<polygon fill="#F9F9FA" points="100.1,120.9 100.1,120.2 100.7,120.5 100.7,121.3 			"/>
			<polygon fill="#F9F9FA" points="102.6,122.4 106.2,120.3 106.4,119.5 102,122 102,117.8 101.3,117.2 101.3,122.3 97.7,120.3 
				96.9,120.5 101.3,123 97.7,125.1 97.5,125.9 102,123.3 102,127.6 102.6,128.2 102.6,123.1 106.2,125.1 107,124.9 			"/>
			<polygon fill="#F9F9FA" points="101.4,125.2 100.7,125.6 100.7,124.9 101.4,124.5 			"/>
			<polygon fill="#F9F9FA" points="103.3,124.1 103.3,124.9 103.8,125.2 103.8,124.5 			"/>
			<polygon fill="#F9F9FA" points="103.9,122.3 104.6,122.7 105.2,122.4 104.5,121.9 			"/>
		</g>
		<polygon fill="#F9F9FA" points="97.5,125.9 96.9,124.9 100.8,122.7 101.3,123 97.7,125.1 		"/>
		<polygon fill="#F9F9FA" points="107,120.5 103.1,122.7 102.6,122.4 106.2,120.3 106.4,119.5 		"/>
		<polygon fill="#F9F9FA" points="101.3,122.3 97.7,120.3 96.9,120.5 96.9,120.5 97.5,119.5 101.3,121.7 		"/>
		<polygon fill="#F9F9FA" points="102,117.8 102,122 102.6,121.7 102.6,117.2 101.3,117.2 		"/>
		<polygon fill="#F9F9FA" points="102,127.6 102,123.3 101.4,123.7 101.4,128.2 102.6,128.2 102.6,128.2 		"/>
		<polygon fill="#F9F9FA" points="106.2,125.1 102.6,123.1 102.6,123.7 106.4,125.9 107,124.9 		"/>
		<polygon fill="#F9F9FA" points="97,127.7 95.2,124.4 99.4,122 100,122.3 95.9,124.6 97.2,126.9 		"/>
		<polygon fill="#F9F9FA" points="103.8,121 103.8,115.9 100.1,115.9 100.7,116.5 103.3,116.5 103.3,121.3 		"/>
		<polygon fill="#F9F9FA" points="103.8,129.5 100.1,129.5 100.1,124.4 100.7,124.1 100.7,128.9 103.3,128.9 		"/>
		<polygon fill="#F9F9FA" points="101.3,120.9 97.2,118.5 95.9,120.8 95.2,121 97,117.7 101.3,120.2 		"/>
		<polygon fill="#F9F9FA" points="108.8,124.4 106.9,127.7 102.6,125.2 102.6,124.5 106.7,126.9 108,124.6 		"/>
		<polygon fill="#F9F9FA" points="106.7,118.5 108,120.8 103.9,123.1 104.5,123.4 108.8,121 106.9,117.7 		"/>
	</g>
	<g>
		<ellipse fill="#762057" cx="45.3" cy="98.4" rx="10.1" ry="10.1"/>
		<g>
			<polygon fill="#F9F9FA" points="43.4,99 42.7,98.6 42.1,98.9 42.8,99.3 			"/>
			<polygon fill="#F9F9FA" points="45.9,96.7 46.7,96.3 46.7,95.7 45.9,96.1 			"/>
			<polygon fill="#F9F9FA" points="50.1,94.4 47.6,95.8 47.6,95.1 50.3,93.6 			"/>
			<polygon fill="#F9F9FA" points="44,92.3 44,95.2 43.5,94.9 43.5,91.8 			"/>
			<polygon fill="#F9F9FA" points="40.4,103.5 43.1,102 43.1,101.3 40.6,102.7 			"/>
			<polygon fill="#F9F9FA" points="51.4,100.5 49,99.1 49.6,98.8 52.2,100.3 			"/>
			<polygon fill="#F9F9FA" points="47.2,105.3 47.2,102.2 46.7,101.9 46.7,104.8 			"/>
			<polygon fill="#F9F9FA" points="39.3,96.6 41.7,98 41.1,98.3 38.5,96.8 			"/>
			<polygon fill="#F9F9FA" points="43.5,96.8 43.5,96 44,96.3 44,97.1 			"/>
			<polygon fill="#F9F9FA" points="46,98.2 49.6,96.2 49.8,95.4 45.3,97.9 45.3,93.6 44.7,93 44.7,98.2 41.1,96.2 40.3,96.4 
				44.7,98.9 41.1,100.9 40.9,101.7 45.3,99.2 45.3,103.5 46,104.1 46,98.9 49.6,100.9 50.4,100.7 			"/>
			<polygon fill="#F9F9FA" points="44.8,101 44,101.4 44,100.8 44.8,100.4 			"/>
			<polygon fill="#F9F9FA" points="46.7,100 46.7,100.8 47.2,101.1 47.2,100.3 			"/>
			<polygon fill="#F9F9FA" points="47.3,98.1 48,98.6 48.6,98.2 47.9,97.8 			"/>
		</g>
		<polygon fill="#F9F9FA" points="40.9,101.7 40.3,100.8 44.2,98.6 44.7,98.9 41.1,100.9 		"/>
		<polygon fill="#F9F9FA" points="50.4,96.3 46.5,98.5 46,98.2 49.6,96.2 49.8,95.4 		"/>
		<polygon fill="#F9F9FA" points="44.7,98.2 41.1,96.2 40.3,96.4 40.3,96.4 40.9,95.3 44.7,97.5 		"/>
		<polygon fill="#F9F9FA" points="45.3,93.6 45.3,97.9 45.9,97.6 45.9,93 44.7,93 		"/>
		<polygon fill="#F9F9FA" points="45.3,103.5 45.3,99.2 44.8,99.5 44.8,104.1 46,104.1 46,104.1 		"/>
		<polygon fill="#F9F9FA" points="49.6,100.9 46,98.9 46,99.6 49.8,101.8 50.4,100.7 		"/>
		<polygon fill="#F9F9FA" points="40.4,103.5 38.5,100.3 42.8,97.8 43.4,98.1 39.3,100.5 40.6,102.7 		"/>
		<polygon fill="#F9F9FA" points="47.2,96.8 47.2,91.8 43.5,91.8 44,92.3 46.7,92.3 46.7,97.2 		"/>
		<polygon fill="#F9F9FA" points="47.2,105.3 43.5,105.3 43.5,100.3 44,99.9 44,104.8 46.7,104.8 		"/>
		<polygon fill="#F9F9FA" points="44.7,96.7 40.6,94.4 39.3,96.6 38.5,96.8 40.4,93.6 44.7,96.1 		"/>
		<polygon fill="#F9F9FA" points="52.2,100.3 50.3,103.5 46,101 46,100.4 50.1,102.7 51.4,100.5 		"/>
		<polygon fill="#F9F9FA" points="50.1,94.4 51.4,96.6 47.3,99 47.9,99.3 52.2,96.8 50.3,93.6 		"/>
	</g>
	<g>
		<ellipse fill="#762057" cx="68.2" cy="280.6" rx="10.1" ry="10.1"/>
		<g>
			<polygon fill="#F9F9FA" points="66.3,281.1 65.5,280.7 64.9,281 65.7,281.5 			"/>
			<polygon fill="#F9F9FA" points="68.8,278.9 69.5,278.5 69.5,277.8 68.8,278.2 			"/>
			<polygon fill="#F9F9FA" points="72.9,276.5 70.5,277.9 70.5,277.3 73.1,275.7 			"/>
			<polygon fill="#F9F9FA" points="66.9,274.5 66.9,277.4 66.3,277 66.3,273.9 			"/>
			<polygon fill="#F9F9FA" points="63.3,285.7 65.9,284.1 65.9,283.5 63.5,284.9 			"/>
			<polygon fill="#F9F9FA" points="74.2,282.6 71.8,281.3 72.4,280.9 75,282.4 			"/>
			<polygon fill="#F9F9FA" points="70.1,287.5 70.1,284.4 69.5,284 69.5,286.9 			"/>
			<polygon fill="#F9F9FA" points="62.2,278.8 64.5,280.1 64,280.5 61.4,279 			"/>
			<polygon fill="#F9F9FA" points="66.3,278.9 66.3,278.2 66.9,278.5 66.9,279.3 			"/>
			<polygon fill="#F9F9FA" points="68.8,280.4 72.4,278.3 72.7,277.5 68.2,280 68.2,275.8 67.6,275.2 67.6,280.3 64,278.3 
				63.1,278.5 67.5,281 63.9,283.1 63.7,283.9 68.2,281.3 68.2,285.6 68.8,286.2 68.8,281.1 72.4,283.1 73.2,282.9 			"/>
			<polygon fill="#F9F9FA" points="67.6,283.2 66.9,283.6 66.9,282.9 67.6,282.5 			"/>
			<polygon fill="#F9F9FA" points="69.5,282.1 69.5,282.9 70.1,283.2 70.1,282.5 			"/>
			<polygon fill="#F9F9FA" points="70.1,280.3 70.9,280.7 71.4,280.4 70.7,279.9 			"/>
		</g>
		<polygon fill="#F9F9FA" points="63.7,283.9 63.1,282.9 67,280.7 67.5,281 63.9,283.1 		"/>
		<polygon fill="#F9F9FA" points="73.2,278.5 69.4,280.7 68.8,280.4 72.4,278.3 72.7,277.5 		"/>
		<polygon fill="#F9F9FA" points="67.6,280.3 64,278.3 63.1,278.5 63.1,278.5 63.7,277.5 67.6,279.7 		"/>
		<polygon fill="#F9F9FA" points="68.2,275.8 68.2,280 68.8,279.7 68.8,275.2 67.6,275.2 		"/>
		<polygon fill="#F9F9FA" points="68.2,285.6 68.2,281.3 67.6,281.7 67.6,286.2 68.8,286.2 68.8,286.2 		"/>
		<polygon fill="#F9F9FA" points="72.4,283.1 68.8,281.1 68.8,281.7 72.6,283.9 73.2,282.9 		"/>
		<polygon fill="#F9F9FA" points="63.3,285.7 61.4,282.4 65.7,280 66.2,280.3 62.2,282.6 63.5,284.9 		"/>
		<polygon fill="#F9F9FA" points="70.1,279 70.1,273.9 66.3,273.9 66.9,274.5 69.5,274.5 69.5,279.3 		"/>
		<polygon fill="#F9F9FA" points="70.1,287.5 66.3,287.5 66.3,282.4 66.9,282.1 66.9,286.9 69.5,286.9 		"/>
		<polygon fill="#F9F9FA" points="67.6,278.9 63.5,276.5 62.2,278.8 61.4,279 63.3,275.7 67.6,278.2 		"/>
		<polygon fill="#F9F9FA" points="75,282.4 73.1,285.7 68.8,283.2 68.8,282.5 72.9,284.9 74.2,282.6 		"/>
		<polygon fill="#F9F9FA" points="72.9,276.5 74.2,278.8 70.1,281.1 70.7,281.4 75,279 73.1,275.7 		"/>
	</g>
	<g>
		<ellipse fill="#762057" cx="155.7" cy="466" rx="10.1" ry="10.1"/>
		<g>
			<polygon fill="#F9F9FA" points="153.8,466.6 153,466.2 152.5,466.5 153.2,466.9 			"/>
			<polygon fill="#F9F9FA" points="156.3,464.4 157,464 157,463.3 156.3,463.7 			"/>
			<polygon fill="#F9F9FA" points="160.4,462 158,463.4 158,462.7 160.6,461.2 			"/>
			<polygon fill="#F9F9FA" points="154.4,460 154.4,462.8 153.8,462.5 153.8,459.4 			"/>
			<polygon fill="#F9F9FA" points="150.8,471.1 153.4,469.6 153.4,469 151,470.4 			"/>
			<polygon fill="#F9F9FA" points="161.7,468.1 159.4,466.7 159.9,466.4 162.5,467.9 			"/>
			<polygon fill="#F9F9FA" points="157.6,473 157.6,469.8 157,469.5 157,472.4 			"/>
			<polygon fill="#F9F9FA" points="149.7,464.2 152.1,465.6 151.5,465.9 148.9,464.5 			"/>
			<polygon fill="#F9F9FA" points="153.8,464.4 153.8,463.6 154.4,464 154.4,464.7 			"/>
			<polygon fill="#F9F9FA" points="156.4,465.9 160,463.8 160.2,463 155.7,465.5 155.7,461.3 155.1,460.7 155.1,465.8 151.5,463.8 
				150.7,464 155.1,466.5 151.4,468.5 151.2,469.4 155.7,466.8 155.7,471.1 156.3,471.7 156.3,466.5 159.9,468.6 160.8,468.3 			"/>
			<polygon fill="#F9F9FA" points="155.1,468.6 154.4,469 154.4,468.4 155.1,468 			"/>
			<polygon fill="#F9F9FA" points="157,467.6 157,468.4 157.6,468.7 157.6,467.9 			"/>
			<polygon fill="#F9F9FA" points="157.6,465.7 158.4,466.2 159,465.8 158.2,465.4 			"/>
		</g>
		<polygon fill="#F9F9FA" points="151.2,469.4 150.7,468.4 154.5,466.2 155.1,466.5 151.4,468.5 		"/>
		<polygon fill="#F9F9FA" points="160.8,464 156.9,466.2 156.4,465.9 160,463.8 160.2,463 		"/>
		<polygon fill="#F9F9FA" points="155.1,465.8 151.5,463.8 150.7,464 150.7,464 151.3,463 155.1,465.1 		"/>
		<polygon fill="#F9F9FA" points="155.7,461.3 155.7,465.5 156.3,465.2 156.3,460.7 155.1,460.7 		"/>
		<polygon fill="#F9F9FA" points="155.7,471.1 155.7,466.8 155.1,467.2 155.1,471.7 156.3,471.7 156.3,471.7 		"/>
		<polygon fill="#F9F9FA" points="159.9,468.6 156.3,466.5 156.3,467.2 160.2,469.4 160.8,468.3 		"/>
		<polygon fill="#F9F9FA" points="150.8,471.1 148.9,467.9 153.2,465.4 153.8,465.8 149.7,468.1 151,470.4 		"/>
		<polygon fill="#F9F9FA" points="157.6,464.5 157.6,459.4 153.8,459.4 154.4,460 157,460 157,464.8 		"/>
		<polygon fill="#F9F9FA" points="157.6,473 153.8,473 153.8,467.9 154.4,467.6 154.4,472.4 157,472.4 		"/>
		<polygon fill="#F9F9FA" points="155.1,464.4 151,462 149.7,464.2 148.9,464.5 150.8,461.2 155.1,463.7 		"/>
		<polygon fill="#F9F9FA" points="162.5,467.9 160.6,471.1 156.3,468.6 156.3,468 160.4,470.4 161.7,468.1 		"/>
		<polygon fill="#F9F9FA" points="160.4,462 161.7,464.2 157.7,466.6 158.2,466.9 162.5,464.5 160.6,461.2 		"/>
	</g>
	<g>
		<ellipse fill="#762057" cx="67.3" cy="37.4" rx="10.1" ry="10.1"/>
		<g>
			<polygon fill="#F9F9FA" points="65.4,37.9 64.7,37.5 64.1,37.8 64.8,38.3 			"/>
			<polygon fill="#F9F9FA" points="67.9,35.7 68.6,35.3 68.6,34.6 67.9,35 			"/>
			<polygon fill="#F9F9FA" points="72.1,33.3 69.6,34.7 69.6,34.1 72.3,32.6 			"/>
			<polygon fill="#F9F9FA" points="66,31.3 66,34.2 65.5,33.8 65.5,30.7 			"/>
			<polygon fill="#F9F9FA" points="62.4,42.5 65.1,40.9 65.1,40.3 62.6,41.7 			"/>
			<polygon fill="#F9F9FA" points="73.4,39.4 71,38.1 71.6,37.7 74.1,39.2 			"/>
			<polygon fill="#F9F9FA" points="69.2,44.3 69.2,41.2 68.6,40.9 68.6,43.7 			"/>
			<polygon fill="#F9F9FA" points="61.3,35.6 63.7,36.9 63.1,37.3 60.5,35.8 			"/>
			<polygon fill="#F9F9FA" points="65.5,35.8 65.5,35 66,35.3 66,36.1 			"/>
			<polygon fill="#F9F9FA" points="68,37.2 71.6,35.1 71.8,34.3 67.3,36.9 67.3,32.6 66.7,32 66.7,37.2 63.1,35.1 62.3,35.3 
				66.7,37.8 63.1,39.9 62.9,40.7 67.3,38.2 67.3,42.4 68,43 68,37.9 71.6,39.9 72.4,39.7 			"/>
			<polygon fill="#F9F9FA" points="66.7,40 66,40.4 66,39.7 66.7,39.3 			"/>
			<polygon fill="#F9F9FA" points="68.6,38.9 68.6,39.7 69.2,40.1 69.2,39.3 			"/>
			<polygon fill="#F9F9FA" points="69.3,37.1 70,37.5 70.6,37.2 69.8,36.8 			"/>
		</g>
		<polygon fill="#F9F9FA" points="62.9,40.7 62.3,39.7 66.1,37.5 66.7,37.8 63.1,39.9 		"/>
		<polygon fill="#F9F9FA" points="72.4,35.3 68.5,37.5 68,37.2 71.6,35.1 71.8,34.3 		"/>
		<polygon fill="#F9F9FA" points="66.7,37.2 63.1,35.1 62.3,35.3 62.3,35.3 62.9,34.3 66.7,36.5 		"/>
		<polygon fill="#F9F9FA" points="67.3,32.6 67.3,36.9 67.9,36.5 67.9,32 66.7,32 		"/>
		<polygon fill="#F9F9FA" points="67.3,42.4 67.3,38.2 66.7,38.5 66.7,43 68,43 68,43 		"/>
		<polygon fill="#F9F9FA" points="71.6,39.9 68,37.9 68,38.6 71.8,40.7 72.4,39.7 		"/>
		<polygon fill="#F9F9FA" points="62.4,42.5 60.5,39.2 64.8,36.8 65.4,37.1 61.3,39.4 62.6,41.7 		"/>
		<polygon fill="#F9F9FA" points="69.2,35.8 69.2,30.7 65.5,30.7 66,31.3 68.6,31.3 68.6,36.1 		"/>
		<polygon fill="#F9F9FA" points="69.2,44.3 65.5,44.3 65.5,39.2 66,38.9 66,43.7 68.6,43.7 		"/>
		<polygon fill="#F9F9FA" points="66.7,35.7 62.6,33.3 61.3,35.6 60.5,35.8 62.4,32.6 66.7,35 		"/>
		<polygon fill="#F9F9FA" points="74.1,39.2 72.3,42.5 68,40 68,39.3 72.1,41.7 73.4,39.4 		"/>
		<polygon fill="#F9F9FA" points="72.1,33.3 73.4,35.6 69.3,37.9 69.9,38.3 74.1,35.8 72.3,32.6 		"/>
	</g>
</g>
</svg>
