<?xml version="1.0" encoding="UTF-8" standalone="no"?>
<svg width="45px" height="49px" viewBox="0 0 45 49" version="1.1" xmlns="http://www.w3.org/2000/svg" xmlns:xlink="http://www.w3.org/1999/xlink" xmlns:sketch="http://www.bohemiancoding.com/sketch/ns">
    <!-- Generator: Sketch 3.3.3 (12072) - http://www.bohemiancoding.com/sketch -->
    <title>calendar</title>
    <desc>Created with Sketch.</desc>
    <defs></defs>
    <g id="Page-1" stroke="none" stroke-width="1" fill="none" fill-rule="evenodd" sketch:type="MSPage">
        <g id="48px" sketch:type="MSLayerGroup" transform="translate(-364.000000, -6438.000000)" fill="#000000">
            <path d="M406,6486.996 L367,6486.996 C365.343,6486.996 364,6485.653 364,6483.996 L364,6453.996 L364,6450.996 L364,6444.996 C364,6443.338 365.343,6441.996 367,6441.996 L376,6441.996 L376,6438.994 L379,6438.994 L379,6441.996 L394,6441.996 L394,6438.994 L397,6438.994 L397,6441.996 L407.5,6441.996 C409.156,6441.996 409,6443.338 409,6444.996 L409,6450.996 L409,6453.996 L409,6483.996 C409,6485.653 407.656,6486.996 406,6486.996 L406,6486.996 Z M406,6446.497 C406,6445.666 405.329,6444.996 404.5,6444.996 L397,6444.996 L397,6447.997 L394,6447.997 L394,6444.996 L379,6444.996 L379,6447.997 L376,6447.997 L376,6444.996 L368.5,6444.996 C367.671,6444.996 367,6445.666 367,6446.497 L367,6450.996 L406,6450.996 L406,6446.497 L406,6446.497 Z M406,6453.996 L367,6453.996 L367,6482.495 C367,6483.324 367.671,6483.996 368.5,6483.996 L404.5,6483.996 C405.329,6483.996 406,6483.324 406,6482.495 L406,6453.996 L406,6453.996 Z M394,6471.995 L403,6471.995 L403,6480.996 L394,6480.996 L394,6471.995 L394,6471.995 Z M397,6477.996 L400,6477.996 L400,6474.995 L397,6474.995 L397,6477.996 L397,6477.996 Z M394,6459.996 L403,6459.996 L403,6468.995 L394,6468.995 L394,6459.996 L394,6459.996 Z M397,6465.996 L400,6465.996 L400,6462.996 L397,6462.996 L397,6465.996 L397,6465.996 Z M382,6471.995 L391,6471.995 L391,6480.996 L382,6480.996 L382,6471.995 L382,6471.995 Z M385,6477.996 L388,6477.996 L388,6474.995 L385,6474.995 L385,6477.996 L385,6477.996 Z M382,6459.996 L391,6459.996 L391,6468.995 L382,6468.995 L382,6459.996 L382,6459.996 Z M385,6465.996 L388,6465.996 L388,6462.996 L385,6462.996 L385,6465.996 L385,6465.996 Z M370,6471.995 L379,6471.995 L379,6480.996 L370,6480.996 L370,6471.995 L370,6471.995 Z M373,6477.996 L376,6477.996 L376,6474.995 L373,6474.995 L373,6477.996 L373,6477.996 Z M370,6459.996 L379,6459.996 L379,6468.995 L370,6468.995 L370,6459.996 L370,6459.996 Z M373,6465.996 L376,6465.996 L376,6462.996 L373,6462.996 L373,6465.996 L373,6465.996 Z" id="calendar" sketch:type="MSShapeGroup"></path>
        </g>
    </g>
</svg>