<?xml version="1.0" encoding="UTF-8" standalone="no"?>
<svg width="48px" height="42px" viewBox="0 0 48 42" version="1.1" xmlns="http://www.w3.org/2000/svg" xmlns:xlink="http://www.w3.org/1999/xlink" xmlns:sketch="http://www.bohemiancoding.com/sketch/ns">
    <!-- Generator: Sketch 3.3.3 (12072) - http://www.bohemiancoding.com/sketch -->
    <title>group</title>
    <desc>Created with Sketch.</desc>
    <defs></defs>
    <g id="Page-1" stroke="none" stroke-width="1" fill="none" fill-rule="evenodd" sketch:type="MSPage">
        <g id="48px" sketch:type="MSLayerGroup" transform="translate(-1357.000000, -4417.000000)" fill="#000000">
            <path d="M1403.916,4453.597 C1403.916,4453.597 1403.304,4454.125 1395.856,4454.371 C1396.042,4453.428 1396.017,4452.435 1395.844,4451.484 L1400.431,4451.496 C1402.784,4450.674 1402.212,4446.663 1400.431,4445.869 C1399.152,4445.3 1393.882,4443.9 1390.77,4443.096 L1390.357,4441.735 L1390.357,4439.735 C1392.952,4437.694 1394.492,4433.473 1394.492,4429.615 C1394.492,4424.299 1393.242,4419.986 1386.995,4419.986 C1386.536,4419.986 1386.157,4420.056 1385.751,4420.102 C1384.474,4419.276 1382.823,4418.758 1380.737,4418.603 C1382.272,4417.61 1384.266,4416.995 1386.995,4416.995 C1395.592,4416.995 1397.502,4422.606 1397.502,4429.525 C1397.502,4433.974 1395.758,4438.652 1392.841,4441.444 C1395.937,4442.21 1402.031,4443.794 1402.924,4444.605 C1404.906,4446.4 1405.897,4450.897 1403.916,4453.597 L1403.916,4453.597 Z M1385.504,4433.22 C1385.504,4437.984 1383.706,4442.981 1380.715,4445.911 C1383.771,4446.666 1390.021,4448.282 1390.925,4449.102 C1392.906,4450.902 1393.897,4455.398 1391.916,4458.095 C1391.916,4458.095 1390.925,4458.994 1375.077,4458.994 C1359.228,4458.994 1358.089,4458.095 1358.089,4458.095 C1356.093,4455.398 1357.099,4450.902 1359.095,4449.102 C1360.028,4448.262 1366.187,4446.691 1369.305,4445.934 C1366.299,4443.008 1364.489,4437.997 1364.489,4433.219 C1364.489,4425.915 1366.4,4419.995 1374.996,4419.995 C1383.594,4419.996 1385.504,4425.916 1385.504,4433.22 L1385.504,4433.22 Z M1374.997,4423.013 C1368.75,4423.013 1367.5,4427.63 1367.5,4433.326 C1367.5,4437.458 1369.04,4441.978 1371.634,4444.166 L1371.634,4446.235 L1371.27,4447.441 C1368.621,4448.211 1363.356,4449.764 1361.996,4450.372 C1360.207,4451.168 1358.847,4455.046 1361.528,4455.995 C1361.534,4455.995 1374.814,4455.964 1374.814,4455.964 L1388.432,4455.995 C1390.784,4455.176 1390.213,4451.165 1388.432,4450.372 C1387.153,4449.801 1381.882,4448.401 1378.77,4447.597 L1378.357,4446.236 L1378.357,4444.168 C1380.952,4441.981 1382.492,4437.46 1382.492,4433.327 C1382.493,4427.63 1381.244,4423.013 1374.997,4423.013 L1374.997,4423.013 Z" id="group" sketch:type="MSShapeGroup"></path>
        </g>
    </g>
</svg>