<?xml version="1.0" encoding="UTF-8" standalone="no"?>
<svg width="36px" height="48px" viewBox="0 0 36 48" version="1.1" xmlns="http://www.w3.org/2000/svg" xmlns:xlink="http://www.w3.org/1999/xlink" xmlns:sketch="http://www.bohemiancoding.com/sketch/ns">
    <!-- Generator: Sketch 3.3.3 (12072) - http://www.bohemiancoding.com/sketch -->
    <title>location</title>
    <desc>Created with Sketch.</desc>
    <defs></defs>
    <g id="Page-1" stroke="none" stroke-width="1" fill="none" fill-rule="evenodd" sketch:type="MSPage">
        <g id="48px" sketch:type="MSLayerGroup" transform="translate(-370.000000, -6670.000000)" fill="#000000">
            <path d="M388,6717.998 C388,6717.998 370,6697.939 370,6687.998 C370,6678.057 378.059,6669.998 388,6669.998 C397.941,6669.998 406,6678.057 406,6687.998 C406,6697.939 388,6717.998 388,6717.998 L388,6717.998 Z M388,6672.998 C379.716,6672.998 373,6679.713 373,6687.998 C373,6696.282 388,6713.497 388,6713.497 C388,6713.497 403,6696.282 403,6687.998 C403,6679.713 396.284,6672.998 388,6672.998 L388,6672.998 Z M388,6696.998 C383.03,6696.998 379,6692.969 379,6687.998 C379,6683.027 383.029,6678.998 388,6678.998 C392.971,6678.998 397,6683.027 397,6687.998 C397,6692.969 392.971,6696.998 388,6696.998 L388,6696.998 Z M388,6681.999 C384.687,6681.999 382,6684.686 382,6687.998 C382,6691.311 384.687,6693.998 388,6693.998 C391.313,6693.998 394,6691.311 394,6687.998 C394,6684.686 391.313,6681.999 388,6681.999 L388,6681.999 Z" id="location" sketch:type="MSShapeGroup"></path>
        </g>
    </g>
</svg>