<?xml version="1.0" encoding="UTF-8" standalone="no"?>
<svg width="48px" height="48px" viewBox="0 0 48 48" version="1.1" xmlns="http://www.w3.org/2000/svg" xmlns:xlink="http://www.w3.org/1999/xlink" xmlns:sketch="http://www.bohemiancoding.com/sketch/ns">
    <!-- Generator: Sketch 3.3.3 (12072) - http://www.bohemiancoding.com/sketch -->
    <title>search</title>
    <desc>Created with Sketch.</desc>
    <defs></defs>
    <g id="Page-1" stroke="none" stroke-width="1" fill="none" fill-rule="evenodd" sketch:type="MSPage">
        <g id="48px" sketch:type="MSLayerGroup" transform="translate(-1357.000000, -1984.000000)" fill="#000000">
            <path d="M1404.524,2031.52 C1403.925,2032.12 1402.954,2032.12 1402.355,2031.52 L1393.834,2022.999 C1394.603,2022.323 1395.326,2021.599 1396.003,2020.831 L1404.524,2029.352 C1405.123,2029.95 1405.123,2030.92 1404.524,2031.52 L1404.524,2031.52 Z M1378,2025.997 C1366.402,2025.997 1357,2016.593 1357,2004.997 C1357,1993.398 1366.402,1983.996 1378,1983.996 C1389.598,1983.996 1399,1993.398 1399,2004.997 C1399,2016.593 1389.598,2025.997 1378,2025.997 L1378,2025.997 Z M1378,1986.996 C1368.059,1986.996 1360,1995.056 1360,2004.997 C1360,2014.936 1368.059,2022.995 1378,2022.995 C1387.941,2022.995 1396,2014.937 1396,2004.997 C1396,1995.056 1387.94,1986.996 1378,1986.996 L1378,1986.996 Z" id="search" sketch:type="MSShapeGroup"></path>
        </g>
    </g>
</svg>