<svg version="1" xmlns="http://www.w3.org/2000/svg" x="0" y="0" width="220" height="220" viewBox="0 0 220 220" xml:space="preserve"><g fill="#762057"><path d="M104.7 215.7c-1.1-.1-1.9-1-1.9-2.1.1-1.1 1-1.9 2.1-1.9 1.1.1 1.9 1 1.9 2.1-.1 1.1-1 1.9-2.1 1.9.1 0 0 0 0 0zm8.6-1.9c-.1-1.1.8-2 1.9-2.1 1.1-.1 2 .8 2.1 1.9.1 1.1-.8 2-1.9 2.1h-.1c-1 0-1.9-.8-2-1.9zm-19.3.8c-1.1-.2-1.8-1.2-1.7-2.3.2-1.1 1.2-1.8 2.3-1.6 1.1.2 1.8 1.2 1.7 2.2-.1 1-1 1.7-1.9 1.7-.2.1-.3 0-.4 0zm29.8-1.6c-.2-1.1.6-2.1 1.7-2.3 1.1-.2 2.1.6 2.3 1.7.2 1.1-.6 2.1-1.7 2.3h-.3c-1-.1-1.8-.8-2-1.7zm-40.3-.5c-1.1-.3-1.7-1.4-1.4-2.4.3-1.1 1.3-1.7 2.4-1.4 1.1.3 1.7 1.4 1.4 2.4-.2.9-1 1.5-1.9 1.5-.1 0-.3-.1-.5-.1zm50.7-1.5c-.3-1.1.4-2.1 1.4-2.4 1.1-.3 2.1.4 2.4 1.4.3 1.1-.4 2.1-1.4 2.4-.2 0-.3.1-.5.1-.9 0-1.7-.6-1.9-1.5zm-60.9-1.7c-1-.4-1.5-1.5-1.2-2.5.4-1 1.5-1.5 2.5-1.2 1 .4 1.6 1.5 1.2 2.5-.3.8-1.1 1.3-1.9 1.3-.1 0-.4 0-.6-.1zm71-1.2c-.4-1 .1-2.2 1.2-2.5 1-.4 2.2.1 2.5 1.2.4 1-.1 2.2-1.2 2.5-.2.1-.5.1-.7.1-.8 0-1.5-.5-1.8-1.3zm-80.8-3c-1-.5-1.4-1.7-.9-2.6.5-1 1.7-1.4 2.6-.9 1 .5 1.4 1.7.9 2.6-.3.7-1.1 1.1-1.8 1.1-.3 0-.6-.1-.8-.2zm90.5-1c-.5-1-.1-2.2.9-2.6 1-.5 2.2-.1 2.6.9.5 1 .1 2.2-.9 2.6-.3.1-.6.2-.9.2-.6 0-1.4-.4-1.7-1.1zm-99.9-4.2c-.9-.6-1.2-1.8-.6-2.7.6-.9 1.8-1.2 2.7-.6.9.6 1.2 1.8.6 2.7-.4.6-1 .9-1.7.9-.3 0-.7-.1-1-.3zm109.2-.7c-.6-.9-.3-2.1.6-2.7.9-.6 2.1-.3 2.7.6.6.9.3 2.1-.6 2.7-.3.2-.7.3-1 .3-.7 0-1.3-.3-1.7-.9zm-118-5.5c-.9-.7-1-1.9-.4-2.8.7-.9 1.9-1 2.8-.4.9.7 1 1.9.4 2.8-.4.5-1 .8-1.6.8-.4.1-.9-.1-1.2-.4zm126.7-.4c-.7-.9-.5-2.1.4-2.8.9-.7 2.1-.5 2.8.4.7.9.5 2.1-.3 2.8-.4.3-.8.4-1.2.4-.7 0-1.3-.3-1.7-.8zm-134.9-6.5c-.8-.7-.8-2-.1-2.8.8-.8 2-.8 2.8-.1.8.8.8 2 .1 2.8-.4.4-.9.6-1.4.6-.5 0-1-.2-1.4-.5zm143-.2c-.8-.8-.7-2 .1-2.8.8-.8 2-.7 2.8.1.8.8.7 2-.1 2.8-.4.4-.9.5-1.4.5-.4 0-1-.2-1.4-.6zM29.8 179c-.7-.8-.6-2.1.2-2.8.8-.7 2.1-.6 2.8.2.7.8.6 2.1-.2 2.8-.4.3-.8.5-1.3.5-.6 0-1.2-.2-1.5-.7zm157.7.1c-.8-.7-.9-2-.2-2.8.7-.8 2-.9 2.8-.2.8.7.9 2 .2 2.8-.4.4-.9.7-1.5.7-.4 0-.9-.2-1.3-.5zm-164.3-8.6c-.6-.9-.4-2.1.5-2.8.9-.6 2.1-.4 2.8.5.6.9.4 2.1-.5 2.7-.3.3-.7.4-1.1.4-.7.1-1.3-.2-1.7-.8zm170.9.4c-.9-.6-1.1-1.9-.5-2.8.6-.9 1.9-1.1 2.8-.5.9.6 1.1 1.9.5 2.8-.4.6-1 .9-1.6.9-.4 0-.8-.1-1.2-.4zm-176.6-9.5c-.5-.9-.2-2.1.8-2.7 1-.5 2.2-.2 2.7.8s.2 2.2-.8 2.7c-.3.2-.6.3-1 .3-.7 0-1.3-.4-1.7-1.1zm182.4.7c-.9-.5-1.3-1.7-.8-2.7.5-.9 1.7-1.3 2.7-.8.9.5 1.3 1.7.8 2.7-.4.6-1 1-1.7 1-.4.1-.7 0-1-.2zM12.8 151.8c-.4-1 0-2.2 1-2.6 1-.4 2.2 0 2.6 1 .4 1 0 2.2-1 2.6-.3.1-.5.2-.8.2-.8 0-1.5-.4-1.8-1.2zm191.9 1c-1-.4-1.5-1.6-1-2.6.4-1 1.6-1.5 2.6-1 1 .4 1.5 1.6 1 2.6-.3.8-1 1.2-1.8 1.2-.3-.1-.5-.1-.8-.2zM9 141.8c-.3-1 .3-2.1 1.3-2.5 1-.3 2.1.3 2.5 1.3.3 1-.3 2.1-1.3 2.5-.2.1-.4.1-.6.1-.8 0-1.6-.6-1.9-1.4zm199.5 1.2c-1-.3-1.6-1.4-1.3-2.5.3-1 1.4-1.6 2.5-1.3 1 .3 1.6 1.4 1.3 2.5-.3.8-1 1.4-1.9 1.4-.2 0-.4-.1-.6-.1zM6.3 131.4c-.2-1.1.5-2.1 1.5-2.3 1.1-.2 2.1.5 2.3 1.5.2 1.1-.5 2.1-1.5 2.3h-.4c-.8.1-1.7-.6-1.9-1.5zm205 1.4c-1.1-.2-1.8-1.3-1.5-2.3.2-1.1 1.3-1.8 2.3-1.5 1.1.2 1.8 1.3 1.5 2.3-.2.9-1 1.6-1.9 1.6-.1 0-.2 0-.4-.1zm-206.6-12c-.1-1.1.7-2.1 1.8-2.2 1.1-.1 2.1.7 2.2 1.8.1 1.1-.7 2.1-1.8 2.2h-.2c-1 0-1.9-.8-2-1.8zm208.4 1.7c-1.1-.1-1.9-1.1-1.8-2.2.1-1.1 1.1-1.9 2.2-1.8 1.1.1 1.9 1.1 1.8 2.2-.1 1-1 1.8-2 1.8h-.2zM4.2 110.1c0-1.1.9-2 2-2s2 .9 2 2-.9 2-2 2-2-.9-2-2zm207.7-.1v-.1-.1c0-1.1.9-2 2-2s2 .9 2 2v.2c0 1.1-.9 2-2 2s-2-.9-2-2zm0-.2zM6.5 101.6c-1.1-.1-1.9-1.1-1.8-2.2.1-1.1 1.1-1.9 2.2-1.8 1.1.1 1.9 1.1 1.8 2.2-.1 1-1 1.8-2 1.8h-.2zm204.8-2.1c-.1-1.1.7-2.1 1.8-2.2 1.1-.1 2.1.7 2.2 1.8.1 1.1-.7 2.1-1.8 2.2h-.2c-1-.1-1.9-.8-2-1.8zM7.8 91.1c-1.1-.2-1.8-1.3-1.5-2.3.2-1.1 1.3-1.8 2.3-1.5 1.1.2 1.8 1.3 1.5 2.3-.2.9-1 1.6-1.9 1.6-.1 0-.2 0-.4-.1zm202-1.8c-.2-1.1.5-2.1 1.5-2.3 1.1-.2 2.1.5 2.3 1.5.2 1.1-.5 2.1-1.5 2.3-.1 0-.3.1-.4.1-.9 0-1.7-.7-1.9-1.6zM10.3 80.9c-1-.3-1.6-1.4-1.3-2.5.3-1 1.4-1.6 2.5-1.3 1 .3 1.6 1.4 1.3 2.5-.3.8-1 1.4-1.9 1.4-.3 0-.5 0-.6-.1zm196.9-1.6c-.3-1 .2-2.2 1.3-2.5 1-.3 2.2.3 2.5 1.3.3 1-.3 2.1-1.3 2.5-.2.1-.4.1-.6.1-.9 0-1.7-.6-1.9-1.4zM13.7 71c-1-.4-1.5-1.6-1-2.6.4-1 1.6-1.5 2.6-1 1 .4 1.5 1.6 1 2.6-.3.8-1 1.2-1.8 1.2-.3-.1-.5-.1-.8-.2zm189.9-1.4c-.4-1 0-2.2 1-2.6 1-.4 2.2 0 2.6 1 .4 1 0 2.2-1 2.6-.3.1-.5.2-.8.2-.8 0-1.5-.4-1.8-1.2zM18.2 61.4c-.9-.5-1.3-1.7-.8-2.7.5-.9 1.7-1.3 2.7-.8.9.5 1.3 1.7.8 2.7-.4.7-1 1-1.7 1-.4.1-.7 0-1-.2zm180.8-1c-.5-.9-.2-2.2.8-2.7.9-.5 2.1-.2 2.7.8.5.9.2 2.2-.8 2.7-.3.2-.6.3-1 .3-.7-.1-1.3-.5-1.7-1.1zm-175.5-8c-.9-.6-1.1-1.9-.5-2.8.6-.9 1.9-1.1 2.8-.5.9.6 1.1 1.9.5 2.8-.4.6-1 .9-1.6.9-.4 0-.8-.2-1.2-.4zm170-.8c-.6-.9-.4-2.1.5-2.8.9-.6 2.1-.4 2.8.5.6.9.4 2.1-.5 2.8-.3.3-.7.4-1.1.4-.7 0-1.3-.3-1.7-.9zM29.8 44c-.8-.7-.9-2-.2-2.8.7-.8 1.9-.9 2.8-.2.8.7.9 1.9.2 2.8-.4.5-.9.7-1.5.7-.5-.1-.9-.2-1.3-.5zm157.4-.5c-.7-.8-.6-2.1.2-2.8.8-.7 2.1-.6 2.8.2.7.8.6 2.1-.2 2.8-.4.3-.8.5-1.3.5-.6 0-1.1-.3-1.5-.7zM36.9 36.2c-.8-.8-.7-2 .1-2.8.8-.8 2-.7 2.8.1.8.8.7 2-.1 2.8-.4.4-.9.5-1.4.5-.5 0-1-.2-1.4-.6zM180 36c-.8-.8-.8-2-.1-2.8.8-.8 2-.8 2.8-.1.8.8.8 2 .1 2.8-.4.4-.9.6-1.4.6-.5.1-1-.1-1.4-.5zM44.8 29.2c-.7-.9-.5-2.1.3-2.8.9-.7 2.1-.5 2.8.3.7.9.5 2.1-.3 2.8-.4.3-.8.4-1.2.4-.7 0-1.3-.2-1.6-.7zm127.4.1c-.9-.7-1-1.9-.4-2.8.7-.9 1.9-1 2.8-.4.9.7 1 1.9.4 2.8-.4.5-1 .8-1.6.8-.4 0-.8-.1-1.2-.4zM53.3 23c-.6-.9-.3-2.1.6-2.7.9-.6 2.1-.3 2.7.6.6.9.3 2.1-.6 2.7-.3.2-.7.3-1.1.3-.6 0-1.3-.3-1.6-.9zm110.4.4c-.9-.6-1.2-1.8-.6-2.7.6-.9 1.8-1.2 2.7-.6.9.6 1.2 1.8.6 2.7-.4.6-1 .9-1.7.9-.3 0-.6-.1-1-.3zM62.3 17.7c-.5-1-.1-2.2.9-2.6 1-.5 2.2-.1 2.6.9.5 1 .1 2.2-.9 2.6-.3.1-.6.2-.9.2-.6 0-1.3-.4-1.7-1.1zm92.4.7c-1-.5-1.4-1.7-.9-2.6.5-1 1.7-1.4 2.6-.9 1 .5 1.4 1.7.9 2.6-.3.7-1 1.1-1.8 1.1-.2 0-.5 0-.8-.2zm-82.8-5.1c-.4-1 .1-2.2 1.2-2.5 1-.4 2.2.1 2.5 1.2.4 1-.1 2.2-1.2 2.5-.2.1-.5.1-.7.1-.7 0-1.5-.5-1.8-1.3zm73.3 1.1c-1-.4-1.6-1.5-1.2-2.5.4-1 1.5-1.6 2.5-1.2 1 .4 1.5 1.5 1.2 2.5-.3.8-1 1.3-1.8 1.3-.2 0-.5 0-.7-.1zM81.9 10c-.3-1.1.4-2.1 1.4-2.4 1.1-.3 2.1.4 2.4 1.4.3 1.1-.4 2.1-1.4 2.4-.2 0-.3.1-.5.1-.9 0-1.7-.6-1.9-1.5zm53.5 1.3c-1.1-.3-1.7-1.4-1.4-2.4.3-1.1 1.3-1.7 2.4-1.4 1.1.3 1.7 1.3 1.4 2.4-.2.9-1 1.5-1.9 1.5-.2 0-.4-.1-.5-.1zM92.2 7.6c-.2-1.1.6-2.1 1.6-2.3 1.1-.2 2.1.6 2.3 1.7.2 1.1-.6 2.1-1.6 2.3h-.3c-1.1 0-1.9-.7-2-1.7zm33.1 1.7c-1.1-.2-1.8-1.2-1.7-2.3.2-1.1 1.2-1.8 2.2-1.7 1.1.2 1.8 1.2 1.7 2.3-.2 1-1 1.7-2 1.7h-.2zm-22.7-2.9c-.1-1.1.8-2 1.9-2.1 1.1-.1 2 .8 2.1 1.9.1 1.1-.8 2-1.9 2.1h-.1c-1.1 0-1.9-.9-2-1.9zM115 8.2c-1.1-.1-1.9-1-1.9-2.1s1-1.9 2.1-1.9c1.1.1 1.9 1 1.9 2.1-.1 1.1-.9 1.9-2 1.9h-.1z"/><path d="M110 220C49.3 220 0 170.7 0 110S49.3 0 110 0s110 49.3 110 110-49.3 110-110 110zm0-218.7C50.1 1.3 1.3 50.1 1.3 110S50.1 218.7 110 218.7 218.7 169.9 218.7 110 169.9 1.3 110 1.3z"/><path d="M110 209.2c-54.7 0-99.2-44.5-99.2-99.2S55.3 10.8 110 10.8s99.2 44.5 99.2 99.2-44.5 99.2-99.2 99.2zm0-197c-53.9 0-97.8 43.9-97.8 97.8s43.9 97.8 97.8 97.8 97.8-43.9 97.8-97.8-43.9-97.8-97.8-97.8z"/></g><path fill="#762057" d="M79.1 147.1c8.1-9.8 23.5-29.9 31.7-40.8 3.8-4.7 6.2-9.4 6.2-13.6 0-5.5-4.2-11.2-13-11.2-5.9 0-10.9 4.2-13.7 7.2-1 1-2.3 1-3.3 0l-5.9-5.9c-.7-.7-1-2.2-.1-3.2 0 0 9.6-12 24.1-12 17.5 0 27.3 11.2 27.3 24.4 0 8-3.4 13-8.2 19.9-5.3 7.5-14.6 19-21.1 27.2h26.5c1.2 0 2.3 1.1 2.3 2.3v8.5c0 1.2-1.1 2.3-2.3 2.3H81.4c-1.3 0-2.3-1.1-2.3-2.3v-2.8zM140.8 91.7c0-6.1 4.9-11 11-11 6 0 11 4.9 11 11s-5 11-11 11c-6.1 0-11-4.9-11-11zm34.6-9.4c.2-.5.7-.8 1.4-.8h4.1c1.2 0 2 1.1 1.4 2.2l-28.1 54.1c-.2.3-.7.8-1.4.8h-3.9c-1.2 0-2-1.1-1.4-2.2l27.9-54.1zm-19.7 9.4c0-2.1-1.8-3.9-3.9-3.9-2.2 0-4 1.8-4 3.9 0 2.2 1.8 4 4 4 2.1-.1 3.9-1.8 3.9-4zm22.9 25.6c6.1 0 11.1 4.9 11.1 11s-5 11-11.1 11c-6 0-11-4.9-11-11s5-11 11-11zm0 15c2.1 0 4-1.8 4-4 0-2.1-1.9-3.9-4-3.9-2.2 0-4 1.8-4 3.9 0 2.2 1.8 4 4 4zM30.3 115v-.1c0-.5.2-.9 1-1.5L68 90.1c.7-.5 1.5-.1 1.5 1v2.4c0 .4-.1 1.1-.8 1.6L37.1 115l31.6 19.2c.7.4.8 1.1.8 1.6v2.4c0 1.1-.7 1.6-1.5 1l-36.7-22.5c-.8-.6-1-1-1-1.7z"/></svg>