<svg version="1" xmlns="http://www.w3.org/2000/svg" x="0" y="0" width="220" height="220" viewBox="0 0 220 220" xml:space="preserve"><path fill="#762057" d="M110 213.2C53.1 213.2 6.8 166.9 6.8 110S53.1 6.8 110 6.8 213.2 53.1 213.2 110 166.9 213.2 110 213.2zm0-202.4c-54.7 0-99.2 44.5-99.2 99.2s44.5 99.2 99.2 99.2 99.2-44.5 99.2-99.2-44.5-99.2-99.2-99.2z"/><g fill="#762057"><path d="M33.3 139.4L57.9 88h-25c-.9 0-1.8-.9-1.8-1.8v-6.6c0-.9.9-1.8 1.8-1.8h39.4c.9 0 1.8.9 1.8 1.8v.7l-28.3 59.4c-.7 1.5-1.6 2.6-3.2 2.6h-7c-1.1 0-2.4-.3-2.4-1.8v-1.1zM81.8 110c0-20.8 8.7-33.2 23.9-33.2s23.9 12.4 23.9 33.2c0 20.8-8.7 33.2-23.9 33.2S81.8 130.8 81.8 110zm35.4 0c0-14-4.2-22-11.5-22s-11.5 8-11.5 22c0 14.1 4.2 22 11.5 22s11.5-7.9 11.5-22zM141.1 110c0-20.8 8.7-33.2 23.9-33.2s23.9 12.4 23.9 33.2c0 20.8-8.7 33.2-23.9 33.2-15.1 0-23.9-12.4-23.9-33.2zm35.4 0c0-14-4.2-22-11.5-22s-11.5 8-11.5 22c0 14.1 4.2 22 11.5 22s11.5-7.9 11.5-22z"/></g><path fill="#FFF" d="M65.6 83.8H34.4c-.3 0-.5-.2-.5-.5V83c0-.3.2-.5.5-.5h32.4c.4 0 .6.4.5.7l-26.4 55.1c-.2.3-.3.4-.6.2l-.4-.2c-.3-.2-.3-.3-.2-.7l25.9-53.8zM86.6 110.3c0-17.7 7-28.4 19.1-28.4 12.1 0 19.1 10.6 19.1 28.4 0 17.7-7 28.4-19.1 28.4-12.1 0-19.1-10.7-19.1-28.4zm36.8 0c0-16.9-6.3-26.9-17.7-26.9S88 93.4 88 110.3s6.3 26.9 17.7 26.9 17.7-9.9 17.7-26.9zM145.9 110.3c0-17.7 7-28.4 19.1-28.4 12.1 0 19.1 10.6 19.1 28.4 0 17.7-7 28.4-19.1 28.4-12.1 0-19.1-10.7-19.1-28.4zm36.8 0c0-16.9-6.3-26.9-17.7-26.9-11.4 0-17.7 10-17.7 26.9s6.3 26.9 17.7 26.9c11.4.1 17.7-9.9 17.7-26.9z"/><path fill="#762057" d="M110 220C49.3 220 0 170.7 0 110S49.3 0 110 0s110 49.3 110 110-49.3 110-110 110zm0-218.7C50.1 1.3 1.3 50.1 1.3 110S50.1 218.7 110 218.7 218.7 169.9 218.7 110 169.9 1.3 110 1.3z"/></svg>