<svg version="1" xmlns="http://www.w3.org/2000/svg" x="0" y="0" width="220" height="220" viewBox="0 0 220 220" xml:space="preserve"><g fill="#762057"><path d="M110 213.2C53.1 213.2 6.8 166.9 6.8 110S53.1 6.8 110 6.8 213.2 53.1 213.2 110 166.9 213.2 110 213.2zm0-202.5c-54.7 0-99.2 44.5-99.2 99.3s44.5 99.3 99.2 99.3 99.2-44.5 99.2-99.3-44.5-99.3-99.2-99.3z"/><path d="M108.1 220c-1.3 0-2.7-.1-4-.1l.1-1.3c1.3.1 2.6.1 3.9.1v1.3zm3.9 0v-1.3c1.3 0 2.6-.1 3.9-.1l.1 1.3c-1.3 0-2.6.1-4 .1zm-11.9-.4c-1.3-.1-2.6-.3-3.9-.4l.2-1.3c1.3.2 2.6.3 3.9.4l-.2 1.3zm19.9 0l-.1-1.3c1.3-.1 2.6-.3 3.9-.4l.2 1.3c-1.4.1-2.7.3-4 .4zm-27.7-1c-1.3-.2-2.6-.4-3.9-.7l.3-1.3c1.3.3 2.6.5 3.9.7l-.3 1.3zm35.5 0l-.2-1.3c1.3-.2 2.6-.4 3.9-.7l.3 1.3c-1.3.2-2.6.5-4 .7zM84.5 217c-1.3-.3-2.6-.6-3.8-1l.4-1.3c1.3.3 2.5.7 3.8 1l-.4 1.3zm51.1 0l-.3-1.3c1.3-.3 2.5-.6 3.8-1l.4 1.3c-1.3.4-2.6.7-3.9 1zm-58.8-2.1c-1.3-.4-2.5-.8-3.8-1.3l.4-1.2c1.2.4 2.5.9 3.7 1.3l-.3 1.2zm66.5 0l-.4-1.3c1.2-.4 2.5-.8 3.7-1.3l.4 1.2c-1.2.6-2.5 1-3.7 1.4zm-74-2.7c-1.2-.5-2.5-1-3.7-1.5l.5-1.2 3.6 1.5-.4 1.2zm81.5 0l-.5-1.2 3.6-1.5.5 1.2-3.6 1.5zM62 209c-1.2-.6-2.4-1.2-3.5-1.8l.6-1.2c1.2.6 2.3 1.2 3.5 1.8L62 209zm96 0l-.6-1.2c1.2-.6 2.3-1.2 3.5-1.8l.6 1.2c-1.1.6-2.3 1.2-3.5 1.8zm-103-3.7c-1.1-.7-2.3-1.3-3.4-2.1l.7-1.1c1.1.7 2.2 1.4 3.4 2l-.7 1.2zm110 0l-.7-1.1c1.1-.7 2.2-1.3 3.4-2l.7 1.1c-1.1.7-2.3 1.3-3.4 2zm6.7-4.2l-.7-1.1c1.1-.7 2.1-1.5 3.2-2.3l.8 1.1c-1.1.8-2.2 1.5-3.3 2.3zm-123.4 0c-1.1-.7-2.2-1.5-3.2-2.3l.8-1.1c1.1.8 2.1 1.5 3.2 2.3l-.8 1.1zm129.8-4.7l-.8-1c1-.8 2-1.6 3-2.5l.9 1c-1 .8-2 1.7-3.1 2.5zm-136.2 0c-1-.8-2.1-1.7-3.1-2.5l.9-1c1 .8 2 1.7 3 2.5l-.8 1zm142.3-5.1l-.9-1c1-.9 1.9-1.8 2.8-2.7l.9.9-2.8 2.8zm-148.4-.1c-1-.9-1.9-1.8-2.9-2.7l.9-.9c.9.9 1.9 1.8 2.8 2.7l-.8.9zm154-5.5l-1-.9c.9-.9 1.8-1.9 2.6-2.9l1 .9c-.8 1-1.7 1.9-2.6 2.9zm-159.7 0c-.9-1-1.8-1.9-2.7-2.9l1-.9c.9 1 1.7 1.9 2.6 2.9l-.9.9zm165-6l-1-.8c.8-1 1.6-2 2.4-3.1l1 .8c-.8 1.1-1.6 2.1-2.4 3.1zm-170.2 0c-.8-1-1.7-2.1-2.5-3.1l1-.8c.8 1 1.6 2.1 2.4 3.1l-.9.8zm175-6.3l-1.1-.8c.8-1.1 1.5-2.2 2.2-3.2l1.1.7c-.7 1.1-1.4 2.2-2.2 3.3zm-179.8 0c-.8-1.1-1.5-2.2-2.2-3.3l1.1-.7c.7 1.1 1.4 2.2 2.2 3.2l-1.1.8zm-4.3-6.6c-.7-1.1-1.3-2.3-2-3.4l1.2-.6c.6 1.1 1.3 2.3 2 3.4l-1.2.6zm188.5 0l-1.1-.7c.7-1.1 1.3-2.3 2-3.4l1.2.6c-.8 1.2-1.5 2.3-2.1 3.5zm-192.4-7c-.6-1.2-1.2-2.4-1.7-3.6l1.2-.6c.6 1.2 1.1 2.4 1.7 3.5l-1.2.7zm196.2 0l-1.2-.6c.6-1.2 1.2-2.3 1.7-3.5l1.2.6c-.5 1.1-1.1 2.3-1.7 3.5zM8.6 152.7c-.5-1.2-1-2.4-1.5-3.7l1.2-.5c.5 1.2.9 2.4 1.5 3.6l-1.2.6zm202.9-.1l-1.2-.5c.5-1.2 1-2.4 1.5-3.7l1.2.5c-.5 1.2-1 2.5-1.5 3.7zM5.8 145.2c-.4-1.3-.8-2.5-1.2-3.8l1.3-.4c.4 1.3.8 2.5 1.2 3.7l-1.3.5zm208.5-.1l-1.2-.4c.4-1.2.8-2.5 1.2-3.7l1.3.4c-.5 1.2-.9 2.5-1.3 3.7zM3.5 137.6l-.9-3.9 1.3-.3c.3 1.3.6 2.6.9 3.8l-1.3.4zm213-.1l-1.3-.3c.3-1.3.6-2.5.9-3.8l1.3.3c-.2 1.2-.5 2.5-.9 3.8zM1.8 129.9c-.2-1.3-.5-2.6-.6-3.9l1.3-.2.6 3.9-1.3.2zm216.4-.1l-1.3-.2.6-3.9 1.3.2c-.1 1.3-.3 2.6-.6 3.9zM.6 122c-.1-1.3-.3-2.6-.4-4l1.3-.1c.1 1.3.2 2.6.4 3.9l-1.3.2zm218.8-.1l-1.3-.1c.1-1.3.3-2.6.3-3.9l1.3.1-.3 3.9zM.1 114.1c0-1.3-.1-2.6-.1-4h1.3c0 1.3 0 2.6.1 3.9l-1.3.1zm219.8-.1h-1.3c0-1.3.1-2.6.1-3.9v-.2h1.3v.2c0 1.2 0 2.6-.1 3.9zM1.4 106.2H.1c0-1.3.1-2.6.2-4l1.3.1c-.1 1.3-.2 2.6-.2 3.9zm217.2-.3c0-1.3-.1-2.6-.2-3.9l1.3-.1c.1 1.3.2 2.6.2 4h-1.3zM1.9 98.4l-1.3-.1c.1-1.3.3-2.6.5-3.9l1.3.2c-.2 1.2-.3 2.5-.5 3.8zM218 98c-.1-1.3-.3-2.6-.5-3.9l1.3-.2c.2 1.3.4 2.6.5 3.9l-1.3.2zM3 90.6l-1.3-.2c.2-1.3.5-2.6.8-3.9l1.3.3c-.3 1.2-.5 2.5-.8 3.8zm213.9-.3c-.2-1.3-.5-2.6-.8-3.8l1.3-.3c.3 1.3.5 2.6.8 3.9l-1.3.2zM4.7 82.9l-1.3-.3c.3-1.3.7-2.6 1.1-3.8l1.3.4c-.4 1.2-.8 2.5-1.1 3.7zm210.5-.3c-.3-1.3-.7-2.5-1.1-3.8l1.3-.4c.4 1.3.7 2.5 1.1 3.8l-1.3.4zM6.9 75.4L5.7 75c.4-1.3.9-2.5 1.3-3.8l1.2.5c-.4 1.2-.8 2.5-1.3 3.7zm206.1-.3c-.4-1.2-.9-2.5-1.3-3.7l1.2-.5c.5 1.2.9 2.5 1.3 3.7l-1.2.5zM9.7 68l-1.2-.5c.5-1.2 1-2.4 1.6-3.6l1.2.6c-.6 1.1-1.1 2.3-1.6 3.5zm200.5-.2c-.5-1.2-1-2.4-1.6-3.6l1.2-.6c.6 1.2 1.1 2.4 1.6 3.6l-1.2.6zM13 60.9l-1.2-.6c.6-1.2 1.2-2.4 1.9-3.5l1.2.6c-.7 1.2-1.3 2.3-1.9 3.5zm193.9-.2c-.6-1.2-1.2-2.3-1.8-3.5l1.2-.6c.6 1.2 1.3 2.3 1.9 3.5l-1.3.6zM16.8 54l-1.1-.7c.7-1.1 1.4-2.3 2.1-3.4l1.1.7c-.7 1.2-1.4 2.3-2.1 3.4zm186.3-.2l-2.1-3.3 1.1-.7c.7 1.1 1.4 2.2 2.1 3.4l-1.1.6zm-182-6.3l-1.1-.8c.8-1.1 1.5-2.2 2.3-3.2l1 .8c-.7 1-1.4 2.1-2.2 3.2zm177.7-.2c-.8-1.1-1.5-2.1-2.3-3.2l1-.8c.8 1.1 1.6 2.1 2.4 3.2l-1.1.8zM25.9 41.2l-1-.8c.8-1 1.7-2 2.6-3l1 .9c-1 .9-1.8 1.9-2.6 2.9zm168.1-.1c-.8-1-1.7-2-2.5-3l1-.9c.9 1 1.7 2 2.6 3l-1.1.9zM31 35.3l-1-.9c.9-1 1.8-1.9 2.8-2.8l.9.9c-.8.9-1.8 1.9-2.7 2.8zm157.8-.1c-.9-.9-1.8-1.9-2.8-2.8l.9-.9 2.8 2.8-.9.9zM36.6 29.8l-.9-1c1-.9 2-1.8 3-2.6l.9 1c-1 .9-2 1.7-3 2.6zm146.6-.1c-1-.9-1.9-1.7-2.9-2.6l.9-1c1 .9 2 1.7 3 2.6l-1 1zm-140.6-5l-.8-1c1-.8 2.1-1.6 3.2-2.4l.8 1.1c-1.1.7-2.2 1.5-3.2 2.3zm134.6-.1c-1-.8-2.1-1.6-3.1-2.4l.8-1.1c1.1.8 2.1 1.6 3.2 2.4l-.9 1.1zM48.9 20.1l-.7-1.1c1.1-.7 2.2-1.5 3.3-2.2l.7 1.1c-1.1.7-2.2 1.5-3.3 2.2zm122-.1l-3.3-2.1.7-1.1c1.1.7 2.2 1.4 3.3 2.2l-.7 1zM55.6 15.9l-.7-1.1c1.1-.7 2.3-1.3 3.5-1.9L59 14c-1.2.6-2.3 1.3-3.4 1.9zm108.6-.1c-1.1-.7-2.3-1.3-3.4-1.9l.6-1.2c1.2.6 2.3 1.3 3.5 1.9l-.7 1.2zM62.5 12.2l-.6-1.2c1.2-.6 2.4-1.1 3.6-1.7l.5 1.2c-1.2.6-2.4 1.2-3.5 1.7zm94.8-.1c-1.2-.6-2.4-1.1-3.6-1.6l.5-1.2c1.2.5 2.4 1.1 3.6 1.7l-.5 1.1zm-87.7-3l-.5-1.2c1.2-.5 2.5-1 3.7-1.4l.4 1.2c-1.1.4-2.4.9-3.6 1.4zm80.5-.1c-1.2-.5-2.4-.9-3.7-1.4l.4-1.2c1.3.4 2.5.9 3.7 1.4l-.4 1.2zM77 6.4l-.4-1.3c1.3-.4 2.5-.8 3.8-1.1l.4 1.3c-1.3.3-2.5.7-3.8 1.1zm65.7-.1c-1.2-.4-2.5-.8-3.8-1.1l.3-1.3c1.3.4 2.5.7 3.8 1.1l-.3 1.3zm-58.1-2L84.3 3l3.9-.9.3 1.3c-1.4.3-2.7.6-3.9.9zm50.5-.1c-1.3-.3-2.5-.6-3.8-.8l.3-1.3c1.3.3 2.6.5 3.9.8l-.4 1.3zM92.3 2.8L92 1.5l3.9-.6.2 1.3c-1.3.2-2.6.3-3.8.6zm35.1-.1l-3.9-.6.2-1.3 3.9.6-.2 1.3zM100 1.8L99.9.5c1.3-.1 2.6-.2 4-.3l.1 1.3c-1.4.1-2.7.1-4 .3zm19.6-.1l-3.9-.3.1-1.3c1.3.1 2.6.2 4 .3l-.2 1.3zm-11.7-.4V0h4v1.3h-4z"/></g><path fill="#762057" d="M155.8 97.5c0-4.2 3.3-7.5 7.5-7.5 4.1 0 7.5 3.3 7.5 7.5s-3.4 7.5-7.5 7.5c-4.2-.1-7.5-3.4-7.5-7.5zm11.7 0c0-2.3-1.9-4.2-4.2-4.2-2.4 0-4.3 1.9-4.3 4.2 0 2.4 1.9 4.3 4.3 4.3 2.3 0 4.2-1.9 4.2-4.3zm12.5-6.4c.2-.4.5-.6.9-.6h.9c.8 0 1.3.8.9 1.5l-19.1 36.8c-.1.2-.4.6-.9.6h-.8c-.8 0-1.3-.8-.9-1.5l19-36.8zm.8 24c4.1 0 7.5 3.3 7.5 7.5s-3.4 7.5-7.5 7.5c-4.2 0-7.5-3.3-7.5-7.5s3.4-7.5 7.5-7.5zm0 11.8c2.3 0 4.2-1.9 4.2-4.3 0-2.3-1.9-4.2-4.2-4.2-2.4 0-4.3 1.9-4.3 4.2 0 2.4 1.9 4.3 4.3 4.3zM155.8 80.2h32.5v2.9h-32.5zM155.8 135.1h32.5v2.9h-32.5z"/><g fill="#762057"><path d="M34.4 146.3l30.4-63.4H33.9c-1.2 0-2.2-1.1-2.2-2.2v-8.2c0-1.2 1.1-2.2 2.2-2.2h48.6c1.2 0 2.2 1.1 2.2 2.2v.8l-34.8 73.3c-.8 1.9-2 3.2-4 3.2h-8.7c-1.4 0-2.9-.4-2.9-2.2v-1.3zM86.8 110c0-25.6 10.8-40.9 29.5-40.9s29.5 15.3 29.5 40.9-10.8 40.9-29.5 40.9-29.5-15.3-29.5-40.9zm43.6 0c0-17.3-5.1-27.1-14.2-27.1S102 92.7 102 110c0 17.4 5.1 27.1 14.2 27.1s14.2-9.7 14.2-27.1z"/></g></svg>