<svg version="1" xmlns="http://www.w3.org/2000/svg" x="0" y="0" width="190" height="190" viewBox="0 0 190 190" xml:space="preserve"><path fill="#F9BE38" d="M95 190c-52.4 0-95-42.6-95-95S42.6 0 95 0s95 42.6 95 95-42.6 95-95 95zM95 3.6C44.6 3.6 3.6 44.6 3.6 95s41 91.4 91.4 91.4 91.4-41 91.4-91.4S145.4 3.6 95 3.6z"/><g fill="#F9BE38"><circle cx="62.3" cy="150.1" r="6.1"/><path d="M120.1 22.2c-3.7-1.7-8-1.6-12.8.4-.2.1-.3.2-.5.3-.9-.5-2-.6-3-.2-1.7.7-2.6 2.7-1.9 4.5.7 1.7 2.7 2.6 4.5 1.9 1.2-.5 1.9-1.5 2.1-2.7.1 0 .2 0 .3-.1 3.7-1.5 6.9-1.7 9.5-.4 4.1 1.9 5.6 6.6 5.6 6.6 0 .1 0 .1.1.2l9 21.9-6.5 15.7c-6.9 11.4-16.3 18-27.9 19.3-8.4 1-15.1-1.2-15.6-1.4l-16.6-6.9L57.6 60c0-.1 0-.1-.1-.2 0 0-2.4-4.8-.8-9 .9-2.4 2.9-4.3 6-5.6.1 0 .1-.1.2-.1.9.7 2.2.9 3.3.4 1.7-.7 2.6-2.7 1.9-4.5-.7-1.7-2.7-2.6-4.5-1.9-1 .4-1.7 1.2-2 2.2-.2 0-.3.1-.5.1-4.2 1.7-7 4.4-8.2 7.8-2 5.6.6 11.3 1 12.1l9 22c.2.5.6.9 1.1 1.1l49.2 20.5c.7 1.6 1.4 3.3 2.2 5.2 5.1 11.7 12.9 29.4 8.8 39.5-1.2 3.1-3.5 5.2-6.9 6.6-11.8 4.9-18.4-8.4-23.7-21.2-.3-.7-.6-1.4-.8-2.1-3-7.3-6.3-15.6-13.2-18.5-4-1.7-8.6-1.4-14.1.9-12.7 5.2-13.2 13.6-11.4 19.8 0 .1.1.2.1.2-7.3 4-10.6 13-7.4 20.9 3.5 8.5 13.2 12.5 21.7 9s12.5-13.2 9-21.7c-3.2-7.8-11.7-11.9-19.7-9.7-.8-2.6-2.7-10 9.1-14.9 4.5-1.8 8.1-2.1 11.1-.9 5.4 2.3 8.3 9.4 11.1 16.3.3.7.6 1.4.8 2.1 2.5 6.2 5.6 13.2 9.9 18.1 5.5 6.4 11.9 8.1 18.9 5.2 4.4-1.8 7.4-4.8 9-8.8 4.7-11.6-3.1-29.5-8.8-42.6-.8-1.9-1.6-3.6-2.3-5.2L137 55.2c.2-.5.2-1 0-1.5l-9.3-22.6c-.3-.8-2.3-6.4-7.6-8.9zM74.8 144.9c2.8 6.9-.5 14.9-7.4 17.7-6.9 2.8-14.9-.5-17.7-7.4s.5-14.9 7.4-17.7c6.9-2.8 14.9.5 17.7 7.4zm38.9-44l-17.4-7.3c.9 0 1.7-.1 2.6-.2 3.1-.4 6.6-1.1 10.3-2.7 3.9-1.6 8-4 11.9-7.6l-7.4 17.8z"/></g></svg>