<svg version="1" xmlns="http://www.w3.org/2000/svg" x="0" y="0" width="180" height="180" viewBox="0 0 180 180" xml:space="preserve"><path fill="#FFBF3B" d="M90 180c-49.6 0-90-40.4-90-90S40.4 0 90 0s90 40.4 90 90-40.4 90-90 90zM90 3.4C42.2 3.4 3.4 42.2 3.4 90s38.8 86.6 86.6 86.6 86.6-38.8 86.6-86.6S137.8 3.4 90 3.4z"/><circle fill="none" stroke="#FFBF3B" stroke-width="3" stroke-miterlimit="10" cx="82.4" cy="65.4" r="40.8"/><circle fill="none" stroke="#FFBF3B" stroke-width="3" stroke-miterlimit="10" cx="82.4" cy="65.4" r="33.7"/><path fill="none" stroke="#FFBF3B" stroke-width="3" stroke-miterlimit="10" d="M87.4 106.5l16.5 52.8 14.3-4.5-16.4-52.7M101.1 150.4l14.4-4.5M112.8 140.2l-14.4 4.5"/><path fill="none" stroke="#FFBF3B" stroke-width="3" stroke-linecap="round" stroke-miterlimit="10" d="M82 38.7s11.1-1.3 19.4 10.2"/></svg>