<svg version="1" xmlns="http://www.w3.org/2000/svg" x="0" y="0" width="180" height="180" viewBox="0 0 180 180" xml:space="preserve"><path fill="#FFBF3B" d="M90 180c-49.6 0-90-40.4-90-90S40.4 0 90 0s90 40.4 90 90-40.4 90-90 90zM90 3.4C42.2 3.4 3.4 42.2 3.4 90s38.8 86.6 86.6 86.6 86.6-38.8 86.6-86.6S137.8 3.4 90 3.4z"/><g fill="#FFBF3B"><path d="M147.4 72.8L76.5 86.1 34.7 75.6V62.2c12.6 3.8 41.8 10 41.8 10l73.2-14.1s3.2-2.2 0-5C148.4 52 103 42.6 103 42.6L30.4 56.1S29 57.2 29 59.7v20.5L76.4 92l72.1-13.5c1.5-.3 2.6-1.8 2.3-3.3-.4-1.7-1.9-2.7-3.4-2.4z"/><path d="M49 113.3c-7.1-1.9-14.4-3.9-14.4-3.9s-.1-12.3-.1-14.5l41.8 9.3c.3.1.7.1 1 0l71.1-13.5c1.3-.2 2.2-1.5 1.9-2.8-.2-1.3-1.5-2.2-2.8-1.9L76.9 99.3l-44.3-9.8c-.7-.2-1.5 0-2.1.5-.6.5-.9 1.2-.9 1.9V111c-.1 1.9 1.7 2.4 2.2 2.6.3.1.8.2 1.5.4 1.2.3 2.9.8 5.1 1.4 3.1.9 5.6 1.5 10.6 2.9v-5zM150.3 108.7c-.3-1.3-1.5-2.2-2.9-1.9l-70.7 14.1c-4.1-1.1-7.3-1.9-11.9-3.2v5c7 1.9 11.1 3 11.2 3 .2.1.4.1.6.1h.5l71.2-14.2c1.4-.3 2.3-1.6 2-2.9z"/><path d="M50.5 108.1v30.6l6.5-3.8 6.4 7.1v-31"/></g></svg>