<svg version="1" xmlns="http://www.w3.org/2000/svg" x="0" y="0" width="193" height="193" viewBox="0 0 193 193" xml:space="preserve"><path fill="#F9BE38" d="M96.5 193C43.3 193 0 149.7 0 96.5S43.3 0 96.5 0 193 43.3 193 96.5 149.7 193 96.5 193zm0-190C44.9 3 3 44.9 3 96.5S44.9 190 96.5 190 190 148.1 190 96.5 148.1 3 96.5 3z"/><path fill="#F9BE38" d="M173.1 104.1c-2.7 0-4.8 1.9-5.2 4.5h-8.7l-5.6-11.2c-.2-.4-.6-.7-1.1-.7-.5 0-.9.2-1.1.6l-11.6 19.1L128.5 82c-.2-.5-.7-.9-1.3-.8-.6 0-1 .5-1.1 1L115.5 153 103.1 29.2c-.1-.6-.6-1.1-1.2-1.1s-1.2.4-1.2 1.1l-11.2 84.4L77.9 94c-.3-.4-.7-.7-1.2-.6-.5.1-.9.4-1 .9L66.1 133c-4.6-26.9-10.4-62.6-10.8-68.3.2-1 .1-1.6-.5-1.9-.5-.3-1.1-.3-1.5.1-.3.3-.5.4-.5 1.6-.8 4.4-7.4 28.1-12.1 44.5H25.2c-.2-2.7-2.5-4.9-5.3-4.9-2.9 0-5.3 2.4-5.3 5.3s2.4 5.3 5.3 5.3c2.2 0 4.1-1.4 4.9-3.3h16.8c.6 0 1-.4 1.2-.9 0-.1 3.3-11.7 6.5-23.1 1.9-6.7 3.3-12.1 4.3-16 .2 1.3.4 2.8.7 4.6.9 6.3 2.3 15 4.1 25.8 3 18.5 6.2 37.1 6.2 37.3.1.6.6 1 1.2 1s1.1-.4 1.2-.9l10.2-41.5 11.8 20c.3.5.8.7 1.3.6.5-.1.9-.5 1-1l10.3-77.5L114 163c.1.6.6 1.1 1.2 1.1s1.1-.4 1.2-1.1l11.3-75.4 10.5 32.1c.2.5.6.8 1 .8.5.1.9-.2 1.2-.6l11.8-19.5 4.9 9.9c.2.4.6.7 1.1.7h9.7c.7 2.1 2.7 3.7 5.1 3.7 2.9 0 5.3-2.4 5.3-5.3.1-2.9-2.3-5.3-5.2-5.3z"/></svg>