<svg version="1" xmlns="http://www.w3.org/2000/svg" x="0" y="0" width="190" height="190" viewBox="0 0 190 190" xml:space="preserve"><path fill="#FFBF3B" d="M95 190c-52.4 0-95-42.6-95-95S42.6 0 95 0s95 42.6 95 95-42.6 95-95 95zM95 3.6C44.6 3.6 3.6 44.6 3.6 95c0 50.4 41 91.4 91.4 91.4s91.4-41 91.4-91.4c0-50.4-41-91.4-91.4-91.4z"/><path fill="#FFBF3B" d="M77.5 84.9h-8.9V76c0-.8-.7-1.5-1.5-1.5s-1.5.7-1.5 1.5v8.9h-8.9c-.8 0-1.5.7-1.5 1.5s.7 1.5 1.5 1.5h8.9v8.9c0 .8.7 1.5 1.5 1.5s1.5-.7 1.5-1.5v-8.9h8.9c.8 0 1.5-.7 1.5-1.5-.1-.8-.7-1.5-1.5-1.5z"/><path fill="#FFBF3B" d="M108.1 130H26.7c-.8 0-1.5-.7-1.5-1.5V62.1c0-.8.7-1.5 1.5-1.5h81.4c.8 0 1.5.7 1.5 1.5v66.4c0 .8-.6 1.5-1.5 1.5zm-79.9-2.9h78.5V63.5H28.2v63.6z"/><path fill="#FFBF3B" d="M163.3 130h-55.1c-.8 0-1.5-.7-1.5-1.5V74.9c0-.8.7-1.5 1.5-1.5h25.4c.5 0 1 .3 1.3.7L148.2 97l15.5 3.7c.7.2 1.1.7 1.1 1.4v26.5c-.1.7-.7 1.4-1.5 1.4zm-53.7-2.9h52.2v-23.9l-14.9-3.6c-.4-.1-.7-.3-.9-.7l-13.3-22.6h-23.1v50.8z"/><circle fill="#FFF" cx="57.9" cy="128.5" r="12.7"/><path fill="#FFBF3B" d="M57.9 142.7c-7.8 0-14.1-6.3-14.1-14.1s6.3-14.1 14.1-14.1S72 120.8 72 128.6s-6.3 14.1-14.1 14.1zm0-25.4c-6.2 0-11.2 5-11.2 11.2s5 11.2 11.2 11.2 11.2-5 11.2-11.2-5-11.2-11.2-11.2z"/><circle fill="#FFF" cx="136.6" cy="128.5" r="12.7"/><path fill="#FFBF3B" d="M136.6 142.7c-7.8 0-14.1-6.3-14.1-14.1s6.3-14.1 14.1-14.1 14.1 6.3 14.1 14.1-6.3 14.1-14.1 14.1zm0-25.4c-6.2 0-11.2 5-11.2 11.2s5 11.2 11.2 11.2c6.2 0 11.2-5 11.2-11.2s-5-11.2-11.2-11.2zM129.1 64.9h-13.6c-.8 0-1.5-.7-1.5-1.5s.7-1.5 1.5-1.5h13.6c.8 0 1.5.7 1.5 1.5-.1.8-.7 1.5-1.5 1.5zM125.4 54.7c-.8 0-1.5-.7-1.5-1.5v-6.8c0-.8.7-1.5 1.5-1.5s1.5.7 1.5 1.5v6.8c0 .8-.7 1.5-1.5 1.5zM143.4 67h-6.8c-.8 0-1.5-.7-1.5-1.5s.7-1.5 1.5-1.5h6.8c.8 0 1.5.7 1.5 1.5-.1.8-.7 1.5-1.5 1.5zM135.9 61.7c-.5 0-1-.2-1.2-.7-.4-.7-.2-1.6.5-2l5.8-3.6c.7-.4 1.6-.2 2 .5.4.7.2 1.6-.5 2l-5.8 3.6c-.3.1-.6.2-.8.2zM130.8 56.8c-.3 0-.6-.1-.9-.3-.7-.5-.8-1.4-.3-2l4-5.5c.5-.7 1.4-.8 2-.3.7.5.8 1.4.3 2l-4 5.5c-.2.4-.6.6-1.1.6zM134.8 100.6h-17.9c-.8 0-1.5-.7-1.5-1.5v-15c0-.8.7-1.5 1.5-1.5h8.5c.5 0 1 .3 1.2.7l9.3 14.9c.2.3.3.6.3.9.1.9-.6 1.5-1.4 1.5zm-16.4-2.9h13.8l-7.6-12.2h-6.2v12.2zM99.5 104.4H34.9c-.8 0-1.5-.7-1.5-1.5V69.8c0-.8.7-1.5 1.5-1.5h64.6c.8 0 1.5.7 1.5 1.5V103c-.1.8-.7 1.4-1.5 1.4zm-63.2-2.9H98V71.2H36.3v30.3z"/></svg>