<svg version="1" xmlns="http://www.w3.org/2000/svg" x="0" y="0" width="190" height="190" viewBox="0 0 190 190" xml:space="preserve"><path fill="#F9BE38" d="M95 190c-52.4 0-95-42.6-95-95S42.6 0 95 0s95 42.6 95 95-42.6 95-95 95zM95 3C44.2 3 3 44.2 3 95s41.3 92 92 92 92-41.3 92-92c0-50.8-41.2-92-92-92z"/><g fill="#F9BE38"><path d="M59.1 157c-7.2 0-13.9-2.8-18.9-7.9-5-5-7.7-11.7-7.6-18.8 0-7.1 2.8-13.8 7.9-18.7l71.8-70.9c5-4.9 11.6-7.6 18.7-7.6 7.2 0 13.9 2.8 18.9 7.9 10.3 10.4 10.2 27.3-.2 37.6l-71.8 70.9c-5.1 4.7-11.8 7.5-18.8 7.5zm71.8-121.4c-6.4 0-12.4 2.4-16.9 6.9l-71.8 70.9c-4.5 4.5-7.1 10.5-7.1 16.9 0 6.4 2.4 12.5 6.9 17 4.5 4.6 10.6 7.1 17.1 7.1 6.4 0 12.4-2.4 16.9-6.9l71.8-70.9c9.4-9.3 9.5-24.5.2-33.9-4.5-4.6-10.6-7.1-17.1-7.1z"/><path d="M92.4 125.7L64.3 97.6l32.9-32.9 28.2 28.2-33 32.8zM67.9 97.6l24.6 24.6 29.3-29.3-24.6-24.6-29.3 29.3z"/><circle cx="94.7" cy="95.3" r="3.5"/><circle cx="87.6" cy="88.2" r="3.5"/><circle cx="101.7" cy="102.4" r="3.5"/><circle cx="102.9" cy="87.1" r="3.5"/><circle cx="95.8" cy="80" r="3.5"/><circle cx="109.9" cy="94.2" r="3.5"/><circle cx="87.2" cy="102.8" r="3.5"/><circle cx="80.1" cy="95.7" r="3.5"/><circle cx="94.2" cy="109.9" r="3.5"/></g></svg>