<svg version="1" xmlns="http://www.w3.org/2000/svg" x="0" y="0" width="237" height="237" viewBox="0 0 237 237" xml:space="preserve"><path opacity=".4" fill="#F9BE38" d="M208.1 129.3l-2.1.6-.5-1.7 3.2-1h1.4v11.7h-2M214.2 137.1l1.4-1.3c.8 1 1.8 1.5 3.1 1.5 1.1 0 2-.7 2-1.8s-1-1.8-2.7-1.8h-.9l-.3-1.3 3.1-3.3h-5v-1.8h7.7v1.5l-3.2 3.3c1.8.2 3.4 1.1 3.4 3.3 0 2.1-1.7 3.7-4.1 3.7-2.1 0-3.5-.8-4.5-2M124.7 136.8V129l6.9 3.9v7.9l-6.9-4zm-.2-28.3v-8.2l7.1-4.1v8.3l-7.1 4zm-12 28.2l-7.1 4.1v-8.3l7.1-4.1v8.3zm-13.4-13.9l-7.5-4.3 7.3-4.2 7.6 4.3-7.4 4.2zm6.3-26.6l6.9 4v7.8l-6.9-3.9v-7.9zm32.5 17.9l7.5 4.4-7.3 4.2.2.1-7.8-4.5 7.4-4.2zm17.3 10.1l23.8 13.7-13.1 22.7-28.6-16.5v-7.9l26 14.7 6-10.6-25.4-14.3 43-24.8L168 68.5l-26.6 15.3v6.7l24.5-14.1L179 99.1l-27.9 16.1-7.5-4.3 25.7-14.6-5.7-10-26.3 15V50H99.6v31.5l5.8 3.3v-29h26.2v33.8l-7.1 4.1V62.8h-12.2v30.7l-43.4-25L50 101.2l25.9 14.9 5.8-3.3-23.8-13.7L71 76.3l28.6 16.5v7.9L73.6 86l-6 10.6L93 111l-43 24.8 18.9 32.7 26.6-15.3v-6.6L71 160.7 57.9 138l27.9-16.1 7.5 4.3-25.7 14.6 5.7 10 26.3-15V187h37.7v-31.5l-5.8-3.3v29h-26.2v-33.8l7.1-4.1v30.8h12.2v-30.7l43.4 25.1 18.9-32.7-25.9-15-5.8 3.4zM22.7 106.4c-5.3-1.2-8.8-6.1-7.5-11.7.7-3.2 2.1-5 4.1-6.6l2 2.6c-1.5 1.2-2.6 2.4-3.2 4.8-.8 3.4 1.7 6.7 5.2 7.5h.1c3.8.9 7.2-1 8-4.8.4-1.8.2-3.5-.4-4.8l-3.5-.8-1.1 4.8-2.8-.6 1.8-7.9 7.8 1.7c1.2 2.2 1.9 5.1 1.2 8.4-1.2 5.7-6.2 8.6-11.7 7.4M19.9 79.9l6-12.8 2.7 1.2-4.6 9.8 4.5 2.1 4.1-8.6 2.7 1.2-4.1 8.7 4.7 2.1 4.6-9.9 2.7 1.3-6 12.9"/><g opacity=".4" fill="#F9BE38"><path d="M46.7 54.3c-3-2.3-7-2.1-9.4.9-2.3 3-1.6 6.9 1.3 9.2 2.9 2.3 7 2 9.3-.9 2.5-3 1.7-6.9-1.2-9.2m-10.1 13c-4.3-3.3-5.3-9.4-1.7-14 3.6-4.6 9.6-5.1 13.8-1.8 4.2 3.3 5.2 9.3 1.6 13.9-3.5 4.7-9.5 5.2-13.7 1.9M59.1 42.8c1.9-1.5 2.3-3.4 1.1-4.9-1.3-1.6-3.1-1.5-5.1 0l-3.8 3 4 5 3.8-3.1zm-12.3-2.3l6.6-5.3c1.9-1.5 3.8-2.1 5.5-1.9 1.4.2 2.8.9 3.8 2.2 2 2.4 1.7 5.1.1 7.3l8.5 2.4-3.1 2.5-7.8-2.3-3.2 2.6 4.1 5.2-2.6 2.1-11.9-14.8zM68.6 35.9c-2.3-4.9-.6-10.7 4.6-13.2 3-1.4 5.2-1.5 7.7-.9l-.8 3.2c-1.9-.5-3.5-.6-5.7.5-3.2 1.5-4.2 5.5-2.6 8.7 1.7 3.5 5.3 5 8.8 3.3 1.6-.8 2.8-2 3.5-3.3L82.5 31l-4.4 2.1-1.3-2.6 7.3-3.5 3.5 7.2c-1 2.3-2.8 4.7-5.9 6.1-5.3 2.7-10.7.6-13.1-4.4"/></g><path opacity=".4" fill="#F9BE38" d="M95.69 34.905l-3.263.955-5.37-18.33 3.264-.956zM110.4 24.6l-4.2-7.2-2.3 8 6.5-.8zm-6.1-11l3.1-.4L118 31.3l-3.5.4-2.5-4.3-8.9 1.1-1.4 4.8-3.4.4 6-20.1zM135.5 17.3l-5.9-1.1.5-3 15.2 2.8-.5 3-6-1-2.8 15.6-3.4-.6M155.7 29.7c2.2.9 4.1.3 4.8-1.5v-.1c.8-1.9-.2-3.5-2.5-4.4l-4.5-1.8-2.4 5.9 4.6 1.9zm-4.1-11.8l7.9 3.2c2.2.9 3.7 2.3 4.4 3.8.5 1.3.5 2.9-.1 4.4v.1c-1.2 2.9-3.6 3.9-6.4 3.6l2 8.6-3.7-1.5-1.8-7.9h-.1l-3.8-1.6-2.5 6.1-3.1-1.3 7.2-17.5zM175.3 43.3l1.7-8.1-7.1 4.3 5.4 3.8zm2.8-12.2l2.5 1.8-4.2 20.5-2.9-2 1.1-4.9-7.4-5.2-4.3 2.6-2.8-2 18-10.8zM183.3 49l8.1-7.4 2.2 2.5-8 7.3c-2.6 2.4-2.8 5-.8 7.2 2 2.2 4.5 2.3 7.2 0l8.1-7.4 2.2 2.5-8 7.2c-4.2 3.8-8.5 3.4-11.8-.3-3.3-3.7-3.3-7.9.8-11.6M207.2 60.3l1.7 3.1-5.2 9.4 10.6.8 1.7 3.1-16.7 9.1-1.6-3 12-6.4-10.8-1.1v-.1l5-9.5-11.9 6.5-1.6-2.9M210.7 98.7l6.6-5-8.2-1.3 1.6 6.3zm10.1-7.4l.8 3-16.6 12.8-.9-3.4 4-3-2.2-8.7-4.9-.8-.8-3.3 20.6 3.4zM42.2 157.2l7.4 12.1-2.6 1.6-5.7-9.2-4.4 2.7 5 8.2-2.6 1.6-5-8.2-6.6 4-1.8-2.9"/><g opacity=".4" fill="#F9BE38"><path d="M56 190.2c2.7-2.7 2.9-6.7.3-9.4-2.7-2.7-6.7-2.4-9.3.2-2.6 2.6-2.9 6.7-.2 9.4 2.5 2.6 6.6 2.4 9.2-.2m-11.6-11.6c3.8-3.8 9.9-4.1 14.1.1 4.1 4.1 3.9 10.2.1 14-3.8 3.8-9.9 4-14-.1-4.3-4.2-4-10.3-.2-14M63.2 197.7l5.5-9.5 2.9 1.7-5.4 9.4c-1.8 3.1-1.2 5.6 1.4 7.1 2.6 1.5 5 .9 6.8-2.2l5.5-9.5 2.9 1.7-5.4 9.3c-2.9 4.9-7.1 5.8-11.4 3.3-4.3-2.4-5.6-6.5-2.8-11.3"/></g><path opacity=".4" fill="#F9BE38" d="M87.3 198.4l3 .8 6.3 15.5 3.6-12.7 3.1.9-5.1 18.3-2.7-.7-6.5-15.9-3.6 13-3.2-.9M115.3 219.8c4 .1 6.7-2.6 6.7-6.3v-.1c.1-3.7-2.5-6.5-6.5-6.6l-3.8-.1-.3 13 3.9.1zm-6.8-16.2l7.1.1c6 .1 10 4.3 9.9 9.7v.1c-.1 5.4-4.3 9.4-10.3 9.3l-7.1-.1.4-19.1zM142.4 212.4l-4.8-6.7-1.6 8.1 6.4-1.4zm-7.2-10.4l3-.7 12.3 17-3.5.8-2.9-4.1-8.8 1.9-.9 4.9-3.4.7 4.2-20.5zM152.4 200.2l-5.5 2.4-1.2-2.8 14.1-6.3 1.3 2.9-5.6 2.4 6.4 14.6-3 1.4M175.084 206.22l-2.8 1.747-10.103-16.21 2.802-1.746zM187 184.5c-2.5-2.8-6.6-3.2-9.4-.7-2.8 2.5-2.7 6.6-.2 9.3 2.5 2.7 6.6 3.2 9.4.7s2.7-6.6.2-9.3m-12.1 11c-3.6-4-3.6-10.1.7-14.1 4.3-3.9 10.3-3.4 13.9.6 3.6 4 3.6 10.1-.8 14-4.2 4-10.2 3.5-13.8-.5M186 171.4l1.6-2.7 16.6-1.5-11.1-7.1 1.8-2.7 16.1 10.2-1.5 2.4-17.1 1.5 11.4 7.4-1.8 2.7M10.7 117.8h21.2v1.5H10.7z"/><g opacity=".4" fill="#F9BE38"><path d="M118.5 4.6C55.7 4.6 4.6 55.7 4.6 118.5s51.1 113.9 113.9 113.9 113.9-51.1 113.9-113.9S181.3 4.6 118.5 4.6m0 232.4C53.2 237 0 183.8 0 118.5S53.2 0 118.5 0 237 53.2 237 118.5 183.8 237 118.5 237"/><path d="M13.9 137.3l4-3.4c1.6-1.3 2.2-2.1 2.2-3.1 0-1.1-.8-1.8-1.9-1.8s-1.8.6-2.7 1.7l-1.4-1.1c1.1-1.6 2.2-2.4 4.3-2.4 2.3 0 3.8 1.4 3.8 3.5 0 1.8-1 2.8-3 4.5l-2.4 2h5.5v1.8h-8.4v-1.7zM32.7 133.2c0-2.3-1.2-4.2-3-4.2s-2.9 1.8-2.9 4.1 1.2 4.2 3 4.2 2.9-1.8 2.9-4.1m-8 0c0-3.3 2-6 5.1-6 3 0 5 2.7 5 6s-2 6-5.1 6c-3.1 0-5-2.7-5-6"/></g><path opacity=".4" fill="#F9BE38" d="M205.1 117.8h21.2v1.5h-21.2zM14.3 147.4h21.2v1.5H14.3zM201.4 147.4h21.2v1.5h-21.2z"/></svg>