<svg version="1" xmlns="http://www.w3.org/2000/svg" x="0" y="0" width="203" height="64" viewBox="0 0 203 64" xml:space="preserve"><g fill="#09434D"><path d="M94.2 27.4l-2.8-1.7-2.1 1.3 2.8 1.6M103.7 18.9l2.7-1.5v-2.5l-2.7 1.5M119.3 9.9l-9.2 5.3v-2.5l9.9-5.8M96.6 2.2v10.9l-2.2-1.3V0M82.9 44.5l10-5.7v-2.5l-9.2 5.3M124.2 33.1l-8.9-5.2 2.1-1.3 9.7 5.7M108.6 51.5V39.7l-2.2-1.3v10.9M78.8 18.4l8.9 5.2-2.1 1.2-9.7-5.6M94.4 19.1v-3l2.2 1.3v2.9"/><path d="M104 24.5l13.6-7.7.8-3.2-16.9 9.7V7.1l-2.3-2.3v19.6l-13.6-7.7-3.1.8L99 27l-13.6 7.7-.8 3.2 16.9-9.7v16.2l2.3 2.3V27.1l13.6 7.7 3.1-.8"/><path d="M99.2 35.1l-2.6 1.5v-2.5l2.6-1.5M106.4 31.2v2.9l2.2 1.3v-3M108.8 24.1l2.8 1.6 2.1-1.2-2.8-1.6"/></g><g fill="#3E8B94"><path d="M84.6 37.9l-2.1-3.8L97 25.8l2 1.2-13.6 7.7M120.5 17.4L106 25.7l-2-1.2 13.6-7.7.8-3.2M99.2 24.4l-13.6-7.7-3.1.8 2.2-4 14.5 8.3M101.5 7.1v16.2l2.2-1.3V4.8h-4.5M101.5 44.4V28.2l-2.3 1.3v17.2h4.6M117.4 34.8l-13.6-7.7v2.6l14.5 8.3 2.2-4"/><path d="M82.9 44.5l-7-12.2L92 22.9l2.1 1.3-15.3 8.9 4.9 8.5M108.6 19.2V0H94.4l2.2 2.2h9.8v18.3M108.6 51.5H94.4V32.2l2.2-1.2v18.3h9.8M99.2 18.9l-15.5-9-4.9 8.5-2.9.8 7-12.3 16.3 9.5M127.1 32.3L120 44.5l-16.2-9.4v-2.5l15.5 9 4.9-8.5M119.3 9.9l4.9 8.5-15.4 8.9 2.2 1.3 16.1-9.4L120 6.9"/></g><g fill="#343741"><path d="M73.4 39.7l2.6 4.4-1 .6-2-3.4-1.6 1 1.8 3-.9.6-1.8-3-2.4 1.4-.6-1 5.9-3.6zM74.2 47.6c1.4-1.4 3.6-1.4 5.1.1 1.5 1.5 1.4 3.7 0 5.1-1.4 1.4-3.6 1.4-5.1-.1-1.5-1.6-1.4-3.8 0-5.1zm4.1 4.2c1-1 1.1-2.4.1-3.4s-2.4-.9-3.4 0-1.1 2.4-.1 3.4 2.5 1 3.4 0zM81 54.7l2-3.4 1 .6-2 3.4c-.7 1.1-.4 2 .5 2.6.9.5 1.8.3 2.5-.8l2-3.4 1 .6-2 3.4c-1 1.8-2.6 2.1-4.1 1.2-1.4-1-1.9-2.5-.9-4.2zM89.9 55.1l1.1.3 2.2 5.6 1.3-4.6 1.1.3-1.9 6.6-1-.3-2.3-5.8-1.3 4.8-1.1-.3 1.9-6.6zM97.7 57l2.6.1c2.2.1 3.6 1.6 3.6 3.5s-1.6 3.4-3.7 3.4l-2.6-.1.1-6.9zm2.4 5.9c1.4 0 2.4-.9 2.4-2.3s-.9-2.4-2.3-2.4h-1.4l-.1 4.7h1.4zM107.5 56.5l1.1-.2 4.4 6.2-1.2.3-1-1.5-3.2.7-.3 1.8-1.2.3 1.4-7.6zm2.6 3.7l-1.7-2.5-.6 3 2.3-.5zM113.9 55.8l-2 .9-.5-1 5.1-2.3.5 1-2 .9 2.3 5.3-1.1.5-2.3-5.3zM117.5 52.6l1-.6 3.7 5.9-1 .6-3.7-5.9zM122.2 53.9c-1.3-1.4-1.3-3.7.2-5.1 1.6-1.4 3.7-1.3 5 .2 1.3 1.4 1.3 3.6-.3 5.1-1.4 1.4-3.5 1.2-4.9-.2zm4.4-4.1c-.9-1-2.4-1.2-3.4-.2-1 .9-1 2.4-.1 3.4s2.4 1.2 3.4.2c1.1-.9 1-2.4.1-3.4zM126.3 45l.6-1 6-.6-4-2.5.6-1 5.8 3.7-.5.9-6.2.6 4.1 2.6-.6 1-5.8-3.7z"/></g><g fill="#343741"><path d="M0 25.6c0-2.8 2.1-5.1 5.1-5.1 1.7 0 2.8.5 3.8 1.3l-1.1 1.3C7 22.5 6.3 22 5 22c-1.8 0-3.2 1.6-3.2 3.5 0 2 1.3 3.5 3.3 3.5.9 0 1.8-.3 2.4-.7v-1.8H5V25h4.2v4.1c-1 .8-2.4 1.5-4.1 1.5-3.1.1-5.1-2.1-5.1-5zM11.8 20.6h7.3v1.6h-5.6v2.6h4.9v1.6h-4.9v2.7h5.6v1.6h-7.4V20.6zM21.1 25.6c0-2.8 2.1-5.1 5.2-5.1s5.1 2.3 5.1 5.1-2.1 5.1-5.2 5.1c-3 0-5.1-2.3-5.1-5.1zm8.5 0c0-1.9-1.4-3.5-3.3-3.5-2 0-3.3 1.6-3.3 3.5s1.4 3.5 3.3 3.5 3.3-1.6 3.3-3.5zM33.9 20.6h4.4c1.2 0 2.2.4 2.8 1 .5.5.8 1.3.8 2.1 0 1.6-1 2.6-2.3 3l2.7 3.7h-2L37.9 27h-2.1v3.4h-1.7v-9.8zm4.2 4.9c1.2 0 2-.6 2-1.7s-.8-1.6-2-1.6h-2.5v3.3h2.5zM43.9 25.6c0-2.8 2.1-5.1 5.1-5.1 1.7 0 2.8.5 3.8 1.3l-1.1 1.3c-.8-.6-1.5-1.1-2.8-1.1-1.8 0-3.2 1.6-3.2 3.5 0 2 1.3 3.5 3.3 3.5.9 0 1.8-.3 2.4-.7v-1.8H49V25h4.2v4.1c-1 .8-2.4 1.5-4.1 1.5-3.1.1-5.2-2.1-5.2-5zM55.8 20.6h1.7v9.9h-1.7v-9.9zM64 20.6h1.6l4.3 9.9h-1.8l-1-2.4h-4.7l-1 2.4h-1.8l4.4-9.9zm2.5 6l-1.7-3.9-1.7 3.9h3.4z"/></g><path fill="#3E8B94" d="M0 16h71.3v.6H0zM0 34.5h71.3v.6H0z"/><g><g fill="#343741"><path d="M136 22.4h-3.1v-1.6h8v1.6h-3.1v8.3H136v-8.3zM143.8 20.8h4.4c1.2 0 2.2.4 2.8 1 .5.5.8 1.3.8 2.1 0 1.6-1 2.6-2.3 3l2.7 3.7h-2l-2.4-3.4h-2.1v3.4H144v-9.8zm4.2 4.9c1.2 0 2-.6 2-1.7s-.8-1.6-2-1.6h-2.5v3.3h2.5zM158.5 20.7h1.6l4.3 9.9h-1.8l-1-2.4h-4.7l-1 2.4h-1.8l4.4-9.9zm2.5 6l-1.7-3.9-1.7 3.9h3.4zM166.7 26.5v-5.7h1.7v5.6c0 1.8.9 2.8 2.5 2.8 1.5 0 2.5-.9 2.5-2.8v-5.7h1.7v5.6c0 2.9-1.7 4.4-4.2 4.4-2.6.1-4.2-1.4-4.2-4.2zM178.5 20.8h1.8l3 4.7 3-4.7h1.8v9.9h-1.7v-7.1l-3.1 4.7h-.1l-3.1-4.6v7.1h-1.7v-10zM195.2 20.7h1.6l4.3 9.9h-1.8l-1-2.4h-4.7l-1 2.4h-1.8l4.4-9.9zm2.5 6l-1.7-3.9-1.7 3.9h3.4z"/></g><path fill="#3E8B94" d="M131.7 16H203v.6h-71.3zM131.7 34.5H203v.6h-71.3z"/></g></svg>