<svg version="1" xmlns="http://www.w3.org/2000/svg" xmlns:xlink="http://www.w3.org/1999/xlink" x="0" y="0" width="468.4" height="534" viewBox="0 0 468.4 534" xml:space="preserve"><image overflow="visible" opacity=".3" width="457" height="521" xlink:href="D17D4790EF90AC50.png" transform="scale(1.025)"/><path fill="#E1E2E3" stroke="#55565A" stroke-width="3" stroke-linecap="round" stroke-linejoin="round" stroke-miterlimit="1" d="M394.4 426.7l.1-.3-.1-.5-.3-.5-.3-.7-.2-.5-.3-.1-.1-.2-.3.4-.5.8-.2.3-.3.4-.4.3-.5.6-.5.4-.1.6-.2.5v.5l.2.6.3.4.2.3.3.5.1.7.1.6.1.2.4.3.3.2.2.6-.1.9-.4.8-.7.7-.5.2-.6.1-.5-.2-.5-.3-.6-.4-.2-.3-.7-.6-.2-.3-.1-.6v-.5l-.2-.6-.3-.2-.4-.1-1-.2-.3-.2-.1-.5-.2-1.1-.2-.6V428l-.2-.5-.2-.2-.3-.1-.5-.4-.4-.2-.2-.2-.8-.8v-.5l-.1-.5-.1-.5-.1-.3-.3-.2-.3.1-.4.2-.5.1H379.3l-.3.1-.2.1h-.2l-.4.1-.2.3-.4.3-.5.1-.7.2h-.4l-.2.3.4.3.8.1.9-.1.8-.3.7-.2.8-.3h.8l.3.3.1.5.2.8.2.5.2.3.3.3.5.2.3.2.4.3-.1.4.2.6-.1.7v1.9l-.1.6-.4-.2-.4-.2-.5-.4-.3-.2v.5l.2.3.4.4.4.6.2.1v.2l.4.1.6.3.5.2.3.4.5.3.4.6.2.6-.1.3v.5l-.5.3h-.5l.1.4v.7l-.1.4.3.3.3.2.4.3.3.6.3.5.4.1.5.1.4.2.3.3.4.6.4.3.2.4v.7h-.5l-.4-.1-.5-.2-.3-.3-.1-.4-.1-.5-.3-.3-.5-.2-.5-.2-.6-.3h-.9l-.4-.2-.3-.5-.2-.5-.1.8.1.4.2.4.2.3.4.1.4.1.3.1.4.3.5.2.2.5.5.7.4.3.5.2.6.3.2.7v.7l-.1.6.1.4.3.3h.3l.5-.1.4-.2h.4l.2.2.1.4-.2.3-.1.4-.6.5-.3-.1-.3.3-.3.3-.2.1-.2.2-.3.4h-.3v-.4l-.1-.3-.1-.3-.4-.1v.6l.1.7-.2.5-.1.2-.9-.1-.4-.4-.5-.7-.4-.3-.5-.4-.6-.2-.7.3-.4.1-.3.1-.3-.1-.6-.1h-.3l-.3.1-.3.2-.2.2-.3.2-.4.2-.4.1h-.3l-.4.1-.4.1-.5-.1-.2-.2-.4-.4-.4-.5-.2-.1-.3-.1h-1.1l-.5-.1h-.6l-.4.3-.3.2v.4l-.1.5-.1.4.4.1.4-.5v-.5l.3-.2h.5l.6.1.7.1.2.4.4.5.3.3.3.1.5.1.4.1.5.1.3.2.4.3.3.2.6.1.7.1.5-.2.3.2.3-.2.3-.4.4-.2.2-.3.4-.2h1.2l.2.2.2.5v.4l.3.4h.4l.4.1h.2l.6.2.9.3.8-.2.4-.5.3-.7.4-.2h.6l.4.2.4.3.1.1.3-.1.1.7.1.2.1.2.1.3.2.3-1 1.3-.4.5-.6.7-.7.1.1.5-.4.4-.4.6-.4.4-.8.2-.5.6-.2.5-.5.2-.5.4-.2.4-.1.6.2.7.6.7.6.9.7.8.3.4.3.3.1.5-.1.1-.2.2-.3.1-.7-.5-.1-.3-.4.1h-.8l-.5-.2-.3-.2-.5-.3h-.4l-.6-.1-.3.2-.6.1-.3-.1-.1-.1-.2-.2-.1-.5.1-.5-.2-.4-.4-.1-.7-.1-.5.1-.3.1-.3.2-.5.7.4.4.4.2.2-.6v-.4l.4-.1.5.3.3.4v.5l.3.5.6.3 1.1-.1.1.3v.5l.2.5.4.2.6-.1.4-.2h.4l.5.1.2.5-.2.7-.4.2-.4-.1-.8-.1-.3.1-.3.3-.1.4.2.7.4.2.6.1.6.2.3.6.3.6.3.4.6.2.5.2.3.2.3.6.2 1.1v.9l-.1.8-.3.2-.2-.1-.2-.1-.2.1v.7l.2.7.1.8-.2.4-.3.2-.6.2h-.5l-.9-.1-.5.1-.1.2v.2h-.1l-.2.2-.1.3-.1.3.1.3-.1.2-.3.1h-.1l-.3-.2-.2-.2-.3-.2-.1-.2h-.3l-.3.2-.3.1h-.4l-.1-.2v-.2l-.1-.1-.1-.2-.2-.1-.4-.1-.6-.2h-.5l-.3.1-.2.2-.3.1h-.2l-.2-.3v-.5l-.2-.2h-.2l-.2.1-.1.3v.2l.1.3-.1.2-.1.1-.2.1-.2-.1-.1-.3-.2-.1-.1-.2-.2-.1-.3-.2-.2-.2v-.8l-.1-.2h-.2l-.2.1-.1.1-.1.2-.2.1-.1.1h-.2l-.1-.1h-.2l-.2.1-.2.2-.3.1-.2-.1-.3-.2-.1-.3V476.4l.1-.3v-.2l-.2-.1h-.2l-.2.1-.2.1-.2-.1-.1-.1.1-.2.2-.3.1-.2-.1-.2-.3-.1-.2-.1-.4.2-.3.1-.2.1-.3.1-.3.2V475.7l.2.1h.1l.2-.1.1-.1h.2l.1-.1.2.1.1.1v.4l-.1.1-.1.1-.3.1-.2-.1-.6-.2-.2-.1h-.2l-.2-.1-.2-.2-.2-.1-.3-.1h-.2l-.2.1h-.7l-.4-.1-.1.1h-.5l-.3-.1-.3-.1-.1-.1-.2-.3-.2-.3-.3-.2-.2-.2-.1-.1-.2-.1V473.8l-.1-.2-.2-.1-.3-.1h-.2l-.3-.2-.5-.3-.3-.3-.2-.1-.2-.1-.2.1-.2.1-.1.2-.1.4-.1.3-.1.3-.2.1-.2.1-.2-.2-.1-.2-.1-.2-.1-.2v-.3l-.1-.3-.1-.3-.2-.3-.2-.2-.2-.2h-.3l-.1.1h-.1l-.1-.1-.3-.3-.3-.4-.3-.1-.5-.1h-.4l-.2.1-.1.2h-.2l-.1-.1-.1-.1-.2-.2-.2.1-.2.1-.3.2h-.2l-.1-.2-.1-.1-.3-.1-.1.1h-.2l-.1-.1-.2-.1-.2-.1-.3-.2h-.7l-.2.1h-.3l-.1-.1-.1-.1-.2-.2-.1-.1-.2-.1H351.6l-.1-.1-.1-.3-.1-.2-.1-.3v-.2l-.1-.2-.2-.1-.2-.2-.1-.2v-.4l-.1-.2-.1-.1-.2-.2h-.1l-.2-.1-.1-.2-.2-.1h-.2l-.3.3.1.2.1.2.1.2v.2l-.1.1-.2.1-.3.1-.8-.2-.7-.1-.4-.1-.2-.1-.2-.2v-.1l-.1-.3-.1-.1h-.3l-.2.1h-.5l-.3.1-.3.2-.4.4-.2.2-.1.3-.1.3v.8l.1.2v.2l.1.3-.2.2-.2.4-.2.3-.1.3-.1.4-.1.3-.2.2-.3.2-.3.1-.3-.1-.5-.1-.4-.4-.3-.4-.3-.2-.2-.2-.3-.1-.3-.1h-.3l-.4.1-.4.2-.3.3-.1.2v.2l.2.5.1.3.2.3.3.3.1.3-.1.3-.1.2-.2.3-.1.1-.1.3-.1.1-.2.2h-.4l-.2.1-.2.1h-.1l-.1-.1-.2-.2h-.1l-.2.2-.1.2v.8l-.1.5-.1.3-.1.3v.7l.1.2.1.2.1.3.1.5.1.3v.3l.1.2-.1.3-.1.2-.2.3-.2.2-.1.2.1.2.1.1v.4l-.1.2-.2.2-.1.3-.2.3-.1.2-.2.3v.2l.1.3.1.2.1.2v.8l-.1.3v.2l.1.4.2.2.4.4.2.6v.4l.1.4.1.2.2.2.1.1.1.2v.3l.1.2.1.2.1.3.1.1.2.2v.4l.1.3.1.3.1.1.2.2.2.1.2.3.2.2.2.6.1.5.3.6v.8l.1.5v.9l-.1.2-.1.3v.2l-.1.7-.2.6-.1.3-.2.5-.1.5-.1.5v.6l.1.3.1.2.1.3v.5l-.1.3v.7l-.1.3v.6l.1.3v.3l-.1.2v.2l-.1.2v.2l.1.2v.1l-.1.3-.1.3-.2.2-.1.3-.1.3v.3l-.2.3-.1.1-.2.6-.1.2v.2l-.1.3v.2l-.2.2-.3.3-.1.1v.4l.2.4.1.4v.7l-.2.3-.2.2-.2.1-.2.2v.8l.1.3.1.4.1.1.1.4.2.5.1.4.1.5v.7l-.1.2-.1.3-.2.2-.2.2-.2.2-.2.3-.2.2-.3.2-.3.1h-.6l-.1.1-.2.1h-.2l-.1-.1v-.1l-.2-.2H333.7l-.3.1h-.4l-.2-.1H331.9l-.3-.1-.2-.2h-.1v-.1l-.1-.1-.3-.1h-.3l-.4-.1-.2.1-.3.1-.2.1-.1-.1-.2-.1h-.5l-.2.1-.2.1h-.5l-.2-.1h-.2l-.2.1-.2.2-.2.1h-.3l-.4.1-.2.1-.3.1-.4-.1h-.2l-.2-.1-.1-.2-.2-.1-.2-.1h-.2V516.9l-.1-.2-.2-.1-.2-.3-.1-.2-.1-.2-.1-.1h-.2l-.1-.1-.1-.1-.1-.3v-.2l-.1-.3-.2-.2h-.1l-.2-.2v-.2l-.1-.3-.1-.2-.1-.3-.1-.3-.1-.1-.1-.2v-.3l-.1-.3v-.2l-.2-.4V510l.1-.5.2-.5.1-.5v-.9l-.1-.4v-.9l.1-.3.1-.4.1-.4v-.5l-.1-.4-.2-.5-.2-.7-.4-.5-.5-.4-.3-.3-.4-.3-.2-.4-.2-.5v-.7l-.1-.3-.2-.1-.2-.3-.2-.2-.1-.2-.2-.3-.1-.3.1-.3.1-.4.2-.5.2-.4.1-.5.2-.3.2-.3.2-.2.3-.2.2-.2-3.8-.3-22.2-1.6-22.2-1.6-22.1-1.6-21.9-1.3-22.5-1.5-22-1.6-21.9-1.5-22.4-1.3-21.6-1.1-22.5-1.3-16.8-.8-1.1-.1H76.2l-.2.1H75.7l-.1-.2-.2-.3-.2-.4-.1-.3-.2-.4-.4-.3-.5-.4-.3-.4-.2-.5v-.4l-.2-.5-.3-.2-.2-.1-.3-.1-.4.1-.3.1h-.5l-.2-.4-.1-.5-.1-.3-.1-.2v-1.1l-.1-.4-.1-.4-.2-.3-.3-.5-.1-.3-.1-.3-.1-.2v-1.5l-.1-.4-.3-.4-.1-.3-.1-.4v-1l.2-.4.3-.2.2-.2.2-.2v-.2l-.1-.3-.1-.2-.2-.2-.2-.1v-.2l-.2-.3v-.3l.2-.3v-.5l-.2-.2-.1-.1-.1-.2v-.3l.1-.4.1-.4v-.7l-.1-.2-.3-.2-.3-.3-.4-.5-.7-.9-.7-1-.2-.4-.2-.3-.1-.2-.1-.3-.2-.3-.2-.2-.2-.1-.3-.1-.2-.2-.1-.5.1-.7.1-.6.1-.3.1-.4-.1-.4-.1-.3-.3-.4-.3-.2-.4-.2-.6-.1-.2-.1-.2-.2-.1-.3v-.5l.1-.5.1-.5v-.5l-.2-.6v-.9l-.1-.5-.3-.8-.3-.6V443.4l-.1-.4-.1-.4-.2-.5-.1-.2-.3-.4-.2-.4-.4-.7-.3-.4v-1.5l-.1-.5-.2-.5-.2-.4-.3-.6-.2-.3-.2-.2-.3-.1-.3-.4-.3-.3-.2-.2-.2-.3-.3-.6-.2-.5-.1-.5-.3-.5-.4-.5-.4-.5-.2-.4-.2-.3-.3-.3-.5.1-.5-.1-.3-.1-.2-.1-.1-.4-.1-.3.1-.4v-.8l-.1-.2-.2-.3-.2-.2-.2-.2-.2-.3V426.1l.1-.4.1-.3.3-.3.2-.4.1-.2-.1-.4.1-.6v-.5l-.4-1-.4-1-.2-.6-.2-.5v-.4l-.1-.5-.2-.3v-.8l.1-.3.2-.3.4-.2.3-.1.4-.2.4-.3.2-.3.2-.6.1-.7.2-.7.1-.4.1-.7.1-.6-.3-.5-.1-.3.1-.4v-1l-.1-.4-.1-.4-.2-.3-.2-.3v-.7l.2-.3.2-.4.2-.4.2-.5.2-.6.3-.5.1-.6v-.5l-.1-.5v-.9l.2-.4v-.6l.1-.2v-.2l.2-.3.2-.1h.3l.1-.1.1-.5-.1-.4-.1-.8-.1-.7-.1-.7v-1.5l.1-.4.1-.6.2-.3.2-.3.1-.2.2-.2.1-.5.2-.5.3-.6.2-.4.2-.5.2-.2.1-.4-.1-.2-.1-.4.1-.3.1-.2.2-.4.1-.2.1-.4v-.4l-.1-.3-.4-.6-.3-.6-.3-.6-.1-.5-.2-.5v-.3l.1-.3-.1-.4-.1-.3-.1-.7.1-.6-.1-.6-.1-.4-.1-.3v-.5l.1-.3v-.3l-.1-.4-.1-.3-.1-.2-.3-.1h-.4l-.2-.1-.1-.2-.3-.4-.1-.1-.2-.2-.3-.1-.1-.2-.1-.3.1-.3.2-.3.2-.3v-.3l-.1-.1-.2-.2-.2-.1-.3-.2-.4-.5-.8-1-.9-.9-.5-.9-.4-.5-.2-.6-.1-.4-.1-.4v-.5l.2-.5.1-.5.2-.5.1-.5.1-.4-.2-.7-.1-.4-.1-.4-.2-.4v-.3l-.1-.3v-.8l-.1-.4-.2-.4-.2-.3-.3-.2-.3-.2-.1-.1-.1-.3.1-.3.1-.4.2-.4.2-.7.1-.7v-1.8l-.1-.3-.1-.3v-.4l-.2-.2-.1-.3-.1-.3v-.5l.1-.3.1-.3.1-.2.1-.3-.1-.3V354.5l.1-.3.1-.3.2-.4.2-.5.1-.3v-.7l-.2-.3-.2-.2v-.3l.1-.2.2-.1.4-.1h1.1l.2-.1.1-.2.1-.3v-.7l-.1-.2-.2-.1-.1-.1v-.2l.1-.2.2-.1.2-.2.2-.2.3-.2.1-.2.1-.3.2-.2.3-.2.3-.2.2-.2.2-.3.2-.3.3-.3V345.2l-.1-.4-.1-.5v-.5l.2-.3.2-.2.5-.2.3-.3.3-.3.1-.2v-.3l-.2-.3-.1-1v-.5l.1-.4.2-.7.2-.4.3-.3.3-.5.1-.3.1-.3v-.2l-.1-.3-.1-.3v-2.6l.2-.9.1-.6-.1-.3v-1.5l.3-.3.2-.3.2-.3v-.3l-.1-.4-.5-1.5-.4-1.7-.2-.7.2-.4.4-.2.5-.4.4-.4.4-.6.7-.8.4-.5.2-.3.2-.2.2-.3.3-.3.3-.4.2-.3.2-.3.2-.1.4-.2.4-.1.8-.4 1-.2.7-.3.3-.1.3-.2.3-.2V317.6l-.1-.1h-.2l-.3-.1h-.2l-.3-.1-.2-.2-.1-.3.1-.4.2-.2.2-.3.5-.3.7-.1h2.1l.8-.1.3-.1.1-.2.1-.3.1-.3.1-.4.1-.2.2-.3.2-.3.1-.3v-.1l-.2-.2h-.3l-.2.1-.1-.1-.2-.1v-.2l.2-.3.2-.1h.8l.3.1.2-.2.3-.1.2-.2.2-.3.1-.3.2-.2H72.9l.2.1.1-.1v-.2l-.2-.2-.3-.3-.4-.2-.5-.4-.9-.6-.7-.6-.5-.8-.5-.4-.4-.3-.4-.3-.5-.2-.6-.2-.8-.4-1.1-.5-1.1-.5-.9-.4-.5-.4-.2-.3-.1-.6-.1-.5.2-.6.3-.5.4-.4.5-.4.3-.2.3-.4.1-.3-.1-.3.1-.4.2-.2.2-.2.3-.1.3-.1.2-.1v-.1l-.1-.3-.3-.1H64.5l-.1-.2v-.3l.1-.3.2-.2h1.1l.2-.2v-.1l-.2-.2-.3-.2-.3-.3-.1-.5v-.4l.1-.4.2-.3.3-.2.4-.3.2-.3.2-.4.1-.4-.2-.4-.2-.3-.3-.4-.3-.2-.4-.1-.4-.3-.4-.3-.3-.4-.3-.4-.2-.4V286l-.1-.5-.1-.5v-.8l-.2-.6-.2-.5-.3-.5-.3-.2-.2-.3-.2-.3-.1-.3-.4-.3-.2-.2-.1-.1-.1-.3v-.1l-.2-.3-.3-.1-.2-.2-.4-.5-3-3.3-.5-.7-.5-1.3-.4-2.1-.3-.2-.1-.2-.1-.3.1-.4.2-.3.2-.2v-.1l-.2-.2-.2-.1h-.6l-.2-.2h-.2l-.2-.1-.2-.1-.2-.2.1-.3 1.3-1.3-.9-2.1-1.8-4.3v-.4l.1-.2.2-.2.2-.4.1-.5-.1-.4-.2-.4-.5-.3-.7-.3-.8-.1-.1-.3-.4-.9 1.7-1.8-.9-1-.6-.9-.3-.3-1.6-.9-.5-.6-.1-.4v-.3l.1-.4v-.6l-.2-.3-.1-.4.1-.3.2-.3.2-.2.2-.2.6-1-.8-.7-.5.1-.8-.1-.3-.2-3.8-22.5-3.7-21.5-3.2-20.8-3.4-20.6-3.5-21.2-3.4-20.9L21.9 98l-3.7-21.3-3.9-21.5-6.8-40.4 143.6-.3 87.3-1.5.2.4v.1l.1.1.2.2v.2l-.1.3-.1.2-.3.3-.3.3-.1.2-.1.2-.2.2-.3.2-.1.2-.1.3-.1.2v.3l.1.2.1.2-.1.1-.1.2.2.1.2.2.2.1v.3l-.2.1-.2-.2-.2-.1-.2-.1-.2.1-.1.2v.3l.2.2.3.3.2.1.2.2.2.3-.1.2-.1.1-.3.1-.2.1-.3-.1-.1-.3-.2-.1-.2.1-.1.2v.4l-.1.2-.2.1-.2.1-.2.2-.2.1h-.3l-.2-.1-.3-.2-.2-.2-.2-.1h-.2l-.2.2v1.2l-.1.2H233.2l-.2-.3-.2-.1-.3.1-.2.2-.2.2-.4.5-.3.2-.1.3-.1.3-.2.2-.2.2-.2.1h-.2l-.1.1-.2.2v.1l-.1.2h-.4l-.1.1v.8l-.1.2-.1.2h-.4l-.1-.1-.1-.3-.1-.1-.2-.1-.1.1-.1.2-.1.1-.2.2-.2.1-.2.1-.3.1H226.1l-.2.2v.2l.2.2.1.1v.3l-.1.1-.1.2H225.1l-.1.1.1.1.1.1.2.3v.2l-.1.2-.2.2-.2.1v.3l.1.3v.5h-.4l-.2-.2-.3-.2h-.2l-.3.1-.1.2-.1.2v.2l-.1.2-.2.3.1.3.2.1.1.2v.4l-.1.3v.3l-.1.2-.2.2-.3.1-.2-.1-.2-.1-.2-.2-.2-.1h-.3l-.2.1-.2.3v.1l-.2.1-.2.1-.2-.1-.3-.1-.1-.1-.1.1-.2.1v.3l.1.2.2.2.2.2.1.2-.1.2-.1.1-.3.2-.4.2-.3.2-.3.3-.3.3-.3.4v.7l.1.5.1.4v2l-.2.1-.2.1-.2.2-.2.3-.1.2-.1.1-.2.1-.2.2v.2l-.2.1-.1.2-.3.2-.2.1-.3.2-.2.3-.3.3-.2.4v.2l-.1.5.1.3.1.4.2.4.1.3.1.2-.1.2-.2.2-.1.3.1.2.1.1.4.1.2.1.2.2.2.3v.3l-.1.3-.1.3.1.2.3.1h.6l.5.2.2.2.2.2.3.2.3.2h.8l.2.1.3.2.2.4.1.3.3.5.5.5.7.3.7.5.8.4.6.4.6.3.4.5.3.4.2.4.2.4.3.3.4.2h1l.8.1.4.1.4.2.4.2.3.2.3.1.2-.1.4-.2H231.8l.7.2.4.1.1.1.1.2-.1.2h-.2l-.3.3-.1.3.1.2.2.2.3.1h.2l.3.2.1.1v.5l.1.2.1.2.6.2.3.2.3.4.1.2.1.4.1.2.2.3.3.1h.7l.2.2v.4l.1.1h.2l.1.1.2.1.3.2.1.1.4.4.1.3.2.4.1.3.2.4.3.1.3.1.3-.1h.3l.3.1.2.2.3.2v.3l-.1.2-.2.3v.2l.1.3.1.2.3.3.5.6.4.2.3.1h.8l.2.1.1.2.1.2.1.2.1.2.4.5.6.3.5.2.5.2.5.2.5.3.4.2.3.1.3.2.2.2.3.1.2-.1.4-.2.1-.1.2-.3.1-.2.4-.2.3-.1h.2l.3.1h.1l.2.1h.2l.2-.1.2-.2h.5l.2.1.2.1.2.2.3.2h.2l.4-.1.2-.2.3-.3h.8l.3.1.4.2h.5l.3-.1.3-.2.4-.2h.7l.5.2.7.3.6.4.2.3.3.3.1.3.1.2.1.2.3.3.2.1.2.2.2.5.2.3.3.9.2.9.1.5.3.5.1.3.1.4v.3l.1.4v.3l.1.3.1.3.2.3.1.4.1.5v.3l.2.4.2.3.1.3.1.3v.8l.1.6.1.2.1.2.2.2.2.2.3.2.3.2.5.3.5.4.6.5.3.3.2.4.2.4.2.4.2 1 .2.8.3.6.3.5.2.6.3.5.3.4.2.2.2.3.4.3.5.3.3.3.2.3.3.4.1.4.2.6.1.4.1.8.2.9.2.4v.4l-.1.5v.6l.1.3.1.2v.6l-.1.3v.2l.1.3.2.2.1.3.2.2.3.5.1.6v.4l-.1.5v.3l.1.3.2.4.2.3.1.4.4.7.1.6.3.5.2.2.2.2.4.3.3.2.4.1.3.2.4.1.3.1.2.2.3.3.2.2.3.2.3.3.2.4.3.4.4.9.4.6.3.4.3.3.4.2.3.3.2.2.1.3v.5l-.1.4-.1.4.1.5.2.4.3.3.3.2.3.1.3.1.2.1.2.3.2.3.2.3.2.3.2.3.2.2.2.2.2.3.2.3.2.2.3.3.4.3.1.2.1.3v.7l.1.4.2.6.3.5.5.8.2.7.2.6.2.4.1.4.2.3.2.3.2.4.1.4.1.3v.3l.2.4.4.5.4.4.3.2.3.2.5.1h.3l.4.1h.4l.4.1.4.1.4.1.4.2.3.2.2.4.3.4.3.3.3.6.4.5.6.8.6.5.8.7 1.1.9 1.5 1.1 1.1 1 .5.3.5.3.3.2.5.1.5.1.6.1.6.2.4.1.3.2.5.6 1.3 1.1.7.5h.4l.3.1h.3l.3.1.2.2.5.6 1.5 1.2 1.5 1.2.3.3.2.3.2.4.1.3v.5l.1.4.2.4.1.2h.3l.4.1.3.1.3.2.5.5.7.6.6.5.7.7.4.5.2.5.2.4.2.7.2.3.1.3v.4l.1.2.1.3.1.3v.3l-.1.3v.4l.1.4.2.5.3.4.3.4.4.3.4.4.6.6.2.3.2.3.2.3.2.2.2.2.1.2.1.3V159l-.1.6v.6l.1.5.2.4.3.9.2.3.5.6.6.6.5.2.4.1.4.1.4.1.3.1.2.2.3.3.1.4.2.3.4.4.2.2.3.2.3.2h.6l.4-.2.3-.2.3-.2.3-.2h.7l.3.1.3.4.3.2.2.3.2.3.3.2.3.2.4.1.4.2.4.2.3.3.5.3.3.2.3.2.5.2.4.2.3.2.2.3.4.4.3.4.6.7.3.5.3.3.3.2.5.4.2.1.2.3v.2l.1.2.2.2.2.2.3.3.2.4.2.3.2.3.3.5.1.3.1.3v1l.2.3.3.2.3.2.2.1.5.1.4.2.4.1.4.1.4.2.3.2.3.2.3.1.3.1.3.2.3.1.3.2.4.1.2.3.3.2.2.4.2.6.2.4.3.4.2.3v.6l-.1.2-.2.2-.3.1-.4.1-.3.1-.2.2-.1.1v.2l.1.2.2.4.2.3v.5l-.1.3-.2.2-.2.1h-1.1l-.2.2v.2l.1.3.2.2.3.2.2.1.2.3.1.3-.1.4.1.3.2.5.2.3.2.3.1.2-.1.3-.1.2-.2.1-.3-.1-.3-.1-.2-.2-.2-.1h-.2l-.3.2-.1.3.1.3.3.3.3.2.3.4v.3l-.1.4-.1.3-.1.2.1.1.2.1.2.1.4-.1.5-.1.1.1.2.1.1-.1.2-.1.3-.1.3-.1.2.2v.1l-.3.2-.2.1-.3.2-.1.3-.1.2.2.2.2.2.3.1.1.1.2.2v.2l-.1.2-.1.2.1.2.2-.1.1-.2.1-.2v-.3l.1-.4.2-.3h.3l.1.1.1.3-.1.3-.1.2.1.3.2.1.3.1.2.1v.1l-.1.3.1.1h.2l.3-.1h.2l.1.1v.6l-.1.2.1.3h.3l.3-.1.1-.1.2-.3.2-.2h.3l.2.1.1.2v.2l.1.2.2.1h.1l.2-.2.2-.2.2-.1.3.1.2.3.1.2-.1.2-.1.2v.2h-.1l-.1.1-.2-.1h-.2l-.2-.1H353.4l-.1.2v1l.2.1.4.3h.4l.3.1.2.1.1.3.2.3.2.1.2.1.1.1.1.2v.4l-.1.2.2.1.2.1.2.1.1.1.1.3-.1.1-.2.1h-.2l-.3-.1-.2-.2-.1-.2-.2-.2-.2-.1h-.2l-.1.2-.1.1.1.2.2.2.2.2.1.1.1.2v.1l-.2.1H354.4l-.2.1V203.5l.2.3.1.2.3.2.3.3.5.3.5.3.3.4.3.3.5.1.3.1.3.1.3.2.1.3v.3l.1.4.2.1.1.1.3.1h.2l.5.2.7.2.4-.1.2-.2.1-.2-.1-.3-.1-.3v-.2l.2-.2h.2l.3.2.2.2.3.3.1.3.1.3.1.2.2.3.2.2.1.2.1.3.1.3-.1.2-.1.2-.2.2-.1.1-.2.1-.2.2-.1.1.1.2v.2l-.1.1-.1.1-.1.1v.2l.1.2.2.6.2.6.2.6.3.4.4.5.6.6.7.5.5.5.5.4.3.3.2.3.3.2h.2l.2.1.4.2.2.2.2.2.3.1.3.2h.5l1 .3.9.4.8.3.5.3.4.4.4.4.3.2.3.2.3.1.3.1.3-.1h.4l.5-.2.8-.1h.4l.3.1.2.2v.3l-.1.2-.1.2-.2.2v.2l.1.2h.1l.2-.1.2-.1.2-.3.1-.1h.2l.2.2.1.1v.4l-.1.2-.2.1-.1.2.1.1.2.1.1.1h.8l.2.1.2.1.1.1.1.2.2.2.2.1h.1l.1.2v.2l.1.3.2.2.2.2.2.1.1-.1.1-.1v-.5l.2-.1.2.2.2.1.2.4-.1.2v.1l-.2.1-.2.1-.2.1.1.3.2.1.2.1.5.1.3-.1.2-.2.2-.2h.3l.1.1.1.3.3.3.2.1.2.1.2-.1h.1l.3.2v.2l.1.2.2.2.3.2.4.2h.3l.2.1V227.8l-.2.1h-.1l-.1.2v.2l.1.1.3.2.1.1v.2l-.1.2v.2l.2.2.1-.1.1-.2.2-.1h.3l.1.1.2.1.2.1.2.1h.2l.1.2v.2l-.2.1-.3.1-.2.1-.1.1v.2l.1.1.2.1.3.1.1.3v.2l-.1.2-.1.3-.1.4-.1.4-.1.4-.1.8-.1.4-.1.3-.1.1h-.2l-.2-.1-.1-.2-.1-.2H385.7v.5l.1.7.1.4.3.4.3.2.1.2.1.2-.1.3-.1.2.1.3.2.3.2.2.3.3.4.3.3.2.1.1.1.3-.1.1-.1.1v.4l.2.1.1.2.1.1.1.3v.9l.1.3.1.1.1.1h.2l.1-.1.1-.2.1-.2h.4l.2.1.1.2.1.2V242.2l-.2.1h-.5l-.2.1-.1.1-.3.3-.1.4-.1.2.2.2.2.2.2.1h.3l.1-.2h.5l.1.3.2.1.3.2.2.1.2.1.1.2.1.2-.1.4v.2l-.2.4-.1.4-.2.3-.1.3v.4l.1.1.1.1.2-.1.2-.2.2-.2.2-.2h.3l.1.2.1.2v.6h.2l.3-.1.3-.1.3.1.2.1.2.3.2.3.2.3v.4l-.1.1-.2.1-.2-.1-.1.1-.1.1.1.2.2.1.2.2v.2l-.1.2-.1.1.2.1.2.1.1.1v.2l-.3.3h-.1l-.2.2v.2l.1.2v.4l-.1.2-.1.1.1.1.2.2.2.3v.1l-.1.2-.1.1-.1.2-.2.2-.1.2v.1l.1.2.2.1h.5l.3.2v.4h-.3l-.2.1-.4.1-.2.1-.1.1.1.2h.5l.2.1.2.1v.2l.1.2h.2l.2.1.1.2v.2l.1.1.2.1.1.1v.1l-.2.1-.3.1-.2.1-.3.1-.1.2v.1l.2.1h.8l.2.1.1.2v.2l-.1.2-.1.1-.2.2-.1.2v.1l-.1.2-.1.1-.2.1v.6l.2.2.2.1v.2l-.2.2-.2.2-.1.1.1.2.1.2v.2l-.3.2h-.3l-.2.2-.2.3v.3l.1.2.1.1.3.2.2.2.2.2H395.1l.2.3.1.3v.3l.2.3.2.3.1.2.1.2-.1.3-.2.2v.3l.1.3.2.2.2.2v.2H395.9l-.1-.2h-.3l-.2.2.1.3.3.1h.3l.3.1.1.2.1.3-.2.3-.2.2-.2.2-.3.3-.4.1-.5.3-.2.3-.1.2-.1.4.2.3.1.2.2.3.2.3.3.3.5.6.3.5.4.4.2.4.3.3.2.3.4.4.2.1.2.1.1-.1.2-.1.2-.1.2.1.1.2.2.2.1.1.2.1-.1.4v.2l.2.1h.1l.2-.2.2-.1h.3v.5l-.1.2.1.2.2.1.4.2.7.5.7.2.8.2.6.1h.8l.5-.2.2-.1.2-.1.2.1v.5l.1.2h.2v-.2l.1-.3.1-.1.2.1.1.2v.4l.1.1.1.1.2-.1.2-.2.2.1.1.3v.4l.1.1.2.2v.2l-.1.3v.4l.1.3.2.2.3.3.5.4.8.6.5.2.3.2H411l.2.1.2.3v.2l-.1.3-.1.2v.5l.1.3.2.2.7.8 1 1.1 1.2 1.1.4.4.3.1h.2l.2.1.2.2-.1.2-.1.1h-.2l-.1.3.1.2v.1l-.1.1-.2.1-.3.1h-.2l-.2.2-.1.2v.1l.1.2.2.2.1.1-.1.2-.1.1-.3.2-.2.3v.4l.1.4.1.5.3.6.4.6.7.9.7.9.3.4.1.4.1.2-.1.4-.1.3-.1.2.1.3.3.3.2.2.3.4.1.2v.4l-.1.1v.1l.1.2.2.2.2.1.1.1.1.2v.3l.1.2h.2l.2.1.1.2-.1.1-.1.2V302.1l.2.1.2-.1.2-.2.2-.2.1-.3.1-.2.2-.1.2.1.2.2.1.2.2.2.3.3.3.1.2.3-.1.3-.2.1-.2.3-.2.3v.2l.2.1.1.1.1.1.1.3.1.3v.6l-.1.3v.4l.2.1H421.4l.1.2v.2l.1.3v.3l.2.8v.3l-.1.2-.1.2-.1.1-.2.1v.2l.1.2v.2l-.2.1h-.2l-.2.1-.1.2v.1h-.4l-.2.1v.2l.1.2-.1.2-.2.1h-.2l-.2.1-.2.3-.1.3v.3l.2.2v.1l-.1.2-.3.2-.2.1-.2.3-.1.2v.4l.2.2.2.1.3.4.4.3v.2l-.1.2-.1.2-.2.1h-.1l-.2.2.2.2.1.1h.2l.3.1.2.1.1.2.1.2.2.2.2.2.2.1.2.2.2.2.2.4.2.3v.1l.1.2.2.1h.4l.1.1v.2l-.1.1-.3.1-.2.1v.2l.1.2.2.2.1.3.1.1.1.3.2.1.1.1.1.3-.1.1-.2.2h-.2l-.3-.1h-.3l-.4.1-.2.2-.1.3v.2l.2.1.2.1v.2l.1.2.1.2.2.3.1.1h.2l.1.1.1.2V323.3l-.2.1-.2.2-.2.3-.1.3v.2l.2.2.1.4.1.3.1.4-.1.3v.4l.1.2.2.2.2.2.3.1.3.1h.8l.3.1.2.2.2.2.2.2.1.2.3.3.5.5.4.3.4.2.2.2.4.1.2.1h.6l.3-.1.3-.2.3-.3.6-.2.7-.3.7-.2.6.1h.9l.6.1.4.2.3.3.2.4.2.3.2.5.3.3.6.4.6.3.8.2.5.2.4.4.4.4.5.5.3.3.4.3.2.1.5.1.6.1h.2v.1l.3.4.6.1h.4l.6-.1.4.2.3.6.5.8.1.8.1.4h.9l.7-.2.4-.1.5-.3.4-.1h.5l.3.4.1 1.4-.1 1-.2.8-.5.4-.1-.4-.1-.8h-.7v.3l.2.5.2.7.3.7-.2.4v.3l-.3.3-.3.3-.6.4-.5.2-.8.8-.7.3-.5.1-.3-.1-.8.2h-.2l-.5.4-.8.5-.4-.2v-.3l.3-.4.2-.3-.5-.4-.1-.2-.2-.2-.2-.1.3-.5.3-.2.2-.2.2-.4v-1.5l-.2-.7-.1-.9.1-.7.1-.3-.2-.5-.4-.2-.5-.2-.4-.3-.2-.5-.3-.4-.6-.1-.6-.4-.6-.2h-.1l.1.4.5.4.7.4.4.3-.1.5v.4l.6.5.6.1.2.3v.6l-.1.4v.7l.1 1 .2.7-.2.4-.3.5-.5.3-.7-.2-.5-.2-.2-.2-.5-.2-.2.3.3.3 1.2.5-.1.4-.4.5-.5.3-.2.4-.3.2-.4.5-.4-.2-.5-.7-.3-.3-.3-.1-.4-.1-.4-.2-.4-.1-.3-.3-.1-.4-.2-.7.1-.4.3-.6.3-.9-.1-.4-.1-.6v-.4l-.2-.4v-.4l-.2-.2h-.2l-.5-.5-.5-.5-.7-.5-.3-.2h-.4l-.3.1v.1l.1.3.5.2.5.2.3.5-.1 1.1.2.1.4-.3h.1l.2.2.3.3.1.5-.1.6-.4.4-.2.6-.2.7.1 1 .2.6.2.3.5.5.7.3.7.4.6.8-.3.5.5.3.5.3.3.5.6.5.9.5.6-.2h1l.8.3.2.2-.9 1-.7.8-.6.5-.7.5-.9.6-.7.7-.7.7-.7.8-.6-.1v-.6l-.1-.4-.4-.1-.4.1-.6.2h-.5l-.9-.6-.6-.4h-.8l-.7-.1-.6-.1-.5.1h-.6l-.2-.6-.3-.4-.5-.5-.3-.5-.5-.3-.4-.6-.3-.7-.2-.7-.1-.4.3-.4-.5-.2-.4-.3-.3-.2-.2-.6-.1-.4-.5-.3h-.6l-.5-.2-.1-.6.2-.2.4-.7.1-.7-.5.2-.5.5-.3.6-.2.8.4.7.7.4h.7l.3.4.4.7.2.4.3.7.4.7v.7l.1.6-.4.2h-.7l-.4-.2-.3-.2-.5-.5-.4-.7-.2-.3-.1-.5-.4-.6-.3-.4-.2-.4v-.3l-.1-.5-.5-.2-.7-.1h-.3l-.3-.6-.1-.4-.3-.6-.4.1h-.4l-.4-.2-.3.2.2.5.4.3.4.4.3.5.4.5.5.3.5.1-.2.1h-.7l-.8-.3-.7-.1h-.5v.4l.4.4.5.1.7.2h1.1l1.3.2.2.5.1.9v.7l.4.9.9.6 1 .3.8-.2.6-.1.7.2.5.6.2.8-.4.9h-.5l-.9-.4-.5.1-.5.3-.7.3h-.7l-.6-.4-.6-.4-.5-.6-.6-1.4-.3-.7-.7-.8-1-.6-.8-.2-.8.4-.6.3-.4.2-.1-.2.2-.3.5-.6.4-.7.1-.5-.4-.5-.4-.3h-.1l-.5.2-.4.6-.8.7v.1l-.7.7-.5.5-.3-.1v-.6l-.2-.3-.4-.3-.5-.1h-.6l-.3-.2.3-.8.2-.4.2-.4-.4-.1-.3-.2-.4.1-.5-.2v-.7l-.2-.6-.6-.2h-.7l-.1.3.3.3.5.3.1.7v.6h.5l.3.1.3.1v.4l-.2.6v.7l.9.2.7-.1.6.1v.9l.1.7.5.4.5-.2.5-.5.4-.6.5-.8.6-.7.5-.4.4.3-.1.4-.3.5-.6.4-.5.4-.1.6v.4l.6.1.6-.2.7-.5.9.2.6-.1.7.1.4.7.3 1 .2.6v.5l.1.5.6.5.4.1.6.3.1.2.2.2.2.1.2.1h.5l.7.1h1l1.2.2.6.3.2.1.2.2.2.2.1.2.2.1.1.2.1.1.1.1v.2l.4.3.5.2.4.1.3.4.3.3.5.3h.4l.2-.5h.5l.4.4.3.3v.3l-.3.5-.4.7-.3.7-.3.7-.3.8-.3.8-.6.8-.7.4-.9.4-.4.2-.6.3-.6.6-.7.6-.6.7-.8.9-.8.7-.5.2-.4-.1-.4-1-.2-.5-.3-.7-.4-.7-.3-.2-.1-.1-.5-.2-.3-.5-.2-.3.1-.5.1-.5.3-.5.2-.4-.1-.5-.1-.4-.2-.3-.2-.1-.1-.2-.1-.2-.3-.5-.2-.1h-.2l-.1.1-.1.4.1.5.3.2.3.3.2.6-.2.3-.5-.1-.5-.1-.5-.2-.4-.3-.3.1.3.5.7.5.3.5.2.8.2.6.6.6.5.6.2.6-.2.6-.1.5-.7.2-1.5-.6-1.1-.4-1-.8-.6-.4-.2-.2-.1-.1-.5-.1-.5-.2-.4-.1-.5-.1-.5-.1-.5-.2-.5-.5-.4-.4-.1-.4-.1-.8-.1-1-.1-.6-.7-.4-.7-.3-.8.1-.9.1-.7-.3-.3-.6-.3-.1-.1.2-.1.5.2.5.4.4.5.2.8.1.8-.1h.8l.4.4.1.6-.1.6-.2.8.1.6.2.6.4.3.3.1.5.3.6.2.4.1h.5l.3.2.7.2.4.2.5.5.3.3-.1.4.3.3.5.3.7.4.5.4.5.4.5.5.3.3-.1.7-.3.7-.3.4-.4.5-.4.4-.6.2-.8-.4h-.1l-.7-.3-.4-.2-.6.1-.4.2-.5.3-.3.2h-1.8l-.4.3-.1.2v.2l.1.3v.2l.3.2.7.3.4.4.5.1.6.1h1.1l.5-.1H412.7l.7.1.8.1.1-.1.3-.2.5-.4.4-.1h.5l.6.2.4-.2.4-.4-.2-.2h-.2l-.4.1h-.8l-.7-.1-.2-.3.4-.6.2-.2h.1l.7-.5.5-.3.7-.2h.8l.1-.5.5-.4.5-.1.6.2.4.3.2.5-.2.7-.1.6.2.7.1.6.1.7.1.6-.1.6-.1.6-.1.4h-.5l-.3.1.1.4.3.4h.4l.3.2v.6l-.3.6-.3.7-.4.7-.3.6-.5.7-.2 1-.3.5-.3.6-.2.7-.6.9-.6.6-.4-.1-.5-.9-.1-.5-.2-.5v-.8l.3-.5.2-.6-.1-.5-.1-.6-.1-.4-.2-.4-.2-.4-.3-.5-.2-.2-.2-.3-.2-.1-.2.1-.2.2-.2.2-.2-.1-.3-.1-.3-.4-.1-.5-.1-.5-.2-.3h-.1l-.4-.2-.5-.2h-1.1l-.5.2-.3.1-.2.4.1.6.3.2.5.3.6.1.4.1.2.3.2.4-.2.6-.1.3-.1.5.2.2.3-.1.3-.3.3-.3h.2l.1.1.3.4.2.2.4.2.4.1.2.3-.1.7v1.1l-.1.5-.6.6-.4.5-.2.2-.5.1-.5-.1-.4-.1-.2-.2-.2-.1-.2.2.2.9H410l-.4-.2-.3-.7-.1-.6-.3-.5-.3.1-.1.2.1.2.1.6.1.4.1.8-.4.1-.6-.5-.2-.3-.2-.4-.3-.3-.8-.2-.5.2-.5.3-.6.3-.4.4-.2-.1-.1-.2v-.3l.1-.5-.1-.7-.1-.4-.4-.1-.4.4-.2.6.2.7-.1 1.1-.5-.2-.4-.1h-.5l-.4.2-.4.3-.4.3-.4.1-.3-.1-.4-.2-.3.1v.2l-.1.3.1.4.2.3.4.1.3-.1.3-.3.3-.3.4-.3.3-.2h.8l.3.1.3.2.1.2-.1.4.4-.2.2-.1.9.4.3.2.5.6.1.2.2.2.1.2h.6l.4-.2.3-.1.2-.3.3-.3v-.1l.3-.2h.2l.4-.1.8.6-.1.6-.3.8-.6.3-.5.4-.3.1-.1.3-.3.3-.5.3-.4.3-.2.3v.4l-.3.3.1.1.2.1 1.1-.4.6-.3 1.2-.2.9-.8.3-.6.5-.7.2-.7.3-.7.5-.2.2.1.2.2.4.1.6-.1-.2.3-.4.7.2.1.4.1H412.9l.2-.1v-.2l-.1-.3-.1-.4.2-.3.5-.5h.2l.5-.5h.4l.4.2.4.3.6.6.4.4.4.3-.3.4-.4.2-.3.3-.3.5-.4.6-.1.5-.4 1.1-.3.6-.2.5-.7.9-.8.9-.1.3-.2.3-.5.4-.4-.2-.1.3.1.6.2.4-.1.2-.4.4-.4.5-.5.6-.6.9-.6 1.2-.4.8-.3 1.2-.5.5-.3.3-.4-.2-.2-.1-.3-.2-.2-.3-.2-.5-.3-.6-.2-.3-.6-.7-.1-.4.1-.4-.3-.1-.2-.2-.1-.4v-.6l.1-.5-.2-.8-.3-.2-.1.1-.3.4-.1.2-.6.2-.6-.2-.5-.6-.4-.8v-.3l-.3-.2-.4.4.1.5-.2.5v.1l.1.3.4.3.2.3.1.2h.1l.3.1.5.2.3.2.3.6.3.7-.5.6-.8.3-.3.1-.1.6.1.9-.3.2-.2-.2-.1-.3-.4-.4-.2-.4-.3-.2-.3.1-.2.1h-.1l-.4.2-.8.2-.3.1-.1.4.1.5-.1.7.1.3.4-.2.2-.1.2-.3h.4l.2.2.3.1.5.2.5.2h.6l.2-.1.1-.1.3-.1.3-.6.2-.4.5-.2.4-.1.5.5.4.5.4.4.4.1.4.3.1.3-.3.3-.7.1-.1.1v.4l.2.5-.1.3-.3.4.1.4.3.4.3.2.4-.1.3-.3.2-.7v-.8l.2-.5.3.2.2.4v1.1l-.1 1.2.1.6.1.5-.1.3-.1.2-.4.1-.2-.1-.3-.1h-.2l-.2.1h-.5l-.3-.1-.3-.2-.2-.2-.4-.3-.2-.1-.2-.2-.5-.7-.1-.1-.3.2-.1.5-.3.1-.3-.1-.5-.1-.5-.1-.4-.2h-.4l-.8-.1-.7-.2h-.7l-.7-.1h-.8l-1-.1h-.9l-.7.1-.6-.1-.2-.3-.3-.4-.3-.3-.1-.4-.4-.6-.3-.5-.4-.3-.3-.2-.4.1-.5.3-.2.4-.6.2-.3-.1-.3.1-.1.2v.2l.1.1.1.2v.2l.2.1.2.1.3-.1.8.2.4.1.5.1.5.4.4.3.5.5.2.2.3.1.8.3.6.1.4.1.4.2.8-.2.5-.1.5-.1h.6l.4.3.3.8-.5.2-.5.3-.6.5-.5.4-.8-.6-.2.2.2.6.1.6-.2.4-.1.3v.1l.3.1.4.2.5.3.3.5.1.6v.8l-.2.7.1.2.4.1.3-.1h.1l.3-.5.1-.6-.2-.6-.1-.5-.2-.3-.1-.4-.2-1.5.2-.3.3-.4.4-.3.5-.3.3-.1.1-.1.6.1h.3l.6.1h.6l.5.1.4.3.3.3.6.4.5.1.7.1.3.5.5.5.9.4h.5l.6.2.7-.3v.3l-.3.3-.1.2-.3.2-.1.7v.8l.7.1-.1.7.4-.2.3-.2.2-.4.1-.1h.3l.2.2.2.4-1.1.6-.2.1-.3.2-.3.3v1.3l-.1.2-.2.4-.3.3-.1.2-.1.7-.1.6-.4.1-.3-.2-.2-.1h-.1l-.3.2-.4-.2-.2-.3-.2-.6-.3-.4-.3-.5-.3-.6-.4-1-.2-1.4-.2.2-.1.3-.3 1.7.5.3.3.5.2.5.5 1.1.5.6.5.5-.7.5-.2.5-.8.7-.8.8-.6.7-.6.9-.6.9-.4.5-.3-.4v.1l-.1-.6-.3-.2-.2.7.3.8.2.8-.3.5-.7.6-.7.6h-.4l-.7.2-.3-.1-.5-.2-.3-.1-.3-.2-.2-.4-.3-.2-.1-.3-.1-.5-.1-.7.2-.4.3-.4.3-.4v-1.2l-.1-.3-.2-.3-.2-.6v-.3z"/><path fill="none" stroke="#FFFFFE" stroke-width="2" stroke-linecap="round" stroke-linejoin="round" stroke-miterlimit="1" d="M142.5 14.9c-.9.4-1.8.9-2.4 1.7-.6.8-.8 1.9-.3 2.7.4.5 1 .8 1.5 1.1 1.2.7 2.2 1.6 3 2.7.6.9 1.1 1.9 1 3-.1 1.5-1.3 2.7-2.2 3.9-.9 1.3-1.4 3.1-.2 4.2.8.7 2 .7 2.9 1.3 1 .7 1.3 2 1.3 3.2 0 3.2-1.7 6.2-3.5 8.9-1.9 2.9-4.2 5.8-7.3 7.5-1.5.8-3.2 1.3-4 2.8-.2.3-.3.7-.6 1-.3.2-.7.3-1.1.3-1.1.1-2.2-.1-3.2-.5-.6-.2-1.2-.6-1.8-.3-.8.3-1 1.3-1 2.2 0 2.7.3 5.4.9 8 .1.4.2.8.4 1.1.8 1.2 2.7.8 4.1 1.4 1.1.5 1.8 1.7 2 2.9.2 1.2.1 2.4-.1 3.6-1.3 9.8-.1 20.3-.1 30.1 0 .9 0 1.8.5 2.6s1.5 1.2 2.5 1.6c3 1.1 6.1 2.3 9.1 3.4.7.3 1.8.2 1.7-.5 0-.4-.5-.6-.8-.9-.8-.8-.5-2.2.2-3s1.7-1.5 2.2-2.5c.5-.8.6-1.9 1.3-2.5.8-.7 2.1-.6 3.2-.4 2.7.4 5.5.9 8 2.1 1 .5 1.9 1.1 2.8 1.6 3.7 1.7 8.6.5 11-2.8.6-.7 1-1.6 1.6-2.2 1.3-1.4 3.4-2 4.9-3.2.8-.7 1.5-1.6 2.2-2.5 1.4-1.9 2.9-3.9 4.3-5.8.9-1.2 2.3-2.6 3.7-2.1 1.2.5 1.5 2 2.4 2.9 1.3 1.4 3.6 1.1 5.5.7.7-.2 1.3-.3 2-.2.6.1 1.2.4 1.8.7 1.6.9 3.1 1.9 4.5 3.1 1 .8 2.4 3 3.8 2.8.8-.1 1.6-.7 2-1.4.5-.7.8-1.5 1.3-2.2 1.2-1.7 3.2-2.8 5.2-2.9 3.5-.1 6.8 2.5 10.2 1.7 1.9-.4 3.5-1.9 5.4-2.4.2-.1.4-.1.7 0 .3.1.5.4.6.6 1.3 1.9 3.6 3.1 5.9 3.2 1 0 1.9-.1 2.9.1.9.2 1.9.9 1.9 1.9 7.8-1 14.3-6.5 21.7-9.1M32.2 158.7c7.5-1 14.9-2.7 22.1-5 .9-.3 1.8-.6 2.5-1.2 2.8-2.1 2.3-6.2 2.9-9.6 0-.3.1-.6.3-.8.2-.2.5-.2.8-.2 5.6-.4 10.7 3.6 16.3 4 2.7.2 5.5-.4 8.1-1 .6-.1 1.3-.3 1.7-.8.4-.4.6-1 .7-1.5 1.2-4.8 1.8-9.7 1.6-14.6 0-.6-.1-1.2-.4-1.7-.3-.4-.8-.6-1.2-1-.5-.5-.6-1.3-.6-2-.2-2.8.2-5.7 1.2-8.4.1-.4.3-.8.6-1.1.5-.5 1.3-.5 2-.6 7.5-.4 15.1-.3 22.7.1.9.1 2 .1 2.7-.6.5-.5.7-1.1 1.1-1.7 1.3-2 4.7-2 5.6-4.2.4-1.1-1.1-4.7-1.1-4.7s2.4-.6 3-1c2.1-1.2 4.4-.8 6.8-.5"/><path fill="none" stroke="#FFFFFE" stroke-width="2" stroke-linecap="round" stroke-linejoin="round" stroke-miterlimit="1" d="M73 145l-1 21.6 7.7 1.3-1.5 6.2 20.9.6 15.1-4.5 2.2 6.1 3.3 2.1V191l3.9-7.8s4.3-1.2 4.3-1.7c0-2.4-.7-4.3.3-6.4.4-.8 1-1.5 1.3-2.4.5-1.4.1-3 .7-4.3.3-.7.9-1.2 1.1-2 .2-.8-.2-1.7.2-2.5.2-.5.6-.9 1.1-1.2 1.2-1 2.6-2 4.1-1.7 1.4.3 2.3 1.5 3 2.7.6 1.2 1.1 2.6 2.1 3.6 1.5 1.4 3.7 1.7 5.6 2.4 2 .6 4 2.1 3.9 4.1 0 .6-.2 1.2.2 1.6.2.2.4.3.7.4 2.2.7 5 .4 6.5 2.2.6.7.8 1.7 1.3 2.5.6 1.2 1.7 2 2.6 3.1 2.3 2.8 3 6.5 4.5 9.8.5 1.1 1.1 2.1 1.8 3 .5.7 1.1 1.3 1.5 2 1.5 2.5 1.1 5.6.7 8.4-.1.4-.1.8-.4 1.1-.4.4-.9.4-1.5.4-6.4-.2-19-.1-19-.1v28.1h-7.1v15l-6.6 11.5c-.9-.5-1.5-1.4-2.4-2-4-2.3-8-4.7-11.9-7-1-.6-1.9-1.2-2.5-2.1-.7-1.1-.8-2.6-1.8-3.5-1.7-1.4-4.8-.2-6.2-1.9-.6-.8-.5-1.9-1.1-2.7-.7-1-2.2-1-3.3-.5-1.1.5-1.9 1.5-2.8 2.3-.9.8-2 1.6-3.2 1.5H90.1l-5.4-3.3-38.7-.1"/><path fill="none" stroke="#FFFFFE" stroke-width="2" stroke-linecap="round" stroke-linejoin="round" stroke-miterlimit="1" d="M170.1 109.1l-3.3 12.1 6.7 8.2-17.1 15.3 20.5 16.5c1.4 0 3.1-.3 4.2.7s1.7 2.3 2.1 3.7c1 3.1 1.2 6.4 1.4 9.7 0 .3 0 .7-.1 1-.2.4-.6.5-1 .6-2.1.7-4.3 1.4-6.3 2.3-5.2 2.6-9.2 7.5-10.5 13.1M184.6 174s11.8 9.4 12.4 9.4c.6 0 22.6-4.7 22.6-4.7s11.2 11.9 11.5 12.1 16-13.6 16-13.6c1-2.2.2-4.6-1.1-6.6-.8-1.2-1.8-2.5-1.4-3.9.2-.8.8-1.4 1.3-1.9 1.7-1.9 2.9-4.1 3.7-6.5.2-.6.4-1.3 0-1.9-.7-1-2.9-.6-3.1-1.8 0-.3 0-.5.2-.8.9-1.7 3.7-2.2 3.7-4.1 0-.6-.2-1.1-.4-1.6-.6-1.7-.8-3.6-.3-5.3 1-3.9 3-7.7 6.1-10.2 7.7-6.3 17.3-10.9 27.3-10.6 1 0 2 .1 3 .3M136.1 262.2c.2 1.6 2.1 2.4 3.7 2.5 1.6.1 3.3-.1 4.7.6 1.8.9 2.7 3.1 3 5.1.3 2 .4 4.1 1.4 5.9 1.3 2.4 4 3.8 5.5 6.1.2.3.4.7.6.9.6.6 1.5.8 2.4 1 2.7.5 5.5.9 8.2 1.4.9.2 1.8.3 2.4 1 .4.4.5 1 .6 1.6 1 5.8-2.4 12.1 0 17.5-6.2 2.2-11.7 6.4-15.4 11.8-.4.6-.8 1.2-1.4 1.5-.9.5-1.9.2-2.9 0-2.6-.6-5.1-1.2-7.7-1.8.1-1.2-.1-2.5-.6-3.6-1.6.1-4-.3-3.7-.3M136.6 313.4v8.1h-22v25.8h-15l-2.5 15.2 4.4 1.8 2.9 10.6c-.4 2.6-3.4 3.7-5.9 3-1.1-.3-2.1-.8-3.2-.6-1.1.1-2.1.8-3.1 1.3-3.8 1.9-8.4.5-12.6 1-.5.1-1.1.2-1.6.5-1.6 1-1.2 3.4-.5 5.1.8 1.7 1.7 3.7.8 5.3-.8 1.5-2.8 1.9-4.6 2-5.5.5-11 1.1-16.5 1.6M168.6 305.9h21.5v48.8h37.4c2.1 0 4.7.7 6.3 1.9 1.7 1.2 3.1 2.7 5 3.6 1.8.8 3.9 1 5.5 2.2 2.5 1.8 3.1 5.3 2.5 8.3s-1.9 5.8-2.4 8.8c-.4 2.5-.3 5.1-1.2 7.5-.8 1.9-2.2 3.5-3.6 5.1-1.7 1.8-3.4 3.7-5.1 5.5-.7.8-1.5 1.7-1.2 2.8.5 2.2 1.4 4.3 2.9 5.9s3.4 2.9 4.7 4.7c3.4 4.6 2.3 11 1 16.6 2.7.1 5.5.1 8.2.2-.3 9.1.3 18.3 1.1 27.4.3 3.5 1.1 7.7 4.4 8.9 1.7.7 3.9.3 5.3 1.4 1.1.8 1.6 2.3 2.3 3.6 1.8 3.3 5.3 5.3 8.9 6.4 3.6 1.1 7.3 1.4 11 2.2.5.1 1 .3 1.4.6.4.4.5 1 .7 1.6l2.4 12.6M244.6 179.9c2.9 2.8 7.4 3.1 11.4 2.9 2.2-.2 4.6-.4 6.2 1.1 1.1 1 1.4 2.6 1.7 4.1 1.6 7.5 4 14.8 7.3 21.7.7 1.4 1.4 2.8 2.5 3.9.9.9 2 1.6 2.9 2.5 2.4 2.4 3 6.4 5.7 8.4 2 1.5 5 1.8 6 4.1 1 2.2-.7 5.2.8 7.1.4.5 1.1.9 1.5 1.4 1.6 1.9.3 4.6 0 7-.5 3.6 1.3 7.4 4.5 9.1.9.5 1.8.8 2.5 1.5s1.2 1.7.8 2.6c-.3.7-1.1 1.1-1.9 1.5-1.8.9-3.5 2.4-3.9 4.4-.4 2 1.1 4.4 3.1 4.2-3.8 2.3-7.5 4.9-11 7.7-1.1.9-2.3 2.6-1.3 3.7.9 1 3.1 1.2 2.6 2.4-2.2-.4-4.6.6-5.8 2.5 3.3.3 6.6.7 10 1 2.6.3 5.2.5 7.6 1.6 2.4 1.1 4.5 3.1 4.9 5.6.5 2.8-.2 5.8-.9 8.6 1.8 0 3.6 1.2 4.1 2.9.3.8.3 1.6.9 2.2.6.6 1.5.6 2.3.6 2.4 0 5.2-.1 6.5-2.1.9-1.3.8-3.1.9-4.7.3-3.5 1.8-7 4.2-9.6.6-.7 1.3-1.3 1.8-2s.9-1.5 1.2-2.3c1.5-3.4 3.4-7.4 7.1-7.9 1.6-.2 3.4.3 4.5 1.5-.3-2.5 1.2-5 3.2-6.5s4.5-2.2 7-3c2.2-.6 4.3-1.3 6.5-1.9.3-.1.5-.2.8-.1.6 0 1.1.4 1.5.8 3.2 2.8 7 5 11 6.5 2.1.8 4.2 1.4 6 2.6 2.7 1.9 4.5 5.4 7.7 6.4 5.4-3.7 10.8-7.3 16.2-11M301.9 300.5c0 .7-7.7 42.4-7.7 42.4-.4.6-1.5.3-2.2.2-.7-.1-1.3-.5-1.9-.6-2.3-.3-3.9 2.1-5.8 3.3-2.3 1.4-5.2 1.3-7.8 2-1.9.5-3.7 1.4-5.3 2.5-3.9 2.7-6.9 6.7-10.8 9.4-4.2 2.9-9.5 4.2-14.6 3.7"/><ellipse fill="#9EA700" cx="306.3" cy="273.7" rx="10.1" ry="10.1"/><g fill="#F9F9FA"><path d="M304.3 274.3l-.7-.4-.6.3.8.4M306.9 272.1l.7-.4v-.7l-.7.4M311 269.7l-2.4 1.4v-.7l2.6-1.5M305 267.7v2.8l-.6-.3v-3.1M301.3 278.8l2.7-1.5v-.7l-2.4 1.4M312.3 275.8l-2.4-1.4.6-.3 2.6 1.5M308.1 280.7v-3.2l-.5-.3v2.9M300.2 271.9l2.4 1.4-.6.3-2.5-1.4M304.4 272.1v-.8l.6.4v.7"/><path d="M306.9 273.6l3.6-2.1.3-.8-4.5 2.5V269l-.6-.6v5.1l-3.7-2-.8.2 4.4 2.5-3.6 2-.2.9 4.5-2.6v4.3l.6.6v-5.2l3.6 2.1.8-.3"/><path d="M305.7 276.3l-.7.4v-.6l.7-.4M307.6 275.3v.8l.5.3v-.8M308.2 273.4l.7.5.6-.4-.7-.4"/></g><path fill="#F9F9FA" d="M301.8 277.1l-.6-1 3.9-2.2.5.3-3.6 2M311.3 271.7l-3.8 2.2-.6-.3 3.6-2.1.3-.8M305.7 273.5l-3.7-2-.8.2.6-1.1 3.9 2.2M306.3 269v4.2l.6-.3v-4.5h-1.2M306.3 278.8v-4.3l-.6.4v4.5h1.2M310.5 276.3l-3.6-2.1v.7l3.8 2.2.6-1.1"/><path fill="#F9F9FA" d="M301.3 278.8l-1.8-3.2 4.2-2.5.6.4-4.1 2.3 1.4 2.2M308.1 272.2v-5.1h-3.7l.6.6h2.6v4.8M308.1 280.7h-3.7v-5.1l.6-.3v4.8h2.6M305.7 272.1l-4.1-2.4-1.4 2.2-.7.3 1.8-3.3 4.4 2.5M313.1 275.6l-1.9 3.2-4.3-2.5v-.6l4.1 2.3 1.3-2.2M311 269.7l1.3 2.2-4.1 2.4.6.3 4.3-2.4-1.9-3.3"/><g><ellipse fill="#9EA700" cx="302.6" cy="314.8" rx="10.1" ry="10.1"/><g fill="#F9F9FA"><path d="M300.6 315.4l-.7-.4-.6.3.8.4M303.2 313.2l.7-.5v-.6l-.7.4M307.3 310.8l-2.5 1.4v-.7l2.7-1.5M301.3 308.7v2.9l-.6-.3v-3.1M297.6 319.9l2.7-1.5v-.7l-2.5 1.4M308.6 316.9l-2.4-1.4.6-.3 2.6 1.5M304.4 321.7v-3.1l-.5-.3v2.9M296.5 313l2.4 1.4-.6.3-2.5-1.5M300.7 313.2v-.8l.6.3v.8"/><path d="M303.2 314.6l3.6-2 .2-.8-4.4 2.5V310l-.7-.6v5.2l-3.6-2-.8.2 4.4 2.5-3.6 2-.2.9 4.5-2.6v4.3l.6.6v-5.2l3.6 2.1.8-.3"/><path d="M302 317.4l-.7.4v-.6l.7-.4M303.9 316.4v.8l.5.3v-.8M304.5 314.5l.7.5.6-.4-.7-.4"/></g><path fill="#F9F9FA" d="M298.1 318.2l-.6-1 3.9-2.2.5.3-3.6 2M307.6 312.7l-3.8 2.2-.6-.3 3.6-2 .3-.8M301.9 314.6l-3.6-2-.8.2.6-1.1 3.8 2.2M302.6 310v4.3l.6-.3v-4.6h-1.3M302.6 319.9v-4.3l-.6.3v4.6h1.2M306.8 317.4l-3.6-2.1v.7l3.8 2.2.6-1.1"/><path fill="#F9F9FA" d="M297.6 319.9l-1.8-3.2 4.2-2.5.6.3-4.1 2.4 1.3 2.2M304.4 313.2v-5h-3.7l.6.5h2.6v4.9M304.4 321.7h-3.7v-5l.6-.4v4.9h2.6M301.9 313.1l-4.1-2.3-1.3 2.2-.7.2 1.8-3.2 4.3 2.5M309.4 316.7l-1.9 3.2-4.3-2.5v-.6l4.1 2.3 1.3-2.2M307.3 310.8l1.3 2.2-4.1 2.4.6.3 4.3-2.5-1.9-3.2"/></g><g><ellipse fill="#9EA700" cx="400.6" cy="298.8" rx="10.1" ry="10.1"/><g fill="#F9F9FA"><path d="M398.6 299.4l-.7-.4-.6.3.7.4M401.1 297.2l.8-.4v-.7l-.8.4M405.3 294.8l-2.5 1.4v-.7l2.7-1.5M399.2 292.8v2.8l-.5-.3v-3.1M395.6 303.9l2.7-1.5v-.7l-2.5 1.4M406.6 300.9l-2.4-1.4.6-.3 2.6 1.5M402.4 305.8v-3.2l-.5-.3v2.9M394.5 297l2.4 1.4-.6.3-2.6-1.4M398.7 297.2v-.8l.5.4v.7"/><path d="M401.2 298.7l3.6-2.1.2-.8-4.5 2.5v-4.2l-.6-.6v5.1l-3.6-2-.8.2 4.4 2.5-3.6 2-.2.9 4.5-2.6v4.3l.6.6v-5.2l3.6 2.1.8-.3"/><path d="M400 301.4l-.8.4v-.6l.8-.4M401.9 300.4v.8l.5.3v-.8M402.5 298.5l.7.5.6-.4-.7-.4"/></g><path fill="#F9F9FA" d="M396.1 302.2l-.6-1 3.9-2.2.5.3-3.6 2M405.6 296.8l-3.9 2.2-.5-.3 3.6-2.1.2-.8M399.9 298.6l-3.6-2-.8.2.6-1.1 3.8 2.2M400.5 294.1v4.2l.6-.3v-4.6h-1.2M400.6 303.9v-4.3l-.6.4v4.5h1.2M404.8 301.4l-3.6-2.1v.7l3.8 2.2.6-1.1"/><path fill="#F9F9FA" d="M395.6 303.9l-1.9-3.2 4.3-2.5.6.4-4.1 2.3 1.3 2.2M402.4 297.3v-5.1h-3.7l.5.6h2.7v4.8M402.4 305.8h-3.7v-5.1l.5-.3v4.8h2.7M399.9 297.2l-4.1-2.4-1.3 2.2-.8.3 1.9-3.3 4.3 2.5M407.4 300.7l-1.9 3.2-4.3-2.5v-.6l4.1 2.3 1.3-2.2M405.3 294.8l1.3 2.2-4.1 2.4.6.3 4.3-2.4-1.9-3.3"/></g><g><ellipse fill="#9EA700" cx="174.2" cy="341.8" rx="10.1" ry="10.1"/><g fill="#F9F9FA"><path d="M172.2 342.4l-.7-.5-.6.4.8.4M174.8 340.1l.7-.4v-.6l-.7.4M178.9 337.8l-2.4 1.4v-.7l2.6-1.5M172.9 335.7v2.9l-.6-.3v-3.1M169.2 346.9l2.7-1.5v-.7l-2.5 1.4M180.2 343.9l-2.4-1.4.6-.3 2.6 1.5M176 348.7v-3.1l-.5-.3v2.9M168.1 340l2.4 1.4-.6.3-2.5-1.5M172.3 340.2v-.8l.6.3v.8"/><path d="M174.8 341.6l3.6-2 .3-.9-4.5 2.6V337l-.6-.6v5.2l-3.7-2.1-.8.3 4.4 2.5-3.6 2-.2.8 4.5-2.5v4.2l.6.7v-5.2l3.6 2 .8-.2M173.6 344.4l-.7.4v-.6l.7-.5M175.5 343.4v.8l.5.3v-.8"/><path d="M176.1 341.5l.7.4.6-.3-.7-.4"/></g><path fill="#F9F9FA" d="M169.7 345.1l-.6-1 3.9-2.1.5.3-3.6 2M179.2 339.7l-3.8 2.2-.6-.3 3.6-2 .3-.9M173.6 341.6l-3.7-2.1-.8.3.6-1.1 3.9 2.2M174.2 337v4.3l.6-.4v-4.5h-1.2M174.2 346.8v-4.2l-.6.3v4.6h1.2M178.4 344.3l-3.6-2v.7l3.8 2.2.6-1.1"/><path fill="#F9F9FA" d="M169.2 346.9l-1.8-3.2 4.2-2.5.6.3-4.1 2.4 1.3 2.2M176 340.2v-5h-3.7l.6.5h2.6v4.8M176 348.7h-3.7v-5l.6-.4v4.9h2.6M173.6 340.1l-4.2-2.3-1.3 2.2-.7.2 1.8-3.2 4.4 2.5M181 343.7l-1.9 3.2-4.3-2.5v-.6l4.1 2.3 1.3-2.2M178.9 337.8l1.3 2.2-4.1 2.4.6.3 4.3-2.5-1.9-3.2"/></g><g><ellipse fill="#9EA700" cx="202.7" cy="167.3" rx="10.1" ry="10.1"/><g fill="#F9F9FA"><path d="M200.7 167.8l-.7-.4-.6.3.8.4M203.3 165.6l.7-.4v-.7l-.7.4M207.4 163.2l-2.5 1.4v-.7l2.7-1.5M201.4 161.2v2.8l-.6-.3v-3.1M197.7 172.3l2.7-1.5v-.6l-2.5 1.4M208.7 169.3l-2.4-1.4.6-.3 2.6 1.5M204.5 174.2v-3.1l-.5-.4v2.9M196.6 165.5l2.4 1.3-.6.3-2.5-1.4M200.8 165.6v-.8l.6.4v.7"/><path d="M203.3 167.1l3.6-2.1.2-.8-4.4 2.5v-4.2l-.7-.6v5.1l-3.6-2-.8.2 4.4 2.5-3.6 2-.2.9 4.5-2.6v4.3l.6.6v-5.2l3.6 2.1.8-.2M202.1 169.8l-.7.5v-.7l.7-.4M204 168.8v.8l.5.3v-.8"/><path d="M204.6 166.9l.7.5.6-.3-.7-.5"/></g><path fill="#F9F9FA" d="M198.2 170.6l-.6-1 3.9-2.2.5.3-3.6 2M207.7 165.2l-3.8 2.2-.6-.3 3.6-2.1.2-.8M202 167l-3.6-2-.8.2.6-1 3.8 2.1M202.7 162.5v4.2l.6-.3v-4.5H202M202.7 172.3V168l-.6.4v4.5h1.2M206.9 169.8l-3.6-2.1v.7l3.8 2.2.6-1"/><path fill="#F9F9FA" d="M197.7 172.3l-1.8-3.2 4.2-2.5.6.4-4.1 2.3 1.3 2.3M204.5 165.7v-5.1h-3.7l.6.6h2.6v4.8M204.5 174.2h-3.7v-5.1l.6-.3v4.8h2.6M202 165.6l-4.1-2.4-1.3 2.3-.7.2 1.8-3.3 4.3 2.5M209.5 169.1l-1.9 3.2-4.3-2.4v-.7l4.1 2.4 1.3-2.3M207.4 163.2l1.3 2.3-4.1 2.3.6.3 4.3-2.4-1.9-3.3"/></g></svg>