<svg version="1" xmlns="http://www.w3.org/2000/svg" xmlns:xlink="http://www.w3.org/1999/xlink" x="0" y="0" width="468.4" height="534" viewBox="0 0 468.4 534" xml:space="preserve"><image overflow="visible" opacity=".3" width="457" height="521" xlink:href="D17D4790EF90AC50.png" transform="scale(1.025)"/><path fill="#E1E2E3" stroke="#55565A" stroke-width="3" stroke-linecap="round" stroke-linejoin="round" stroke-miterlimit="1" d="M394.4 426.7l.1-.3-.1-.5-.3-.5-.3-.7-.2-.5-.3-.1-.1-.2-.3.4-.5.8-.2.3-.3.4-.4.3-.5.6-.5.4-.1.6-.2.5v.5l.2.6.3.4.2.3.3.5.1.7.1.6.1.2.4.3.3.2.2.6-.1.9-.4.8-.7.7-.5.2-.6.1-.5-.2-.5-.3-.6-.4-.2-.3-.7-.6-.2-.3-.1-.6v-.5l-.2-.6-.3-.2-.4-.1-1-.2-.3-.2-.1-.5-.2-1.1-.2-.6V428l-.2-.5-.2-.2-.3-.1-.5-.4-.4-.2-.2-.2-.8-.8v-.5l-.1-.5-.1-.5-.1-.3-.3-.2-.3.1-.4.2-.5.1H379.3l-.3.1-.2.1h-.2l-.4.1-.2.3-.4.3-.5.1-.7.2h-.4l-.2.3.4.3.8.1.9-.1.8-.3.7-.2.8-.3h.8l.3.3.1.5.2.8.2.5.2.3.3.3.5.2.3.2.4.3-.1.4.2.6-.1.7v1.9l-.1.6-.4-.2-.4-.2-.5-.4-.3-.2v.5l.2.3.4.4.4.6.2.1v.2l.4.1.6.3.5.2.3.4.5.3.4.6.2.6-.1.3v.5l-.5.3h-.5l.1.4v.7l-.1.4.3.3.3.2.4.3.3.6.3.5.4.1.5.1.4.2.3.3.4.6.4.3.2.4v.7h-.5l-.4-.1-.5-.2-.3-.3-.1-.4-.1-.5-.3-.3-.5-.2-.5-.2-.6-.3h-.9l-.4-.2-.3-.5-.2-.5-.1.8.1.4.2.4.2.3.4.1.4.1.3.1.4.3.5.2.2.5.5.7.4.3.5.2.6.3.2.7v.7l-.1.6.1.4.3.3h.3l.5-.1.4-.2h.4l.2.2.1.4-.2.3-.1.4-.6.5-.3-.1-.3.3-.3.3-.2.1-.2.2-.3.4h-.3v-.4l-.1-.3-.1-.3-.4-.1v.6l.1.7-.2.5-.1.2-.9-.1-.4-.4-.5-.7-.4-.3-.5-.4-.6-.2-.7.3-.4.1-.3.1-.3-.1-.6-.1h-.3l-.3.1-.3.2-.2.2-.3.2-.4.2-.4.1h-.3l-.4.1-.4.1-.5-.1-.2-.2-.4-.4-.4-.5-.2-.1-.3-.1h-1.1l-.5-.1h-.6l-.4.3-.3.2v.4l-.1.5-.1.4.4.1.4-.5v-.5l.3-.2h.5l.6.1.7.1.2.4.4.5.3.3.3.1.5.1.4.1.5.1.3.2.4.3.3.2.6.1.7.1.5-.2.3.2.3-.2.3-.4.4-.2.2-.3.4-.2h1.2l.2.2.2.5v.4l.3.4h.4l.4.1h.2l.6.2.9.3.8-.2.4-.5.3-.7.4-.2h.6l.4.2.4.3.1.1.3-.1.1.7.1.2.1.2.1.3.2.3-1 1.3-.4.5-.6.7-.7.1.1.5-.4.4-.4.6-.4.4-.8.2-.5.6-.2.5-.5.2-.5.4-.2.4-.1.6.2.7.6.7.6.9.7.8.3.4.3.3.1.5-.1.1-.2.2-.3.1-.7-.5-.1-.3-.4.1h-.8l-.5-.2-.3-.2-.5-.3h-.4l-.6-.1-.3.2-.6.1-.3-.1-.1-.1-.2-.2-.1-.5.1-.5-.2-.4-.4-.1-.7-.1-.5.1-.3.1-.3.2-.5.7.4.4.4.2.2-.6v-.4l.4-.1.5.3.3.4v.5l.3.5.6.3 1.1-.1.1.3v.5l.2.5.4.2.6-.1.4-.2h.4l.5.1.2.5-.2.7-.4.2-.4-.1-.8-.1-.3.1-.3.3-.1.4.2.7.4.2.6.1.6.2.3.6.3.6.3.4.6.2.5.2.3.2.3.6.2 1.1v.9l-.1.8-.3.2-.2-.1-.2-.1-.2.1v.7l.2.7.1.8-.2.4-.3.2-.6.2h-.5l-.9-.1-.5.1-.1.2v.2h-.1l-.2.2-.1.3-.1.3.1.3-.1.2-.3.1h-.1l-.3-.2-.2-.2-.3-.2-.1-.2h-.3l-.3.2-.3.1h-.4l-.1-.2v-.2l-.1-.1-.1-.2-.2-.1-.4-.1-.6-.2h-.5l-.3.1-.2.2-.3.1h-.2l-.2-.3v-.5l-.2-.2h-.2l-.2.1-.1.3v.2l.1.3-.1.2-.1.1-.2.1-.2-.1-.1-.3-.2-.1-.1-.2-.2-.1-.3-.2-.2-.2v-.8l-.1-.2h-.2l-.2.1-.1.1-.1.2-.2.1-.1.1h-.2l-.1-.1h-.2l-.2.1-.2.2-.3.1-.2-.1-.3-.2-.1-.3V476.4l.1-.3v-.2l-.2-.1h-.2l-.2.1-.2.1-.2-.1-.1-.1.1-.2.2-.3.1-.2-.1-.2-.3-.1-.2-.1-.4.2-.3.1-.2.1-.3.1-.3.2V475.7l.2.1h.1l.2-.1.1-.1h.2l.1-.1.2.1.1.1v.4l-.1.1-.1.1-.3.1-.2-.1-.6-.2-.2-.1h-.2l-.2-.1-.2-.2-.2-.1-.4-.1h-.1l-.2.1h-.7l-.4-.1-.1.1h-.5l-.3-.1-.3-.1-.1-.1-.2-.3-.2-.3-.3-.2-.2-.2-.1-.1-.2-.1V473.8l-.1-.2-.2-.1-.3-.1h-.2l-.3-.2-.5-.3-.3-.3-.2-.1-.2-.1-.2.1-.2.1-.1.2-.1.4-.1.3-.1.3-.2.1-.2.1-.2-.2-.1-.2-.1-.2-.1-.2v-.3l-.1-.3-.1-.3-.2-.3-.2-.2-.2-.2h-.3l-.1.1h-.1l-.1-.1-.3-.3-.3-.4-.3-.1-.5-.1h-.4l-.2.1-.1.2h-.2l-.1-.1-.1-.1-.2-.2-.2.1-.2.1-.3.2h-.2l-.1-.2-.1-.1-.3-.1-.1.1h-.2l-.1-.1-.2-.1-.2-.1-.3-.2h-.7l-.2.1h-.3l-.1-.1-.1-.1-.2-.2-.1-.1-.2-.1H351.6l-.1-.1-.1-.3-.1-.2-.1-.3v-.2l-.1-.2-.2-.1-.2-.2-.1-.2v-.4l-.1-.2-.1-.1-.2-.2h-.1l-.2-.1-.1-.2-.2-.1h-.2l-.3.3.1.2.1.2.1.2v.2l-.1.1-.2.1-.3.1-.8-.2-.7-.1-.4-.1-.2-.1-.2-.2v-.1l-.1-.3-.1-.1h-.3l-.2.1h-.5l-.3.1-.3.2-.4.4-.2.2-.1.3-.1.3v.8l.1.2v.2l.1.3-.2.2-.2.4-.2.3-.1.3-.1.4-.1.3-.2.2-.3.2-.3.1-.3-.1-.5-.1-.4-.4-.3-.4-.3-.2-.2-.2-.3-.1-.3-.1h-.3l-.4.1-.4.2-.3.3-.1.2v.2l.2.5.1.3.2.3.3.3.1.3-.1.3-.1.2-.2.3-.1.1-.1.3-.1.1-.2.2h-.4l-.2.1-.2.1h-.1l-.1-.1-.2-.2h-.1l-.2.2-.1.2v.8l-.1.5-.1.3-.1.3v.7l.1.2.1.2.1.3.1.5.1.3v.3l.1.2-.1.3-.1.2-.2.3-.2.2-.1.2.1.2.1.1v.4l-.1.2-.2.2-.1.3-.2.3-.1.2-.2.3v.2l.1.3.1.2.1.2v.8l-.1.3v.2l.1.4.2.2.4.4.2.6v.4l.1.4.1.2.2.2.1.1.1.2v.3l.1.2.1.2.1.3.1.1.2.2v.4l.1.3.1.3.1.1.2.2.2.1.2.3.2.2.2.6.1.5.3.6v.8l.1.5v.9l-.1.2-.1.3v.2l-.1.7-.2.6-.1.3-.2.5-.1.5-.1.5v.6l.1.3.1.2.1.3v.5l-.1.3v.7l-.1.3v.6l.1.3v.3l-.1.2v.2l-.1.2v.2l.1.2v.1l-.1.3-.1.3-.2.2-.1.3-.1.3v.3l-.2.3-.1.1-.2.6-.1.2v.2l-.1.3v.2l-.2.2-.3.3-.1.1v.4l.2.4.1.4v.7l-.2.3-.2.2-.2.1-.2.2v.8l.1.3.1.4.1.1.1.4.2.5.1.4.1.5v.7l-.1.2-.1.3-.2.2-.2.2-.2.2-.2.3-.2.2-.3.2-.3.1h-.6l-.1.1-.2.1h-.2l-.1-.1v-.1l-.2-.2H333.7l-.3.1h-.4l-.2-.1H331.9l-.3-.1-.2-.2h-.1v-.1l-.1-.1-.3-.1h-.3l-.4-.1-.2.1-.3.1-.2.1-.1-.1-.2-.1h-.5l-.2.1-.2.1h-.5l-.2-.1h-.2l-.2.1-.2.2-.2.1h-.3l-.4.1-.2.1-.3.1-.4-.1h-.2l-.2-.1-.1-.2-.2-.1-.2-.1h-.2V516.9l-.1-.2-.2-.1-.2-.3-.1-.2-.1-.2-.1-.1h-.2l-.1-.1-.1-.1-.1-.3v-.2l-.1-.3-.2-.2h-.1l-.2-.2v-.2l-.1-.3-.1-.2-.1-.3-.1-.3-.1-.1-.1-.2v-.3l-.1-.3v-.2l-.2-.4V510l.1-.5.2-.5.1-.5v-.9l-.1-.4v-.9l.1-.3.1-.4.1-.4v-.5l-.1-.4-.2-.5-.2-.7-.4-.5-.5-.4-.3-.3-.4-.3-.2-.4-.2-.5v-.7l-.1-.3-.2-.1-.2-.3-.2-.2-.1-.2-.2-.3-.1-.3.1-.3.1-.4.2-.5.2-.4.1-.5.2-.3.2-.3.2-.2.3-.2.2-.2-3.8-.3-22.2-1.6-22.2-1.6-22.1-1.6-21.9-1.3-22.5-1.5-22-1.6-21.9-1.5-22.4-1.3-21.6-1.1-22.5-1.3-16.8-.8-1.1-.1H76.2l-.2.1H75.7l-.1-.2-.2-.3-.2-.4-.1-.3-.2-.4-.4-.3-.5-.4-.3-.4-.2-.5v-.4l-.2-.5-.3-.2-.2-.1-.3-.1-.4.1-.3.1h-.5l-.2-.4-.1-.5-.1-.3-.1-.2v-1.1l-.1-.4-.1-.4-.2-.3-.3-.5-.1-.3-.1-.3-.1-.2v-.4l-.1-.3.1-.4v-.4l-.1-.4-.3-.4-.1-.3-.1-.4v-1l.2-.4.3-.2.2-.2.2-.2v-.2l-.1-.3-.1-.2-.2-.2-.2-.1v-.2l-.2-.3v-.3l.2-.3v-.5l-.2-.2-.1-.1-.1-.2v-.3l.1-.4.1-.4v-.7l-.1-.2-.3-.2-.3-.3-.4-.5-.7-.9-.7-1-.2-.4-.2-.3-.1-.2-.1-.3-.2-.3-.2-.2-.2-.1-.3-.1-.2-.2-.1-.5.1-.7.1-.6.1-.3.1-.4-.1-.4-.1-.3-.3-.4-.3-.2-.4-.2-.6-.1-.2-.1-.2-.2-.1-.3v-.5l.1-.5.1-.5v-.5l-.2-.6v-.9l-.1-.5-.3-.8-.3-.6V443.4l-.1-.4-.1-.4-.2-.5-.1-.2-.3-.4-.2-.4-.4-.7-.3-.4v-1.5l-.1-.5-.2-.5-.2-.4-.3-.6-.2-.3-.2-.2-.3-.1-.3-.4-.3-.3-.2-.2-.2-.3-.3-.6-.2-.5-.1-.5-.3-.5-.4-.5-.4-.5-.2-.4-.2-.3-.3-.3-.5.1-.5-.1-.3-.1-.2-.1-.1-.4-.1-.3.1-.4v-.8l-.1-.2-.2-.3-.2-.2-.2-.2-.2-.3V426.1l.1-.4.1-.3.3-.3.2-.4.1-.2-.1-.4.1-.6v-.5l-.4-1-.4-1-.2-.6-.2-.5v-.4l-.1-.5-.2-.3v-.8l.1-.3.2-.3.4-.2.3-.1.4-.2.4-.3.2-.3.2-.6.1-.7.2-.7.1-.4.1-.7.1-.6-.3-.5-.1-.3.1-.4v-1l-.1-.4-.1-.4-.2-.3-.2-.3v-.7l.2-.3.2-.4.2-.4.2-.5.2-.6.3-.5.1-.6v-.5l-.1-.5v-.9l.2-.4v-.6l.1-.2v-.2l.2-.3.2-.1h.3l.1-.1.1-.5-.1-.4-.1-.8-.1-.7-.1-.7v-1.5l.1-.4.1-.6.2-.3.2-.3.1-.2.2-.2.1-.5.2-.5.3-.6.2-.4.2-.5.2-.2.1-.4-.1-.2-.1-.4.1-.3.1-.2.2-.4.1-.2.1-.4v-.4l-.1-.3-.4-.6-.3-.6-.3-.6-.1-.5-.2-.5v-.3l.1-.3-.1-.4-.1-.3-.1-.7.1-.6-.1-.6-.1-.4-.1-.3v-.5l.1-.3v-.3l-.1-.4-.1-.3-.1-.2-.3-.1h-.4l-.2-.1-.1-.2-.3-.4-.1-.1-.2-.2-.3-.1-.1-.2-.1-.3.1-.3.2-.3.2-.3v-.3l-.1-.1-.2-.2-.2-.1-.3-.2-.4-.5-.8-1-.9-.9-.5-.9-.4-.5-.2-.6-.1-.4-.1-.4v-.5l.2-.5.1-.5.2-.5.1-.5.1-.4-.2-.7-.1-.4-.1-.4-.2-.4v-.3l-.1-.3v-.8l-.1-.4-.2-.4-.2-.3-.3-.2-.3-.2-.1-.1-.1-.3.1-.3.1-.4.2-.4.2-.7.1-.7v-1.8l-.1-.3-.1-.3v-.4l-.2-.2-.1-.3-.1-.3v-.5l.1-.3.1-.3.1-.2.1-.3-.1-.3V354.5l.1-.3.1-.3.2-.4.2-.5.1-.3v-.7l-.2-.3-.2-.2v-.3l.1-.2.2-.1.4-.1h1.1l.2-.1.1-.2.1-.3v-.7l-.1-.2-.2-.1-.1-.1v-.2l.1-.2.2-.1.2-.2.2-.2.3-.2.1-.2.1-.3.2-.2.3-.2.3-.2.2-.2.2-.3.2-.3.3-.3V345.2l-.1-.4-.1-.5v-.5l.2-.3.2-.2.5-.2.3-.3.3-.3.1-.2v-.3l-.2-.3-.1-1v-.5l.1-.4.2-.7.2-.4.3-.3.3-.5.1-.3.1-.3v-.2l-.1-.3-.1-.3v-2.6l.2-.9.1-.6-.1-.3v-1.5l.3-.3.2-.3.2-.3v-.3l-.1-.4-.5-1.5-.4-1.7-.2-.7.2-.4.4-.2.5-.4.4-.4.4-.6.7-.8.4-.5.2-.3.2-.2.2-.3.3-.3.3-.4.2-.3.2-.3.2-.1.4-.2.4-.1.8-.4 1-.2.7-.3.3-.1.3-.2.3-.2V317.6l-.1-.1h-.2l-.3-.1h-.2l-.3-.1-.2-.2-.1-.3.1-.4.2-.2.2-.3.5-.3.7-.1h2.1l.8-.1.3-.1.1-.2.1-.3.1-.3.1-.4.1-.2.2-.3.2-.3.1-.3v-.1l-.2-.2h-.3l-.2.1-.1-.1-.2-.1v-.2l.2-.3.2-.1h.8l.3.1.2-.2.3-.1.2-.2.2-.3.1-.3.2-.2H72.9l.2.1.1-.1v-.2l-.2-.2-.3-.3-.4-.2-.5-.4-.9-.6-.7-.6-.5-.8-.5-.4-.4-.3-.4-.3-.5-.2-.6-.2-.8-.4-1.1-.5-1.1-.5-.9-.4-.5-.4-.2-.3-.1-.6-.1-.5.2-.6.3-.5.4-.4.5-.4.3-.2.3-.4.1-.3-.1-.3.1-.4.2-.2.2-.2.3-.1.3-.1.2-.1v-.1l-.1-.3-.3-.1H64.5l-.1-.2v-.3l.1-.3.2-.2h1.1l.2-.2v-.1l-.2-.2-.3-.2-.3-.3-.1-.5v-.4l.1-.4.2-.3.3-.2.4-.3.2-.3.2-.4.1-.4-.2-.4-.2-.3-.3-.4-.3-.2-.4-.1-.4-.3-.4-.3-.3-.4-.3-.4-.2-.4V286l-.1-.5-.1-.5v-.8l-.2-.6-.2-.5-.3-.5-.3-.2-.2-.3-.2-.3-.1-.3-.4-.3-.2-.2-.1-.1-.1-.3v-.1l-.2-.3-.3-.1-.2-.2-.4-.5-3-3.3-.5-.7-.5-1.3-.4-2.1-.3-.2-.1-.2-.1-.3.1-.4.2-.3.2-.2v-.1l-.2-.2-.2-.1h-.6l-.2-.2h-.2l-.2-.1-.2-.1-.2-.2.1-.3 1.3-1.3-.9-2.1-1.8-4.3v-.4l.1-.2.2-.2.2-.4.1-.5-.1-.4-.2-.4-.5-.3-.7-.3-.8-.1-.1-.3-.4-.9 1.7-1.8-.9-1-.6-.9-.3-.3-1.6-.9-.5-.6-.1-.4v-.3l.1-.4v-.6l-.2-.3-.1-.4.1-.3.2-.3.2-.2.2-.2.6-1-.8-.7-.5.1-.8-.1-.3-.2-3.8-22.5-3.7-21.5-3.2-20.8-3.4-20.6-3.5-21.2-3.4-20.9L21.9 98l-3.7-21.3-3.9-21.5-6.8-40.4 143.6-.3 87.3-1.5.2.4v.1l.1.1.2.2v.2l-.1.3-.1.2-.3.3-.3.3-.1.2-.1.2-.2.2-.3.2-.1.2-.1.3-.1.2v.3l.1.2.1.2-.1.1-.1.2.2.1.2.2.2.1v.3l-.2.1-.2-.2-.2-.1-.2-.1-.2.1-.1.2v.3l.2.2.3.3.2.1.2.2.2.3-.1.2-.1.1-.3.1-.2.1-.3-.1-.1-.3-.2-.1-.2.1-.1.2v.4l-.1.2-.2.1-.2.1-.2.2-.2.1h-.3l-.2-.1-.3-.2-.2-.2-.2-.1h-.2l-.2.2v1.2l-.1.2H233.2l-.2-.3-.2-.1-.3.1-.2.2-.2.2-.4.5-.3.2-.1.3-.1.3-.2.2-.2.2-.2.1h-.2l-.1.1-.2.2v.1l-.1.2h-.4l-.1.1v.8l-.1.2-.1.2h-.4l-.1-.1-.1-.3-.1-.1-.2-.1-.1.1-.1.2-.1.1-.2.2-.2.1-.2.1-.3.1H226.1l-.2.2v.2l.2.2.1.1v.3l-.1.1-.1.2H225.1l-.1.1.1.1.1.1.2.3v.2l-.1.2-.2.2-.2.1v.3l.1.3v.5h-.4l-.2-.2-.3-.2h-.2l-.3.1-.1.2-.1.2v.2l-.1.2-.2.3.1.3.2.1.1.2v.4l-.1.3v.3l-.1.2-.2.2-.3.1-.2-.1-.2-.1-.2-.2-.2-.1h-.3l-.2.1-.2.3v.1l-.2.1-.2.1-.2-.1-.3-.1-.1-.1-.1.1-.2.1v.3l.1.2.2.2.2.2.1.2-.1.2-.1.1-.3.2-.4.2-.3.2-.3.3-.3.3-.3.4v.7l.1.5.1.4v2l-.2.1-.2.1-.2.2-.2.3-.1.2-.1.1-.2.1-.2.2v.2l-.2.1-.1.2-.3.2-.2.1-.3.2-.2.3-.3.3-.2.4v.2l-.1.5.1.3.1.4.2.4.1.3.1.2-.1.2-.2.2-.1.3.1.2.1.1.4.1.2.1.2.2.2.3v.3l-.1.3-.1.3.1.2.3.1h.6l.5.2.2.2.2.2.3.2.3.2h.8l.2.1.3.2.2.4.1.3.3.5.5.5.7.3.7.5.8.4.6.4.6.3.4.5.3.4.2.4.2.4.3.3.4.2h1l.8.1.4.1.4.2.4.2.3.2.3.1.2-.1.4-.2H231.8l.7.2.4.1.1.1.1.2-.1.2h-.2l-.3.3-.1.3.1.2.2.2.3.1h.2l.3.2.1.1v.5l.1.2.1.2.6.2.3.2.3.4.1.2.1.4.1.2.2.3.3.1h.7l.2.2v.4l.1.1h.2l.1.1.2.1.3.2.1.1.4.4.1.3.2.4.1.3.2.4.3.1.3.1.3-.1h.3l.3.1.2.2.3.2v.3l-.1.2-.2.3v.2l.1.3.1.2.3.3.5.6.4.2.3.1h.8l.2.1.1.2.1.2.1.2.1.2.4.5.6.3.5.2.5.2.5.2.5.3.4.2.3.1.3.2.2.2.3.1.2-.1.4-.2.1-.1.2-.3.1-.2.4-.2.3-.1h.2l.3.1h.1l.2.1h.2l.2-.1.2-.2h.5l.2.1.2.1.2.2.3.2h.2l.4-.1.2-.2.3-.3h.8l.3.1.4.2h.5l.3-.1.3-.2.4-.2h.7l.5.2.7.3.6.4.2.3.3.3.1.3.1.2.1.2.3.3.2.1.2.2.2.5.2.3.3.9.2.9.1.5.3.5.1.3.1.4v.3l.1.4v.3l.1.3.1.3.2.3.1.4.1.5v.3l.2.4.2.3.1.3.1.3v.8l.1.6.1.2.1.2.2.2.2.2.3.2.3.2.5.3.5.4.6.5.3.3.2.4.2.4.2.4.2 1 .2.8.3.6.3.5.2.6.3.5.3.4.2.2.2.3.4.3.5.3.3.3.2.3.3.4.1.4.2.6.1.4.1.8.2.9.2.4v.4l-.1.5v.6l.1.3.1.2v.6l-.1.3v.2l.1.3.2.2.1.3.2.2.3.5.1.6v.4l-.1.5v.3l.1.3.2.4.2.3.1.4.4.7.1.6.3.5.2.2.2.2.4.3.3.2.4.1.3.2.4.1.3.1.2.2.3.3.2.2.3.2.3.3.2.4.3.4.4.9.4.6.3.4.3.3.4.2.3.3.2.2.1.3v.5l-.1.4-.1.4.1.5.2.4.3.3.3.2.3.1.3.1.2.1.2.3.2.3.2.3.2.3.2.3.2.2.2.2.2.3.2.3.2.2.3.3.4.3.1.2.1.3v.7l.1.4.2.6.3.5.5.8.2.7.2.6.2.4.1.4.2.3.2.3.2.4.1.4.1.3v.3l.2.4.4.5.4.4.3.2.3.2.5.1h.3l.4.1h.4l.4.1.4.1.4.1.4.2.3.2.2.4.3.4.3.3.3.6.4.5.6.8.6.5.8.7 1.1.9 1.5 1.1 1.1 1 .5.3.5.3.3.2.5.1.5.1.6.1.6.2.4.1.3.2.5.6 1.3 1.1.7.5h.4l.3.1h.3l.3.1.2.2.5.6 1.5 1.2 1.5 1.2.3.3.2.3.2.4.1.3v.5l.1.4.2.4.1.2h.3l.4.1.3.1.3.2.5.5.7.6.6.5.7.7.4.5.2.5.2.4.2.7.2.3.1.3v.4l.1.2.1.3.1.3v.3l-.1.3v.4l.1.4.2.5.3.4.3.4.4.3.4.4.6.6.2.3.2.3.2.3.2.2.2.2.1.2.1.3V159l-.1.6v.6l.1.5.2.4.3.9.2.3.5.6.6.6.5.2.4.1.4.1.4.1.3.1.2.2.3.3.1.4.2.3.4.4.2.2.3.2.3.2h.6l.4-.2.3-.2.3-.2.3-.2h.7l.3.1.3.4.3.2.2.3.2.3.3.2.3.2.4.1.4.2.4.2.3.3.5.3.3.2.3.2.5.2.4.2.3.2.2.3.4.4.3.4.6.7.3.5.3.3.3.2.5.4.2.1.2.3v.2l.1.2.2.2.2.2.3.3.2.4.2.3.2.3.3.5.1.3.1.3v1l.2.3.3.2.3.2.2.1.5.1.4.2.4.1.4.1.4.2.3.2.3.2.3.1.3.1.3.2.3.1.3.2.4.1.2.3.3.2.2.4.2.6.2.4.3.4.2.3v.6l-.1.2-.2.2-.3.1-.4.1-.3.1-.2.2-.1.1v.2l.1.2.2.4.2.3v.5l-.1.3-.2.2-.2.1h-1.1l-.2.2v.2l.1.3.2.2.3.2.2.1.2.3.1.3-.1.4.1.3.2.5.2.3.2.3.1.2-.1.3-.1.2-.2.1-.3-.1-.3-.1-.2-.2-.2-.1h-.2l-.3.2-.1.3.1.3.3.3.3.2.3.4v.3l-.1.4-.1.3-.1.2.1.1.2.1.2.1.4-.1.5-.1.1.1.2.1.1-.1.2-.1.3-.1.3-.1.2.2v.1l-.3.2-.2.1-.3.2-.1.3-.1.2.2.2.2.2.3.1.1.1.2.2v.2l-.1.2-.1.2.1.2.2-.1.1-.2.1-.2v-.3l.1-.4.2-.3h.3l.1.1.1.3-.1.3-.1.2.1.3.2.1.3.1.2.1v.1l-.1.3.1.1h.2l.3-.1h.2l.1.1v.6l-.1.2.1.3h.3l.3-.1.1-.1.2-.3.2-.2h.3l.2.1.1.2v.2l.1.2.2.1h.1l.2-.2.2-.2.2-.1.3.1.2.3.1.2-.1.2-.1.2v.2h-.1l-.1.1-.2-.1h-.2l-.2-.1H353.4l-.1.2v1l.2.1.4.3h.4l.3.1.2.1.1.3.2.3.2.1.2.1.1.1.1.2v.4l-.1.2.2.1.2.1.2.1.1.1.1.3-.1.1-.2.1h-.2l-.3-.1-.2-.2-.1-.2-.2-.2-.2-.1h-.2l-.1.2-.1.1.1.2.2.2.2.2.1.1.1.2v.1l-.2.1H354.4l-.2.1V203.5l.2.3.1.2.3.2.3.3.5.3.5.3.3.4.3.3.5.1.3.1.3.1.3.2.1.3v.3l.1.4.2.1.1.1.3.1h.2l.5.2.7.2.4-.1.2-.2.1-.2-.1-.3-.1-.3v-.2l.2-.2h.2l.3.2.2.2.3.3.1.3.1.3.1.2.2.3.2.2.1.2.1.3.1.3-.1.2-.1.2-.2.2-.1.1-.2.1-.2.2-.1.1.1.2v.2l-.1.1-.1.1-.1.1v.2l.1.2.2.6.2.6.2.6.3.4.4.5.6.6.7.5.5.5.5.4.3.3.2.3.3.2h.2l.2.1.4.2.2.2.2.2.3.1.3.2h.5l1 .3.9.4.8.3.5.3.4.4.4.4.3.2.3.2.3.1.3.1.3-.1h.4l.5-.2.8-.1h.4l.3.1.2.2v.3l-.1.2-.1.2-.2.2v.2l.1.2h.1l.2-.1.2-.1.2-.3.1-.1h.2l.2.2.1.1v.4l-.1.2-.2.1-.1.2.1.1.2.1.1.1h.8l.2.1.2.1.1.1.1.2.2.2.2.1h.1l.1.2v.2l.1.3.2.2.2.2.2.1.1-.1.1-.1v-.5l.2-.1.2.2.2.1.2.4-.1.2v.1l-.2.1-.2.1-.2.1.1.3.2.1.2.1.5.1.3-.1.2-.2.2-.2h.3l.1.1.1.3.3.3.2.1.2.1.2-.1h.1l.3.2v.2l.1.2.2.2.3.2.4.2h.3l.2.1V227.8l-.2.1h-.1l-.1.2v.2l.1.1.3.2.1.1v.2l-.1.2v.2l.2.2.1-.1.1-.2.2-.1h.3l.1.1.2.1.2.1.2.1h.2l.1.2v.2l-.2.1-.3.1-.2.1-.1.1v.2l.1.1.2.1.3.1.1.3v.2l-.1.2-.1.3-.1.4-.1.4-.1.4-.1.8-.1.4-.1.3-.1.1h-.2l-.2-.1-.1-.2-.1-.2H385.7v.5l.1.7.1.4.3.4.3.2.1.2.1.2-.1.3-.1.2.1.3.2.3.2.2.3.3.4.3.3.2.1.1.1.3-.1.1-.1.1v.4l.2.1.1.2.1.1.1.3v.9l.1.3.1.1.1.1h.2l.1-.1.1-.2.1-.2h.4l.2.1.1.2.1.2V242.2l-.2.1h-.5l-.2.1-.1.1-.3.3-.1.4-.1.2.2.2.2.2.2.1h.3l.1-.2h.5l.1.3.2.1.3.2.2.1.2.1.1.2.1.2-.1.4v.2l-.2.4-.1.4-.2.3-.1.3v.4l.1.1.1.1.2-.1.2-.2.2-.2.2-.2h.3l.1.2.1.2v.6h.2l.3-.1.3-.1.3.1.2.1.2.3.2.3.2.3v.4l-.1.1-.2.1-.2-.1-.1.1-.1.1.1.2.2.1.2.2v.2l-.1.2-.1.1.2.1.2.1.1.1v.2l-.3.3h-.1l-.2.2v.2l.1.2v.4l-.1.2-.1.1.1.1.2.2.2.3v.1l-.1.2-.1.1-.1.2-.2.2-.1.2v.1l.1.2.2.1h.5l.3.2v.4h-.3l-.2.1-.4.1-.2.1-.1.1.1.2h.5l.2.1.2.1v.2l.1.2h.2l.2.1.1.2v.2l.1.1.2.1.1.1v.1l-.2.1-.3.1-.2.1-.3.1-.1.2v.1l.2.1h.8l.2.1.1.2v.2l-.1.2-.1.1-.2.2-.1.2v.1l-.1.2-.1.1-.2.1v.6l.2.2.2.1v.2l-.2.2-.2.2-.1.1.1.2.1.2v.2l-.3.2h-.3l-.2.2-.2.3v.3l.1.2.1.1.3.2.2.2.2.2h.5l.3.3.1.3v.3l.2.3.2.3.1.2.1.2-.1.3-.2.2v.3l.1.3.2.2.2.2v.2H395.9l-.1-.2h-.3l-.2.2.1.3.3.1h.3l.3.1.1.2.1.3-.2.3-.2.2-.2.2-.3.3-.4.1-.5.3-.2.3-.1.2-.1.4.2.3.1.2.2.3.2.3.3.3.5.6.3.5.4.4.2.4.3.3.2.3.4.4.2.1.2.1.1-.1.2-.1.2-.1.2.1.1.2.2.2.1.1.2.1-.1.4v.2l.2.1h.1l.2-.2.2-.1h.3v.5l-.1.2.1.2.2.1.4.2.7.5.7.2.8.2.6.1h.8l.5-.2.2-.1.2-.1.2.1v.5l.1.2h.2v-.2l.1-.3.1-.1.2.1.1.2v.4l.1.1.1.1.2-.1.2-.2.2.1.1.3v.4l.1.1.2.2v.2l-.1.3v.4l.1.3.2.2.3.3.5.4.8.6.5.2.3.2H411l.2.1.2.3v.2l-.1.3-.1.2v.5l.1.3.2.2.7.8 1 1.1 1.2 1.1.4.4.3.1h.2l.2.1.2.2-.1.2-.1.1h-.2l-.1.3.1.2v.1l-.1.1-.2.1-.3.1h-.2l-.2.2-.1.2v.1l.1.2.2.2.1.1-.1.2-.1.1-.3.2-.2.3v.4l.1.4.1.5.3.6.4.6.7.9.7.9.3.4.1.4.1.2-.1.4-.1.3-.1.2.1.3.3.3.2.2.3.4.1.2v.4l-.1.1v.1l.1.2.2.2.2.1.1.1.1.2v.3l.1.2h.2l.2.1.1.2-.1.1-.1.2V302.1l.2.1.2-.1.2-.2.2-.2.1-.3.1-.2.2-.1.2.1.2.2.1.2.2.2.3.3.3.1.2.3-.1.3-.2.1-.2.3-.2.3v.2l.2.1.1.1.1.1.1.3.1.3v.6l-.1.3v.4l.2.1H421.4l.1.2v.2l.1.3v.3l.2.8v.3l-.1.2-.1.2-.1.1-.2.1v.2l.1.2v.2l-.2.1h-.2l-.2.1-.1.2v.1h-.4l-.2.1v.2l.1.2-.1.2-.2.1h-.2l-.2.1-.2.3-.1.3v.3l.2.2v.1l-.1.2-.3.2-.2.1-.2.3-.1.2v.4l.2.2.2.1.3.4.4.3v.2l-.1.2-.1.2-.2.1h-.1l-.2.2.2.2.1.1h.2l.3.1.2.1.1.2.1.2.2.2.2.2.2.1.2.2.2.2.2.4.2.3v.1l.1.2.2.1h.4l.1.1v.2l-.1.1-.3.1-.2.1v.2l.1.2.2.2.1.3.1.1.1.3.2.1.1.1.1.3-.1.1-.2.2h-.2l-.3-.1h-.3l-.4.1-.2.2-.1.3v.2l.2.1.2.1v.2l.1.2.1.2.2.3.1.1h.2l.1.1.1.2V323.3l-.2.1-.2.2-.2.3-.1.3v.2l.2.2.1.4.1.3.1.4-.1.3v.4l.1.2.2.2.2.2.3.1.3.1h.8l.3.1.2.2.2.2.2.2.1.2.3.3.5.5.4.3.4.2.2.2.4.1.2.1h.6l.3-.1.3-.2.3-.3.6-.2.7-.3.7-.2.6.1h.9l.6.1.4.2.3.3.2.4.2.3.2.5.3.3.6.4.6.3.8.2.5.2.4.4.4.4.5.5.3.3.4.3.2.1.5.1.6.1h.2v.1l.3.4.6.1h.4l.6-.1.4.2.3.6.5.8.1.8.1.4h.9l.7-.2.4-.1.5-.3.4-.1h.5l.3.4.1 1.4-.1 1-.2.8-.5.4-.1-.4-.1-.8h-.7v.3l.2.5.2.7.3.7-.2.4v.3l-.3.3-.3.3-.6.4-.5.2-.8.8-.7.3-.5.1-.3-.1-.8.2h-.2l-.5.4-.8.5-.4-.2v-.3l.3-.4.2-.3-.5-.4-.1-.2-.2-.2-.2-.1.3-.5.3-.2.2-.2.2-.4v-1.5l-.2-.7-.1-.9.1-.7.1-.3-.2-.5-.4-.2-.5-.2-.4-.3-.2-.5-.3-.4-.6-.1-.6-.4-.6-.2h-.1l.1.4.5.4.7.4.4.3-.1.5v.4l.6.5.6.1.2.3v.6l-.1.4v.7l.1 1 .2.7-.2.4-.3.5-.5.3-.7-.2-.5-.2-.2-.2-.5-.2-.2.3.3.3 1.2.5-.1.4-.4.5-.5.3-.2.4-.3.2-.4.5-.4-.2-.5-.7-.3-.3-.3-.1-.4-.1-.4-.2-.4-.1-.3-.3-.1-.4-.2-.7.1-.4.3-.6.3-.9-.1-.4-.1-.6v-.4l-.2-.4v-.4l-.2-.2h-.2l-.5-.5-.5-.5-.7-.5-.3-.2h-.4l-.3.1v.1l.1.3.5.2.5.2.3.5-.1 1.1.2.1.4-.3h.1l.2.2.3.3.1.5-.1.6-.4.4-.2.6-.2.7.1 1 .2.6.2.3.5.5.7.3.7.4.6.8-.3.5.5.3.5.3.3.5.6.5.9.5.6-.2h1l.8.3.2.2-.9 1-.7.8-.6.5-.7.5-.9.6-.7.7-.7.7-.7.8-.6-.1v-.6l-.1-.4-.4-.1-.4.1-.6.2h-.5l-.9-.6-.6-.4h-.8l-.7-.1-.6-.1-.5.1h-.6l-.2-.6-.3-.4-.5-.5-.3-.5-.5-.3-.4-.6-.3-.7-.2-.7-.1-.4.3-.4-.5-.2-.4-.3-.3-.2-.2-.6-.1-.4-.5-.3h-.6l-.5-.2-.1-.6.2-.2.4-.7.1-.7-.5.2-.5.5-.3.6-.2.8.4.7.7.4h.7l.3.4.4.7.2.4.3.7.4.7v.7l.1.6-.4.2h-.7l-.4-.2-.3-.2-.5-.5-.4-.7-.2-.3-.1-.5-.4-.6-.3-.4-.2-.4v-.3l-.1-.5-.5-.2-.7-.1h-.3l-.3-.6-.1-.4-.3-.6-.4.1h-.4l-.4-.2-.3.2.2.5.4.3.4.4.3.5.4.5.5.3.5.1-.2.1h-.7l-.8-.3-.7-.1h-.5v.4l.4.4.5.1.7.2h1.1l1.3.2.2.5.1.9v.7l.4.9.9.6 1 .3.8-.2.6-.1.7.2.5.6.2.8-.4.9h-.5l-.9-.4-.5.1-.5.3-.7.3h-.7l-.6-.4-.6-.4-.5-.6-.6-1.4-.3-.7-.7-.8-1-.6-.8-.2-.8.4-.6.3-.4.2-.1-.2.2-.3.5-.6.4-.7.1-.5-.4-.5-.4-.3h-.1l-.5.2-.4.6-.8.7v.1l-.7.7-.5.5-.3-.1v-.6l-.2-.3-.4-.3-.5-.1h-.6l-.3-.2.3-.8.2-.4.2-.4-.4-.1-.3-.2-.4.1-.5-.2v-.7l-.2-.6-.6-.2h-.7l-.1.3.3.3.5.3.1.7v.6h.5l.3.1.3.1v.4l-.2.6v.7l.9.2.7-.1.6.1v.9l.1.7.5.4.5-.2.5-.5.4-.6.5-.8.6-.7.5-.4.4.3-.1.4-.3.5-.6.4-.5.4-.1.6v.4l.6.1.6-.2.7-.5.9.2.6-.1.7.1.4.7.3 1 .2.6v.5l.1.5.6.5.4.1.6.3.1.2.2.2.2.1.2.1h.5l.7.1h1l1.2.2.6.3.2.1.2.2.2.2.1.2.2.1.1.2.1.1.1.1v.2l.4.3.5.2.4.1.3.4.3.3.5.3h.4l.2-.5h.5l.4.4.3.3v.3l-.3.5-.4.7-.3.7-.3.7-.3.8-.3.8-.6.8-.7.4-.9.4-.4.2-.6.3-.6.6-.7.6-.6.7-.8.9-.8.7-.5.2-.4-.1-.4-1-.2-.5-.3-.7-.4-.7-.3-.2-.1-.1-.5-.2-.3-.5-.2-.3.1-.5.1-.5.3-.5.2-.4-.1-.5-.1-.4-.2-.3-.2-.1-.1-.2-.1-.2-.3-.5-.2-.1h-.2l-.1.1-.1.4.1.5.3.2.3.3.2.6-.2.3-.5-.1-.5-.1-.5-.2-.4-.3-.3.1.3.5.7.5.3.5.2.8.2.6.6.6.5.6.2.6-.2.6-.1.5-.7.2-1.5-.6-1.1-.4-1-.8-.6-.4-.2-.2-.1-.1-.5-.1-.5-.2-.4-.1-.5-.1-.5-.1-.5-.2-.5-.5-.4-.4-.1-.4-.1-.8-.1-1-.1-.6-.7-.4-.7-.3-.8.1-.9.1-.7-.3-.3-.6-.3-.1-.1.2-.1.5.2.5.4.4.5.2.8.1.8-.1h.8l.4.4.1.6-.1.6-.2.8.1.6.2.6.4.3.3.1.5.3.6.2.4.1h.5l.3.2.7.2.4.2.5.5.3.3-.1.4.3.3.5.3.7.4.5.4.5.4.5.5.3.3-.1.7-.3.7-.3.4-.4.5-.4.4-.6.2-.8-.4h-.1l-.7-.3-.4-.2-.6.1-.4.2-.5.3-.3.2h-1.8l-.4.3-.1.2v.2l.1.3v.2l.3.2.7.3.4.4.5.1.6.1h1.1l.5-.1H412.7l.7.1.8.1.1-.1.3-.2.5-.4.4-.1h.5l.6.2.4-.2.4-.4-.2-.2h-.2l-.4.1h-.8l-.7-.1-.2-.3.4-.6.2-.2h.1l.7-.5.5-.3.7-.2h.8l.1-.5.5-.4.5-.1.6.2.4.3.2.5-.2.7-.1.6.2.7.1.6.1.7.1.6-.1.6-.1.6-.1.4h-.5l-.3.1.1.4.3.4h.4l.3.2v.6l-.3.6-.3.7-.4.7-.3.6-.5.7-.2 1-.3.5-.3.6-.2.7-.6.9-.6.6-.4-.1-.5-.9-.1-.5-.2-.5v-.8l.3-.5.2-.6-.1-.5-.1-.6-.1-.4-.2-.4-.2-.4-.3-.5-.2-.2-.2-.3-.2-.1-.2.1-.2.2-.2.2-.2-.1-.3-.1-.3-.4-.1-.5-.1-.5-.2-.3h-.1l-.4-.2-.5-.2h-1.1l-.5.2-.3.1-.2.4.1.6.3.2.5.3.6.1.4.1.2.3.2.4-.2.6-.1.3-.1.5.2.2.3-.1.3-.3.3-.3h.2l.1.1.3.4.2.2.4.2.4.1.2.3-.1.7v1.1l-.1.5-.6.6-.4.5-.2.2-.5.1-.5-.1-.4-.1-.2-.2-.2-.1-.2.2.2.9H410l-.4-.2-.3-.7-.1-.6-.3-.5-.3.1-.1.2.1.2.1.6.1.4.1.8-.4.1-.6-.5-.2-.3-.2-.4-.3-.3-.8-.2-.5.2-.5.3-.6.3-.4.4-.2-.1-.1-.2v-.3l.1-.5-.1-.7-.1-.4-.4-.1-.4.4-.2.6.2.7-.1 1.1-.5-.2-.4-.1h-.5l-.4.2-.4.3-.4.3-.4.1-.3-.1-.4-.2-.3.1v.2l-.1.3.1.4.2.3.4.1.3-.1.3-.3.3-.3.4-.3.3-.2h.8l.3.1.3.2.1.2-.1.4.4-.2.2-.1.9.4.3.2.5.6.1.2.2.2.1.2h.6l.4-.2.3-.1.2-.3.3-.3v-.1l.3-.2h.2l.4-.1.8.6-.1.6-.3.8-.6.3-.5.4-.3.1-.1.3-.3.3-.5.3-.4.3-.2.3v.4l-.3.3.1.1.2.1 1.1-.4.6-.3 1.2-.2.9-.8.3-.6.5-.7.2-.7.3-.7.5-.2.2.1.2.2.4.1.6-.1-.2.3-.4.7.2.1.4.1H412.9l.2-.1v-.2l-.1-.3-.1-.4.2-.3.5-.5h.2l.5-.5h.4l.4.2.4.3.6.6.4.4.4.3-.3.4-.4.2-.3.3-.3.5-.4.6-.1.5-.4 1.1-.3.6-.2.5-.7.9-.8.9-.1.3-.2.3-.5.4-.4-.2-.1.3.1.6.2.4-.1.2-.4.4-.4.5-.5.6-.6.9-.6 1.2-.4.8-.3 1.2-.5.5-.3.3-.4-.2-.2-.1-.3-.2-.2-.3-.2-.5-.3-.6-.2-.3-.6-.7-.1-.4.1-.4-.3-.1-.2-.2-.1-.4v-.6l.1-.5-.2-.8-.3-.2-.1.1-.3.4-.1.2-.6.2-.6-.2-.5-.6-.4-.8v-.3l-.3-.2-.4.4.1.5-.2.5v.1l.1.3.4.3.2.3.1.2h.1l.3.1.5.2.3.2.3.6.3.7-.5.6-.8.3-.3.1-.1.6.1.9-.3.2-.2-.2-.1-.3-.4-.4-.2-.4-.3-.2-.3.1-.2.1h-.1l-.4.2-.8.2-.3.1-.1.4.1.5-.1.7.1.3.4-.2.2-.1.2-.3h.4l.2.2.3.1.5.2.5.2h.6l.2-.1.1-.1.3-.1.3-.6.2-.4.5-.2.4-.1.5.5.4.5.4.4.4.1.4.3.1.3-.3.3-.7.1-.1.1v.4l.2.5-.1.3-.3.4.1.4.3.4.3.2.4-.1.3-.3.2-.7v-.8l.2-.5.3.2.2.4v1.1l-.1 1.2.1.6.1.5-.1.3-.1.2-.4.1-.2-.1-.3-.1h-.2l-.2.1h-.5l-.3-.1-.3-.2-.2-.2-.4-.3-.2-.1-.2-.2-.5-.7-.1-.1-.3.2-.1.5-.3.1-.3-.1-.5-.1-.5-.1-.4-.2h-.4l-.8-.1-.7-.2h-.7l-.7-.1h-.8l-1-.1h-.9l-.7.1-.6-.1-.2-.3-.3-.4-.3-.3-.1-.4-.4-.6-.3-.5-.4-.3-.3-.2-.4.1-.5.3-.2.4-.6.2-.3-.1-.3.1-.1.2v.2l.1.1.1.2v.2l.2.1.1.1.4-.1.8.2.4.1.5.1.5.4.4.3.5.5.2.2.3.1.8.3.6.1.4.1.4.2.8-.2.5-.1.5-.1h.6l.4.3.3.8-.5.2-.5.3-.6.5-.5.4-.8-.6-.2.2.2.6.1.6-.2.4-.1.3v.1l.3.1.4.2.5.3.3.5.1.6v.8l-.2.7.1.2.4.1.3-.1h.1l.3-.5.1-.6-.2-.6-.1-.5-.2-.3-.1-.4-.2-1.5.2-.3.3-.4.4-.3.5-.3.3-.1.1-.1.6.1h.3l.6.1h.6l.5.1.4.3.3.3.6.4.5.1.7.1.3.5.5.5.9.4h.5l.6.2.7-.3v.3l-.3.3-.1.2-.3.2-.1.7v.8l.7.1-.1.7.4-.2.3-.2.2-.4.1-.1h.3l.2.2.2.4-1.1.6-.2.1-.3.2-.3.3v1.3l-.1.2-.2.4-.3.3-.1.2-.1.7-.1.6-.4.1-.3-.2-.2-.1h-.1l-.3.2-.4-.2-.2-.3-.2-.6-.3-.4-.3-.5-.3-.6-.4-1-.2-1.4-.2.2-.1.3-.3 1.7.5.3.3.5.2.5.5 1.1.5.6.5.5-.7.5-.2.5-.8.7-.8.8-.6.7-.6.9-.6.9-.4.5-.3-.4v.1l-.1-.6-.3-.2-.2.7.3.8.2.8-.3.5-.7.6-.7.6h-.4l-.7.2-.3-.1-.5-.2-.3-.1-.3-.2-.2-.4-.3-.2-.1-.3-.1-.5-.1-.7.2-.4.3-.4.3-.4v-1.2l-.1-.3-.2-.3-.2-.6v-.3z"/><path fill="none" stroke="#FFFFFE" stroke-width="2" stroke-linecap="round" stroke-linejoin="round" stroke-miterlimit="1" d="M142.5 14.9c-.9.4-1.8.9-2.4 1.7-.6.8-.8 1.9-.3 2.7.4.5 1 .8 1.5 1.1 1.2.7 2.2 1.6 3 2.7.6.9 1.1 1.9 1 3-.1 1.5-1.3 2.7-2.2 3.9-.9 1.3-1.4 3.1-.2 4.2.8.7 2 .7 2.9 1.3 1 .7 1.3 2 1.3 3.2 0 3.2-1.7 6.2-3.5 8.9-1.9 2.9-4.2 5.8-7.3 7.5-1.5.8-3.2 1.3-4 2.8-.2.3-.3.7-.6 1-.3.2-.7.3-1.1.3-1.1.1-2.2-.1-3.2-.5-.6-.2-1.2-.6-1.8-.3-.8.3-1 1.3-1 2.2 0 2.7.3 5.4.9 8 .1.4.2.8.4 1.1.8 1.2 2.7.8 4.1 1.4 1.1.5 1.8 1.7 2 2.9.2 1.2.1 2.4-.1 3.6-1.3 9.8-.1 20.3-.1 30.1 0 .9 0 1.8.5 2.6s1.5 1.2 2.5 1.6c3 1.1 6.1 2.3 9.1 3.4.7.3 1.8.2 1.7-.5 0-.4-.5-.6-.8-.9-.8-.8-.5-2.2.2-3s1.7-1.5 2.2-2.5c.5-.8.6-1.9 1.3-2.5.8-.7 2.1-.6 3.2-.4 2.7.4 5.5.9 8 2.1 1 .5 1.9 1.1 2.8 1.6 3.7 1.7 8.6.5 11-2.8.6-.7 1-1.6 1.6-2.2 1.3-1.4 3.4-2 4.9-3.2.8-.7 1.5-1.6 2.2-2.5 1.4-1.9 2.9-3.9 4.3-5.8.9-1.2 2.3-2.6 3.7-2.1 1.2.5 1.5 2 2.4 2.9 1.3 1.4 3.6 1.1 5.5.7.7-.2 1.3-.3 2-.2.6.1 1.2.4 1.8.7 1.6.9 3.1 1.9 4.5 3.1 1 .8 2.4 3 3.8 2.8.8-.1 1.6-.7 2-1.4.5-.7.8-1.5 1.3-2.2 1.2-1.7 3.2-2.8 5.2-2.9 3.5-.1 6.8 2.5 10.2 1.7 1.9-.4 3.5-1.9 5.4-2.4.2-.1.4-.1.7 0 .3.1.5.4.6.6 1.3 1.9 3.6 3.1 5.9 3.2 1 0 1.9-.1 2.9.1.9.2 1.9.9 1.9 1.9 7.8-1 14.3-6.5 21.7-9.1M32.2 158.7c7.5-1 14.9-2.7 22.1-5 .9-.3 1.8-.6 2.5-1.2 2.8-2.1 2.3-6.2 2.9-9.6 0-.3.1-.6.3-.8.2-.2.5-.2.8-.2 5.6-.4 10.7 3.6 16.3 4 2.7.2 5.5-.4 8.1-1 .6-.1 1.3-.3 1.7-.8.4-.4.6-1 .7-1.5 1.2-4.8 1.8-9.7 1.6-14.6 0-.6-.1-1.2-.4-1.7-.3-.4-.8-.6-1.2-1-.5-.5-.6-1.3-.6-2-.2-2.8.2-5.7 1.2-8.4.1-.4.3-.8.6-1.1.5-.5 1.3-.5 2-.6 7.5-.4 15.1-.3 22.7.1.9.1 2 .1 2.7-.6.5-.5.7-1.1 1.1-1.7 1.3-2 4.7-2 5.6-4.2.4-1.1-1.1-4.7-1.1-4.7s2.4-.6 3-1c2.1-1.2 4.4-.8 6.8-.5"/><path fill="none" stroke="#FFFFFE" stroke-width="2" stroke-linecap="round" stroke-linejoin="round" stroke-miterlimit="1" d="M73 145l-1 21.6 7.7 1.3-1.5 6.2 20.9.6 15.1-4.5 2.2 6.1 3.3 2.1V191l3.9-7.8s4.3-1.2 4.3-1.7c0-2.4-.7-4.3.3-6.4.4-.8 1-1.5 1.3-2.4.5-1.4.1-3 .7-4.3.3-.7.9-1.2 1.1-2 .2-.8-.2-1.7.2-2.5.2-.5.6-.9 1.1-1.2 1.2-1 2.6-2 4.1-1.7 1.4.3 2.3 1.5 3 2.7.6 1.2 1.1 2.6 2.1 3.6 1.5 1.4 3.7 1.7 5.6 2.4 2 .6 4 2.1 3.9 4.1 0 .6-.2 1.2.2 1.6.2.2.4.3.7.4 2.2.7 5 .4 6.5 2.2.6.7.8 1.7 1.3 2.5.6 1.2 1.7 2 2.6 3.1 2.3 2.8 3 6.5 4.5 9.8.5 1.1 1.1 2.1 1.8 3 .5.7 1.1 1.3 1.5 2 1.5 2.5 1.1 5.6.7 8.4-.1.4-.1.8-.4 1.1-.4.4-.9.4-1.5.4-6.4-.2-19-.1-19-.1v28.1h-7.1v15l-6.6 11.5c-.9-.5-1.5-1.4-2.4-2-4-2.3-8-4.7-11.9-7-1-.6-1.9-1.2-2.5-2.1-.7-1.1-.8-2.6-1.8-3.5-1.7-1.4-4.8-.2-6.2-1.9-.6-.8-.5-1.9-1.1-2.7-.7-1-2.2-1-3.3-.5-1.1.5-1.9 1.5-2.8 2.3-.9.8-2 1.6-3.2 1.5H90.1l-5.4-3.3-38.7-.1"/><path fill="none" stroke="#FFFFFE" stroke-width="2" stroke-linecap="round" stroke-linejoin="round" stroke-miterlimit="1" d="M170.1 109.1l-3.3 12.1 6.7 8.2-17.1 15.3 20.5 16.5c1.4 0 3.1-.3 4.2.7s1.7 2.3 2.1 3.7c1 3.1 1.2 6.4 1.4 9.7 0 .3 0 .7-.1 1-.2.4-.6.5-1 .6-2.1.7-4.3 1.4-6.3 2.3-5.2 2.6-9.2 7.5-10.5 13.1M184.6 174s11.8 9.4 12.4 9.4c.6 0 22.6-4.7 22.6-4.7s11.2 11.9 11.5 12.1 16-13.6 16-13.6c1-2.2.2-4.6-1.1-6.6-.8-1.2-1.8-2.5-1.4-3.9.2-.8.8-1.4 1.3-1.9 1.7-1.9 2.9-4.1 3.7-6.5.2-.6.4-1.3 0-1.9-.7-1-2.9-.6-3.1-1.8 0-.3 0-.5.2-.8.9-1.7 3.7-2.2 3.7-4.1 0-.6-.2-1.1-.4-1.6-.6-1.7-.8-3.6-.3-5.3 1-3.9 3-7.7 6.1-10.2 7.7-6.3 17.3-10.9 27.3-10.6 1 0 2 .1 3 .3M136.1 262.2c.2 1.6 2.1 2.4 3.7 2.5 1.6.1 3.3-.1 4.7.6 1.8.9 2.7 3.1 3 5.1.3 2 .4 4.1 1.4 5.9 1.3 2.4 4 3.8 5.5 6.1.2.3.4.7.6.9.6.6 1.5.8 2.4 1 2.7.5 5.5.9 8.2 1.4.9.2 1.8.3 2.4 1 .4.4.5 1 .6 1.6 1 5.8-2.4 12.1 0 17.5-6.2 2.2-11.7 6.4-15.4 11.8-.4.6-.8 1.2-1.4 1.5-.9.5-1.9.2-2.9 0-2.6-.6-5.1-1.2-7.7-1.8.1-1.2-.1-2.5-.6-3.6-1.6.1-4-.3-3.7-.3M136.6 313.4v8.1h-22v25.8h-15l-2.5 15.2 4.4 1.8 2.9 10.6c-.4 2.6-3.4 3.7-5.9 3-1.1-.3-2.1-.8-3.2-.6-1.1.1-2.1.8-3.1 1.3-3.8 1.9-8.4.5-12.6 1-.5.1-1.1.2-1.6.5-1.6 1-1.2 3.4-.5 5.1.8 1.7 1.7 3.7.8 5.3-.8 1.5-2.8 1.9-4.6 2-5.5.5-11 1.1-16.5 1.6M168.6 305.9h21.5v48.8h37.4c2.1 0 4.7.7 6.3 1.9 1.7 1.2 3.1 2.7 5 3.6 1.8.8 3.9 1 5.5 2.2 2.5 1.8 3.1 5.3 2.5 8.3s-1.9 5.8-2.4 8.8c-.4 2.5-.3 5.1-1.2 7.5-.8 1.9-2.2 3.5-3.6 5.1-1.7 1.8-3.4 3.7-5.1 5.5-.7.8-1.5 1.7-1.2 2.8.5 2.2 1.4 4.3 2.9 5.9s3.4 2.9 4.7 4.7c3.4 4.6 2.3 11 1 16.6 2.7.1 5.5.1 8.2.2-.3 9.1.3 18.3 1.1 27.4.3 3.5 1.1 7.7 4.4 8.9 1.7.7 3.9.3 5.3 1.4 1.1.8 1.6 2.3 2.3 3.6 1.8 3.3 5.3 5.3 8.9 6.4 3.6 1.1 7.3 1.4 11 2.2.5.1 1 .3 1.4.6.4.4.5 1 .7 1.6l2.4 12.6M244.6 179.9c2.9 2.8 7.4 3.1 11.4 2.9 2.2-.2 4.6-.4 6.2 1.1 1.1 1 1.4 2.6 1.7 4.1 1.6 7.5 4 14.8 7.3 21.7.7 1.4 1.4 2.8 2.5 3.9.9.9 2 1.6 2.9 2.5 2.4 2.4 3 6.4 5.7 8.4 2 1.5 5 1.8 6 4.1 1 2.2-.7 5.2.8 7.1.4.5 1.1.9 1.5 1.4 1.6 1.9.3 4.6 0 7-.5 3.6 1.3 7.4 4.5 9.1.9.5 1.8.8 2.5 1.5s1.2 1.7.8 2.6c-.3.7-1.1 1.1-1.9 1.5-1.8.9-3.5 2.4-3.9 4.4-.4 2 1.1 4.4 3.1 4.2-3.8 2.3-7.5 4.9-11 7.7-1.1.9-2.3 2.6-1.3 3.7.9 1 3.1 1.2 2.6 2.4-2.2-.4-4.6.6-5.8 2.5 3.3.3 6.6.7 10 1 2.6.3 5.2.5 7.6 1.6 2.4 1.1 4.5 3.1 4.9 5.6.5 2.8-.2 5.8-.9 8.6 1.8 0 3.6 1.2 4.1 2.9.3.8.3 1.6.9 2.2.6.6 1.5.6 2.3.6 2.4 0 5.2-.1 6.5-2.1.9-1.3.8-3.1.9-4.7.3-3.5 1.8-7 4.2-9.6.6-.7 1.3-1.3 1.8-2s.9-1.5 1.2-2.3c1.5-3.4 3.4-7.4 7.1-7.9 1.6-.2 3.4.3 4.5 1.5-.3-2.5 1.2-5 3.2-6.5s4.5-2.2 7-3c2.2-.6 4.3-1.3 6.5-1.9.3-.1.5-.2.8-.1.6 0 1.1.4 1.5.8 3.2 2.8 7 5 11 6.5 2.1.8 4.2 1.4 6 2.6 2.7 1.9 4.5 5.4 7.7 6.4 5.4-3.7 10.8-7.3 16.2-11M301.9 300.5c0 .7-7.7 42.4-7.7 42.4-.4.6-1.5.3-2.2.2-.7-.1-1.3-.5-1.9-.6-2.3-.3-3.9 2.1-5.8 3.3-2.3 1.4-5.2 1.3-7.8 2-1.9.5-3.7 1.4-5.3 2.5-3.9 2.7-6.9 6.7-10.8 9.4-4.2 2.9-9.5 4.2-14.6 3.7"/><ellipse fill="#762057" cx="209.5" cy="126.2" rx="10.1" ry="10.1"/><g fill="#F9F9FA"><path d="M207.5 126.8l-.7-.4-.6.3.7.4M210.1 124.6l.7-.4v-.7l-.8.4M214.2 122.2l-2.5 1.4v-.7l2.7-1.5M208.2 120.2v2.8l-.6-.3v-3.1M204.5 131.3l2.7-1.5v-.7l-2.5 1.4M215.5 128.3l-2.4-1.4.6-.3 2.6 1.5M211.3 133.2V130l-.5-.3v2.9M203.4 124.4l2.4 1.4-.6.3-2.5-1.4M207.6 124.6v-.8l.6.4v.7"/><path d="M210.1 126.1l3.6-2.1.2-.8-4.4 2.5v-4.2l-.7-.7v5.2l-3.6-2-.8.2 4.4 2.5-3.6 2-.2.9 4.5-2.6v4.3l.6.6v-5.2l3.6 2.1.8-.3M208.9 128.8l-.7.4v-.6l.7-.4M210.8 127.8v.8l.5.3v-.8"/><path d="M211.4 125.9l.7.5.6-.4-.7-.4"/></g><path fill="#F9F9FA" d="M205 129.6l-.6-1 3.9-2.2.5.3-3.6 2M214.5 124.2l-3.9 2.2-.5-.3 3.6-2.1.2-.8M208.8 126l-3.6-2-.8.2.6-1.1 3.8 2.2M209.5 121.5v4.2l.6-.3v-4.6h-1.3M209.5 131.3V127l-.6.4v4.5h1.2M213.7 128.8l-3.6-2.1v.7l3.8 2.2.6-1.1"/><path fill="#F9F9FA" d="M204.5 131.3l-1.8-3.2 4.2-2.5.6.4-4.1 2.3 1.3 2.2M211.3 124.7v-5.1h-3.7l.6.6h2.6v4.8M211.3 133.2h-3.7v-5.1l.6-.3v4.8h2.6M208.8 124.6l-4.1-2.4-1.3 2.2-.7.3 1.8-3.3 4.3 2.5M216.3 128.1l-1.9 3.2-4.3-2.5v-.6l4.1 2.3 1.3-2.2M214.2 122.2l1.3 2.2-4.1 2.4.6.3 4.3-2.4-1.9-3.3"/><g><ellipse fill="#762057" cx="171.3" cy="89.8" rx="10.1" ry="10.1"/><g fill="#F9F9FA"><path d="M169.4 90.4l-.8-.4-.5.3.7.4M171.9 88.2l.7-.4v-.7l-.7.4M176 85.8l-2.4 1.4v-.7l2.6-1.5M170 83.8v2.8l-.6-.3v-3.1M166.4 94.9l2.6-1.5v-.7l-2.4 1.4M177.3 91.9l-2.3-1.4.5-.3 2.6 1.5M173.2 96.8v-3.2l-.6-.3v2.9M165.3 88l2.4 1.4-.6.3-2.6-1.4M169.4 88.2v-.8l.6.4v.7"/><path d="M172 89.7l3.6-2.1.2-.8-4.5 2.5v-4.2l-.6-.6v5.1l-3.6-2-.8.2 4.4 2.5-3.7 2-.2.9 4.5-2.6v4.3l.6.6v-5.2l3.6 2.1.9-.3"/><path d="M170.7 92.4l-.7.4v-.6l.7-.4M172.6 91.4v.8l.6.3v-.8M173.2 89.5l.8.5.6-.4-.8-.4"/></g><path fill="#F9F9FA" d="M166.8 93.2l-.5-1 3.8-2.2.6.3-3.7 2M176.4 87.8l-3.9 2.2-.5-.3 3.6-2.1.2-.8M170.7 89.6l-3.6-2-.8.2.6-1.1 3.8 2.2M171.3 85.1v4.2l.6-.3v-4.5h-1.2M171.3 94.9v-4.3l-.6.4v4.5h1.2M175.5 92.4l-3.6-2.1v.7l3.9 2.2.6-1.1"/><path fill="#F9F9FA" d="M166.4 94.9l-1.9-3.2 4.3-2.5.6.4-4.1 2.3 1.3 2.2M173.2 88.3v-5.1h-3.8l.6.6h2.6v4.8M173.2 96.8h-3.8v-5.1l.6-.3v4.8h2.6M170.7 88.2l-4.1-2.4-1.3 2.2-.8.3 1.9-3.3 4.3 2.5M178.1 91.7l-1.9 3.2-4.3-2.5v-.6l4.1 2.3 1.3-2.2M176 85.8l1.3 2.2-4 2.4.5.3 4.3-2.4-1.9-3.3"/></g><g><ellipse fill="#762057" cx="152.9" cy="125.5" rx="10.1" ry="10.1"/><g fill="#F9F9FA"><path d="M150.9 126.1l-.7-.5-.6.4.8.4M153.5 123.8l.7-.4v-.6l-.7.4M157.6 121.5l-2.5 1.4v-.7l2.7-1.5M151.6 119.4v2.9l-.6-.3v-3.2M147.9 130.6l2.7-1.5v-.7l-2.5 1.4M158.9 127.6l-2.4-1.4.6-.3 2.6 1.4M154.7 132.4v-3.1l-.5-.3v2.8M146.8 123.7l2.4 1.4-.6.3-2.5-1.5M151 123.9v-.8l.6.3v.8"/><path d="M153.5 125.3l3.6-2 .2-.9-4.4 2.6v-4.3l-.7-.6v5.2l-3.6-2.1-.8.3 4.4 2.4-3.6 2.1-.2.8 4.5-2.5v4.2l.6.6V126l3.6 2 .8-.2M152.3 128.1l-.7.4v-.7l.7-.4M154.2 127.1v.7l.5.4v-.8"/><path d="M154.8 125.2l.7.4.6-.3-.7-.4"/></g><path fill="#F9F9FA" d="M148.4 128.8l-.6-1 3.9-2.2.5.3-3.6 2.1M157.9 123.4l-3.9 2.2-.5-.3 3.6-2 .2-.9M152.2 125.3l-3.6-2.1-.8.3.6-1.1 3.8 2.2M152.9 120.7v4.3l.6-.4v-4.5h-1.3M152.9 130.5v-4.2l-.6.3v4.5h1.2M157.1 128l-3.6-2v.7l3.8 2.1.6-1"/><path fill="#F9F9FA" d="M147.9 130.6l-1.8-3.3 4.2-2.4.6.3-4.1 2.4 1.3 2.2M154.7 123.9v-5.1H151l.6.6h2.6v4.8M154.7 132.4H151v-5.1l.6-.3v4.8h2.6M152.2 123.8l-4.1-2.3-1.3 2.2-.7.2 1.8-3.2 4.3 2.5M159.7 127.3l-1.9 3.3-4.3-2.5v-.7l4.1 2.4 1.3-2.2M157.6 121.5l1.3 2.2-4.1 2.3.6.4 4.3-2.5-1.9-3.2"/></g><g><ellipse fill="#762057" cx="126.4" cy="114.4" rx="10.1" ry="10.1"/><g fill="#F9F9FA"><path d="M124.5 114.9l-.8-.4-.5.3.7.5M127 112.7l.7-.4v-.7l-.7.4M131.1 110.3l-2.4 1.4v-.6l2.6-1.6M125.1 108.3v2.9l-.6-.4v-3.1M121.5 119.5l2.6-1.6v-.6l-2.4 1.4M132.4 116.4l-2.3-1.3.5-.4 2.6 1.5M128.3 121.3v-3.1l-.6-.4v2.9M120.4 112.6l2.3 1.3-.5.4-2.6-1.5M124.5 112.7v-.7l.6.3v.8"/><path d="M127.1 114.2l3.6-2.1.2-.8-4.5 2.6v-4.3l-.6-.6v5.1l-3.6-2-.9.2 4.4 2.5-3.6 2.1-.2.8 4.5-2.6v4.3l.6.6v-5.1l3.6 2 .9-.2"/><path d="M125.8 117l-.7.4v-.7l.7-.4M127.7 115.9v.8l.6.3v-.7M128.3 114.1l.8.4.5-.3-.7-.5"/></g><path fill="#F9F9FA" d="M121.9 117.7l-.6-1 3.9-2.2.5.3-3.6 2.1M131.5 112.3l-3.9 2.2-.5-.3 3.6-2.1.2-.8M125.8 114.1l-3.6-2-.9.2.6-1 3.9 2.2M126.4 109.6v4.3l.6-.4V109h-1.2M126.4 119.4v-4.3l-.6.4v4.5h1.2M130.6 116.9l-3.6-2v.6l3.9 2.2.6-1"/><path fill="#F9F9FA" d="M121.5 119.5l-1.9-3.3 4.3-2.4.6.3-4.1 2.3 1.3 2.3M128.3 112.8v-5.1h-3.8l.6.6h2.6v4.8M128.3 121.3h-3.8v-5.1l.6-.3v4.8h2.6M125.8 112.7l-4.1-2.4-1.3 2.3-.8.2 1.9-3.3 4.3 2.5M133.2 116.2l-1.9 3.3-4.3-2.5v-.7l4.1 2.4 1.3-2.3M131.1 110.3l1.3 2.3-4 2.3.5.3 4.3-2.4-1.9-3.3"/></g><g><ellipse fill="#762057" cx="102" cy="122.6" rx="10.1" ry="10.1"/><g fill="#F9F9FA"><path d="M100 123.1l-.7-.4-.6.3.8.5M102.6 120.9l.7-.4v-.7l-.7.4M106.7 118.5l-2.5 1.4v-.6l2.7-1.6M100.7 116.5v2.9l-.6-.4v-3.1M97 127.7l2.7-1.6v-.6l-2.5 1.4M108 124.6l-2.4-1.3.6-.4 2.6 1.5M103.8 129.5v-3.1l-.5-.4v2.9M95.9 120.8l2.4 1.3-.6.4-2.5-1.5M100.1 120.9v-.7l.6.3v.8"/><path d="M102.6 122.4l3.6-2.1.2-.8-4.4 2.5v-4.2l-.7-.6v5.1l-3.6-2-.8.2 4.4 2.5-3.6 2.1-.2.8 4.5-2.6v4.3l.6.6v-5.1l3.6 2 .8-.2M101.4 125.2l-.7.4v-.7l.7-.4M103.3 124.1v.8l.5.3v-.7"/><path d="M103.9 122.3l.7.4.6-.3-.7-.5"/></g><path fill="#F9F9FA" d="M97.5 125.9l-.6-1 3.9-2.2.5.3-3.6 2.1M107 120.5l-3.9 2.2-.5-.3 3.6-2.1.2-.8M101.3 122.3l-3.6-2-.8.2.6-1 3.8 2.2M102 117.8v4.2l.6-.3v-4.5h-1.3M102 127.6v-4.3l-.6.4v4.5h1.2M106.2 125.1l-3.6-2v.6l3.8 2.2.6-1"/><path fill="#F9F9FA" d="M97 127.7l-1.8-3.3 4.2-2.4.6.3-4.1 2.3 1.3 2.3M103.8 121v-5.1h-3.7l.6.6h2.6v4.8M103.8 129.5h-3.7v-5.1l.6-.3v4.8h2.6M101.3 120.9l-4.1-2.4-1.3 2.3-.7.2 1.8-3.3 4.3 2.5M108.8 124.4l-1.9 3.3-4.3-2.5v-.7l4.1 2.4 1.3-2.3M106.7 118.5l1.3 2.3-4.1 2.3.6.3 4.3-2.4-1.9-3.3"/></g><g><ellipse fill="#762057" cx="45.3" cy="98.4" rx="10.1" ry="10.1"/><g fill="#F9F9FA"><path d="M43.4 99l-.7-.4-.6.3.7.4M45.9 96.7l.8-.4v-.6l-.8.4M50.1 94.4l-2.5 1.4v-.7l2.7-1.5M44 92.3v2.9l-.5-.3v-3.1M40.4 103.5l2.7-1.5v-.7l-2.5 1.4M51.4 100.5L49 99.1l.6-.3 2.6 1.5M47.2 105.3v-3.1l-.5-.3v2.9M39.3 96.6l2.4 1.4-.6.3-2.6-1.5M43.5 96.8V96l.5.3v.8"/><path d="M46 98.2l3.6-2 .2-.8-4.5 2.5v-4.3l-.6-.6v5.2l-3.6-2-.8.2 4.4 2.5-3.6 2-.2.8 4.4-2.5v4.3l.7.6v-5.2l3.6 2 .8-.2M44.8 101l-.8.4v-.6l.8-.4M46.7 100v.8l.5.3v-.8"/><path d="M47.3 98.1l.7.5.6-.4-.7-.4"/></g><path fill="#F9F9FA" d="M40.9 101.7l-.6-.9 3.9-2.2.5.3-3.6 2M50.4 96.3l-3.9 2.2-.5-.3 3.6-2 .2-.8M44.7 98.2l-3.6-2-.8.2.6-1.1 3.8 2.2M45.3 93.6v4.3l.6-.3V93h-1.2M45.3 103.5v-4.3l-.5.3v4.6H46M49.6 100.9l-3.6-2v.7l3.8 2.2.6-1.1"/><path fill="#F9F9FA" d="M40.4 103.5l-1.9-3.2 4.3-2.5.6.3-4.1 2.4 1.3 2.2M47.2 96.8v-5h-3.7l.5.5h2.7v4.9M47.2 105.3h-3.7v-5l.5-.4v4.9h2.7M44.7 96.7l-4.1-2.3-1.3 2.2-.8.2 1.9-3.2 4.3 2.5M52.2 100.3l-1.9 3.2L46 101v-.6l4.1 2.3 1.3-2.2M50.1 94.4l1.3 2.2-4.1 2.4.6.3 4.3-2.5-1.9-3.2"/></g><g><ellipse fill="#762057" cx="68.2" cy="280.6" rx="10.1" ry="10.1"/><g fill="#F9F9FA"><path d="M66.3 281.1l-.8-.4-.6.3.8.5M68.8 278.9l.7-.4v-.7l-.7.4M72.9 276.5l-2.4 1.4v-.6l2.6-1.6M66.9 274.5v2.9l-.6-.4v-3.1M63.3 285.7l2.6-1.6v-.6l-2.4 1.4M74.2 282.6l-2.4-1.3.6-.4 2.6 1.5M70.1 287.5v-3.1l-.6-.4v2.9M62.2 278.8l2.3 1.3-.5.4-2.6-1.5M66.3 278.9v-.7l.6.3v.8"/><path d="M68.8 280.4l3.6-2.1.3-.8-4.5 2.5v-4.2l-.6-.6v5.1l-3.6-2-.9.2 4.4 2.5-3.6 2.1-.2.8 4.5-2.6v4.3l.6.6v-5.1l3.6 2 .8-.2"/><path d="M67.6 283.2l-.7.4v-.7l.7-.4M69.5 282.1v.8l.6.3v-.7M70.1 280.3l.8.4.5-.3-.7-.5"/></g><path fill="#F9F9FA" d="M63.7 283.9l-.6-1 3.9-2.2.5.3-3.6 2.1M73.2 278.5l-3.8 2.2-.6-.3 3.6-2.1.3-.8M67.6 280.3l-3.6-2-.9.2.6-1 3.9 2.2M68.2 275.8v4.2l.6-.3v-4.5h-1.2M68.2 285.6v-4.3l-.6.4v4.5h1.2M72.4 283.1l-3.6-2v.6l3.8 2.2.6-1"/><path fill="#F9F9FA" d="M63.3 285.7l-1.9-3.3 4.3-2.4.5.3-4 2.3 1.3 2.3M70.1 279v-5.1h-3.8l.6.6h2.6v4.8M70.1 287.5h-3.8v-5.1l.6-.3v4.8h2.6M67.6 278.9l-4.1-2.4-1.3 2.3-.8.2 1.9-3.3 4.3 2.5M75 282.4l-1.9 3.3-4.3-2.5v-.7l4.1 2.4 1.3-2.3M72.9 276.5l1.3 2.3-4.1 2.3.6.3L75 279l-1.9-3.3"/></g><g><ellipse fill="#762057" cx="155.7" cy="466" rx="10.1" ry="10.1"/><g fill="#F9F9FA"><path d="M153.8 466.6l-.8-.4-.5.3.7.4M156.3 464.4l.7-.4v-.7l-.7.4M160.4 462l-2.4 1.4v-.7l2.6-1.5M154.4 460v2.8l-.6-.3v-3.1M150.8 471.1l2.6-1.5v-.6l-2.4 1.4M161.7 468.1l-2.3-1.4.5-.3 2.6 1.5M157.6 473v-3.2l-.6-.3v2.9M149.7 464.2l2.4 1.4-.6.3-2.6-1.4M153.8 464.4v-.8l.6.4v.7"/><path d="M156.4 465.9l3.6-2.1.2-.8-4.5 2.5v-4.2l-.6-.6v5.1l-3.6-2-.8.2 4.4 2.5-3.7 2-.2.9 4.5-2.6v4.3l.6.6v-5.2l3.6 2.1.9-.3"/><path d="M155.1 468.6l-.7.4v-.6l.7-.4M157 467.6v.8l.6.3v-.8M157.6 465.7l.8.5.6-.4-.8-.4"/></g><path fill="#F9F9FA" d="M151.2 469.4l-.5-1 3.8-2.2.6.3-3.7 2M160.8 464l-3.9 2.2-.5-.3 3.6-2.1.2-.8M155.1 465.8l-3.6-2-.8.2.6-1 3.8 2.1M155.7 461.3v4.2l.6-.3v-4.5h-1.2M155.7 471.1v-4.3l-.6.4v4.5h1.2M159.9 468.6l-3.6-2.1v.7l3.9 2.2.6-1.1"/><path fill="#F9F9FA" d="M150.8 471.1l-1.9-3.2 4.3-2.5.6.4-4.1 2.3 1.3 2.3M157.6 464.5v-5.1h-3.8l.6.6h2.6v4.8M157.6 473h-3.8v-5.1l.6-.3v4.8h2.6M155.1 464.4L151 462l-1.3 2.2-.8.3 1.9-3.3 4.3 2.5M162.5 467.9l-1.9 3.2-4.3-2.5v-.6l4.1 2.4 1.3-2.3M160.4 462l1.3 2.2-4 2.4.5.3 4.3-2.4-1.9-3.3"/></g><g><ellipse fill="#762057" cx="67.3" cy="37.4" rx="10.1" ry="10.1"/><g fill="#F9F9FA"><path d="M65.4 37.9l-.7-.4-.6.3.7.5M67.9 35.7l.7-.4v-.7l-.7.4M72.1 33.3l-2.5 1.4v-.6l2.7-1.5M66 31.3v2.9l-.5-.4v-3.1M62.4 42.5l2.7-1.6v-.6l-2.5 1.4M73.4 39.4L71 38.1l.6-.4 2.5 1.5M69.2 44.3v-3.1l-.6-.3v2.8M61.3 35.6l2.4 1.3-.6.4-2.6-1.5M65.5 35.8V35l.5.3v.8"/><path d="M68 37.2l3.6-2.1.2-.8-4.5 2.6v-4.3l-.6-.6v5.2l-3.6-2.1-.8.2 4.4 2.5-3.6 2.1-.2.8 4.4-2.5v4.2l.7.6v-5.1l3.6 2 .8-.2M66.7 40l-.7.4v-.7l.7-.4M68.6 38.9v.8l.6.4v-.8"/><path d="M69.3 37.1l.7.4.6-.3-.8-.4"/></g><path fill="#F9F9FA" d="M62.9 40.7l-.6-1 3.8-2.2.6.3-3.6 2.1M72.4 35.3l-3.9 2.2-.5-.3 3.6-2.1.2-.8M66.7 37.2l-3.6-2.1-.8.2.6-1 3.8 2.2M67.3 32.6v4.3l.6-.4V32h-1.2M67.3 42.4v-4.2l-.6.3V43H68M71.6 39.9l-3.6-2v.7l3.8 2.1.6-1"/><path fill="#F9F9FA" d="M62.4 42.5l-1.9-3.3 4.3-2.4.6.3-4.1 2.3 1.3 2.3M69.2 35.8v-5.1h-3.7l.5.6h2.6v4.8M69.2 44.3h-3.7v-5.1l.5-.3v4.8h2.6M66.7 35.7l-4.1-2.4-1.3 2.3-.8.2 1.9-3.2 4.3 2.4M74.1 39.2l-1.8 3.3L68 40v-.7l4.1 2.4 1.3-2.3M72.1 33.3l1.3 2.3-4.1 2.3.6.4 4.2-2.5-1.8-3.2"/></g></svg>