<svg version="1" xmlns="http://www.w3.org/2000/svg" xmlns:xlink="http://www.w3.org/1999/xlink" x="0" y="0" width="457" height="521" viewBox="0 0 457 521" xml:space="preserve"><image overflow="visible" opacity=".3" width="457" height="521" xlink:href="D17D4790EF90AC50.png"/><path fill="#E1E2E3" d="M384.1 411.3v-.7l-.3-.5-.3-.6-.2-.5-.3-.2-.1-.1-.3.3-.4.8-.3.4-.3.3-.3.3-.5.5-.4.4-.2.6-.1.5v.5l.1.5.3.4.3.3.2.5.1.6.1.6.1.2.4.3.3.2.2.6-.1.9-.5.7-.6.7-.5.1-.5.1-.5-.1-.4-.4-.6-.3-.2-.3-.7-.6-.2-.3-.1-.5v-.5l-.2-.6-.3-.2-.4-.1-.9-.2-.3-.2-.1-.4-.2-1.1-.1-.6-.1-.4v-.6l-.1-.5-.3-.2-.2-.1-.5-.3-.3-.2-.3-.2-.7-.8v-.4l-.1-.5-.1-.5-.2-.3-.2-.2-.3.1-.3.2-.5.1-.2-.1h-.5l-.2.1-.3.1-.1.1h-.6l-.2.4-.4.3h-.4l-.7.2h-.5l-.1.3.4.3.7.1.9-.1.8-.3.6-.1.7-.4h.8l.3.3.1.5.2.8.1.4.3.3.3.3.4.2.3.2.4.3-.1.3.2.6-.1.7V416.4l-.1.5-.4-.1-.3-.2-.5-.3-.3-.2v.4l.1.3.4.4.5.5.1.2.1.1.3.2.5.2.6.2.3.4.4.2.4.7.1.5v.3l-.1.5-.4.3h-.5l.1.4v1l.2.3.3.2.4.3.3.5.3.5.4.1.4.1.4.2.2.3.5.6.3.2.2.5v.6h-.5l-.3-.1-.5-.2-.3-.3v-.4l-.2-.4-.3-.3-.4-.2-.5-.2-.5-.3H374.5l-.4-.2-.3-.5-.2-.4-.1.7.1.5.2.3.2.2.4.1.3.1.4.2.3.2.5.3.2.4.4.7.5.3.4.2.5.3.3.6-.1.7v.6l.1.4.2.3h.4l.5-.2.3-.2.4.1.1.1.1.4-.1.3-.2.3-.5.6-.3-.1-.3.3-.3.2-.2.2-.1.1-.3.4h-.3v-.4l-.1-.3-.1-.2-.3-.2-.1.6.1.7-.1.5-.2.1-.8-.1-.4-.3-.5-.7-.3-.3-.5-.3-.6-.2-.7.2-.4.2-.2.1-.3-.1-.6-.1-.2-.1-.4.1-.3.2-.1.3-.3.1-.4.2-.3.1h-.4l-.3.1-.4.1-.5-.1-.2-.2-.3-.4-.4-.5-.2-.1h-.3l-.5-.1h-.5l-.5-.1-.6.1-.4.2-.2.3v.4l-.2.4v.4l.3.1.4-.5v-.5l.3-.2h.4l.6.1.7.1.2.4.3.5.3.2.3.2h.5l.4.1.5.1.2.2.4.3.3.2.6.1.6.1.6-.2.2.2.3-.2.3-.4.3-.2.3-.2.3-.2h1.2l.2.2.2.5v.3l.2.4h.8l.2.1h-.1l.6.2.9.2.7-.1.4-.5.3-.7.4-.2.5.1.5.2.3.3h.1l.3-.1.1.7.1.2.1.2.1.3.1.3-.8 1.2-.4.5-.6.6-.6.2v.4l-.3.4-.4.6-.4.3-.8.3-.4.5-.2.5-.5.1-.5.4-.1.4-.2.6.2.7.5.7.7.8.6.7.3.4.3.3.1.5-.1.1-.2.2h-.3l-.6-.4-.2-.2h-1.1l-.4-.2-.4-.2-.5-.2-.3-.1h-.6l-.2.1-.6.1h-.3l-.1-.2-.2-.2-.1-.4.1-.5-.2-.4-.4-.1-.6-.1-.5.1-.2.1-.4.2-.4.7.3.3.4.2.2-.5v-.4l.4-.1.5.3.2.3v.6l.3.4.6.3 1-.1.1.3.1.5.1.4.4.2h.5l.4-.2.4-.1.5.2.2.4-.2.7-.3.2-.5-.1-.8-.1-.2.1-.3.3-.1.4.2.6.4.2.6.1.5.3.4.5.2.6.3.3.6.2.5.2.2.2.3.6.2 1v.9l-.1.8-.3.1h-.2l-.2-.2-.2.2.1.6.1.7.2.7-.3.4-.2.2-.6.2h-.5l-.8-.1-.5.1-.1.2v.2h-.1l-.2.2-.1.3-.1.3.1.3-.1.1-.3.1h-.1l-.2-.2-.3-.1-.2-.2-.2-.2h-.2l-.3.1-.3.2h-.1l-.2-.1-.1-.2-.1-.2v-.1l-.2-.1-.1-.1-.4-.1-.6-.2-.3.1-.2-.1-.2.1-.3.2-.2.1h-.2l-.2-.3v-.5l-.2-.1-.2-.1-.2.1-.1.3v.2l.1.3-.1.1-.1.2h-.1l-.2-.1-.2-.2-.1-.1-.1-.2-.2-.1-.3-.1-.2-.3v-.7l-.1-.2h-.2l-.2.1-.1.1v.2l-.2.1H364.8l-.1-.1h-.2l-.2.2-.2.2h-.2l-.3-.1-.3-.1-.1-.4v-.2l.1-.3.1-.3v-.2l-.2-.1h-.3l-.1.1-.2.1h-.2l-.1-.2.1-.2.2-.3.1-.2-.1-.2-.3-.1h-.2l-.4.2-.2.1h-.3l-.3.1-.2.2V458.1l.1.1H361.1l.2-.1.1-.1H361.7l.1.2.1.2v.1l-.1.1-.2.1-.2.1-.3-.1-.5-.2-.2-.1h-.2l-.1-.1-.2-.2-.3-.1-.3-.1h-.2l-.2.1-.2.1-.4-.1h-.5l-.4.1-.3-.1-.3-.1-.2-.2-.1-.2-.2-.3-.2-.3-.2-.1-.2-.1-.1-.1V456.3l-.1-.2-.2-.1-.4-.1h-.1l-.3-.1-.5-.4-.2-.2-.2-.1-.2-.1-.2.1h-.2l-.1.3-.1.3v.3l-.2.3-.2.1-.2.1-.2-.2-.1-.2v-.2l-.2-.2v-.6l-.1-.3-.2-.2-.2-.2-.2-.2h-.3l-.1.1h-.1l-.1-.1-.2-.3-.3-.3-.3-.2h-.9l-.2.1-.1.1H348.1l-.1-.2-.1-.1h-.3l-.1.2-.3.2-.2-.1-.1-.1v-.1l-.3-.2-.2.1-.1.1-.1-.1-.2-.1-.2-.1-.3-.2h-.7l-.2.1h-.2l-.2-.1v-.1l-.2-.2-.2-.1-.2-.1h-.2l-.1-.1-.1-.3-.1-.2-.1-.2v-.3l-.1-.2-.2-.1-.1-.1-.2-.2V450.1l-.1-.1-.2-.2h-.2l-.1-.1-.1-.1-.2-.1h-.2l-.2.2v.2l.1.2.1.2v.2l-.1.1-.2.1h-.3l-.7-.1-.7-.1-.4-.1-.1-.1-.2-.2-.1-.1v-.2l-.2-.2h-.2l-.2.1h-.5l-.3.1-.3.2-.3.3-.3.3-.1.3v.2l-.1.3v.5l.2.2v.2l.1.3-.2.2-.2.3-.2.4-.1.3-.1.3-.1.3-.1.2-.3.2h-.6l-.5-.1-.4-.4-.3-.3-.2-.2-.3-.3-.2-.1-.4-.1h-.2l-.4.1-.3.2-.3.3-.2.2v.2l.2.5.2.3.2.2.2.4.1.2v.3l-.1.2-.2.2-.2.2-.1.3-.1.1-.2.2-.1-.1h-.2l-.2.1-.2.2-.1-.1-.1-.1-.2-.1h-.1l-.2.1-.1.3v1.2l-.1.2-.1.3-.1.4v.3l.1.2.2.2.1.3.1.4V461.8l.1.3-.1.2-.1.3-.2.2-.1.2-.1.2v.2l.1.1.1.1v.1l-.1.1v.2l-.2.3-.1.2-.2.3-.1.2-.2.3v.2l.1.3.1.1.1.3v.7l-.1.2v.2l.1.4.2.3.3.3.3.6v.8l.1.2.2.2.1.1.1.1v.4l.1.2.1.2.1.2.1.1.2.2v.4l.1.2v.3l.1.2.2.1.2.1.2.3.2.2.2.6.1.5.3.6v.7l.1.4V477.1l-.1.2-.1.3v.2l-.1.6-.2.6-.1.3-.1.4-.2.5v.5l-.1.4.1.3v.2l.1.2.1.3.1.2-.1.3-.1.3v2.4l-.1.2v.8l-.1.2-.2.3-.2.3v.2l-.1.3-.2.3-.1.1-.1.6-.1.2v.1l-.1.3v.2l-.2.3-.3.2-.1.1v.4l.2.3.1.4.1.3-.1.2v.2l-.1.3-.3.2-.2.1-.1.2-.1.3.1.2v.2l.1.3.1.4v.1l.1.4.2.5.1.4.1.5.1.3-.1.3-.1.2-.1.3-.1.1-.3.3-.2.2-.1.2-.2.2-.4.2-.2.1h-.5l-.2.1-.1.1h-.2l-.1-.1v-.1l-.2-.2h-.1l-.2.1-.3.1h-.2l-.2-.1h-.4l-.2-.1h-.4l-.3-.1-.2-.1-.1-.1-.1-.2-.3-.1h-.6l-.2.1-.3.1h-.2l-.1-.1h-.2l-.3-.1h-.1l-.2.1-.2.1-.3.1-.2-.1h-.4l-.1.1-.3.2h-.5l-.3.1-.2.1-.3.1-.4-.1h-.2l-.2-.1-.1-.2-.2-.1-.2-.1h-.1l-.1-.1v-.4l-.2-.1-.2-.3-.1-.1-.1-.2-.1-.1h-.2l-.1-.1-.1-.1-.1-.3v-.5l-.2-.1-.2-.1-.1-.1v-.3l-.1-.2-.1-.2-.1-.3-.2-.3v-.1l-.1-.2v-.3l-.1-.2v-.2l-.2-.4v-1.6l.1-.4.2-.5.1-.5v-.4l-.1-.4V487.4l.1-.4.1-.3.1-.4v-.5l-.1-.4-.2-.5-.2-.6-.4-.5-.4-.4-.4-.3-.3-.3-.3-.4-.1-.4v-.7l-.1-.3-.2-.1-.1-.3-.3-.2-.1-.1-.1-.3-.1-.3.1-.3.1-.4.1-.4.2-.5.1-.4.2-.3.2-.2.2-.3.3-.2.2-.2-3.7-.2-21-1.5-21.1-1.6-21-1.5-20.9-1.3-21.3-1.4-20.9-1.5-20.8-1.5-21.2-1.2-20.6-1.1-21.4-1.1-15.9-.9-1.1-.1-.6.1h-.7l-.1-.1-.2-.3-.2-.4-.1-.3-.2-.3-.4-.4-.4-.4-.3-.3-.2-.5v-.4l-.2-.4-.3-.3-.2-.1h-.3l-.3.1h-.3l-.2.1-.3-.1-.1-.3-.2-.5-.1-.3v-.2l-.1-.2v-1.3l-.2-.3-.2-.3-.3-.5-.1-.2-.1-.3v-.2l-.1-.4v-.3l.1-.4v-.4l-.1-.3-.3-.5-.1-.2-.1-.4v-.7l.1-.3.1-.3.3-.2.1-.2.2-.2.1-.2-.1-.3-.1-.1-.2-.3-.2-.1v-.1l-.2-.3v-.3l.2-.3v-.5l-.2-.2-.1-.1-.1-.2v-.3l.1-.3.1-.4v-.7l-.1-.2-.3-.2-.3-.3-.4-.4-.6-.9-.6-.9-.3-.4-.1-.3-.2-.2-.1-.3-.1-.3-.2-.1-.2-.1-.3-.1-.2-.2-.1-.5.1-.6.1-.6.1-.3.1-.4-.1-.5-.1-.2-.3-.4-.3-.2-.4-.1-.5-.2h-.2l-.2-.2-.1-.3v-.5l.1-.5.1-.5v-.5l-.2-.5v-.8l-.1-.6-.3-.7-.2-.6-.1-.6v-1.4l-.1-.4-.2-.4-.1-.2-.3-.4-.2-.4-.4-.7-.2-.4-.1-.3v-.7l.1-.4-.1-.5-.2-.4-.2-.5-.3-.5-.2-.3-.2-.1-.2-.2-.4-.3-.2-.3-.3-.3-.2-.2-.2-.6-.2-.4-.1-.5-.3-.5-.3-.5-.4-.4-.3-.4-.2-.3-.2-.3h-1l-.2-.1-.2-.1-.2-.4-.1-.3.1-.3.1-.4v-.4l-.1-.3-.2-.2-.2-.2-.2-.2-.2-.2V410.8l.1-.4.1-.3.3-.3.2-.3V408.9l.1-.6v-.4l-.4-1-.4-1-.2-.6-.2-.4v-.4l-.1-.5-.1-.3-.1-.4v-.3l.2-.4.1-.3.4-.1.3-.1.4-.2.3-.3.3-.2.1-.7.2-.6.1-.7.1-.4.1-.6.1-.6-.3-.4-.1-.3.1-.4.1-.6v-.4l-.2-.4-.1-.3-.2-.3-.2-.3v-.3l.1-.4.2-.3.2-.3.1-.5.2-.5.2-.5.3-.5.1-.5v-.5l-.1-.5v-.8l.1-.5.1-.5.1-.2v-.2l.2-.3h.2l.2-.1.1-.1.1-.4-.1-.4-.1-.8v-.7l-.1-.7-.1-.6v-.8l.1-.4.2-.5.1-.3.2-.3.1-.2.2-.2.1-.4.2-.6.2-.5.3-.4.2-.5.1-.2.1-.3-.1-.3v-.3l.1-.3v-.2l.2-.3.1-.3.1-.3v-.4l-.1-.3-.3-.5-.3-.7-.3-.6-.1-.4-.2-.5V371.4l-.1-.3-.1-.6.1-.7-.2-.6v-.3l-.1-.3v-.5l.1-.3v-.2l-.1-.4-.1-.3-.1-.2-.2-.1h-.4l-.2-.1-.1-.2-.3-.4-.1-.1-.2-.1-.3-.2-.1-.2-.1-.2.1-.3.2-.3.2-.3v-.2l-.1-.2-.2-.2-.1-.1-.3-.1-.4-.6-.8-.9-.8-.9-.6-.8-.3-.5-.2-.6-.1-.4-.1-.3v-.5l.2-.4.1-.6.2-.4.1-.5.1-.4-.2-.7-.1-.4-.1-.4-.2-.3v-.3l-.1-.2v-.8l-.1-.4-.2-.4-.1-.3-.3-.2-.3-.2-.2-.1-.1-.3.1-.3.2-.3.2-.4.1-.6.1-.8.1-.7-.1-.9-.1-.3v-.4l-.1-.3-.1-.2-.2-.3-.1-.3.1-.5.1-.2.1-.3v-.2l.1-.3v-.3l-.1-.2.1-.4.1-.2.1-.3.2-.4.1-.5.1-.3v-.7l-.2-.2-.1-.2-.1-.3.1-.2.2-.1h.4l.4-.1h.7l.2-.1v-.2l.1-.3v-.8l-.2-.1-.1-.1-.1-.2.1-.2.2-.1.2-.2.2-.1.3-.2.1-.3.1-.2.2-.3.2-.2.3-.2.2-.1.2-.3.2-.3.3-.3V333.5l-.1-.4-.1-.4v-.5l.2-.2.2-.2.5-.2.3-.3.3-.3.1-.2-.1-.3-.2-.3-.1-1 .1-.4v-.4l.3-.7.2-.4.2-.3.3-.4.1-.3.1-.3v-.2l-.1-.2-.1-.4v-2.4l.1-.9.1-.6v-1.6l.2-.4.3-.3.1-.2v-.3l-.1-.4-.4-1.4-.4-1.7-.2-.6.2-.4.4-.2.5-.4.3-.3.5-.6.6-.8.3-.5.2-.3.2-.2.2-.2.4-.3.2-.4.2-.3.2-.2.1-.2.4-.2.4-.1.8-.3.9-.2.7-.3.3-.1.3-.2.2-.2.1-.1v-.2l-.2-.1h-.1l-.3-.1h-.2l-.3-.1-.2-.1-.1-.3.1-.4.2-.2.2-.3.5-.3.7-.1.8.1 1.1-.1.8-.1.3-.1.1-.2.1-.2v-.4l.1-.3.1-.3.2-.2.2-.3.1-.3v-.1l-.1-.1H76l-.2-.1v-.2l.1-.3.3-.1.2-.1h.3l.2.1h.3l.2-.1.3-.1.2-.2.1-.3.1-.3.2-.1.1-.1h.2l.2.1h.1l.1-.1v-.2l-.2-.2-.4-.2-.4-.2-.4-.4-.9-.6-.6-.6-.5-.7-.5-.4-.4-.3-.3-.3-.5-.1-.5-.3-.8-.3-1.1-.5-1.1-.5-.7-.3-.5-.4-.3-.3-.1-.6v-.5l.1-.5.4-.5.3-.5.5-.3.2-.2.3-.3.1-.4v-.2l.1-.4.1-.3.3-.2h.2l.3-.1.2-.1v-.1l-.1-.2-.3-.2h-.8l-.1-.1V287.6l.2-.2.4-.1h.7l.2-.1v-.1l-.2-.2-.3-.2-.3-.3-.1-.5v-.4l.2-.3.1-.3.3-.2.4-.3.2-.3.2-.4v-.4l-.1-.3-.2-.3-.3-.3-.3-.3-.4-.1-.4-.3-.3-.2-.4-.4-.2-.4-.2-.4v-3.2l-.1-.5-.1-.5v-.7l-.2-.6-.2-.5-.3-.4-.2-.3-.2-.2-.3-.4-.1-.3-.3-.2-.2-.2-.1-.1v-.4l-.3-.3-.2-.1-.3-.2-.3-.5-2.9-3.1-.5-.7-.4-1.2-.4-2-.3-.2-.1-.2v-.3l.1-.3.1-.3.2-.3v-.1l-.2-.1-.2-.1h-.5l-.3-.2h-.2l-.2-.1-.2-.1-.1-.2.1-.3 1.2-1.2-.8-2-1.7-4.1v-.4l.1-.2.1-.2.2-.3.1-.5-.1-.4-.1-.4-.5-.3-.7-.3h-.8l-.1-.4-.3-.8 1.6-1.7-.9-1-.6-.9-.2-.3-1.5-.7-.5-.7-.1-.3v-.4l.1-.3v-.3l-.1-.3-.1-.3-.1-.4.1-.2.2-.3.1-.2.3-.2.5-1-.7-.7-.5.2-.7-.1-.4-.3-3.5-21.4-3.5-20.6-3.1-19.8-3.3-19.6-3.3-20.3-3.2-19.9-3.4-19.7-3.6-20.4-3.7-20.5-6.4-38.6 136.4-.3 83-1.4.1.4v.1l.1.1.2.2.1.2-.1.2-.2.3-.3.2-.2.3-.2.2-.1.2-.2.2-.2.1v.3l-.2.2v.5l.1.2V20.7l-.1.2.2.1.1.2.1.1v.2l-.1.1-.1-.1-.2-.1-.2-.1-.2.1-.2.2.1.2.1.2.3.3.2.1.2.2.2.3-.1.2-.1.1-.3.1h-.2l-.2-.1-.2-.2-.1-.1-.3.1v.5l-.1.2-.2.1-.2.1-.2.2-.2.1h-.3l-.2-.1-.2-.2-.2-.1-.2-.1h-.2l-.2.2V25l-.1.2H230.9l-.2-.3-.2-.1-.2.1-.3.2-.1.2-.5.4-.1.3-.1.2-.2.3-.2.2-.1.2-.2.1h-.2l-.2.1-.1.2-.1.1-.1.2H227.5l-.1.1V28.4l-.1.2-.1.2h-.4l-.1-.1-.1-.3v-.1l-.2-.1-.1.1-.1.2-.1.1-.2.2-.2.1-.2.1-.3.1h-1.1l-.1.1v.2l.1.2.1.2.1.2-.1.2-.2.1h-.1l-.3.1h-.4v.2l.1.1.2.2v.2l-.1.2-.2.2-.1.1v.5l.1.3v.2h-.4l-.2-.2-.3-.1-.2-.1-.3.1-.1.2-.1.2v.2l-.1.2-.1.3.1.2.1.2.1.2v.7l-.1.3-.1.1-.2.2-.2.1-.2-.1-.3-.1-.2-.2-.2-.1-.2.1-.2.1-.2.2v.1l-.2.1-.2.1-.1-.1-.3-.1-.1-.1-.1.1-.2.1v.3l.1.1.2.2.1.2.1.3v.2h-.2l-.2.2-.4.2-.3.2-.3.3-.3.2-.3.4v.3l.1.4.1.5v.4l.1.4v.3l-.1.4v.4l.1.2-.1.2-.1.1h-.3l-.1.2-.2.3-.1.2-.1.1-.2.1-.2.2v.2l-.2.2-.1.1-.3.2-.2.1-.2.2-.2.3-.3.3-.2.3v.3l-.1.4.1.3.1.4.2.4.1.2.1.2-.1.3-.2.2-.1.2.1.2.1.1.3.1.3.1.2.2.1.3.1.3-.2.2v.3l.1.2.2.1h.6l.4.1.3.3.2.2.2.2.3.1h.8l.2.1.3.3.1.3.1.3.3.5.5.4.7.4.7.4.7.4.6.4.5.3.4.4.3.4.2.4.2.4.3.3.4.2h.9l.7.1.5.1.4.2.3.2.3.2h.2l.3-.1.3-.1.3-.1h.4l.2.1.7.1.3.1.1.1.1.2-.1.2h-.2l-.2.3-.1.2v.3l.2.1.3.2h.2l.3.2.1.1v.4l.1.2.1.2.5.2.3.2.3.3.1.3.1.3.1.2.2.3.3.1H234l.2.2.1.2v.2l.1.1h.1l.2.1.2.1.2.2.1.1.3.4.2.3.1.3.2.3.2.3.2.2H237.3l.3.1.2.1.2.3v.3l-.1.2-.2.2.1.2v.3l.1.2.3.3.5.5.4.3h1l.2.1.1.2.1.2.1.2.1.2.4.4.5.4.6.2.4.1.4.3.5.2.4.2.4.1.2.2.2.2.2.1.3-.1.3-.2.2-.1.2-.3.1-.1.3-.2.3-.1h.4l.2.1H247.5l.2-.1.2-.1h.5l.2.1.2.1.2.2.2.1h.2l.4-.1.2-.1.3-.3.4-.1.4.1.2.1.4.1.2.1.3-.1.3-.1.2-.2.4-.1.3-.1.4.1.5.1.7.4.5.3.2.3.3.3.1.2.1.2.1.3.2.2.3.1.2.2.2.5.1.3.3.9.2.8.1.5.2.5.2.3.1.3v.7l.1.2.1.4.1.2.1.4.2.4v.4l.1.3.1.4.2.2.2.3v1l.1.6.1.3.1.1.2.2.2.3.2.1.4.2.4.3.5.4.5.4.4.4.2.3.2.4.1.4.2.9.2.8.3.6.2.5.3.5.3.5.2.3.2.3.2.2.4.3.4.3.4.4.2.2.2.4.1.4.2.5.1.4.1.8.2.8.2.5v.3l-.1.5v.6l.1.2.1.3v.5l-.1.3v.2l.1.2.2.3.1.2.2.2.2.6.1.5V101.7l.1.2.1.4.2.3.1.3.3.7.2.6.2.5.2.2.2.2.4.2.4.3.3.1.3.1.3.2.3.1.3.1.2.3.2.2.3.2.2.2.3.4.2.4.4.9.4.5.3.5.3.3.3.2.3.2.2.2.1.3v.5l-.1.4-.1.3.1.5.2.3.3.3.3.2.3.1.2.1.2.1.3.3.2.3.1.4.2.2.2.3.2.2.2.2.1.2.2.3.3.3.3.2.3.3.1.2.1.3v.7l.1.3.2.6.3.5.4.8.2.6.2.6.2.4.1.3.2.3.2.3.2.4.1.3v.4l.1.3.1.3.4.6.4.3.3.2.3.2.4.1h.3l.4.1h.4l.4.1.4.1.3.1.4.1.3.3.2.3.3.4.3.3.3.5.3.5.6.8.5.5.9.6 1 .9 1.4 1.1 1.1.9.4.3.5.3.3.2.5.1.5.1.6.1.4.1.4.2.3.1.5.6 1.3 1.1.6.4.4.1h.6l.2.1.3.2.5.5 1.3 1.2 1.5 1.2.3.3.2.3.1.3.1.4.1.4v.4l.2.4.2.1.2.1h.3l.4.1.3.3.4.4.7.6.5.5.7.6.4.5.2.4.2.5.2.6.2.4.1.3v.3l.1.2v.3l.1.2v1l.1.4.2.5.2.3.3.4.4.3.4.4.5.5.2.3.2.3.2.3.2.2.1.2.2.2v.3l.1.2v.7l-.1.5v.6l.1.5.2.4.2.8.2.3.5.6.6.5.4.2.5.1.3.1.4.1.3.1.2.2.2.3.2.3.2.4.3.3.2.2.3.2.3.2h.6l.3-.2.3-.1.3-.3.3-.1.5-.1.2.1.2.1.3.3.3.3.2.2.2.3.2.2.4.2.4.1.3.2.4.2.3.2.5.4.2.2.4.1.4.2.4.2.3.2.2.3.3.3.3.4.6.7.3.5.2.3.3.2.5.4.2.1.2.2v.2l.1.2.2.2.2.2.3.3.2.3.2.3.2.4.3.4v.3l.1.3v.9l.2.3.3.2.2.2.3.1.4.1.5.1.3.1.4.2.3.2.3.1.3.2.3.2.3.1.3.1.2.1.4.2.3.1.3.3.2.2.2.4.2.6.2.4.3.3.1.3.1.3v.2l-.2.3-.2.2h-.3l-.3.1-.2.1-.3.2v.1l-.1.2.1.2.2.4.2.3v.4l-.1.3-.2.2-.2.1h-1l-.2.2v.2l.1.3.2.2.3.1.2.2.1.2.1.3v.7l.2.5.2.3.2.2.1.2-.1.3-.1.2-.2.1-.3-.1-.2-.1-.2-.2h-.4l-.3.1-.1.3.1.3.3.2.3.3.2.4V187.8l-.1.3-.1.2.1.1.2.1.2.1.4-.2h.4l.1.1.2.1.1-.1.2-.1.2-.1.3-.1.2.2v.1l-.3.2-.1.1-.3.2-.1.2-.1.2.2.2.2.2.2.1.2.1.1.2v.2l-.1.2-.1.2.2.2.1-.1.2-.2.1-.2v-.7l.2-.3h.2l.2.2v.5l-.1.2.1.2.2.2h.2l.2.1v.2l-.1.2.1.2.2-.1.3-.1.2.1.1.1v.7l.1.3h.2l.2-.1.2-.1.2-.3.2-.1.3-.1.2.1v.4l.1.2.2.1h.1l.2-.2.2-.2h.2l.3.1.2.2v.2l-.1.2v.2l-.1.1v.1H345.8l-.2-.1h-.5l-.1.1v1l.2.1.3.3h.4l.3.1.2.1.1.3.2.2.2.2.2.1.1.1.1.1v.4l-.1.2.1.1.2.1.2.1.2.1v.2l-.1.1-.1.1h-.2l-.3-.1-.2-.1-.1-.2-.1-.2-.3-.1h-.2l-.1.2v.1l.1.2.1.2.2.2.2.1V197.9l-.1.1h-.2l-.2-.1h-.2l-.2.1V198.3l.1.3.2.2.2.2.3.3.5.2.4.4.3.4.3.2.5.1.3.1.3.1.3.2.1.3v.3l.1.3.1.2.2.1h.2l.2.1.5.2.7.1.4-.1.2-.2v-.1l-.1-.4-.1-.3v-.1l.2-.2h.2l.3.2.2.2.2.2.2.3.1.3v.2l.3.3.1.2.1.2.1.2.1.3-.1.2-.1.2-.1.2-.2.1-.1.1-.2.2-.1.1v.5l-.1.1-.1.1v.4l.2.5.2.6.2.6.3.4.4.4.6.6.6.5.5.4.5.4.3.4.2.2.3.2h.1l.3.1.3.2.3.2.1.2.2.1.4.1.5.1.9.3.9.3.7.3.5.3.4.4.3.4.4.2.2.1.3.1.3.1.3-.1h.3l.5-.1.7-.2h.4l.3.2.2.2v.2l-.1.2-.1.2-.1.2v.4h.2l.1-.1.2-.1.2-.3.1-.1.2.1.2.1.1.1v.2l-.1.2v.2l-.2.1V216.6l.2.1.1.1h.3l.2-.1h.2l.2.1.2.1.1.1.1.2.2.2.2.1h.1v.2l.1.2.1.3.2.2.2.2H370.9v-.5l.1-.1.1-.1.2.1.2.2.2.4-.1.1v.2h-.2l-.2.1-.1.1v.3l.3.1.2.1.4.1.3-.1.1-.2.3-.2h.2l.1.2.1.2.3.3.2.1.2.1.1-.1h.2l.2.2.1.2v.2l.2.1.3.3.4.1h.3l.2.1v.2l-.1.1-.1.1-.1.1-.1.1.1.2v.1l.3.2.1.1v.2l-.1.2v.2l.2.1.1-.1.1-.2h.2l.2-.1.2.1.2.2.1.1h.2l.2.1.1.1v.2l-.2.1-.2.1-.3.1-.1.1v.2l.1.1.2.1.3.1.1.2v.3l-.1.2-.1.3-.1.3v.4l-.1.4-.2.8v.3l-.1.3-.2.1h-.2l-.1-.1-.1-.1-.2-.3h-.2v.5l.1.7.1.4.2.4.3.2.2.1v.2l-.1.3v.5l.2.2.2.2.3.3.4.3.2.2.2.1.1.3-.1.1-.1.1v.4l.2.1v.1l.2.2v.5l.1.3v.5l.2.1v.1h.2l.1-.1.1-.1.1-.2h.4l.2.1.1.2v.4l-.1.1-.2.1h-.5l-.1.2-.2.2-.2.4v.2l.1.2.2.2.2.1.3-.1.1-.1h.5l.1.2.1.2.3.1.2.1.2.1.2.2v.2l-.1.4v.2l-.2.4-.1.3-.2.4-.1.2v.5l.1.1h.4l.1-.3.2-.2.2-.1h.2l.2.1v.5l.1.3h.2l.2-.1.3-.1.3.1.2.1.2.3.2.3.2.2v.4l-.1.2h-.5l-.1.1.1.2.2.1.2.2v.2l-.1.1-.1.2.2.1.2.1.1.1-.1.2-.2.2-.1.1-.2.2v.2l.1.2V244.8l-.1.2-.1.1.1.1.2.2.2.2v.1l-.1.2-.1.2-.1.1-.2.2-.1.2v.1l.2.2.1.1h.5l.3.2v.2l-.1.1-.2.1h-.2l-.4.1-.2.2-.1.1.1.1h.5l.2.1.1.1.1.2.1.2h.2l.2.1v.4l.1.1.2.1.1.1v.1l-.2.1h-.3l-.2.2-.2.1-.1.1v.2l.2.1h.1l.3-.1h.4l.2.1v.4l-.1.2-.1.1-.2.2-.1.2V251.8l-.2.1-.1.1-.1.2.1.3.1.2.2.1v.2l-.2.2-.2.2v.2l.2.2-.1.2-.2.2-.3.1-.2.2-.2.2v.3l.1.2.1.1.2.2.3.2.1.2H384.7l.3.2v.7l.2.3.2.2.1.2.1.2-.1.3-.2.2v.2l.1.3.2.2.2.2v.2H385.5l-.1-.2h-.3l-.2.2.1.3.3.1h.3l.2.1.2.2v.3l-.1.2-.2.2-.2.2-.3.3-.4.2-.4.2-.3.3-.1.2v.4l.1.2.2.3.2.2.1.3.3.3.4.6.4.4.3.5.3.3.2.3.2.3.4.3.2.2H387.6l.2-.1.1-.1h.2l.2.2.1.2.1.1.2.1-.1.4v.2l.2.1h.1l.2-.2.2-.1h.2l.1.2-.1.3v.1l.1.2.1.1.4.3.7.5.7.2.8.1.5.1h.8l.4-.1.2-.1.2-.1h.2v.5l.1.2h.1l.1-.1v-.3l.2-.2.2.1.1.2v.5h.2l.1-.1.2-.1.2.1.1.2v.3l.1.1.1.2.1.2v.2l-.1.2v.4l.1.2.2.2.2.4.5.4.8.5.4.2.4.2h.5l.3.1h.2l.2.3v.2l-.1.3-.1.2v.5l.1.2.2.2.7.8 1 1 1.1 1.1.3.4.3.1h.2l.2.1.2.2-.1.1-.1.1h-.2v.6l-.1.1h-.2l-.2.1-.2.1-.3.2-.1.2.1.1.1.2.2.1.1.2-.1.2-.2.1-.2.1-.2.3v.4l.1.3.1.6.2.5.4.6.7.8.7.9.3.4.1.3v.2l-.1.4-.1.3-.1.2.2.3.2.3.2.1.3.5.1.1v.4l-.1.1v.1l.1.2.2.2.2.1.1.1.1.2v.2l.1.2.1.1h.2l.1.2v.2l-.1.1-.1.2.1.1.2.1.1-.1.2-.1.2-.2.1-.3.1-.2.2-.1.2.1.2.2v.1l.3.3.3.2.2.1.2.3-.1.3-.2.1-.1.3-.2.3v.2l.1.1h.2l.1.2.1.2v1.2l-.1.1.1.2.1.1h.1l.2.1.1.2v.2l.1.2v.3l.1.8.1.3-.1.2-.1.1-.1.1-.2.1v.2l.1.2v.2l-.2.1h-.2l-.1.1-.1.2-.1.1h-.4l-.1.1-.1.1.1.2v.2l-.2.2h-.4l-.2.3-.1.3v.3l.2.2v.1l-.1.2-.3.1-.2.2-.2.3-.1.2v.1l.1.2.2.2.1.1.3.4.4.3v.2l-.1.2-.1.1-.2.1h-.1l-.2.2.2.2.2.1h.2l.2.1.2.1.1.2.1.2.2.2.2.1.2.2.2.1.1.3.2.3.2.3v.1l.1.2.2.1h.4l.1.1v.2l-.1.1-.3.1-.2.1v.1l.1.3.2.2.1.2v.2l.2.2.1.1.2.1v.4l-.2.2-.2-.1h-.3l-.3-.1-.4.2-.2.2-.1.3.1.1.1.2.2.1v.2l.1.2.1.1.2.3.1.1h.1l.2.1.1.2V312.7l-.2.1-.2.2-.2.2-.1.3v.2l.2.2.1.4.1.3.1.3-.1.4v.3l.1.2.1.2.3.2.3.1.2.1h1.1l.2.2.2.2.1.3.2.2.2.2.5.5.4.3.4.2.2.2.3.1.2.1h.3l.3-.1h.2l.4-.2.3-.3.5-.2.7-.3.7-.1h1.3l.7.1.3.2.3.3.2.4.2.3.2.4.2.4.6.3.6.2.8.3.4.2.4.4.4.4.4.5.4.2.3.2.2.1.5.2.6.1h.1l.1.1.2.3.7.2h.3l.6-.2.3.3.4.5.4.8.1.7.1.5h.9l.6-.2.4-.2.5-.2.4-.2.4.1.3.3.1 1.3-.1 1-.2.8-.4.4-.2-.4-.1-.7-.6-.1v.3l.2.5.2.6.2.7-.1.5-.1.2-.3.3-.2.3-.6.3-.5.3-.7.7-.7.3-.4.1-.4-.1-.7.2h-.2l-.5.4-.7.4-.4-.1v-.3l.3-.4.1-.3-.4-.4-.1-.1-.2-.2-.1-.2.2-.4.3-.2.1-.3.3-.3V329.9l-.1-.5-.1-.7-.1-.8.1-.7v-.3l-.1-.5-.4-.2-.4-.2-.5-.2-.2-.6-.3-.3-.5-.2-.6-.3-.5-.2h-.1l.1.4.4.4.7.4.4.2-.1.6v.3l.6.4.5.1.2.4.1.5-.2.4v.7l.2 1 .1.6-.2.4-.3.5-.5.2-.6-.1-.5-.2-.2-.2-.4-.2-.2.2.3.4 1 .5v.4l-.4.4-.4.3-.2.3-.4.3-.4.4-.3-.1-.4-.7-.3-.3-.3-.1-.4-.1-.4-.1-.4-.2-.3-.2-.1-.4-.1-.7.1-.4.2-.6.3-.9-.1-.3v-.6l-.1-.3-.2-.4v-.5l-.2-.1-.2-.1-.4-.4-.5-.5-.7-.5-.3-.2h-.4l-.2.2v.4l.6.1.5.2.2.5-.1 1.1.2.1.4-.4h.1l.1.2.4.3.1.5-.2.6-.3.4-.2.5-.2.7.1 1 .2.5.2.3.5.5.6.3.7.4.5.7-.2.5.4.3.5.3.3.4.5.5.9.5.6-.1.9-.1.8.3.2.2-.8.9-.7.8-.6.5-.6.4-.9.7-.7.6-.6.7-.7.7-.5-.1-.1-.6v-.3l-.4-.1-.4.1-.6.2h-.5l-.9-.6-.5-.3-.7-.1-.7-.1-.6-.1-.4.1h-.6l-.2-.6-.3-.4-.5-.4-.2-.5-.5-.3-.5-.5-.2-.7-.2-.7-.1-.4.3-.4-.5-.1-.4-.3-.2-.2-.2-.6-.1-.4-.5-.2-.6-.1-.5-.1v-.6l.1-.2.4-.6.2-.8-.6.3-.4.4-.3.6-.3.8.5.6.7.4h.6l.3.4.3.7.2.4.4.6.3.7v.6l.2.6-.4.2h-.7l-.4-.2-.3-.2-.5-.5-.4-.6-.1-.3-.1-.4-.4-.6-.3-.4-.2-.4v-.3l-.1-.4-.5-.2-.6-.2h-.4l-.2-.6-.1-.3-.2-.6-.5.1h-.3l-.4-.1-.3.1.2.5.3.3.4.4.4.5.3.4.5.2.4.2-.2.1h-.6l-.8-.3-.6-.1h-.5v.4l.4.3.5.2.6.1h1l1.3.3.2.4.1.8v.8l.4.8.9.6.9.2.7-.2h.6l.6.2.5.5.3.8-.4.8-.5.1-.8-.5-.6.2-.4.3-.7.3-.7-.1-.5-.3-.6-.4-.5-.6-.6-1.3-.3-.7-.6-.8-1-.6-.7-.1-.7.3-.6.3-.4.2-.1-.2.2-.2.5-.6.3-.7.1-.4-.3-.5-.4-.3h-.1l-.5.1-.4.6-.7.7-.1.1-.6.6-.5.5h-.2l-.1-.3v-.4l-.1-.3-.4-.1-.5-.2h-.6l-.3-.2.3-.7.2-.4.2-.4-.4-.1-.2-.2-.4.1-.5-.2v-.6l-.2-.6-.6-.2h-.7v.2l.2.3.5.4.1.6v.5l.5.1h.3l.2.2.1.4-.2.5v.7l.8.2.7-.1.5.1.1.8v.7l.5.4.5-.2.5-.5.4-.5.4-.8.6-.7.5-.3.3.3-.1.3-.3.5-.4.4-.6.3-.1.6v.4l.6.1.6-.2.7-.5.8.2.6-.1.7.1.3.6.3 1 .2.6v.4l.1.5.5.5.5.2.5.3.1.1.2.2.2.1.1.1h.6l.6.1h1l1.1.2.6.2.1.2.3.2.1.1.2.2.1.1.1.2.1.1.1.1.1.2.3.3.5.2.4.1.2.4.3.3.5.2.3.1.3-.5h.5l.3.4.3.2v.3l-.3.5-.3.7-.4.6-.2.7-.3.7-.3.8-.6.8-.6.3-.9.5-.3.1-.7.3-.5.6-.7.6-.6.7-.7.8-.8.7-.5.2-.3-.1-.4-1-.2-.5-.3-.6-.4-.7-.3-.2-.1-.1-.4-.2-.3-.5-.2-.2.1-.6.2-.4.2-.5.1-.4v-.4l-.1-.4-.2-.3-.2-.1-.1-.2-.1-.2-.3-.4-.2-.1h-.2l-.1.1v.3l.1.5.3.2.2.3.2.5-.2.3h-.5l-.4-.2-.5-.2-.3-.3-.3.1.3.6.6.4.2.5.3.8.1.5.6.6.5.6.2.5-.2.6-.1.5-.6.2-1.5-.5-1-.5-1-.7-.5-.4-.2-.2-.1-.1-.5-.1-.4-.2-.5-.1-.4-.1-.6-.1-.4-.2-.5-.4-.4-.4v-.4l-.2-.8v-.9l-.1-.6-.6-.4-.7-.3-.8.2-.9.1-.7-.3-.2-.6-.3-.1-.1.2-.1.5.2.4.4.4.5.2.7.1.8-.1h.7l.4.4.1.5-.1.6-.1.8v.5l.2.6.4.3.3.1.5.3.5.2.4.1.5-.1.3.2.6.2.4.3.5.5.2.2v.4l.3.3.5.3.6.4.5.3.5.4.4.5.3.3-.1.7-.3.6-.2.4-.5.5-.3.4-.6.2-.7-.4h-.1l-.7-.3-.4-.2-.6.1-.3.1-.5.4-.3.2-.9-.1-.8.1-.4.2-.1.2v.2l.1.3.1.2.2.2.6.3.5.3.4.2h.5l.8.1h.3l.5-.2h1.2l.6.2h.8l.4-.3.5-.3.3-.1h.5l.6.1.4-.1.3-.4-.1-.2h-.2l-.5.1h-.7l-.7-.1-.2-.3.4-.6.2-.1h.1l.7-.5.4-.3.7-.2h.7l.1-.5.5-.3.5-.1.6.1.4.3.1.5-.2.7v.5l.1.7.2.6v.6l.1.6-.1.6-.1.6v.3l-.6.1-.2.1.1.4.3.3h.4l.3.2-.1.6-.2.6-.3.7-.4.6-.3.5-.5.8-.2.9-.2.5-.3.5-.2.7-.6.9-.6.5-.3-.1-.5-.9-.1-.4-.2-.5v-.7l.3-.5.2-.6-.1-.5-.1-.5-.1-.4-.2-.4-.2-.4-.2-.4-.2-.3-.3-.2-.2-.2-.2.1-.1.3-.2.1-.3-.1-.2-.1-.3-.4-.1-.4-.1-.5-.1-.3h-.1l-.4-.2-.5-.1h-1l-.5.1-.3.2-.2.3.1.6.3.2.4.3.6.1.4.1.2.2.2.4-.2.6-.1.3-.1.5.2.1.3-.1.3-.3.2-.2h.2l.2.1.2.4.2.2.4.1.3.2.3.2-.1.7v1.1l-.2.4-.5.6-.3.5-.3.2-.4.1-.5-.2-.4-.1-.2-.2-.2-.1-.2.2v.1l.2.8h-1.1l-.4-.2-.3-.6-.1-.6-.2-.4h-.4v.4l.2.5.1.5v.7l-.4.1-.6-.4-.1-.3-.2-.4-.3-.3-.7-.2-.5.2-.5.3-.6.3-.3.3h-.2l-.1-.3v-1.4l-.1-.3-.4-.1-.4.3-.2.6.2.7-.1 1-.5-.2h-.8l-.4.1-.4.3-.4.2-.4.1h-.2l-.4-.2-.3.1v.2l-.1.3.2.4.2.2.3.2.3-.1.3-.3.3-.3.3-.3.4-.2h.7l.3.1.3.2.1.2-.2.3.4-.1.2-.1.8.3.3.3.5.5.2.2.1.2.1.2h.5l.4-.2.3-.2.3-.2.2-.3v-.1l.3-.1.2-.1.4-.1.7.7v.5l-.4.7-.5.3-.5.4-.3.2-.1.2-.3.3-.4.3-.4.3-.2.3v.3l-.3.4.1.1h.2l1.1-.4.6-.3 1.1-.2.8-.7.3-.6.5-.7.2-.6.3-.7.4-.2.2.1.2.2.4.1.5-.1-.1.3-.5.6.3.2h.3l.3.1h.1l.1-.1v-.2l-.1-.4-.1-.3.2-.3.5-.4h.2l.4-.5.4-.1.4.2.4.3.6.6.3.4.4.3-.2.3-.4.3-.3.2-.3.5-.4.6-.1.4-.4 1.1-.2.5-.3.5-.6.9-.8.9-.1.2-.2.4-.4.3-.4-.1-.1.2.1.6.1.4v.2l-.4.3-.4.5-.5.6-.5.9-.6 1.1-.4.8-.3 1.1-.4.5-.3.2-.4-.1-.2-.1-.2-.2-.3-.3-.2-.4-.3-.6-.1-.3-.5-.7-.2-.4.1-.4h-.3l-.1-.3-.2-.3.1-.6v-.4l-.1-.8-.3-.2-.1.1h-.1l-.2.4-.1.2-.6.1-.6-.2-.4-.5-.4-.8v-.2l-.3-.2-.4.3.1.5-.2.5.1.4.4.3.2.2.1.2h.1l.3.1.4.2.3.2.4.6.2.6-.5.6-.7.3h-.3l-.1.6.1.9-.3.2-.2-.1-.1-.3-.4-.4-.1-.4-.3-.2-.3.1h-.2l-.1.1-.4.1-.7.2-.3.2-.1.4v1.1l.1.2.3-.1.2-.1.2-.3.4-.1.2.2.3.1.5.3.5.2h.5l.2-.2h.1l.3-.2.2-.5.3-.4.4-.2h.4l.4.4.5.5.4.4.3.1.4.2.1.3-.3.3-.7.1-.1.1.1.4.1.4-.1.4-.2.3v.4l.4.4.2.2.4-.1.3-.3.2-.6v-.8l.1-.5.3.2.2.4.1 1-.1 1.2.1.6v.7l-.2.2-.3.1-.3-.1-.2-.1h-.2l-.2.1h-.1l-.3-.1-.3-.1-.3-.1-.3-.1-.3-.3-.2-.1-.2-.3-.4-.6-.1-.1-.3.2-.1.5H391.2l-.3-.1h-.4l-.6-.2-.4-.2h-.3l-.8-.1-.7-.1h-.6l-.7-.1-.7-.1h-1.8l-.7.1-.5-.2-.3-.2-.3-.4-.2-.3-.1-.4-.4-.5-.3-.5-.4-.3-.2-.1-.5.1-.4.2-.2.4-.6.2-.2-.1h-.3l-.1.2-.1.3.1.1h.1v.1l.1.2.1.2h.2l.3-.1.8.2.3.1.5.1.5.4.3.3.6.5.2.1.3.1.7.3.5.1.4.1.5.2.7-.2.5-.1.5-.1h.5l.4.3.3.8-.5.1-.5.3-.5.5-.6.4-.7-.6-.2.2.2.6.1.6-.2.4v.3l.2.1.4.2.4.3.4.5.1.6v.7l-.2.7.1.2.3.1.3-.1h.1l.3-.5.1-.6-.2-.5-.1-.5-.1-.3-.2-.3-.1-1.5.2-.3.2-.4.4-.3.5-.3.2-.1h.7l.3.1h.6l.5.1.5.1.4.2.3.4.6.3.4.1.7.1.3.5.5.5.8.3.5.1.6.1.6-.3.1.3-.3.3-.1.2-.4.1-.1.7.1.9h.6l-.1.7.4-.2.3-.2.2-.4.1-.1h.3l.2.2.1.4-1 .6-.2.1-.3.1-.2.3-.1.5v.8l-.1.1-.2.4-.2.3-.1.2-.1.7-.1.6-.4.1-.3-.2-.2-.1h-.1l-.2.1-.4-.1-.2-.3-.3-.6-.2-.4-.3-.5-.3-.6-.3-.9-.2-1.3-.2.1-.1.3-.3 1.7.5.3.3.5.1.5.5 1 .5.5.5.5-.7.5-.2.5-.7.6-.8.8-.6.7-.6.9-.5.8-.4.5-.3-.4v.1l-.1-.6-.3-.1-.2.6.4.7.1.8-.3.5-.6.6-.7.5-.4.1-.6.1-.3-.1-.5-.1-.2-.1-.4-.2-.2-.4-.2-.2-.1-.3-.1-.4-.1-.7.2-.4.2-.4.3-.4v-1.2l-.1-.2-.2-.3-.2-.6v-.3"/><path fill="none" stroke="#55565A" stroke-width="3" stroke-linecap="round" stroke-linejoin="round" stroke-miterlimit="1" d="M384.1 411.3v-.7l-.3-.5-.3-.6-.2-.5-.3-.2-.1-.1-.3.3-.4.8-.3.4-.3.3-.3.3-.5.5-.4.4-.2.6-.1.5v.5l.1.5.3.4.3.3.2.5.1.6.1.6.1.2.4.3.3.2.2.6-.1.9-.5.7-.6.7-.5.1-.5.1-.5-.1-.4-.4-.6-.3-.2-.3-.7-.6-.2-.3-.1-.5v-.5l-.2-.6-.3-.2-.4-.1-.9-.2-.3-.2-.1-.4-.2-1.1-.1-.6-.1-.4v-.6l-.1-.5-.3-.2-.2-.1-.5-.3-.3-.2-.3-.2-.7-.8v-.4l-.1-.5-.1-.5-.2-.3-.2-.2-.3.1-.3.2-.5.1-.2-.1h-.5l-.2.1-.3.1-.1.1h-.6l-.2.4-.4.3h-.4l-.7.2h-.5l-.1.3.4.3.7.1.9-.1.8-.3.6-.1.7-.4h.8l.3.3.1.5.2.8.1.4.3.3.3.3.4.2.3.2.4.3-.1.3.2.6-.1.7V416.4l-.1.5-.4-.1-.3-.2-.5-.3-.3-.2v.4l.1.3.4.4.5.5.1.2.1.1.3.2.5.2.6.2.3.4.4.2.4.7.1.5v.3l-.1.5-.4.3h-.5l.1.4v1l.2.3.3.2.4.3.3.5.3.5.4.1.4.1.4.2.2.3.5.6.3.2.2.5v.6h-.5l-.3-.1-.5-.2-.3-.3v-.4l-.2-.4-.3-.3-.4-.2-.5-.2-.5-.3H374.5l-.4-.2-.3-.5-.2-.4-.1.7.1.5.2.3.2.2.4.1.3.1.4.2.3.2.5.3.2.4.4.7.5.3.4.2.5.3.3.6-.1.7v.6l.1.4.2.3h.4l.5-.2.3-.2.4.1.1.1.1.4-.1.3-.2.3-.5.6-.3-.1-.3.3-.3.2-.2.2-.1.1-.3.4h-.3v-.4l-.1-.3-.1-.2-.3-.2-.1.6.1.7-.1.5-.2.1-.8-.1-.4-.3-.5-.7-.3-.3-.5-.3-.6-.2-.7.2-.4.2-.2.1-.3-.1-.6-.1-.2-.1-.4.1-.3.2-.1.3-.3.1-.4.2-.3.1h-.4l-.3.1-.4.1-.5-.1-.2-.2-.3-.4-.4-.5-.2-.1h-.3l-.5-.1h-.5l-.5-.1-.6.1-.4.2-.2.3v.4l-.2.4v.4l.3.1.4-.5v-.5l.3-.2h.4l.6.1.7.1.2.4.3.5.3.2.3.2h.5l.4.1.5.1.2.2.4.3.3.2.6.1.6.1.6-.2.2.2.3-.2.3-.4.3-.2.3-.2.3-.2h1.2l.2.2.2.5v.3l.2.4h.8l.2.1h-.1l.6.2.9.2.7-.1.4-.5.3-.7.4-.2.5.1.5.2.3.3h.1l.3-.1.1.7.1.2.1.2.1.3.1.3-.8 1.2-.4.5-.6.6-.6.2v.4l-.3.4-.4.6-.4.3-.8.3-.4.5-.2.5-.5.1-.5.4-.1.4-.2.6.2.7.5.7.7.8.6.7.3.4.3.3.1.5-.1.1-.2.2h-.3l-.6-.4-.2-.2h-1.1l-.4-.2-.4-.2-.5-.2-.3-.1h-.6l-.2.1-.6.1h-.3l-.1-.2-.2-.2-.1-.4.1-.5-.2-.4-.4-.1-.6-.1-.5.1-.2.1-.4.2-.4.7.3.3.4.2.2-.5v-.4l.4-.1.5.3.2.3v.6l.3.4.6.3 1-.1.1.3.1.5.1.4.4.2h.5l.4-.2.4-.1.5.2.2.4-.2.7-.3.2-.5-.1-.8-.1-.2.1-.3.3-.1.4.2.6.4.2.6.1.5.3.4.5.2.6.3.3.6.2.5.2.2.2.3.6.2 1v.9l-.1.8-.3.1h-.2l-.2-.2-.2.2.1.6.1.7.2.7-.3.4-.2.2-.6.2h-.5l-.8-.1-.5.1-.1.2v.2h-.1l-.2.2-.1.3-.1.3.1.3-.1.1-.3.1h-.1l-.2-.2-.3-.1-.2-.2-.2-.2h-.2l-.3.1-.3.2h-.1l-.2-.1-.1-.2-.1-.2v-.1l-.2-.1-.1-.1-.4-.1-.6-.2-.3.1-.2-.1-.2.1-.3.2-.2.1h-.2l-.2-.3v-.5l-.2-.1-.2-.1-.2.1-.1.3v.2l.1.3-.1.1-.1.2h-.1l-.2-.1-.2-.2-.1-.1-.1-.2-.2-.1-.3-.1-.2-.3v-.7l-.1-.2h-.2l-.2.1-.1.1v.2l-.2.1H364.8l-.1-.1h-.2l-.2.2-.2.2h-.2l-.3-.1-.3-.1-.1-.4v-.2l.1-.3.1-.3v-.2l-.2-.1h-.3l-.1.1-.2.1h-.2l-.1-.2.1-.2.2-.3.1-.2-.1-.2-.3-.1h-.2l-.4.2-.2.1h-.3l-.3.1-.2.2V458.1l.1.1H361.1l.2-.1.1-.1H361.7l.1.2.1.2v.1l-.1.1-.2.1-.2.1-.3-.1-.5-.2-.2-.1h-.2l-.1-.1-.2-.2-.3-.1-.3-.1h-.2l-.2.1-.2.1-.4-.1h-.5l-.4.1-.3-.1-.3-.1-.2-.2-.1-.2-.2-.3-.2-.3-.2-.1-.2-.1-.1-.1V456.3l-.1-.2-.2-.1-.4-.1h-.1l-.3-.1-.5-.4-.2-.2-.2-.1-.2-.1-.2.1h-.2l-.1.3-.1.3v.3l-.2.3-.2.1-.2.1-.2-.2-.1-.2v-.2l-.2-.2v-.6l-.1-.3-.2-.2-.2-.2-.2-.2h-.3l-.1.1h-.1l-.1-.1-.2-.3-.3-.3-.3-.2h-.9l-.2.1-.1.1H348.1l-.1-.2-.1-.1h-.3l-.1.2-.3.2-.2-.1-.1-.1v-.1l-.3-.2-.2.1-.1.1-.1-.1-.2-.1-.2-.1-.3-.2h-.7l-.2.1h-.2l-.2-.1v-.1l-.2-.2-.2-.1-.2-.1h-.2l-.1-.1-.1-.3-.1-.2-.1-.2v-.3l-.1-.2-.2-.1-.1-.1-.2-.2V450.1l-.1-.1-.2-.2h-.2l-.1-.1-.1-.1-.2-.1h-.2l-.2.2v.2l.1.2.1.2v.2l-.1.1-.2.1h-.3l-.7-.1-.7-.1-.4-.1-.1-.1-.2-.2-.1-.1v-.2l-.2-.2h-.2l-.2.1h-.5l-.3.1-.3.2-.3.3-.3.3-.1.3v.2l-.1.3v.5l.2.2v.2l.1.3-.2.2-.2.3-.2.4-.1.3-.1.3-.1.3-.1.2-.3.2h-.6l-.5-.1-.4-.4-.3-.3-.2-.2-.3-.3-.2-.1-.4-.1h-.2l-.4.1-.3.2-.3.3-.2.2v.2l.2.5.2.3.2.2.2.4.1.2v.3l-.1.2-.2.2-.2.2-.1.3-.1.1-.2.2-.1-.1h-.2l-.2.1-.2.2-.1-.1-.1-.1-.2-.1h-.1l-.2.1-.1.3v1.2l-.1.2-.1.3-.1.4v.3l.1.2.2.2.1.3.1.4V461.8l.1.3-.1.2-.1.3-.2.2-.1.2-.1.2v.2l.1.1.1.1v.1l-.1.1v.2l-.2.3-.1.2-.2.3-.1.2-.2.3v.2l.1.3.1.1.1.3v.7l-.1.2v.2l.1.4.2.3.3.3.3.6v.8l.1.2.2.2.1.1.1.1v.4l.1.2.1.2.1.2.1.1.2.2v.4l.1.2v.3l.1.2.2.1.2.1.2.3.2.2.2.6.1.5.3.6v.7l.1.4V477.1l-.1.2-.1.3v.2l-.1.6-.2.6-.1.3-.1.4-.2.5v.5l-.1.4.1.3v.2l.1.2.1.3.1.2-.1.3-.1.3v2.4l-.1.2v.8l-.1.2-.2.3-.2.3v.2l-.1.3-.2.3-.1.1-.1.6-.1.2v.1l-.1.3v.2l-.2.3-.3.2-.1.1v.4l.2.3.1.4.1.3-.1.2v.2l-.1.3-.3.2-.2.1-.1.2-.1.3.1.2v.2l.1.3.1.4v.1l.1.4.2.5.1.4.1.5.1.3-.1.3-.1.2-.1.3-.1.1-.3.3-.2.2-.1.2-.2.2-.4.2-.2.1h-.5l-.2.1-.1.1h-.2l-.1-.1v-.1l-.2-.2h-.1l-.2.1-.3.1h-.2l-.2-.1h-.4l-.2-.1h-.4l-.3-.1-.2-.1-.1-.1-.1-.2-.3-.1h-.6l-.2.1-.3.1h-.2l-.1-.1h-.2l-.3-.1h-.1l-.2.1-.2.1-.3.1-.2-.1h-.4l-.1.1-.3.2h-.5l-.3.1-.2.1-.3.1-.4-.1h-.2l-.2-.1-.1-.2-.2-.1-.2-.1h-.1l-.1-.1v-.4l-.2-.1-.2-.3-.1-.1-.1-.2-.1-.1h-.2l-.1-.1-.1-.1-.1-.3v-.5l-.2-.1-.2-.1-.1-.1v-.3l-.1-.2-.1-.2-.1-.3-.2-.3v-.1l-.1-.2v-.3l-.1-.2v-.2l-.2-.4v-1.6l.1-.4.2-.5.1-.5v-.4l-.1-.4V487.4l.1-.4.1-.3.1-.4v-.5l-.1-.4-.2-.5-.2-.6-.4-.5-.4-.4-.4-.3-.3-.3-.3-.4-.1-.4v-.7l-.1-.3-.2-.1-.1-.3-.3-.2-.1-.1-.1-.3-.1-.3.1-.3.1-.4.1-.4.2-.5.1-.4.2-.3.2-.2.2-.3.3-.2.2-.2-3.7-.2-21-1.5-21.1-1.6-21-1.5-20.9-1.3-21.3-1.4-20.9-1.5-20.8-1.5-21.2-1.2-20.6-1.1-21.4-1.1-15.9-.9-1.1-.1-.6.1h-.7l-.1-.1-.2-.3-.2-.4-.1-.3-.2-.3-.4-.4-.4-.4-.3-.3-.2-.5v-.4l-.2-.4-.3-.3-.2-.1h-.3l-.3.1h-.3l-.2.1-.3-.1-.1-.3-.2-.5-.1-.3v-.2l-.1-.2v-1.3l-.2-.3-.2-.3-.3-.5-.1-.2-.1-.3v-.2l-.1-.4v-.3l.1-.4v-.4l-.1-.3-.3-.5-.1-.2-.1-.4v-.7l.1-.3.1-.3.3-.2.1-.2.2-.2.1-.2-.1-.3-.1-.1-.2-.3-.2-.1v-.1l-.2-.3v-.3l.2-.3v-.5l-.2-.2-.1-.1-.1-.2v-.3l.1-.3.1-.4v-.7l-.1-.2-.3-.2-.3-.3-.4-.4-.6-.9-.6-.9-.3-.4-.1-.3-.2-.2-.1-.3-.1-.3-.2-.1-.2-.1-.3-.1-.2-.2-.1-.5.1-.6.1-.6.1-.3.1-.4-.1-.5-.1-.2-.3-.4-.3-.2-.4-.1-.5-.2h-.2l-.2-.2-.1-.3v-.5l.1-.5.1-.5v-.5l-.2-.5v-.8l-.1-.6-.3-.7-.2-.6-.1-.6v-1.4l-.1-.4-.2-.4-.1-.2-.3-.4-.2-.4-.4-.7-.2-.4-.1-.3v-.7l.1-.4-.1-.5-.2-.4-.2-.5-.3-.5-.2-.3-.2-.1-.2-.2-.4-.3-.2-.3-.3-.3-.2-.2-.2-.6-.2-.4-.1-.5-.3-.5-.3-.5-.4-.4-.3-.4-.2-.3-.2-.3h-1l-.2-.1-.2-.1-.2-.4-.1-.3.1-.3.1-.4v-.4l-.1-.3-.2-.2-.2-.2-.2-.2-.2-.2V410.8l.1-.4.1-.3.3-.3.2-.3V408.9l.1-.6v-.4l-.4-1-.4-1-.2-.6-.2-.4v-.4l-.1-.5-.1-.3-.1-.4v-.3l.2-.4.1-.3.4-.1.3-.1.4-.2.3-.3.3-.2.1-.7.2-.6.1-.7.1-.4.1-.6.1-.6-.3-.4-.1-.3.1-.4.1-.6v-.4l-.2-.4-.1-.3-.2-.3-.2-.3v-.3l.1-.4.2-.3.2-.3.1-.5.2-.5.2-.5.3-.5.1-.5v-.5l-.1-.5v-.8l.1-.5.1-.5.1-.2v-.2l.2-.3h.2l.2-.1.1-.1.1-.4-.1-.4-.1-.8v-.7l-.1-.7-.1-.6v-.8l.1-.4.2-.5.1-.3.2-.3.1-.2.2-.2.1-.4.2-.6.2-.5.3-.4.2-.5.1-.2.1-.3-.1-.3v-.3l.1-.3v-.2l.2-.3.1-.3.1-.3v-.4l-.1-.3-.3-.5-.3-.7-.3-.6-.1-.4-.2-.5V371.4l-.1-.3-.1-.6.1-.7-.2-.6v-.3l-.1-.3v-.5l.1-.3v-.2l-.1-.4-.1-.3-.1-.2-.2-.1h-.4l-.2-.1-.1-.2-.3-.4-.1-.1-.2-.1-.3-.2-.1-.2-.1-.2.1-.3.2-.3.2-.3v-.2l-.1-.2-.2-.2-.1-.1-.3-.1-.4-.6-.8-.9-.8-.9-.6-.8-.3-.5-.2-.6-.1-.4-.1-.3v-.5l.2-.4.1-.6.2-.4.1-.5.1-.4-.2-.7-.1-.4-.1-.4-.2-.3v-.3l-.1-.2v-.8l-.1-.4-.2-.4-.1-.3-.3-.2-.3-.2-.2-.1-.1-.3.1-.3.2-.3.2-.4.1-.6.1-.8.1-.7-.1-.9-.1-.3v-.4l-.1-.3-.1-.2-.2-.3-.1-.3.1-.5.1-.2.1-.3v-.2l.1-.3v-.3l-.1-.2.1-.4.1-.2.1-.3.2-.4.1-.5.1-.3v-.7l-.2-.2-.1-.2-.1-.3.1-.2.2-.1h.4l.4-.1h.7l.2-.1v-.2l.1-.3v-.8l-.2-.1-.1-.1-.1-.2.1-.2.2-.1.2-.2.2-.1.3-.2.1-.3.1-.2.2-.3.2-.2.3-.2.2-.1.2-.3.2-.3.3-.3V333.5l-.1-.4-.1-.4v-.5l.2-.2.2-.2.5-.2.3-.3.3-.3.1-.2-.1-.3-.2-.3-.1-1 .1-.4v-.4l.3-.7.2-.4.2-.3.3-.4.1-.3.1-.3v-.2l-.1-.2-.1-.4v-2.4l.1-.9.1-.6v-1.6l.2-.4.3-.3.1-.2v-.3l-.1-.4-.4-1.4-.4-1.7-.2-.6.2-.4.4-.2.5-.4.3-.3.5-.6.6-.8.3-.5.2-.3.2-.2.2-.2.4-.3.2-.4.2-.3.2-.2.1-.2.4-.2.4-.1.8-.3.9-.2.7-.3.3-.1.3-.2.2-.2.1-.1v-.2l-.2-.1h-.1l-.3-.1h-.2l-.3-.1-.2-.1-.1-.3.1-.4.2-.2.2-.3.5-.3.7-.1.8.1 1.1-.1.8-.1.3-.1.1-.2.1-.2v-.4l.1-.3.1-.3.2-.2.2-.3.1-.3v-.1l-.1-.1H76l-.2-.1v-.2l.1-.3.3-.1.2-.1h.3l.2.1h.3l.2-.1.3-.1.2-.2.1-.3.1-.3.2-.1.1-.1h.2l.2.1h.1l.1-.1v-.2l-.2-.2-.4-.2-.4-.2-.4-.4-.9-.6-.6-.6-.5-.7-.5-.4-.4-.3-.3-.3-.5-.1-.5-.3-.8-.3-1.1-.5-1.1-.5-.7-.3-.5-.4-.3-.3-.1-.6v-.5l.1-.5.4-.5.3-.5.5-.3.2-.2.3-.3.1-.4v-.2l.1-.4.1-.3.3-.2h.2l.3-.1.2-.1v-.1l-.1-.2-.3-.2h-.8l-.1-.1V287.6l.2-.2.4-.1h.7l.2-.1v-.1l-.2-.2-.3-.2-.3-.3-.1-.5v-.4l.2-.3.1-.3.3-.2.4-.3.2-.3.2-.4v-.4l-.1-.3-.2-.3-.3-.3-.3-.3-.4-.1-.4-.3-.3-.2-.4-.4-.2-.4-.2-.4v-3.2l-.1-.5-.1-.5v-.7l-.2-.6-.2-.5-.3-.4-.2-.3-.2-.2-.3-.4-.1-.3-.3-.2-.2-.2-.1-.1v-.4l-.3-.3-.2-.1-.3-.2-.3-.5-2.9-3.1-.5-.7-.4-1.2-.4-2-.3-.2-.1-.2v-.3l.1-.3.1-.3.2-.3v-.1l-.2-.1-.2-.1h-.5l-.3-.2h-.2l-.2-.1-.2-.1-.1-.2.1-.3 1.2-1.2-.8-2-1.7-4.1v-.4l.1-.2.1-.2.2-.3.1-.5-.1-.4-.1-.4-.5-.3-.7-.3h-.8l-.1-.4-.3-.8 1.6-1.7-.9-1-.6-.9-.2-.3-1.5-.7-.5-.7-.1-.3v-.4l.1-.3v-.3l-.1-.3-.1-.3-.1-.4.1-.2.2-.3.1-.2.3-.2.5-1-.7-.7-.5.2-.7-.1-.4-.3-3.5-21.4-3.5-20.6-3.1-19.8-3.3-19.6-3.3-20.3-3.2-19.9-3.4-19.7-3.6-20.4-3.7-20.5-6.4-38.6 136.4-.3 83-1.4.1.4v.1l.1.1.2.2.1.2-.1.2-.2.3-.3.2-.2.3-.2.2-.1.2-.2.2-.2.1v.3l-.2.2v.5l.1.2V20.7l-.1.2.2.1.1.2.1.1v.2l-.1.1-.1-.1-.2-.1-.2-.1-.2.1-.2.2.1.2.1.2.3.3.2.1.2.2.2.3-.1.2-.1.1-.3.1h-.2l-.2-.1-.2-.2-.1-.1-.3.1v.5l-.1.2-.2.1-.2.1-.2.2-.2.1h-.3l-.2-.1-.2-.2-.2-.1-.2-.1h-.2l-.2.2V25l-.1.2H230.9l-.2-.3-.2-.1-.2.1-.3.2-.1.2-.5.4-.1.3-.1.2-.2.3-.2.2-.1.2-.2.1h-.2l-.2.1-.1.2-.1.1-.1.2H227.5l-.1.1V28.4l-.1.2-.1.2h-.4l-.1-.1-.1-.3v-.1l-.2-.1-.1.1-.1.2-.1.1-.2.2-.2.1-.2.1-.3.1h-1.1l-.1.1v.2l.1.2.1.2.1.2-.1.2-.2.1h-.1l-.3.1h-.4v.2l.1.1.2.2v.2l-.1.2-.2.2-.1.1v.5l.1.3v.2h-.4l-.2-.2-.3-.1-.2-.1-.3.1-.1.2-.1.2v.2l-.1.2-.1.3.1.2.1.2.1.2v.7l-.1.3-.1.1-.2.2-.2.1-.2-.1-.3-.1-.2-.2-.2-.1-.2.1-.2.1-.2.2v.1l-.2.1-.2.1-.1-.1-.3-.1-.1-.1-.1.1-.2.1v.3l.1.1.2.2.1.2.1.3v.2h-.2l-.2.2-.4.2-.3.2-.3.3-.3.2-.3.4v.3l.1.4.1.5v.4l.1.4v.3l-.1.4v.4l.1.2-.1.2-.1.1h-.3l-.1.2-.2.3-.1.2-.1.1-.2.1-.2.2v.2l-.2.2-.1.1-.3.2-.2.1-.2.2-.2.3-.3.3-.2.3v.3l-.1.4.1.3.1.4.2.4.1.2.1.2-.1.3-.2.2-.1.2.1.2.1.1.3.1.3.1.2.2.1.3.1.3-.2.2v.3l.1.2.2.1h.6l.4.1.3.3.2.2.2.2.3.1h.8l.2.1.3.3.1.3.1.3.3.5.5.4.7.4.7.4.7.4.6.4.5.3.4.4.3.4.2.4.2.4.3.3.4.2h.9l.7.1.5.1.4.2.3.2.3.2h.2l.3-.1.3-.1.3-.1h.4l.2.1.7.1.3.1.1.1.1.2-.1.2h-.2l-.2.3-.1.2v.3l.2.1.3.2h.2l.3.2.1.1v.4l.1.2.1.2.5.2.3.2.3.3.1.3.1.3.1.2.2.3.3.1H234l.2.2.1.2v.2l.1.1h.1l.2.1.2.1.2.2.1.1.3.4.2.3.1.3.2.3.2.3.2.2H237.3l.3.1.2.1.2.3v.3l-.1.2-.2.2.1.2v.3l.1.2.3.3.5.5.4.3h1l.2.1.1.2.1.2.1.2.1.2.4.4.5.4.6.2.4.1.4.3.5.2.4.2.4.1.2.2.2.2.2.1.3-.1.3-.2.2-.1.2-.3.1-.1.3-.2.3-.1h.4l.2.1H247.5l.2-.1.2-.1h.5l.2.1.2.1.2.2.2.1h.2l.4-.1.2-.1.3-.3.4-.1.4.1.2.1.4.1.2.1.3-.1.3-.1.2-.2.4-.1.3-.1.4.1.5.1.7.4.5.3.2.3.3.3.1.2.1.2.1.3.2.2.3.1.2.2.2.5.1.3.3.9.2.8.1.5.2.5.2.3.1.3v.7l.1.2.1.4.1.2.1.4.2.4v.4l.1.3.1.4.2.2.2.3v1l.1.6.1.3.1.1.2.2.2.3.2.1.4.2.4.3.5.4.5.4.4.4.2.3.2.4.1.4.2.9.2.8.3.6.2.5.3.5.3.5.2.3.2.3.2.2.4.3.4.3.4.4.2.2.2.4.1.4.2.5.1.4.1.8.2.8.2.5v.3l-.1.5v.6l.1.2.1.3v.5l-.1.3v.2l.1.2.2.3.1.2.2.2.2.6.1.5V101.7l.1.2.1.4.2.3.1.3.3.7.2.6.2.5.2.2.2.2.4.2.4.3.3.1.3.1.3.2.3.1.3.1.2.3.2.2.3.2.2.2.3.4.2.4.4.9.4.5.3.5.3.3.3.2.3.2.2.2.1.3v.5l-.1.4-.1.3.1.5.2.3.3.3.3.2.3.1.2.1.2.1.3.3.2.3.1.4.2.2.2.3.2.2.2.2.1.2.2.3.3.3.3.2.3.3.1.2.1.3v.7l.1.3.2.6.3.5.4.8.2.6.2.6.2.4.1.3.2.3.2.3.2.4.1.3v.4l.1.3.1.3.4.6.4.3.3.2.3.2.4.1h.3l.4.1h.4l.4.1.4.1.3.1.4.1.3.3.2.3.3.4.3.3.3.5.3.5.6.8.5.5.9.6 1 .9 1.4 1.1 1.1.9.4.3.5.3.3.2.5.1.5.1.6.1.4.1.4.2.3.1.5.6 1.3 1.1.6.4.4.1h.6l.2.1.3.2.5.5 1.3 1.2 1.5 1.2.3.3.2.3.1.3.1.4.1.4v.4l.2.4.2.1.2.1h.3l.4.1.3.3.4.4.7.6.5.5.7.6.4.5.2.4.2.5.2.6.2.4.1.3v.3l.1.2v.3l.1.2v1l.1.4.2.5.2.3.3.4.4.3.4.4.5.5.2.3.2.3.2.3.2.2.1.2.2.2v.3l.1.2v.7l-.1.5v.6l.1.5.2.4.2.8.2.3.5.6.6.5.4.2.5.1.3.1.4.1.3.1.2.2.2.3.2.3.2.4.3.3.2.2.3.2.3.2h.6l.3-.2.3-.1.3-.3.3-.1.5-.1.2.1.2.1.3.3.3.3.2.2.2.3.2.2.4.2.4.1.3.2.4.2.3.2.5.4.2.2.4.1.4.2.4.2.3.2.2.3.3.3.3.4.6.7.3.5.2.3.3.2.5.4.2.1.2.2v.2l.1.2.2.2.2.2.3.3.2.3.2.3.2.4.3.4v.3l.1.3v.9l.2.3.3.2.2.2.3.1.4.1.5.1.3.1.4.2.3.2.3.1.3.2.3.2.3.1.3.1.2.1.4.2.3.1.3.3.2.2.2.4.2.6.2.4.3.3.1.3.1.3v.2l-.2.3-.2.2h-.3l-.3.1-.2.1-.3.2v.1l-.1.2.1.2.2.4.2.3v.4l-.1.3-.2.2-.2.1h-1l-.2.2v.2l.1.3.2.2.3.1.2.2.1.2.1.3v.7l.2.5.2.3.2.2.1.2-.1.3-.1.2-.2.1-.3-.1-.2-.1-.2-.2h-.4l-.3.1-.1.3.1.3.3.2.3.3.2.4V187.8l-.1.3-.1.2.1.1.2.1.2.1.4-.2h.4l.1.1.2.1.1-.1.2-.1.2-.1.3-.1.2.2v.1l-.3.2-.1.1-.3.2-.1.2-.1.2.2.2.2.2.2.1.2.1.1.2v.2l-.1.2-.1.2.2.2.1-.1.2-.2.1-.2v-.7l.2-.3h.2l.2.2v.5l-.1.2.1.2.2.2h.2l.2.1v.2l-.1.2.1.2.2-.1.3-.1.2.1.1.1v.7l.1.3h.2l.2-.1.2-.1.2-.3.2-.1.3-.1.2.1v.4l.1.2.2.1h.1l.2-.2.2-.2h.2l.3.1.2.2v.2l-.1.2v.2l-.1.1v.1H345.8l-.2-.1h-.5l-.1.1v1l.2.1.3.3h.4l.3.1.2.1.1.3.2.2.2.2.2.1.1.1.1.1v.4l-.1.2.1.1.2.1.2.1.2.1v.2l-.1.1-.1.1h-.2l-.3-.1-.2-.1-.1-.2-.1-.2-.3-.1h-.2l-.1.2v.1l.1.2.1.2.2.2.2.1V197.9l-.1.1h-.2l-.2-.1h-.2l-.2.1V198.3l.1.3.2.2.2.2.3.3.5.2.4.4.3.4.3.2.5.1.3.1.3.1.3.2.1.3v.3l.1.3.1.2.2.1h.2l.2.1.5.2.7.1.4-.1.2-.2v-.1l-.1-.4-.1-.3v-.1l.2-.2h.2l.3.2.2.2.2.2.2.3.1.3v.2l.3.3.1.2.1.2.1.2.1.3-.1.2-.1.2-.1.2-.2.1-.1.1-.2.2-.1.1v.5l-.1.1-.1.1v.4l.2.5.2.6.2.6.3.4.4.4.6.6.6.5.5.4.5.4.3.4.2.2.3.2h.1l.3.1.3.2.3.2.1.2.2.1.4.1.5.1.9.3.9.3.7.3.5.3.4.4.3.4.4.2.2.1.3.1.3.1.3-.1h.3l.5-.1.7-.2h.4l.3.2.2.2v.2l-.1.2-.1.2-.1.2v.4h.2l.1-.1.2-.1.2-.3.1-.1.2.1.2.1.1.1v.2l-.1.2v.2l-.2.1V216.6l.2.1.1.1h.3l.2-.1h.2l.2.1.2.1.1.1.1.2.2.2.2.1h.1v.2l.1.2.1.3.2.2.2.2H370.9v-.5l.1-.1.1-.1.2.1.2.2.2.4-.1.1v.2h-.2l-.2.1-.1.1v.3l.3.1.2.1.4.1.3-.1.1-.2.3-.2h.2l.1.2.1.2.3.3.2.1.2.1.1-.1h.2l.2.2.1.2v.2l.2.1.3.3.4.1h.3l.2.1v.2l-.1.1-.1.1-.1.1-.1.1.1.2v.1l.3.2.1.1v.2l-.1.2v.2l.2.1.1-.1.1-.2h.2l.2-.1.2.1.2.2.1.1h.2l.2.1.1.1v.2l-.2.1-.2.1-.3.1-.1.1v.2l.1.1.2.1.3.1.1.2v.3l-.1.2-.1.3-.1.3v.4l-.1.4-.2.8v.3l-.1.3-.2.1h-.2l-.1-.1-.1-.1-.2-.3h-.2v.5l.1.7.1.4.2.4.3.2.2.1v.2l-.1.3v.5l.2.2.2.2.3.3.4.3.2.2.2.1.1.3-.1.1-.1.1v.4l.2.1v.1l.2.2v.5l.1.3v.5l.2.1v.1h.2l.1-.1.1-.1.1-.2h.4l.2.1.1.2v.4l-.1.1-.2.1h-.5l-.1.2-.2.2-.2.4v.2l.1.2.2.2.2.1.3-.1.1-.1h.5l.1.2.1.2.3.1.2.1.2.1.2.2v.2l-.1.4v.2l-.2.4-.1.3-.2.4-.1.2v.5l.1.1h.4l.1-.3.2-.2.2-.1h.2l.2.1v.5l.1.3h.2l.2-.1.3-.1.3.1.2.1.2.3.2.3.2.2v.4l-.1.2h-.5l-.1.1.1.2.2.1.2.2v.2l-.1.1-.1.2.2.1.2.1.1.1-.1.2-.2.2-.1.1-.2.2v.2l.1.2V244.8l-.1.2-.1.1.1.1.2.2.2.2v.1l-.1.2-.1.2-.1.1-.2.2-.1.2v.1l.2.2.1.1h.5l.3.2v.2l-.1.1-.2.1h-.2l-.4.1-.2.2-.1.1.1.1h.5l.2.1.1.1.1.2.1.2h.2l.2.1v.4l.1.1.2.1.1.1v.1l-.2.1h-.3l-.2.2-.2.1-.1.1v.2l.2.1h.1l.3-.1h.4l.2.1v.4l-.1.2-.1.1-.2.2-.1.2V251.8l-.2.1-.1.1-.1.2.1.3.1.2.2.1v.2l-.2.2-.2.2v.2l.2.2-.1.2-.2.2-.3.1-.2.2-.2.2v.3l.1.2.1.1.2.2.3.2.1.2H384.7l.3.2v.7l.2.3.2.2.1.2.1.2-.1.3-.2.2v.2l.1.3.2.2.2.2v.2H385.5l-.1-.2h-.3l-.2.2.1.3.3.1h.3l.2.1.2.2v.3l-.1.2-.2.2-.2.2-.3.3-.4.2-.4.2-.3.3-.1.2v.4l.1.2.2.3.2.2.1.3.3.3.4.6.4.4.3.5.3.3.2.3.2.3.4.3.2.2H387.6l.2-.1.1-.1h.2l.2.2.1.2.1.1.2.1-.1.4v.2l.2.1h.1l.2-.2.2-.1h.2l.1.2-.1.3v.1l.1.2.1.1.4.3.7.5.7.2.8.1.5.1h.8l.4-.1.2-.1.2-.1h.2v.5l.1.2h.1l.1-.1v-.3l.2-.2.2.1.1.2v.5h.2l.1-.1.2-.1.2.1.1.2v.3l.1.1.1.2.1.2v.2l-.1.2v.4l.1.2.2.2.2.4.5.4.8.5.4.2.4.2h.5l.3.1h.2l.2.3v.2l-.1.3-.1.2v.5l.1.2.2.2.7.8 1 1 1.1 1.1.3.4.3.1h.2l.2.1.2.2-.1.1-.1.1h-.2v.6l-.1.1h-.2l-.2.1-.2.1-.3.2-.1.2.1.1.1.2.2.1.1.2-.1.2-.2.1-.2.1-.2.3v.4l.1.3.1.6.2.5.4.6.7.8.7.9.3.4.1.3v.2l-.1.4-.1.3-.1.2.2.3.2.3.2.1.3.5.1.1v.4l-.1.1v.1l.1.2.2.2.2.1.1.1.1.2v.2l.1.2.1.1h.2l.1.2v.2l-.1.1-.1.2.1.1.2.1.1-.1.2-.1.2-.2.1-.3.1-.2.2-.1.2.1.2.2v.1l.3.3.3.2.2.1.2.3-.1.3-.2.1-.1.3-.2.3v.2l.1.1h.2l.1.2.1.2v1.2l-.1.1.1.2.1.1h.1l.2.1.1.2v.2l.1.2v.3l.1.8.1.3-.1.2-.1.1-.1.1-.2.1v.2l.1.2v.2l-.2.1h-.2l-.1.1-.1.2-.1.1h-.4l-.1.1-.1.1.1.2v.2l-.2.2h-.4l-.2.3-.1.3v.3l.2.2v.1l-.1.2-.3.1-.2.2-.2.3-.1.2v.1l.1.2.2.2.1.1.3.4.4.3v.2l-.1.2-.1.1-.2.1h-.1l-.2.2.2.2.2.1h.2l.2.1.2.1.1.2.1.2.2.2.2.1.2.2.2.1.1.3.2.3.2.3v.1l.1.2.2.1h.4l.1.1v.2l-.1.1-.3.1-.2.1v.1l.1.3.2.2.1.2v.2l.2.2.1.1.2.1v.4l-.2.2-.2-.1h-.3l-.3-.1-.4.2-.2.2-.1.3.1.1.1.2.2.1v.2l.1.2.1.1.2.3.1.1h.1l.2.1.1.2V312.7l-.2.1-.2.2-.2.2-.1.3v.2l.2.2.1.4.1.3.1.3-.1.4v.3l.1.2.1.2.3.2.3.1.2.1h1.1l.2.2.2.2.1.3.2.2.2.2.5.5.4.3.4.2.2.2.3.1.2.1h.3l.3-.1h.2l.4-.2.3-.3.5-.2.7-.3.7-.1h1.3l.7.1.3.2.3.3.2.4.2.3.2.4.2.4.6.3.6.2.8.3.4.2.4.4.4.4.4.5.4.2.3.2.2.1.5.2.6.1h.1l.1.1.2.3.7.2h.3l.6-.2.3.3.4.5.4.8.1.7.1.5h.9l.6-.2.4-.2.5-.2.4-.2.4.1.3.3.1 1.3-.1 1-.2.8-.4.4-.2-.4-.1-.7-.6-.1v.3l.2.5.2.6.2.7-.1.5-.1.2-.3.3-.2.3-.6.3-.5.3-.7.7-.7.3-.4.1-.4-.1-.7.2h-.2l-.5.4-.7.4-.4-.1v-.3l.3-.4.1-.3-.4-.4-.1-.1-.2-.2-.1-.2.2-.4.3-.2.1-.3.3-.3V329.9l-.1-.5-.1-.7-.1-.8.1-.7v-.3l-.1-.5-.4-.2-.4-.2-.5-.2-.2-.6-.3-.3-.5-.2-.6-.3-.5-.2h-.1l.1.4.4.4.7.4.4.2-.1.6v.3l.6.4.5.1.2.4.1.5-.2.4v.7l.2 1 .1.6-.2.4-.3.5-.5.2-.6-.1-.5-.2-.2-.2-.4-.2-.2.2.3.4 1 .5v.4l-.4.4-.4.3-.2.3-.4.3-.4.4-.3-.1-.4-.7-.3-.3-.3-.1-.4-.1-.4-.1-.4-.2-.3-.2-.1-.4-.1-.7.1-.4.2-.6.3-.9-.1-.3v-.6l-.1-.3-.2-.4v-.5l-.2-.1-.2-.1-.4-.4-.5-.5-.7-.5-.3-.2h-.4l-.2.2v.4l.6.1.5.2.2.5-.1 1.1.2.1.4-.4h.1l.1.2.4.3.1.5-.2.6-.3.4-.2.5-.2.7.1 1 .2.5.2.3.5.5.6.3.7.4.5.7-.2.5.4.3.5.3.3.4.5.5.9.5.6-.1.9-.1.8.3.2.2-.8.9-.7.8-.6.5-.6.4-.9.7-.7.6-.6.7-.7.7-.5-.1-.1-.6v-.3l-.4-.1-.4.1-.6.2h-.5l-.9-.6-.5-.3-.7-.1-.7-.1-.6-.1-.4.1h-.6l-.2-.6-.3-.4-.5-.4-.2-.5-.5-.3-.5-.5-.2-.7-.2-.7-.1-.4.3-.4-.5-.1-.4-.3-.2-.2-.2-.6-.1-.4-.5-.2-.6-.1-.5-.1v-.6l.1-.2.4-.6.2-.8-.6.3-.4.4-.3.6-.3.8.5.6.7.4h.6l.3.4.3.7.2.4.4.6.3.7v.6l.2.6-.4.2h-.7l-.4-.2-.3-.2-.5-.5-.4-.6-.1-.3-.1-.4-.4-.6-.3-.4-.2-.4v-.3l-.1-.4-.5-.2-.6-.2h-.4l-.2-.6-.1-.3-.2-.6-.5.1h-.3l-.4-.1-.3.1.2.5.3.3.4.4.4.5.3.4.5.2.4.2-.2.1h-.6l-.8-.3-.6-.1h-.5v.4l.4.3.5.2.6.1h1l1.3.3.2.4.1.8v.8l.4.8.9.6.9.2.7-.2h.6l.6.2.5.5.3.8-.4.8-.5.1-.8-.5-.6.2-.4.3-.7.3-.7-.1-.5-.3-.6-.4-.5-.6-.6-1.3-.3-.7-.6-.8-1-.6-.7-.1-.7.3-.6.3-.4.2-.1-.2.2-.2.5-.6.3-.7.1-.4-.3-.5-.4-.3h-.1l-.5.1-.4.6-.7.7-.1.1-.6.6-.5.5h-.2l-.1-.3v-.4l-.1-.3-.4-.1-.5-.2h-.6l-.3-.2.3-.7.2-.4.2-.4-.4-.1-.2-.2-.4.1-.5-.2v-.6l-.2-.6-.6-.2h-.7v.2l.2.3.5.4.1.6v.5l.5.1h.3l.2.2.1.4-.2.5v.7l.8.2.7-.1.5.1.1.8v.7l.5.4.5-.2.5-.5.4-.5.4-.8.6-.7.5-.3.3.3-.1.3-.3.5-.4.4-.6.3-.1.6v.4l.6.1.6-.2.7-.5.8.2.6-.1.7.1.3.6.3 1 .2.6v.4l.1.5.5.5.5.2.5.3.1.1.2.2.2.1.1.1h.6l.6.1h1l1.1.2.6.2.1.2.3.2.1.1.2.2.1.1.1.2.1.1.1.1.1.2.3.3.5.2.4.1.2.4.3.3.5.2.3.1.3-.5h.5l.3.4.3.2v.3l-.3.5-.3.7-.4.6-.2.7-.3.7-.3.8-.6.8-.6.3-.9.5-.3.1-.7.3-.5.6-.7.6-.6.7-.7.8-.8.7-.5.2-.3-.1-.4-1-.2-.5-.3-.6-.4-.7-.3-.2-.1-.1-.4-.2-.3-.5-.2-.2.1-.6.2-.4.2-.5.1-.4v-.4l-.1-.4-.2-.3-.2-.1-.1-.2-.1-.2-.3-.4-.2-.1h-.2l-.1.1v.3l.1.5.3.2.2.3.2.5-.2.3h-.5l-.4-.2-.5-.2-.3-.3-.3.1.3.6.6.4.2.5.3.8.1.5.6.6.5.6.2.5-.2.6-.1.5-.6.2-1.5-.5-1-.5-1-.7-.5-.4-.2-.2-.1-.1-.5-.1-.4-.2-.5-.1-.4-.1-.6-.1-.4-.2-.5-.4-.4-.4v-.4l-.2-.8v-.9l-.1-.6-.6-.4-.7-.3-.8.2-.9.1-.7-.3-.2-.6-.3-.1-.1.2-.1.5.2.4.4.4.5.2.7.1.8-.1h.7l.4.4.1.5-.1.6-.1.8v.5l.2.6.4.3.3.1.5.3.5.2.4.1.5-.1.3.2.6.2.4.3.5.5.2.2v.4l.3.3.5.3.6.4.5.3.5.4.4.5.3.3-.1.7-.3.6-.2.4-.5.5-.3.4-.6.2-.7-.4h-.1l-.7-.3-.4-.2-.6.1-.3.1-.5.4-.3.2-.9-.1-.8.1-.4.2-.1.2v.2l.1.3.1.2.2.2.6.3.5.3.4.2h.5l.8.1h.3l.5-.2h1.2l.6.2h.8l.4-.3.5-.3.3-.1h.5l.6.1.4-.1.3-.4-.1-.2h-.2l-.5.1h-.7l-.7-.1-.2-.3.4-.6.2-.1h.1l.7-.5.4-.3.7-.2h.7l.1-.5.5-.3.5-.1.6.1.4.3.1.5-.2.7v.5l.1.7.2.6v.6l.1.6-.1.6-.1.6v.3l-.6.1-.2.1.1.4.3.3h.4l.3.2-.1.6-.2.6-.3.7-.4.6-.3.5-.5.8-.2.9-.2.5-.3.5-.2.7-.6.9-.6.5-.3-.1-.5-.9-.1-.4-.2-.5v-.7l.3-.5.2-.6-.1-.5-.1-.5-.1-.4-.2-.4-.2-.4-.2-.4-.2-.3-.3-.2-.2-.2-.2.1-.1.3-.2.1-.3-.1-.2-.1-.3-.4-.1-.4-.1-.5-.1-.3h-.1l-.4-.2-.5-.1h-1l-.5.1-.3.2-.2.3.1.6.3.2.4.3.6.1.4.1.2.2.2.4-.2.6-.1.3-.1.5.2.1.3-.1.3-.3.2-.2h.2l.2.1.2.4.2.2.4.1.3.2.3.2-.1.7v1.1l-.2.4-.5.6-.3.5-.3.2-.4.1-.5-.2-.4-.1-.2-.2-.2-.1-.2.2v.1l.2.8h-1.1l-.4-.2-.3-.6-.1-.6-.2-.4h-.4v.4l.2.5.1.5v.7l-.4.1-.6-.4-.1-.3-.2-.4-.3-.3-.7-.2-.5.2-.5.3-.6.3-.3.3h-.2l-.1-.3v-1.4l-.1-.3-.4-.1-.4.3-.2.6.2.7-.1 1-.5-.2h-.8l-.4.1-.4.3-.4.2-.4.1h-.2l-.4-.2-.3.1v.2l-.1.3.2.4.2.2.3.2.3-.1.3-.3.3-.3.3-.3.4-.2h.7l.3.1.3.2.1.2-.2.3.4-.1.2-.1.8.3.3.3.5.5.2.2.1.2.1.2h.5l.4-.2.3-.2.3-.2.2-.3v-.1l.3-.1.2-.1.4-.1.7.7v.5l-.4.7-.5.3-.5.4-.3.2-.1.2-.3.3-.4.3-.4.3-.2.3v.3l-.3.4.1.1h.2l1.1-.4.6-.3 1.1-.2.8-.7.3-.6.5-.7.2-.6.3-.7.4-.2.2.1.2.2.4.1.5-.1-.1.3-.5.6.3.2h.3l.3.1h.1l.1-.1v-.2l-.1-.4-.1-.3.2-.3.5-.4h.2l.4-.5.4-.1.4.2.4.3.6.6.3.4.4.3-.2.3-.4.3-.3.2-.3.5-.4.6-.1.4-.4 1.1-.2.5-.3.5-.6.9-.8.9-.1.2-.2.4-.4.3-.4-.1-.1.2.1.6.1.4v.2l-.4.3-.4.5-.5.6-.5.9-.6 1.1-.4.8-.3 1.1-.4.5-.3.2-.4-.1-.2-.1-.2-.2-.3-.3-.2-.4-.3-.6-.1-.3-.5-.7-.2-.4.1-.4h-.3l-.1-.3-.2-.3.1-.6v-.4l-.1-.8-.3-.2-.1.1h-.1l-.2.4-.1.2-.6.1-.6-.2-.4-.5-.4-.8v-.2l-.3-.2-.4.3.1.5-.2.5.1.4.4.3.2.2.1.2h.1l.3.1.4.2.3.2.4.6.2.6-.5.6-.7.3h-.3l-.1.6.1.9-.3.2-.2-.1-.1-.3-.4-.4-.1-.4-.3-.2-.3.1h-.2l-.1.1-.4.1-.7.2-.3.2-.1.4v1.1l.1.2.3-.1.2-.1.2-.3.4-.1.2.2.3.1.5.3.5.2h.5l.2-.2h.1l.3-.2.2-.5.3-.4.4-.2h.4l.4.4.5.5.4.4.3.1.4.2.1.3-.3.3-.7.1-.1.1.1.4.1.4-.1.4-.2.3v.4l.4.4.2.2.4-.1.3-.3.2-.6v-.8l.1-.5.3.2.2.4.1 1-.1 1.2.1.6v.7l-.2.2-.3.1-.3-.1-.2-.1h-.2l-.2.1h-.1l-.3-.1-.3-.1-.3-.1-.3-.1-.3-.3-.2-.1-.2-.3-.4-.6-.1-.1-.3.2-.1.5H391.2l-.3-.1h-.4l-.6-.2-.4-.2h-.3l-.8-.1-.7-.1h-.6l-.7-.1-.7-.1h-1.8l-.7.1-.5-.2-.3-.2-.3-.4-.2-.3-.1-.4-.4-.5-.3-.5-.4-.3-.2-.1-.5.1-.4.2-.2.4-.6.2-.2-.1h-.3l-.1.2-.1.3.1.1h.1v.1l.1.2.1.2h.2l.3-.1.8.2.3.1.5.1.5.4.3.3.6.5.2.1.3.1.7.3.5.1.4.1.5.2.7-.2.5-.1.5-.1h.5l.4.3.3.8-.5.1-.5.3-.5.5-.6.4-.7-.6-.2.2.2.6.1.6-.2.4v.3l.2.1.4.2.4.3.4.5.1.6v.7l-.2.7.1.2.3.1.3-.1h.1l.3-.5.1-.6-.2-.5-.1-.5-.1-.3-.2-.3-.1-1.5.2-.3.2-.4.4-.3.5-.3.2-.1h.7l.3.1h.6l.5.1.5.1.4.2.3.4.6.3.4.1.7.1.3.5.5.5.8.3.5.1.6.1.6-.3.1.3-.3.3-.1.2-.4.1-.1.7.1.9h.6l-.1.7.4-.2.3-.2.2-.4.1-.1h.3l.2.2.1.4-1 .6-.2.1-.3.1-.2.3-.1.5v.8l-.1.1-.2.4-.2.3-.1.2-.1.7-.1.6-.4.1-.3-.2-.2-.1h-.1l-.2.1-.4-.1-.2-.3-.3-.6-.2-.4-.3-.5-.3-.6-.3-.9-.2-1.3-.2.1-.1.3-.3 1.7.5.3.3.5.1.5.5 1 .5.5.5.5-.7.5-.2.5-.7.6-.8.8-.6.7-.6.9-.5.8-.4.5-.3-.4v.1l-.1-.6-.3-.1-.2.6.4.7.1.8-.3.5-.6.6-.7.5-.4.1-.6.1-.3-.1-.5-.1-.2-.1-.4-.2-.2-.4-.2-.2-.1-.3-.1-.4-.1-.7.2-.4.2-.4.3-.4v-1.2l-.1-.2-.2-.3-.2-.6v-.3z"/><path fill="none" stroke="#FFFFFE" stroke-width="2" stroke-linecap="round" stroke-linejoin="round" stroke-miterlimit="1" d="M144.7 18.3c-.8.4-1.7.9-2.2 1.6-.6.7-.8 1.8-.3 2.6.3.5.9.8 1.5 1.1 1.1.6 2.1 1.5 2.8 2.5.6.8 1.1 1.8 1 2.9-.1 1.4-1.3 2.6-2.1 3.8-.8 1.2-1.3 3-.2 4 .7.7 1.9.7 2.7 1.2 1 .7 1.3 1.9 1.3 3.1 0 3.1-1.6 5.9-3.3 8.5-1.8 2.8-4 5.6-6.9 7.1-1.4.7-3.1 1.3-3.8 2.7-.2.3-.3.7-.6.9-.3.2-.7.3-1 .3-1 .1-2.1-.1-3-.5-.6-.2-1.2-.5-1.7-.3-.8.3-.9 1.3-.9 2.1 0 2.6.3 5.1.9 7.6.1.4.2.7.4 1.1.8 1.2 2.6.8 3.9 1.4 1.1.5 1.7 1.6 1.9 2.7.2 1.1.1 2.3-.1 3.5-1.2 9.3-.1 19.4-.1 28.8 0 .8 0 1.8.5 2.5.5.8 1.5 1.2 2.4 1.5l8.7 3.3c.6.2 1.7.2 1.6-.5 0-.4-.5-.6-.8-.9-.8-.7-.5-2.1.2-2.9.7-.8 1.6-1.4 2.1-2.4.4-.8.6-1.8 1.3-2.4.8-.7 2-.6 3-.4 2.6.4 5.2.8 7.6 2 .9.5 1.8 1.1 2.7 1.5 3.6 1.6 8.2.4 10.5-2.7.5-.7 1-1.5 1.6-2.1 1.3-1.4 3.2-1.9 4.6-3.1.8-.7 1.4-1.5 2-2.4 1.4-1.9 2.7-3.7 4.1-5.6.9-1.2 2.2-2.5 3.6-2 1.1.4 1.5 1.9 2.3 2.8 1.3 1.3 3.4 1.1 5.2.6.6-.1 1.3-.3 1.9-.2.6.1 1.2.3 1.7.6 1.5.8 3 1.8 4.3 2.9.9.8 2.3 2.8 3.6 2.7.8-.1 1.5-.6 1.9-1.3.5-.7.8-1.4 1.2-2.1 1.1-1.6 3-2.7 5-2.7 3.3-.1 6.4 2.4 9.7 1.6 1.8-.4 3.3-1.8 5.2-2.3.2-.1.4-.1.6 0 .3.1.4.3.6.6 1.3 1.8 3.4 3 5.6 3 .9 0 1.8-.1 2.7 0 .9.2 1.8.9 1.8 1.8 7.4-1 13.6-6.2 20.6-8.7M39.9 155.6c7.1-.9 14.2-2.6 21-4.8.8-.3 1.7-.6 2.4-1.1 2.6-2 2.2-5.9 2.8-9.2 0-.3.1-.5.3-.7.2-.2.5-.2.7-.2 5.3-.4 10.1 3.4 15.5 3.8 2.6.2 5.2-.4 7.7-1 .6-.1 1.2-.3 1.6-.7.4-.4.5-.9.7-1.5 1.2-4.5 1.7-9.2 1.6-13.9 0-.6-.1-1.2-.4-1.6-.3-.4-.8-.6-1.1-.9-.5-.5-.6-1.2-.6-1.9-.2-2.7.2-5.4 1.1-8 .1-.4.3-.8.6-1 .5-.5 1.2-.5 1.9-.6 7.2-.3 14.4-.3 21.5.1.9 0 1.9.1 2.5-.5.5-.4.6-1.1 1-1.6 1.3-1.9 4.5-1.9 5.3-4.1.4-1-1.1-4.4-1.1-4.4s2.3-.6 2.9-.9c2-1.1 4.2-.7 6.5-.5M78.7 142.5l-1 20.6 7.3 1.3-1.5 5.9 19.9.6 14.3-4.3 2 5.9 3.1 2v12l3.7-7.5s4.1-1.2 4.1-1.6c0-2.3-.7-4.1.3-6.1.4-.8 1-1.5 1.2-2.3.5-1.3.1-2.9.7-4.1.3-.7.9-1.2 1.1-1.9.2-.8-.1-1.7.1-2.4.2-.5.6-.8 1-1.2 1.1-.9 2.5-1.9 3.9-1.6 1.3.2 2.2 1.4 2.8 2.6.6 1.2 1.1 2.5 2 3.4 1.4 1.4 3.5 1.7 5.3 2.3 1.9.6 3.8 2 3.7 4 0 .5-.2 1.1.1 1.6.2.2.4.3.7.4 2.1.7 4.8.4 6.2 2.1.6.7.8 1.6 1.2 2.4.6 1.1 1.6 1.9 2.5 2.9 2.2 2.6 2.9 6.2 4.3 9.3.5 1 1 2 1.7 2.9.5.6 1 1.2 1.4 1.9 1.4 2.4 1 5.3.7 8-.1.4-.1.8-.4 1.1-.3.4-.9.4-1.4.4-6.1-.2-18.1-.1-18.1-.1v26.8h-6.8v14.3l-6.3 10.9c-.8-.5-1.4-1.4-2.3-1.9-3.8-2.2-7.6-4.4-11.3-6.7-.9-.5-1.8-1.1-2.4-2-.7-1.1-.8-2.5-1.7-3.3-1.6-1.4-4.6-.1-5.8-1.8-.6-.8-.5-1.9-1.1-2.6-.7-.9-2.1-1-3.2-.5s-1.8 1.4-2.7 2.2c-.9.8-1.9 1.5-3.1 1.4H95l-5.1-3.1-36.8-.3"/><path fill="none" stroke="#FFFFFE" stroke-width="2" stroke-linecap="round" stroke-linejoin="round" stroke-miterlimit="1" d="M171 108.2l-3.2 11.6 6.4 7.8-16.2 14.6 19.5 15.7c1.4 0 2.9-.3 4 .7 1 .9 1.6 2.2 2 3.5.9 3 1.1 6.1 1.4 9.3 0 .3 0 .7-.1.9-.2.3-.6.5-1 .6-2 .7-4.1 1.3-6 2.2-4.9 2.4-8.7 7.2-10 12.5M184.8 170.2s11.2 8.9 11.8 8.9 21.5-4.5 21.5-4.5 10.7 11.4 11 11.6 15.2-13 15.2-13c.9-2.1.2-4.4-1-6.3-.7-1.1-1.7-2.4-1.4-3.7.2-.7.7-1.3 1.2-1.9 1.6-1.8 2.8-3.9 3.5-6.2.2-.6.3-1.3 0-1.8-.7-1-2.8-.6-2.9-1.8 0-.3 0-.5.2-.7.8-1.6 3.5-2.1 3.5-4 0-.5-.2-1.1-.4-1.6-.6-1.6-.7-3.4-.3-5.1 1-3.7 2.9-7.3 5.8-9.8 7.3-6 16.4-10.4 25.9-10.2 1 0 1.9.1 2.9.3M138.7 254.4c.2 1.5 2 2.3 3.5 2.4 1.5.1 3.1-.1 4.5.6 1.7.9 2.5 2.9 2.8 4.9.3 1.9.4 4 1.3 5.7 1.2 2.3 3.8 3.6 5.2 5.8l.6.9c.6.6 1.5.8 2.3.9 2.6.5 5.2.9 7.8 1.4.8.1 1.7.3 2.3 1 .3.4.5 1 .6 1.5.9 5.5-2.3 11.5 0 16.7-5.9 2.1-11.1 6.1-14.6 11.2-.4.6-.8 1.1-1.4 1.5-.8.4-1.8.2-2.7 0-2.4-.6-4.9-1.1-7.3-1.7.1-1.2-.1-2.4-.5-3.5-1.5.1-3.8-.3-3.5-.3M139.2 303.2v7.8h-20.9v24.6H104l-2.4 14.5 4.2 1.8 2.8 10.1c-.4 2.5-3.2 3.5-5.6 2.8-1-.3-2-.7-3-.6-1.1.1-2 .8-2.9 1.3-3.6 1.8-8 .4-12 1-.5.1-1 .2-1.5.4-1.5.9-1.2 3.2-.4 4.8.7 1.6 1.6 3.5.8 5.1-.8 1.4-2.7 1.8-4.3 1.9-5.2.5-10.4 1-15.7 1.5M169.5 296h20.4v46.6h35.6c2 0 4.4.6 6 1.8 1.6 1.1 2.9 2.6 4.7 3.5 1.7.8 3.7 1 5.2 2.1 2.4 1.7 2.9 5 2.4 7.9s-1.8 5.6-2.3 8.4c-.4 2.4-.2 4.9-1.1 7.1-.7 1.8-2.1 3.4-3.4 4.8-1.6 1.8-3.2 3.5-4.8 5.3-.7.7-1.4 1.7-1.2 2.6.5 2.1 1.3 4.1 2.8 5.6 1.5 1.5 3.2 2.8 4.5 4.5 3.2 4.4 2.2 10.5 1 15.8 2.6.1 5.2.1 7.8.2-.3 8.7.3 17.5 1.1 26.2.3 3.3 1.1 7.3 4.2 8.5 1.7.6 3.7.3 5.1 1.4 1.1.8 1.5 2.2 2.2 3.4 1.7 3.1 5 5 8.4 6.1 3.4 1 7 1.3 10.4 2.1.5.1 1 .2 1.3.6.4.4.5 1 .6 1.5.8 4 1.5 8 2.3 12M241.8 175.8c2.8 2.6 7 3 10.8 2.7 2.1-.1 4.4-.3 5.9 1.1 1 1 1.3 2.5 1.6 3.9 1.5 7.2 3.8 14.1 6.9 20.7.6 1.3 1.3 2.7 2.4 3.8.9.9 1.9 1.5 2.8 2.4 2.3 2.3 2.8 6.1 5.4 8 1.9 1.4 4.8 1.7 5.7 3.9.9 2.1-.6 5 .8 6.8.4.5 1 .9 1.4 1.4 1.5 1.8.3 4.4 0 6.7-.5 3.4 1.3 7 4.3 8.7.8.5 1.7.8 2.4 1.4.7.6 1.2 1.6.8 2.5-.3.7-1.1 1.1-1.8 1.4-1.7.9-3.3 2.3-3.7 4.2-.4 1.9 1 4.2 3 4-3.7 2.2-7.1 4.6-10.4 7.4-1.1.9-2.2 2.5-1.3 3.5.8.9 2.9 1.1 2.5 2.3-2.1-.4-4.4.6-5.5 2.4 3.2.3 6.3.6 9.5 1 2.5.2 5 .5 7.2 1.5s4.2 2.9 4.7 5.4c.5 2.7-.2 5.6-.9 8.2 1.7 0 3.4 1.2 3.9 2.8.2.7.3 1.6.9 2.1.6.5 1.4.6 2.2.6 2.3 0 4.9-.1 6.2-2 .9-1.3.8-2.9.9-4.5.2-3.4 1.7-6.7 4-9.2.6-.6 1.2-1.2 1.7-1.9s.8-1.4 1.2-2.2c1.4-3.2 3.3-7 6.7-7.5 1.5-.2 3.2.3 4.3 1.4-.3-2.4 1.1-4.7 3.1-6.2s4.3-2.1 6.6-2.8c2.1-.6 4.1-1.2 6.2-1.8.3-.1.5-.1.8-.1.6 0 1 .4 1.5.8 3.1 2.6 6.6 4.7 10.4 6.2 2 .7 4 1.3 5.7 2.5 2.6 1.9 4.3 5.1 7.3 6.1 5.1-3.5 10.2-7 15.4-10.5M296.2 290.9c0 .7-7.3 40.5-7.3 40.5-.4.5-1.5.3-2.1.2s-1.2-.4-1.8-.5c-2.2-.3-3.7 2-5.5 3.1-2.2 1.4-4.9 1.3-7.4 1.9-1.8.5-3.5 1.3-5.1 2.4-3.7 2.6-6.5 6.4-10.3 8.9-4 2.8-9 4-13.9 3.5"/><ellipse fill="#09434D" cx="115.1" cy="151.4" rx="6.5" ry="6.5"/><ellipse fill="#09434D" cx="187.5" cy="242.4" rx="6.5" ry="6.5"/><ellipse fill="#09434D" cx="411.1" cy="321.4" rx="6.5" ry="6.5"/><ellipse fill="#09434D" cx="124.3" cy="142.2" rx="6.5" ry="6.5"/><ellipse fill="#09434D" cx="325.5" cy="179.7" rx="6.5" ry="6.5"/><ellipse fill="#762057" cx="172.1" cy="89.8" rx="6.5" ry="6.5"/><ellipse fill="#762057" cx="208.4" cy="124.1" rx="6.5" ry="6.5"/><ellipse fill="#762057" cx="154.6" cy="124.1" rx="6.5" ry="6.5"/><ellipse fill="#762057" cx="71" cy="275.6" rx="6.5" ry="6.5"/><ellipse fill="#762057" cx="156.9" cy="448.9" rx="6.5" ry="6.5"/><ellipse fill="#762057" cx="129.5" cy="113.2" rx="6.5" ry="6.5"/><ellipse fill="#762057" cx="108.6" cy="124.1" rx="6.5" ry="6.5"/><ellipse fill="#762057" cx="52.5" cy="96.4" rx="6.5" ry="6.5"/><ellipse fill="#762057" cx="73.4" cy="38.6" rx="6.5" ry="6.5"/><ellipse fill="#4D868E" cx="320" cy="168.2" rx="6.5" ry="6.5"/><ellipse fill="#4D868E" cx="178.6" cy="142.2" rx="6.5" ry="6.5"/><ellipse fill="#4D868E" cx="59" cy="86.9" rx="6.5" ry="6.5"/><ellipse fill="#4D868E" cx="201.9" cy="298.8" rx="6.5" ry="6.5"/><ellipse fill="#9EA700" cx="201.9" cy="164.4" rx="6.5" ry="6.5"/><ellipse fill="#9EA700" cx="300.3" cy="265.4" rx="6.5" ry="6.5"/><ellipse fill="#9EA700" cx="174.5" cy="330.3" rx="6.5" ry="6.5"/><ellipse fill="#9EA700" cx="297" cy="305.3" rx="6.5" ry="6.5"/><ellipse fill="#9EA700" cx="389.9" cy="288.6" rx="6.5" ry="6.5"/><ellipse fill="#FFBF3B" cx="124.3" cy="127.6" rx="6.5" ry="6.5"/><ellipse fill="#FFBF3B" cx="132.5" cy="142.2" rx="6.5" ry="6.5"/><ellipse fill="#7C98AB" cx="313.5" cy="179.7" rx="6.5" ry="6.5"/><ellipse fill="#7C98AB" cx="128.1" cy="155.2" rx="6.5" ry="6.5"/></svg>